<svg xmlns="http://www.w3.org/2000/svg" viewBox="0 0 910 500" width="910" height="500" preserveAspectRatio="xMidYMid meet" style="width: 100%; height: 100%; transform: translate3d(0px, 0px, 0px);"><defs><clipPath id="__lottie_element_3"><rect width="910" height="500" x="0" y="0"></rect></clipPath></defs><g clip-path="url(#__lottie_element_3)"><g transform="matrix(1,0,0,1,-34.593994140625,1.8820037841796875)" opacity="1" style="display: block;"><g opacity="1" transform="matrix(1,0,0,1,672.6950073242188,237.7740020751953)"><path fill="rgb(235,235,235)" fill-opacity="1" d=" M-110.80899810791016,-131.08999633789062 C-118.68900299072266,-117.677001953125 -145.6820068359375,-151.46600341796875 -118.27799987792969,-137.10699462890625 C-133.1439971923828,-155.5780029296875 -97.63500213623047,-130.49400329589844 -113.91899871826172,-146.86099243164062 C-128.80099487304688,-148.84500122070312 -145.80799865722656,-171.2969970703125 -160.58099365234375,-152.54800415039062 C-180.43800354003906,-125.29499816894531 -207.63299560546875,-116.13300323486328 -184.2570037841797,-105.7770004272461 C-176.7310028076172,-111.73899841308594 -175.84100341796875,-113.04000091552734 -172.84500122070312,-99.96800231933594 C-172.78599548339844,-101.1709976196289 -162.947998046875,-109.0479965209961 -166.41400146484375,-110.75599670410156 C-188.20199584960938,-122.44000244140625 -116.18599700927734,-151.58799743652344 -149.65899658203125,-125.71099853515625 C-161.03799438476562,-108.89299774169922 -113.54000091552734,-116.93000030517578 -139.23399353027344,-110.13500213623047 C-140.25999450683594,-109.94300079345703 -137.16799926757812,-108.78800201416016 -143.1750030517578,-106.60700225830078 C-146.88099670410156,-99.1989974975586 -169.9040069580078,-79.76100158691406 -188.19900512695312,-87.93399810791016 C-196.5919952392578,-80.552001953125 -200.22300720214844,-73.81800079345703 -216.62399291992188,-68.43199920654297 C-212.28199768066406,-62.590999603271484 -197.1580047607422,-53.869998931884766 -228.2429962158203,-49.34199905395508 C-226.7050018310547,-0.20800000429153442 -211.50999450683594,-52.12699890136719 -181.35299682617188,-53.28499984741211 C-178.18299865722656,-60.5890007019043 -171.77000427246094,-47.542999267578125 -172.89700317382812,-55.667999267578125 C-173.6490020751953,-68.35199737548828 -153.14599609375,-43.308998107910156 -154.17300415039062,-37.7239990234375 C-152.75,-38.05400085449219 -150.55499267578125,-39.51100158691406 -147.11700439453125,-38.34600067138672 C-144.74899291992188,-43.70800018310547 -134.98699951171875,-46.83000183105469 -135.2310028076172,-31.481000900268555 C-119.36900329589844,-19.461000442504883 -113.14900207519531,-35.573001861572266 -113.71499633789062,-25.482999801635742 C-123.08200073242188,3.010999917984009 -143.97000122070312,-17.214000701904297 -170.75100708007812,-7.406000137329102 C-191.1909942626953,-10.586999893188477 -184.11399841308594,-26.398000717163086 -189.02699279785156,-27.14299964904785 C-226.69000244140625,-33.104000091552734 -271.06201171875,16.92300033569336 -239.46600341796875,56.196998596191406 C-226.8350067138672,75.6709976196289 -199.3090057373047,64.06800079345703 -181.97500610351562,62.53900146484375 C-180.76400756835938,95.20999908447266 -176.72500610351562,81.65799713134766 -172.56900024414062,99.53399658203125 C-171.81100463867188,125.95899963378906 -169.92999267578125,197.07200622558594 -144.052001953125,175.93699645996094 C-130.5970001220703,159.87399291992188 -123.75,154.1820068359375 -122.29900360107422,134.0030059814453 C-108.66500091552734,124.177001953125 -111.8219985961914,108.83100128173828 -113.8740005493164,94.41600036621094 C-108.73699951171875,82.43800354003906 -84.78900146484375,63.678001403808594 -85.47599792480469,50.49800109863281 C-82.65299987792969,45.452999114990234 -103.92900085449219,54.53300094604492 -107.7760009765625,45.01599884033203 C-116.16300201416016,33.40299987792969 -144.16799926757812,-21.770000457763672 -115.58100128173828,12.279999732971191 C-133.6179962158203,-29.481000900268555 -85.927001953125,32.10200119018555 -94.4209976196289,42.15700149536133 C-81.73799896240234,33.698001861572266 -80.13600158691406,31.6299991607666 -64.875,23.775999069213867 C-63.89899826049805,3.6449999809265137 -83.51799774169922,17.729000091552734 -87.69200134277344,11.293000221252441 C-88.64900207519531,8.253999710083008 -95.00499725341797,-9.524999618530273 -81.34600067138672,0.453000009059906 C-84.83799743652344,-17.36400032043457 -63.97700119018555,8.166999816894531 -55.125,5.09499979019165 C-37.409000396728516,1.687999963760376 -33.099998474121094,19.398000717163086 -21.385000228881836,18.089000701904297 C-22.36199951171875,33.65999984741211 -16.39900016784668,43.40700149536133 -6.445000171661377,57.71799850463867 C-17.323999404907227,26.847999572753906 30.30500030517578,8.034000396728516 29.7810001373291,22.371000289916992 C31.45599937438965,38.91299819946289 41.86800003051758,20.29800033569336 42.520999908447266,44.854000091552734 C43.9739990234375,43.402000427246094 46.255001068115234,44.231998443603516 48.5369987487793,46.0989990234375 C49.577999114990234,39.33399963378906 56.73099899291992,39.01300048828125 62.22999954223633,49.417999267578125 C69.24500274658203,41.428001403808594 43.47999954223633,22.163999557495117 64.72100067138672,20.78700065612793 C64.33100128173828,21.308000564575195 73.11699676513672,10.803999900817871 73.01899719238281,19.74799919128418 C119.28199768066406,-2.13700008392334 68.68599700927734,-41.00400161743164 113.47899627685547,-38.96799850463867 C145.08399963378906,-54.58000183105469 152.26300048828125,-86.90899658203125 132.6719970703125,-87.41600036621094 C129.31199645996094,-102.94300079345703 203.3470001220703,-121.56300354003906 203.5260009765625,-118.01899719238281 C231.9770050048828,-135.38400268554688 175.0679931640625,-99.40699768066406 192.322998046875,-79.84200286865234 C207.80799865722656,-91.81500244140625 186.375,-109.10900115966797 215.6320037841797,-114.8280029296875 C258.6080017089844,-119.5469970703125 231.36500549316406,-135.45199584960938 249.58799743652344,-133.5800018310547 C251.81199645996094,-142.24000549316406 260.0920104980469,-133.1020050048828 265.97698974609375,-134.40499877929688 C271.06298828125,-142.44700622558594 255.27000427246094,-140.1840057373047 252.16099548339844,-142.58599853515625 C236.9499969482422,-158.50999450683594 217.72000122070312,-153.13600158691406 193.5970001220703,-153.73899841308594 C180.46499633789062,-169.0500030517578 188.44000244140625,-155.0679931640625 169.26300048828125,-164.1280059814453 C151.34500122070312,-177.11500549316406 146.79800415039062,-164.98899841308594 130.28599548339844,-165.11500549316406 C87.88999938964844,-152.6719970703125 155.48399353027344,-186.52499389648438 54.96900177001953,-170.0970001220703 C81.95899963378906,-192.85800170898438 76.26200103759766,-183.25900268554688 51.231998443603516,-197.07200622558594 C32.40599822998047,-186.18099975585938 29.29800033569336,-189.46099853515625 -9.557000160217285,-165.94700622558594 C-7.586999893188477,-162.78500366210938 -10.746000289916992,-161.447998046875 -18.479000091552734,-162.4199981689453 C-15.307999610900879,-154.88699340820312 -23.334999084472656,-147.98800659179688 -27.97100067138672,-147.7209930419922 C-29.200000762939453,-160.6820068359375 -38.42300033569336,-187.51499938964844 -34.7760009765625,-158.5030059814453 C-35.862998962402344,-153.81199645996094 -37.89099884033203,-155.19000244140625 -43.37699890136719,-156.61000061035156 C-38.207000732421875,-149.48699951171875 -73.7020034790039,-152.1479949951172 -80.5260009765625,-146.5489959716797 C-80.0199966430664,-142.61399841308594 -86.03700256347656,-137.62899780273438 -87.15599822998047,-145.61399841308594 C-92.40799713134766,-133.50100708007812 -86.40499877929688,-144.9720001220703 -110.80899810791016,-131.08999633789062z M-182.59800720214844,-102.04299926757812 C-180.8979949951172,-99.36599731445312 -183.1320037841797,-100.23400115966797 -179.69400024414062,-93.74400329589844 C-178.8260040283203,-93.68599700927734 -173.78199768066406,-107.10399627685547 -182.59800720214844,-102.04299926757812z M-158.73699951171875,-114.49199676513672 C-158.5290069580078,-113.66200256347656 -157.69900512695312,-112.83200073242188 -157.28399658203125,-112.20999908447266 C-156.8249969482422,-113.15399932861328 -156.98199462890625,-112.88700103759766 -158.73699951171875,-114.49199676513672z M-220.1510009765625,-25.48200035095215 C-219.11300659179688,-25.690000534057617 -218.28500366210938,-25.690000534057617 -217.8699951171875,-25.690000534057617 C-218.16400146484375,-26.826000213623047 -219.54400634765625,-27.82200050354004 -220.1510009765625,-25.48200035095215z"></path></g><g opacity="1" transform="matrix(1,0,0,1,249.02099609375,80.31999969482422)"><path fill="rgb(235,235,235)" fill-opacity="1" d=" M22.391000747680664,-7.870999813079834 C6.916999816894531,-35.665000915527344 -53.06999969482422,-11.800000190734863 24.582000732421875,6.004000186920166 C35.99599838256836,32.05500030517578 -6.263000011444092,13.862000465393066 43.55400085449219,35.49300003051758 C45.10200119018555,35.66400146484375 34.19200134277344,14.972999572753906 42.930999755859375,21.177000045776367 C39.53799819946289,11.527000427246094 53.06999969482422,26.08099937438965 51.33100128173828,15.607000350952148 C40.676998138427734,11.1850004196167 32.808998107910156,-10.965999603271484 22.391000747680664,-7.870999813079834z"></path></g><g opacity="1" transform="matrix(1,0,0,1,276.3659973144531,29.69499969482422)"><path fill="rgb(235,235,235)" fill-opacity="1" d=" M-52.882999420166016,-11.190999984741211 C-14.29800033569336,-1.5820000171661377 -50.27000045776367,-18.84600067138672 -34.98699951171875,-18.090999603271484 C2.556999921798706,-23.937999725341797 55.832000732421875,-29.44499969482422 -9.119999885559082,2.365000009536743 C-19.858999252319336,23.933000564575195 -22.91699981689453,13.260000228881836 -39.18899917602539,18.479999542236328 C-54.5629997253418,22.038999557495117 -17.243999481201172,19.545000076293945 -17.819000244140625,26.152999877929688 C-31.92300033569336,29.44499969482422 -43.81999969482422,23.985000610351562 -54.542999267578125,15.368000030517578 C-52.93899917602539,17.333999633789062 -21.780000686645508,4.997000217437744 -31.983999252319336,1.3849999904632568 C-44.17399978637695,8.71399974822998 -55.832000732421875,2.5320000648498535 -52.882999420166016,-11.190999984741211z"></path></g><g opacity="1" transform="matrix(1,0,0,1,359.6860046386719,89.33599853515625)"><path fill="rgb(235,235,235)" fill-opacity="1" d=" M-56.32099914550781,-73.3219985961914 C-58.86600112915039,-67.0719985961914 -91.677001953125,-52.64799880981445 -68.02200317382812,-47.731998443603516 C-1.5080000162124634,-59.3120002746582 -52.52299880981445,87.25 14.404999732971191,3.825000047683716 C26.413000106811523,-7.5 45.14799880981445,5.145999908447266 47.41299819946289,-20.003000259399414 C54.731998443603516,-52.26100158691406 32.0989990234375,-58.178001403808594 69.8280029296875,-75.81199645996094 C-2.7869999408721924,-70.44200134277344 91.6780014038086,-87.25 -10.260000228881836,-86.39299774169922 C-8.685999870300293,-83.31099700927734 -6.736000061035156,-80.6989974975586 -16.485000610351562,-81.62100219726562 C-8.909000396728516,-70.21700286865234 -40.96200180053711,-78.78099822998047 -50.512001037597656,-75.60399627685547 C-50.30400085449219,-77.47100067138672 -52.172000885009766,-74.36000061035156 -56.32099914550781,-73.3219985961914z"></path></g><g opacity="1" transform="matrix(1,0,0,1,207.1510009765625,275.95599365234375)"><path fill="rgb(235,235,235)" fill-opacity="1" d=" M26.70599937438965,-8.682000160217285 C27.381999969482422,-8.630000114440918 34.52199935913086,-16.320999145507812 30.233999252319336,-19.67799949645996 C26.663999557495117,-4.879000186920166 8.625,-8.991000175476074 4.298999786376953,-24.242000579833984 C4.298999786376953,-24.242000579833984 2.430999994277954,-23.827999114990234 2.430999994277954,-23.827999114990234 C-0.48100000619888306,-42.58599853515625 16.913000106811523,-46.6879997253418 32.10100173950195,-44.57600021362305 C33.367000579833984,-51.983001708984375 47.650001525878906,-43.78799819946289 48.90700149536133,-38.558998107910156 C46.14699935913086,-52.42300033569336 49.32600021362305,-51.26499938964844 58.409000396728516,-58.70100021362305 C57.992000579833984,-92.34200286865234 98.23400115966797,-87.06099700927734 90.3499984741211,-99.0770034790039 C88.46399688720703,-107.61499786376953 61.356998443603516,-93.99700164794922 75.49099731445312,-106.63999938964844 C124.11100006103516,-119.52999877929688 113.6259994506836,-112.38400268554688 93.0479965209961,-147.69700622558594 C78.14600372314453,-145.22300720214844 81.18000030517578,-135.8990020751953 63.84600067138672,-156.40899658203125 C68.86000061035156,-134.08299255371094 56.16999816894531,-102.2770004272461 53.887001037597656,-126.11599731445312 C52.875,-125.26000213623047 54.57500076293945,-109.65299987792969 47.244998931884766,-117.19599914550781 C48.69300079345703,-134.22900390625 29.9950008392334,-129.4320068359375 18.97800064086914,-135.4929962158203 C-0.11500000208616257,-146.8939971923828 24.992000579833984,-173.3090057373047 32.51599884033203,-169.06500244140625 C34.17599868774414,-170.30999755859375 35.62799835205078,-171.76199340820312 36.87300109863281,-172.5919952392578 C33.388999938964844,-175.2760009765625 52.58700180053711,-183.0590057373047 44.34299850463867,-189.81300354003906 C42.474998474121094,-185.66400146484375 36.87300109863281,-178.8159942626953 35.83599853515625,-184.83299255371094 C33.7400016784668,-181.95599365234375 30.048999786376953,-178.26699829101562 28.367000579833984,-183.3820037841797 C25.937000274658203,-203.6840057373047 15.430000305175781,-174.86500549316406 -28.513999938964844,-184.00900268554688 C-43.76499938964844,-187.35800170898438 -72.99299621582031,-199.29100036621094 -91.66699981689453,-190.46200561523438 C-206.9010009765625,-211.04200744628906 -127.8010025024414,-175.26300048828125 -157.1219940185547,-178.8159942626953 C-166.63499450683594,-170.08599853515625 -153.4980010986328,-172.4810028076172 -150.20399475097656,-168.05099487304688 C-180.99600219726562,-140.31399536132812 -108.46499633789062,-157.33399963378906 -154.7220001220703,-129.0070037841797 C-140.12399291992188,-124.0250015258789 -136.74600219726562,-141.89100646972656 -127.87000274658203,-148.6020050048828 C-65.96099853515625,-175.7989959716797 -55.875999450683594,-57.810001373291016 -35.744998931884766,-40.21900177001953 C-31.90399932861328,-60.801998138427734 -16.070999145507812,-19.378000259399414 -7.709000110626221,-15.381999969482422 C7.809999942779541,-3.5940001010894775 27.481000900268555,-2.180999994277954 43.30500030517578,15.802000045776367 C38.8380012512207,-13.656999588012695 33.67900085449219,8.041000366210938 26.70599937438965,-8.682000160217285z M84.17900085449219,211.04200744628906 C79.11699676513672,192.34100341796875 86.44599914550781,163.7830047607422 109.60399627685547,154.38900756835938 C118.04900360107422,137.68600463867188 131.79600524902344,113.2249984741211 146.98300170898438,108.17500305175781 C170.70700073242188,36.02299880981445 172.5570068359375,69.06400299072266 132.7449951171875,42.67499923706055 C101.7040023803711,9.062999725341797 87.02400207519531,3.257999897003174 46.41699981689453,17.461000442504883 C81.98600006103516,25.5 46.124000549316406,32.382999420166016 51.68299865722656,53.422000885009766 C50.75899887084961,70.68199920654297 73.59100341796875,85.9219970703125 79.3270034790039,91.97899627685547 C85.8280029296875,142.72900390625 49.689998626708984,199.25599670410156 84.17900085449219,211.04200744628906z"></path></g></g><g style="display: block;" transform="matrix(1,0,0,1,715.02099609375,343.6000061035156)" opacity="1"><g opacity="1" transform="matrix(1,0,0,1,51.18600082397461,41.74700164794922)"><path fill="rgb(255,221,11)" fill-opacity="1" d=" M18.363000869750977,-19.503999710083008 C17.325000762939453,-13.694000244140625 14.213000297546387,-9.958999633789062 6.120999813079834,-19.08799934387207 C4.254000186920166,-21.163000106811523 7.988999843597412,-41.49700164794922 -10.892000198364258,-28.426000595092773 C-11.722000122070312,-26.766000747680664 -12.345999717712402,-25.729000091552734 -13.59000015258789,-26.143999099731445 C-16.4950008392334,-22.822999954223633 -16.90999984741211,-17.429000854492188 -20.229999542236328,-22.408000946044922 C-20.645000457763672,-22.615999221801758 -20.85300064086914,-22.82200050354004 -21.059999465942383,-22.82200050354004 C-23.135000228881836,-19.917999267578125 -25.41699981689453,-16.599000930786133 -27.906999588012695,-14.524999618530273 C-30.604000091552734,-10.788999557495117 -33.715999603271484,-6.8480000495910645 -37.24300003051758,-6.8480000495910645 C-39.111000061035156,-6.639999866485596 -42.222999572753906,-5.394999980926514 -44.91999816894531,-3.5269999504089355 C-45.12699890136719,-3.319999933242798 -45.125999450683594,-2.9049999713897705 -45.125999450683594,-2.490000009536743 C-46.16400146484375,8.71399974822998 -48.862998962402344,4.980000019073486 -43.67499923706055,17.636999130249023 C-38.90399932861328,29.46299934387207 -50.9370002746582,34.650001525878906 -23.341999053955078,26.55900001525879 C-6.120999813079834,21.57900047302246 -3.4240000247955322,17.42799949645996 8.402999877929688,31.32900047302246 C11.307000160217285,34.64899826049805 15.666000366210938,39.00699996948242 20.02199935913086,40.04499816894531 C22.304000854492188,40.45899963378906 33.29999923706055,41.49700164794922 38.902000427246094,40.25199890136719 C42.637001037597656,34.44200134277344 50.93600082397461,23.860000610351562 47.617000579833984,8.092000007629395 C46.57899856567383,2.9040000438690186 33.29999923706055,-2.2829999923706055 27.9060001373291,-9.960000038146973 C23.340999603271484,-16.18400001525879 26.660999298095703,-22.201000213623047 23.548999786376953,-25.93600082397461 C22.926000595092773,-21.993000030517578 21.475000381469727,-18.881000518798828 18.363000869750977,-19.503999710083008z"></path></g></g><g style="display: block;" transform="matrix(1,0,0,1,698.4230346679688,225.12799072265625)" opacity="1"><g opacity="1" transform="matrix(1,0,0,1,16.95199966430664,24.525999069213867)"><path fill="rgb(255,221,11)" fill-opacity="1" d=" M15.041999816894531,-10.581999778747559 C15.041999816894531,-10.581999778747559 12.553000450134277,-10.166000366210938 11.307999610900879,-16.805999755859375 C10.685999870300293,-19.709999084472656 1.3489999771118164,-24.275999069213867 -1.3489999771118164,-14.939000129699707 C-3.009000062942505,-9.751999855041504 -1.7640000581741333,-7.677999973297119 -5.290999889373779,-4.7729997634887695 C-16.70199966430664,4.564000129699707 -8.402999877929688,6.8470001220703125 -14.213000297546387,16.599000930786133 C-14.213000297546387,17.013999938964844 -11.307999610900879,24.275999069213867 -9.854999542236328,13.071999549865723 C-9.64799976348877,11.411999702453613 -4.460999965667725,10.996999740600586 1.9709999561309814,6.8470001220703125 C7.364999771118164,3.319999933242798 11.515000343322754,-1.8669999837875366 13.383000373840332,-4.564000129699707 C14.420000076293945,-6.017000198364258 16.70199966430664,-4.565000057220459 15.041999816894531,-10.581999778747559z"></path></g></g><g style="display: block;" transform="matrix(1,0,0,1,571.9190063476562,371.3459777832031)" opacity="1"><g opacity="1" transform="matrix(1,0,0,1,4.644000053405762,3.700000047683716)"><path fill="rgb(255,221,11)" fill-opacity="1" d=" M-3.4159998893737793,-1.5260000228881836 C-4.394000053405762,0.12399999797344208 -3.3459999561309814,2.813999891281128 -0.8889999985694885,3.450000047683716 C4.394000053405762,2.691999912261963 1.2369999885559082,-3.450000047683716 -3.4159998893737793,-1.5260000228881836z"></path></g></g><g style="display: block;" transform="matrix(1,0,0,1,548.6210327148438,18.682994842529297)" opacity="1"><g opacity="1" transform="matrix(1,0,0,1,66.95500183105469,32.617000579833984)"><path fill="rgb(255,221,11)" fill-opacity="1" d=" M-19.39900016784668,-6.223999977111816 C-24.586000442504883,-5.809000015258789 -46.994998931884766,3.5269999504089355 -50.729000091552734,8.71399974822998 C-53.42599868774414,12.449000358581543 -66.70500183105469,22.408000946044922 -55.08700180053711,28.84000015258789 C-54.87799835205078,29.04800033569336 -39.525001525878906,32.367000579833984 -44.0890007019043,30.084999084472656 C-55.08700180053711,24.275999069213867 -47.82400131225586,11.411999702453613 -39.11000061035156,7.885000228881836 C-33.92300033569336,5.809999942779541 -29.357999801635742,2.490000009536743 -23.756000518798828,2.697999954223633 C-22.304000854492188,2.9049999713897705 -6.120999813079834,-7.468999862670898 -19.39900016784668,-6.223999977111816z"></path></g></g><g style="display: block;" transform="matrix(1,0,0,1,548.6199951171875,18.682998657226562)" opacity="1"><g opacity="1" transform="matrix(1,0,0,1,66.95500183105469,32.617000579833984)"><path fill="rgb(255,221,11)" fill-opacity="1" d=" M50.314998626708984,-31.7450008392334 C32.055999755859375,-32.367000579833984 37.86600112915039,-23.238000869750977 41.80799865722656,-22.822999954223633 C42.845001220703125,-22.822999954223633 66.70500183105469,-8.505999565124512 56.53900146484375,-26.972000122070312 C55.91600036621094,-28.216999053955078 51.9739990234375,-31.7450008392334 50.314998626708984,-31.7450008392334z"></path></g></g><g style="display: block;" transform="matrix(1,0,0,1,495.2979736328125,43.1670036315918)" opacity="1"><g opacity="1" transform="matrix(1,0,0,1,194.66099548339844,81.06400299072266)"><path fill="rgb(255,221,11)" fill-opacity="1" d=" M75.73100280761719,33.715999603271484 C79.6719970703125,42.637001037597656 79.05000305175781,62.14099884033203 88.38700103759766,53.21900177001953 C91.91500091552734,49.900001525878906 93.36699676513672,20.851999282836914 83.40799713134766,30.81100082397461 C82.78500366210938,31.43400001525879 70.33599853515625,24.378999710083008 88.38700103759766,18.155000686645508 C105.81600189208984,11.930000305175781 92.74500274658203,5.913000106811523 121.79199981689453,4.875999927520752 C122.41500091552734,4.875999927520752 129.88299560546875,-0.7260000109672546 129.88299560546875,-0.9330000281333923 C143.5780029296875,-5.083000183105469 137.14500427246094,0.3109999895095825 149.80099487304688,-8.817999839782715 C150.00900268554688,-8.817999839782715 150.4239959716797,-9.024999618530273 150.63099670410156,-9.232999801635742 C151.46099853515625,-8.196000099182129 152.91400146484375,-7.1579999923706055 154.15899658203125,-5.705999851226807 C159.96800231933594,0.5189999938011169 146.27499389648438,3.2160000801086426 142.33299255371094,8.194999694824219 C137.97500610351562,13.79800033569336 135.48599243164062,19.399999618530273 134.0330047607422,26.45400047302246 C133.6179962158203,28.73699951171875 133.6179962158203,37.45000076293945 137.14500427246094,37.0359992980957 C140.2570037841797,36.41299819946289 144.40699768066406,31.22599983215332 145.23699951171875,28.320999145507812 C147.10400390625,20.645000457763672 145.23699951171875,10.270999908447266 150.83900451660156,5.083000183105469 C154.781005859375,1.3489999771118164 155.61099243164062,1.9709999561309814 160.79800415039062,1.3489999771118164 C162.66600036621094,0.9340000152587891 167.22999572753906,-1.9709999561309814 170.3419952392578,-3.63100004196167 C171.37899780273438,-3.8380000591278076 172.41799926757812,-4.252999782562256 173.4550018310547,-4.668000221252441 C173.4550018310547,-4.668000221252441 173.66200256347656,-4.460999965667725 173.66200256347656,-4.460999965667725 C174.07699584960938,-4.668000221252441 173.8699951171875,-4.668000221252441 174.28500366210938,-4.875999927520752 C174.49200439453125,-4.875999927520752 174.49200439453125,-5.083000183105469 174.49200439453125,-5.083000183105469 C177.18899536132812,-6.328000068664551 180.093994140625,-8.196000099182129 183.6219940185547,-11.100000381469727 C188.18600463867188,-14.626999855041504 194.41099548339844,-26.660999298095703 187.56300354003906,-32.88600158691406 C174.90699768066406,-44.505001068115234 174.49200439453125,-28.11400032043457 154.15899658203125,-30.81100082397461 C142.125,-32.47100067138672 139.427001953125,-34.75299835205078 137.14500427246094,-37.24300003051758 C136.5229949951172,-38.69499969482422 135.2779998779297,-39.939998626708984 133.2030029296875,-41.80699920654297 C131.1280059814453,-43.88199996948242 127.80799865722656,-43.67499923706055 124.6969985961914,-43.67499923706055 C122.62200164794922,-44.09000015258789 120.33899688720703,-44.297000885009766 117.43399810791016,-44.71200180053711 C115.36000061035156,-45.54199981689453 114.322998046875,-46.37200164794922 111.6259994506836,-47.617000579833984 C108.72000122070312,-48.86199951171875 97.93099975585938,-50.106998443603516 94.61199951171875,-49.89899826049805 C90.46099853515625,-49.48400115966797 89.83899688720703,-50.106998443603516 89.63200378417969,-46.37200164794922 C89.63200378417969,-46.37200164794922 89.63200378417969,-45.54199981689453 89.63200378417969,-45.54199981689453 C76.35299682617188,-44.505001068115234 65.35700225830078,-38.69499969482422 61.83000183105469,-42.22200012207031 C51.87099838256836,-51.76599884033203 56.849998474121094,-59.236000061035156 39.00600051879883,-49.89899826049805 C35.6870002746582,-48.03200149536133 30.084999084472656,-51.9739990234375 20.95599937438965,-51.558998107910156 C14.939000129699707,-51.35200119018555 -1.4529999494552612,-46.16400146484375 -1.4529999494552612,-53.426998138427734 C-1.4529999494552612,-65.25299835205078 17.63599967956543,-64.00800323486328 6.017000198364258,-73.13700103759766 C-3.941999912261963,-80.81400299072266 -45.23099899291992,-59.6510009765625 -48.34299850463867,-59.6510009765625 C-77.5979995727539,-59.6510009765625 -49.380001068115234,-46.57899856567383 -72.61900329589844,-47.617000579833984 C-75.52400207519531,-47.617000579833984 -77.18299865722656,-21.68199920654297 -83.40799713134766,-36.619998931884766 C-83.61599731445312,-37.24300003051758 -82.99299621582031,-60.6879997253418 -91.70700073242188,-53.21900177001953 C-99.38400268554688,-46.7869987487793 -75.93900299072266,-30.81100082397461 -111.41699981689453,-32.055999755859375 C-115.7750015258789,-32.055999755859375 -118.05699920654297,-23.548999786376953 -132.99600219726562,-27.9060001373291 C-142.7480010986328,-30.81100082397461 -137.56100463867188,-5.290999889373779 -150.83900451660156,-28.11400032043457 C-153.1219940185547,-31.847999572753906 -159.3459930419922,0.10400000214576721 -176.77499389648438,-14.626999855041504 C-180.093994140625,-17.531999588012695 -187.77099609375,-28.736000061035156 -172.41700744628906,-21.68199920654297 C-163.49600219726562,-17.531999588012695 -152.49899291992188,-32.47100067138672 -175.11500549316406,-34.13100051879883 C-176.15199279785156,-34.13100051879883 -180.9239959716797,-35.99800109863281 -181.54600524902344,-37.45100021362305 C-184.86700439453125,-30.81100082397461 -194.41099548339844,-38.487998962402344 -182.37600708007812,-15.041999816894531 C-179.6790008544922,-9.4399995803833 -183.6219940185547,-14.626999855041504 -178.4340057373047,-9.024999618530273 C-176.98199462890625,-7.366000175476074 -164.11900329589844,14.420000076293945 -170.5500030517578,17.94700050354004 C-175.11500549316406,20.229999542236328 -176.36000061035156,23.341999053955078 -178.4340057373047,27.284000396728516 C-181.75399780273438,33.92399978637695 -175.73699951171875,37.8650016784668 -168.68299865722656,45.54199981689453 C-164.947998046875,49.48500061035156 -145.02999877929688,48.03200149536133 -148.76400756835938,66.08300018310547 C-151.66900634765625,80.81400299072266 -136.7310028076172,80.19200134277344 -127.60099792480469,79.15399932861328 C-120.75399780273438,78.3239974975586 -121.37699890136719,72.93000030517578 -120.96199798583984,64.83799743652344 C-120.75399780273438,54.25699996948242 -140.0500030517578,60.68899917602539 -128.8459930419922,43.46699905395508 C-123.66000366210938,35.58300018310547 -75.31600189208984,61.72600173950195 -84.23799896240234,26.868999481201172 C-84.65299987792969,25.00200080871582 -89.83899688720703,27.698999404907227 -79.46499633789062,20.645000457763672 C-69.09100341796875,13.79800033569336 -64.11199951171875,28.73699951171875 -48.965999603271484,21.059999465942383 C-44.60900115966797,18.777000427246094 -35.47999954223633,27.9060001373291 -34.23500061035156,28.52899932861328 C-19.711000442504883,43.2599983215332 -14.109000205993652,32.47100067138672 -7.26200008392334,36.20600128173828 C-3.319999933242798,38.279998779296875 25.104999542236328,36.62099838256836 25.520000457763672,26.45400047302246 C25.934999465942383,9.64799976348877 34.23400115966797,31.641000747680664 49.79499816894531,22.927000045776367 C57.47200012207031,18.56999969482422 65.35700225830078,10.270999908447266 75.73100280761719,33.715999603271484z"></path></g></g><g style="display: block;" transform="matrix(1,0,0,1,508.78399658203125,221.39300537109375)" opacity="1"><g opacity="1" transform="matrix(1,0,0,1,10.416000366210938,11.557999610900879)"><path fill="rgb(255,221,11)" fill-opacity="1" d=" M-9.75100040435791,-2.8010001182556152 C-6.223999977111816,1.9709999561309814 -7.46999979019165,-1.555999994277954 -3.941999912261963,5.290999889373779 C-3.941999912261963,5.290999889373779 3.5260000228881836,11.307999610900879 2.697000026702881,-0.10400000214576721 C2.489000082015991,-3.2160000801086426 10.166000366210938,-8.196000099182129 3.5260000228881836,-10.6850004196167 C1.8669999837875366,-11.307999610900879 -4.150000095367432,-11.100000381469727 -4.565000057220459,-9.232999801635742 C-5.603000164031982,-6.328000068664551 -10.166000366210938,-3.63100004196167 -9.75100040435791,-2.8010001182556152z"></path></g></g><g style="display: block;" transform="matrix(1,0,0,1,500.17901611328125,219.7259979248047)" opacity="1"><g opacity="1" transform="matrix(1,0,0,1,5.951000213623047,4.355000019073486)"><path fill="rgb(255,221,11)" fill-opacity="1" d=" M-2.9049999713897705,-0.15600000321865082 C-5.701000213623047,-3.4619998931884766 4.656000137329102,-4.105000019073486 5.701000213623047,-4.046999931335449 C4.114999771118164,0.04800000041723251 1.656000018119812,4.104000091552734 -2.9049999713897705,-0.15600000321865082z"></path></g></g><g style="display: block;" transform="matrix(1,0,0,1,474.1340026855469,194.21299743652344)" opacity="1"><g opacity="1" transform="matrix(1,0,0,1,8.96399974822998,11.557000160217285)"><path fill="rgb(255,221,11)" fill-opacity="1" d=" M-2.697000026702881,6.328000068664551 C-0.41499999165534973,11.307000160217285 1.659999966621399,5.499000072479248 0,1.1419999599456787 C-0.2070000022649765,0.5189999938011169 -0.621999979019165,-4.046999931335449 1.8669999837875366,-3.8389999866485596 C8.71500015258789,-3.63100004196167 8.090999603271484,-11.307999610900879 2.0739998817443848,-7.366000175476074 C-1.2450000047683716,-5.290999889373779 -1.8669999837875366,-8.402000427246094 -6.015999794006348,-5.083000183105469 C-7.4679999351501465,-3.8380000591278076 -8.71500015258789,-2.384999990463257 -7.26200008392334,-0.3109999895095825 C-6.017000198364258,1.7640000581741333 -3.5260000228881836,4.668000221252441 -2.697000026702881,6.328000068664551z"></path></g></g><g style="display: block;" transform="matrix(1,0,0,1,459.885009765625,217.47900390625)" opacity="1"><g opacity="1" transform="matrix(1,0,0,1,3.944999933242798,2.9070000648498535)"><path fill="rgb(255,221,11)" fill-opacity="1" d=" M-1.8949999809265137,-1.440000057220459 C1.8919999599456787,-2.6570000648498535 3.694999933242798,2.6570000648498535 -2.552000045776367,0.9660000205039978 C-3.694999933242798,0.07699999958276749 -3.309999942779541,-0.45399999618530273 -1.8949999809265137,-1.440000057220459z"></path></g></g><g style="display: block;" transform="matrix(1,0,0,1,452.97198486328125,89.8489990234375)" opacity="1"><g opacity="1" transform="matrix(1,0,0,1,16.43400001525879,31.37299919128418)"><path fill="rgb(255,221,11)" fill-opacity="1" d=" M-15.97599983215332,11.41100025177002 C-16.18400001525879,-0.41499999165534973 -9.958999633789062,6.223999977111816 -8.300000190734863,-6.224999904632568 C-7.885000228881836,-8.71399974822998 -3.7339999675750732,-13.694000244140625 1.8669999837875366,-18.673999786376953 C6.017000198364258,-22.408000946044922 12.449000358581543,-31.12299919128418 14.315999984741211,-29.670000076293945 C16.18400001525879,-28.218000411987305 10.166999816894531,-10.996000289916992 2.9040000438690186,-5.809000015258789 C-2.2820000648498535,-2.0739998817443848 -4.979000091552734,4.979000091552734 2.697000026702881,6.8470001220703125 C4.980000019073486,7.26200008392334 3.5269999504089355,11.82699966430664 0.41499999165534973,13.902000427246094 C-3.111999988555908,16.18400001525879 -8.092000007629395,31.121999740600586 -11.41100025177002,22.614999771118164 C-12.86400032043457,18.8799991607666 -10.166999816894531,15.97599983215332 -15.97599983215332,11.41100025177002z"></path></g></g><g style="display: block;" transform="matrix(1,0,0,1,435.5429992675781,150.2259979248047)" opacity="1"><g opacity="1" transform="matrix(1,0,0,1,16.22599983215332,18.715999603271484)"><path fill="rgb(255,221,11)" fill-opacity="1" d=" M-1.8669999837875366,-17.22100067138672 C-1.24399995803833,-12.449000358581543 15.97599983215332,-18.465999603271484 9.960000038146973,-9.128999710083008 C5.809999942779541,-2.9049999713897705 15.769000053405762,4.565000057220459 11.619999885559082,6.223999977111816 C7.053999900817871,8.092000007629395 2.490000009536743,18.465999603271484 -5.394000053405762,8.71399974822998 C-7.468999862670898,6.223999977111816 -12.656000137329102,11.826000213623047 -10.581000328063965,1.2450000047683716 C-9.75100040435791,-2.697000026702881 -15.97599983215332,-12.241999626159668 -9.336000442504883,-13.486000061035156 C-8.092000007629395,-13.694000244140625 -3.5269999504089355,-13.694000244140625 -3.111999988555908,-15.97599983215332 C-2.2820000648498535,-16.183000564575195 -1.8669999837875366,-16.597999572753906 -1.8669999837875366,-17.22100067138672z"></path></g></g><g style="display: block;" transform="matrix(1,0,0,1,438.6549987792969,173.87899780273438)" opacity="1"><g opacity="1" transform="matrix(1,0,0,1,5.748000144958496,6.993000030517578)"><path fill="rgb(255,221,11)" fill-opacity="1" d=" M-1.9709999561309814,-3.8389999866485596 C-3.4240000247955322,-5.499000072479248 -0.7260000109672546,-5.705999851226807 0.3109999895095825,-6.328000068664551 C1.3489999771118164,-6.743000030517578 2.385999917984009,-3.630000114440918 4.254000186920166,-2.5929999351501465 C5.498000144958496,-1.9709999561309814 4.875999927520752,2.5940001010894775 2.177999973297119,0.9340000152587891 C0.3109999895095825,-0.10400000214576721 -0.9340000152587891,6.74399995803833 -3.4240000247955322,1.1410000324249268 C-3.8380000591278076,0.3109999895095825 -2.8010001182556152,0.7260000109672546 -4.460999965667725,-1.7630000114440918 C-5.498000144958496,-3.4230000972747803 -2.178999900817871,-4.046999931335449 -1.9709999561309814,-3.8389999866485596z"></path></g></g><g style="display: block;" transform="matrix(1,0,0,1,433.260009765625,153.5469970703125)" opacity="1"><g opacity="1" transform="matrix(1,0,0,1,6.163000106811523,8.756999969482422)"><path fill="rgb(255,221,11)" fill-opacity="1" d=" M-5.289999961853027,0.8299999833106995 C-2.5929999351501465,1.0379999876022339 -1.555999994277954,-8.506999969482422 3.007999897003174,-3.941999912261963 C4.252999782562256,-2.697000026702881 3.8380000591278076,0.621999979019165 4.252999782562256,2.9049999713897705 C5.913000106811523,8.506999969482422 0.9340000152587891,3.319999933242798 -0.5189999938011169,4.150000095367432 C-1.7640000581741333,4.771999835968018 -5.913000106811523,3.941999912261963 -5.498000144958496,1.4529999494552612 C-5.289999961853027,1.0379999876022339 -5.498000144958496,0.8299999833106995 -5.289999961853027,0.8299999833106995z"></path></g></g><g style="display: block;" transform="matrix(1,0,0,1,409.60699462890625,166.2030029296875)" opacity="1"><g opacity="1" transform="matrix(1,0,0,1,18.715999603271484,18.0939998626709)"><path fill="rgb(255,221,11)" fill-opacity="1" d=" M-9.958999633789062,4.564000129699707 C-7.468999862670898,4.14900016784668 -6.8470001220703125,6.638999938964844 -4.14900016784668,9.128999710083008 C6.017000198364258,17.843000411987305 1.659999966621399,8.505999565124512 10.166000366210938,8.090999603271484 C18.465999603271484,7.883999824523926 14.939000129699707,1.8669999837875366 13.901000022888184,-0.8309999704360962 C12.034000396728516,-5.394999980926514 13.071000099182129,-4.980000019073486 13.901000022888184,-7.26200008392334 C17.22100067138672,-16.392000198364258 6.8470001220703125,-17.843000411987305 -1.659999966621399,-14.107999801635742 C-3.319999933242798,-13.486000061035156 -11.619000434875488,-13.694000244140625 -14.315999984741211,-11.82699966430664 C-18.465999603271484,-8.92199993133545 -10.788999557495117,-7.677000045776367 -10.37399959564209,-4.150000095367432 C-10.166999816894531,-3.319999933242798 -8.298999786376953,-1.659999966621399 -7.677000045776367,-1.659999966621399 C-7.053999900817871,1.4520000219345093 -4.771999835968018,1.0369999408721924 -8.92199993133545,3.319000005722046 C-9.75100040435791,3.7339999675750732 -8.71399974822998,4.355999946594238 -9.958999633789062,4.564000129699707z"></path></g></g><g style="display: block;" transform="matrix(1,0,0,1,405.8730163574219,125.12100219726562)" opacity="1"><g opacity="1" transform="matrix(1,0,0,1,12.906999588012695,21.725000381469727)"><path fill="rgb(255,221,11)" fill-opacity="1" d=" M-11.20300006866455,-6.951000213623047 C-9.75100040435791,-4.046999931335449 -7.677000045776367,-0.7260000109672546 -5.6020002365112305,-0.9330000281333923 C-3.734999895095825,-0.9330000281333923 -2.490000009536743,0.10300000011920929 -2.9049999713897705,1.3480000495910645 C-3.319999933242798,3.2160000801086426 -5.39300012588501,5.704999923706055 -6.8460001945495605,6.949999809265137 C-9.543000221252441,9.854999542236328 -11.82699966430664,12.343999862670898 -7.883999824523926,12.13700008392334 C-3.941999912261963,12.13700008392334 -9.128999710083008,16.28700065612793 -9.128999710083008,16.28700065612793 C-10.581000328063965,17.5310001373291 -11.619000434875488,18.985000610351562 -9.128999710083008,20.229999542236328 C-6.224999904632568,21.475000381469727 -0.41499999165534973,20.437000274658203 3.7339999675750732,18.56999969482422 C4.35699987411499,18.155000686645508 5.394999980926514,17.531999588012695 6.223999977111816,17.118000030517578 C12.656000137329102,12.760000228881836 9.338000297546387,7.364999771118164 5.603000164031982,2.799999952316284 C1.8680000305175781,-1.3489999771118164 -1.0369999408721924,-8.402999877929688 -3.319999933242798,-8.817999839782715 C-2.2820000648498535,-10.062000274658203 0.8299999833106995,-11.930999755859375 -0.621999979019165,-14.213000297546387 C0.621999979019165,-18.363000869750977 -6.8470001220703125,-13.59000015258789 -4.771999835968018,-17.531999588012695 C-2.697000026702881,-21.474000930786133 -10.373000144958496,-18.985000610351562 -11.20300006866455,-15.458000183105469 C-12.032999992370605,-11.930999755859375 -12.656000137329102,-10.685999870300293 -11.20300006866455,-6.951000213623047z"></path></g></g><g style="display: block;" transform="matrix(1,0,0,1,406.4960021972656,146.90699768066406)" opacity="1"><g opacity="1" transform="matrix(1,0,0,1,2.427999973297119,4.191999912261963)"><path fill="rgb(255,221,11)" fill-opacity="1" d=" M-1.7630000114440918,0.41499999165534973 C-1.7630000114440918,-0.20800000429153442 -2.178999900817871,-2.9049999713897705 -1.3489999771118164,-2.9049999713897705 C-1.3489999771118164,-3.111999988555908 0.31200000643730164,-3.941999912261963 0.9340000152587891,-2.2820000648498535 C2.178999900817871,0.6230000257492065 -1.3480000495910645,3.941999912261963 -1.7630000114440918,0.41499999165534973z"></path></g></g><g style="display: block;" transform="matrix(1,0,0,1,253.99700927734375,292.9750061035156)" opacity="1"><g opacity="1" transform="matrix(1,0,0,1,47.555999755859375,59.694000244140625)"><path fill="rgb(255,221,11)" fill-opacity="1" d=" M24.274999618530273,9.232000350952148 C34.64899826049805,-5.705999851226807 47.305999755859375,-16.70199966430664 21.78499984741211,-21.888999938964844 C-7.054999828338623,-27.9060001373291 -6.639999866485596,-59.444000244140625 -21.371000289916992,-40.5629997253418 C-23.238000869750977,-38.07400131225586 -46.06100082397461,-35.790000915527344 -35.479000091552734,-23.134000778198242 C-28.218000411987305,-14.626999855041504 -29.46299934387207,-17.739999771118164 -36.10200119018555,-10.062999725341797 C-47.305999755859375,3.009000062942505 -12.86400032043457,11.928999900817871 -12.241999626159668,12.967000007629395 C4.35699987411499,38.073001861572266 -6.017000198364258,23.548999786376953 -8.92199993133545,47.61800003051758 C-10.37399959564209,59.444000244140625 -1.2450000047683716,54.25600051879883 0.621999979019165,43.67399978637695 C1.659999966621399,36.41299819946289 25.312999725341797,38.69499969482422 24.274999618530273,12.967000007629395 C24.274999618530273,11.307000160217285 24.066999435424805,9.4399995803833 24.274999618530273,9.232000350952148z"></path></g></g><g style="display: block;" transform="matrix(1,0,0,1,89.87899780273438,134.04299926757812)" opacity="1"><g opacity="1" transform="matrix(1,0,0,1,89.57099914550781,57.4119987487793)"><path fill="rgb(255,221,11)" fill-opacity="1" d=" M71.06199645996094,-10.685999870300293 C55.70800018310547,-9.855999946594238 41.391998291015625,-14.628000259399414 32.88600158691406,-28.73699951171875 C31.433000564575195,-31.226999282836914 20.229000091552734,-36.827999114990234 16.70199966430664,-36.827999114990234 C6.743000030517578,-36.41299819946289 -2.178999900817871,-37.659000396728516 -11.930999755859375,-36.20600128173828 C-19.191999435424805,-34.96099853515625 -22.719999313354492,-34.130001068115234 -28.32200050354004,-38.48699951171875 C-30.812000274658203,-40.35499954223633 -56.332000732421875,-48.03300094604492 -51.14500045776367,-39.31800079345703 C-49.69200134277344,-36.62099838256836 -54.25699996948242,-44.7130012512207 -63.38600158691406,-51.974998474121094 C-69.61000061035156,-57.1619987487793 -66.91300201416016,-51.974998474121094 -74.58999633789062,-36.62099838256836 C-74.7969970703125,-35.99800109863281 -83.71900177001953,-38.902000427246094 -84.34200286865234,-38.279998779296875 C-89.32099914550781,-33.29999923706055 -85.37899780273438,-30.18899917602539 -78.9469985961914,-22.511999130249023 C-68.15799713134766,-9.232999801635742 -69.19499969482422,-19.81399917602539 -63.80099868774414,4.254000186920166 C-61.72600173950195,13.79800033569336 -60.27399826049805,19.815000534057617 -56.74700164794922,28.73699951171875 C-55.08700180053711,32.88600158691406 -51.14500045776367,34.96099853515625 -42.845001220703125,33.30099868774414 C-35.58399963378906,31.849000930786133 -29.56599998474121,17.739999771118164 -14.213000297546387,43.882999420166016 C-11.515999794006348,48.654998779296875 -7.366000175476074,52.18199920654297 -1.5570000410079956,48.2400016784668 C6.949999809265137,42.43000030517578 7.98799991607666,45.542999267578125 13.381999969482422,36.82899856567383 C14.418999671936035,35.16899871826172 22.097000122070312,35.16899871826172 25.000999450683594,37.65800094604492 C29.150999069213867,41.393001556396484 29.357999801635742,41.60100173950195 31.01799964904785,43.882999420166016 C30.187999725341797,45.334999084472656 36.41299819946289,51.76599884033203 37.03499984741211,53.632999420166016 C37.45000076293945,54.67100143432617 40.14699935913086,57.1609992980957 41.599998474121094,55.500999450683594 C41.599998474121094,55.500999450683594 42.01499938964844,55.500999450683594 42.01499938964844,55.500999450683594 C44.71200180053711,55.500999450683594 46.57899856567383,53.63399887084961 46.57899856567383,51.14500045776367 C46.57899856567383,48.654998779296875 44.71200180053711,46.58000183105469 42.22200012207031,46.58000183105469 C42.22200012207031,46.58000183105469 42.22200012207031,46.37300109863281 42.22200012207031,46.37300109863281 C42.01499938964844,45.542999267578125 42.01499938964844,44.91999816894531 41.80699920654297,43.882999420166016 C41.599998474121094,41.393001556396484 39.939998626708984,35.58399963378906 42.637001037597656,34.13100051879883 C44.91899871826172,33.09400177001953 48.23899841308594,31.018999099731445 49.691001892089844,28.73699951171875 C51.14400100708008,26.246999740600586 48.03200149536133,22.719999313354492 47.20199966430664,18.985000610351562 C44.71200180053711,5.914000034332275 64.4229965209961,7.158999919891357 61.72600173950195,1.972000002861023 C61.31100082397461,0.9340000152587891 89.32099914550781,-11.722999572753906 71.06199645996094,-10.685999870300293z"></path></g></g><g style="display: block;" transform="matrix(1,0,0,1,60.415992736816406,82.38099670410156)" opacity="1"><g opacity="1" transform="matrix(1,0,0,1,113.2239990234375,49.319000244140625)"><path fill="rgb(255,221,11)" fill-opacity="1" d=" M-96.16799926757812,-30.81100082397461 C-89.94300079345703,-33.715999603271484 -98.24299621582031,-40.14699935913086 -89.32099914550781,-44.91999816894531 C-81.2300033569336,-49.069000244140625 -42.01499938964844,-42.222999572753906 -34.3380012512207,-37.65800094604492 C-31.43400001525879,-35.790000915527344 10.477999687194824,-33.715999603271484 16.28700065612793,-37.8650016784668 C23.756000518798828,-43.2599983215332 39.939998626708984,-28.11400032043457 15.24899959564209,-15.664999961853027 C13.79699993133545,-15.041999816894531 7.572999954223633,7.572999954223633 17.325000762939453,11.930000305175781 C22.7189998626709,14.420000076293945 41.599998474121094,14.626999855041504 41.185001373291016,22.927000045776367 C41.185001373291016,23.548999786376953 45.749000549316406,43.2599983215332 54.25600051879883,24.586000442504883 C57.78300094604492,16.70199966430664 63.79999923706055,27.076000213623047 61.10300064086914,2.8010001182556152 C59.6510009765625,-8.817999839782715 77.49400329589844,10.062999725341797 81.02100372314453,7.366000175476074 C93.26300048828125,-1.9709999561309814 112.9739990234375,30.81100082397461 97.41300201416016,32.88600158691406 C79.15399932861328,35.375999450683594 84.13400268554688,28.52899932861328 71.89199829101562,41.599998474121094 C65.04499816894531,49.069000244140625 37.45000076293945,38.279998779296875 30.81100082397461,28.52899932861328 C22.511999130249023,16.288000106811523 -4.875999927520752,40.14799880981445 -26.038999557495117,25.41699981689453 C-34.3380012512207,19.39900016784668 -43.882999420166016,14.005000114440918 -43.053001403808594,28.11400032043457 C-43.053001403808594,28.320999145507812 -36.62099838256836,36.827999114990234 -48.86199951171875,31.43400001525879 C-56.95399856567383,27.698999404907227 -48.2400016784668,10.892999649047852 -56.95399856567383,11.515000343322754 C-61.933998107910156,11.930000305175781 -58.19900131225586,28.52899932861328 -69.61000061035156,28.52899932861328 C-86.20899963378906,28.52899932861328 -79.7770004272461,26.038999557495117 -89.73600006103516,13.59000015258789 C-110.69200134277344,-12.760000228881836 -112.9739990234375,-22.304000854492188 -96.16799926757812,-30.81100082397461z"></path></g></g><g transform="matrix(1,0,0,1,-8.082000732421875,-0.7079925537109375)" opacity="1" style="display: block;"><g opacity="1" transform="matrix(1,0,0,1,652.926025390625,243.83200073242188)"><path stroke-linecap="round" stroke-linejoin="round" fill-opacity="0" stroke="rgb(43,42,41)" stroke-opacity="1" stroke-width="2.45" d=" M-103.0270004272461,-151.98699951171875 C-106.56700134277344,-155.4010009765625 -105.2770004272461,-149.57899475097656 -106.59200286865234,-144.3800048828125 C-120.63700103759766,-129.36500549316406 -129.64999389648438,-124.17400360107422 -137.468994140625,-145.13999938964844 C-133.33900451660156,-144.44400024414062 -131.17999267578125,-140.0229949951172 -121.67900085449219,-140.62100219726562 C-97.66300201416016,-144.07899475097656 -154.71800231933594,-165.8350067138672 -155.4320068359375,-163.8730010986328 C-176.33900451660156,-160.3000030517578 -183.0260009765625,-140.05599975585938 -195.86000061035156,-129.23699951171875 C-220.8699951171875,-116.6449966430664 -200.92300415039062,-99.75499725341797 -196.18600463867188,-108.20800018310547 C-186.96499633789062,-117.16699981689453 -191.44400024414062,-97.2030029296875 -184.06199645996094,-96.15399932861328 C-181.63099670410156,-96.12899780273438 -172.51100158691406,-112.79499816894531 -172.1750030517578,-113.9260025024414 C-187.5050048828125,-118.90499877929688 -163.802001953125,-138.24099731445312 -156.1199951171875,-136.44000244140625 C-154.7550048828125,-135.5070037841797 -155.3939971923828,-133.74099731445312 -158.05499267578125,-130.8470001220703 C-184.85299682617188,-107.05999755859375 -140.43699645996094,-119.947998046875 -146.44500732421875,-112.25599670410156 C-147.6529998779297,-107.59100341796875 -161.10499572753906,-112.59200286865234 -159.38600158691406,-108.2249984741211 C-153.843994140625,-97.9229965209961 -164.74400329589844,-110.56800079345703 -167.51300048828125,-94.47599792480469 C-214.07699584960938,-76.94499969482422 -182.9709930419922,-104.52100372314453 -195.7270050048828,-103.04499816894531 C-203.6230010986328,-99.58499908447266 -194.5850067138672,-93.3270034790039 -197.73800659179688,-89.26599884033203 C-212.7030029296875,-84.49099731445312 -210.72300720214844,-73.59500122070312 -229.8769989013672,-70.39600372314453 C-238.6540069580078,-67.39700317382812 -207.1219940185547,-54.39699935913086 -235.65199279785156,-52.69900131225586 C-248.08599853515625,-53.731998443603516 -241.39500427246094,-43.00199890136719 -243.5709991455078,-35.566001892089844 C-244.37600708007812,-26.690000534057617 -227.02200317382812,-26.882999420166016 -221.33900451660156,-30.78499984741211 C-220.19700622558594,-40.96900177001953 -216.98800659179688,-39.54399871826172 -210.95899963378906,-49.319000244140625 C-191.19400024414062,-57.77799987792969 -195.6320037841797,-49.321998596191406 -180.7570037841797,-41.01499938964844 C-177.86399841308594,-36.4010009765625 -178.2969970703125,-28.82200050354004 -176.26800537109375,-41.19200134277344 C-166.656005859375,-39.59400177001953 -193.7899932861328,-52.50600051879883 -187.26300048828125,-58.41299819946289 C-173.43899536132812,-59.10599899291992 -167.05599975585938,-25.427000045776367 -161.22999572753906,-29.66699981689453 C-162.6510009765625,-45.01499938964844 -158.59800720214844,-42.82500076293945 -151.1909942626953,-41.31999969482422 C-154.3470001220703,-26.506000518798828 -134.47900390625,-24.208999633789062 -130.93499755859375,-29.106000900268555 C-129.35400390625,-30.229000091552734 -128.74600219726562,-29.73699951171875 -128.5970001220703,-27.19300079345703 C-131.0279998779297,-2.4619998931884766 -152.0399932861328,-15.420000076293945 -164.85699462890625,-16.50200080871582 C-169.78199768066406,-7.327000141143799 -182.2830047607422,-10.111000061035156 -192.093994140625,-18.368000030517578 C-195.76400756835938,-24.489999771118164 -189.0290069580078,-31.676000595092773 -198.41200256347656,-30.593000411987305 C-213.3090057373047,-33.24599838256836 -230.5290069580078,-18.52899932861328 -233.7740020751953,-27.400999069213867 C-234.80499267578125,-27.4950008392334 -234.41299438476562,-26.948999404907227 -235.6790008544922,-24.68899917602539 C-257.6300048828125,4.664000034332275 -268.19500732421875,1.1339999437332153 -262.42498779296875,21.864999771118164 C-262.3970031738281,29.614999771118164 -268.0719909667969,37.452999114990234 -263.739013671875,42.09299850463867 C-239.73899841308594,96.06600189208984 -188.56199645996094,42.7130012512207 -196.26300048828125,72.79900360107422 C-197.46800231933594,94.56400299072266 -184.18600463867188,85.65699768066406 -187.7030029296875,111.84300231933594 C-191.031005859375,134.8000030517578 -181.51699829101562,140.73599243164062 -180.68299865722656,153.26300048828125 C-183.2449951171875,201.53500366210938 -145.2830047607422,172.81300354003906 -135.44500732421875,152.05499267578125 C-129.05799865722656,148.5540008544922 -131.08799743652344,142.25399780273438 -129.21099853515625,130.72999572753906 C-102.27200317382812,104.61000061035156 -137.61000061035156,100.86799621582031 -106.08999633789062,72.26200103759766 C-97.7750015258789,61.31700134277344 -90.08100128173828,50.70399856567383 -92.55699920654297,44.983001708984375 C-116.96299743652344,55.88100051879883 -129.63699340820312,15.069000244140625 -135.55299377441406,-1.6619999408721924 C-126,-5.51200008392334 -104.80699920654297,36.948001861572266 -109.2509994506836,41.59299850463867 C-109.66600036621094,46.018001556396484 -88.2750015258789,29.395999908447266 -83.4280014038086,26.22100067138672 C-70.21099853515625,22.45800018310547 -64.66100311279297,16.42099952697754 -81.09500122070312,7.573999881744385 C-90.93099975585938,9.383000373840332 -91.9280014038086,16.06399917602539 -95.83899688720703,3.305000066757202 C-101.427001953125,-19.336000442504883 -83.1729965209961,4.7220001220703125 -74.197998046875,4.867000102996826 C-44.85100173950195,3.2070000171661377 -49.61800003051758,20.974000930786133 -36.42499923706055,18.148000717163086 C-39.11899948120117,32.4379997253418 -19.7810001373291,70.24199676513672 -16.774999618530273,54.05500030517578 C-16.461999893188477,58.91299819946289 -14.918999671936035,67.73200225830078 -12.555999755859375,56.92900085449219 C-23.957000732421875,24.631000518798828 16.424999237060547,4.578999996185303 15.470999717712402,26.475000381469727 C15.946000099182129,28.802000045776367 16.663999557495117,30.200000762939453 18.202999114990234,30.48699951171875 C32.590999603271484,28.900999069213867 22.829999923706055,51.82099914550781 36.31999969482422,67.32499694824219 C45.30099868774414,82.7509994506836 44.01300048828125,64.8499984741211 41.150001525878906,59.08000183105469 C36.63199996948242,54.42599868774414 29.299999237060547,51.042999267578125 35.941001892089844,41.23500061035156 C41.13199996948242,36.941001892089844 48.62900161743164,52.27199935913086 48.952999114990234,54.00400161743164 C66.39099884033203,40.38399887084961 49.380001068115234,31.743999481201172 48.91400146484375,22.590999603271484 C49.301998138427734,18.979000091552734 59.566001892089844,12.277999877929688 57.922000885009766,19.608999252319336 C56.24700164794922,22.70400047302246 52.922000885009766,23.4689998626709 58.37300109863281,26.513999938964844 C61.34700012207031,26.9060001373291 58.80699920654297,16.104000091552734 62.2760009765625,17.437000274658203 C80.66899871826172,12.475000381469727 87.97100067138672,-0.7570000290870667 87.90599822998047,-18.572999954223633 C83.4229965209961,-26.704999923706055 95.00700378417969,-28.503000259399414 84.14199829101562,-33.76599884033203 C84.06700134277344,-39.948001861572266 96.4520034790039,-41.35200119018555 99.78500366210938,-38.07099914550781 C103.73699951171875,-31.499000549316406 98.08899688720703,-21.187999725341797 108.93000030517578,-25.253000259399414 C110.46600341796875,-26.305999755859375 110.72899627685547,-28.378999710083008 110.08200073242188,-31.358999252319336 C98.82099914550781,-50.15999984741211 117.5199966430664,-46.849998474121094 125.38300323486328,-52.479000091552734 C134.6540069580078,-57.50299835205078 141.9969940185547,-98.16300201416016 129.41900634765625,-88.97699737548828 C111.1989974975586,-94.89800262451172 158.42100524902344,-119.98799896240234 170.12100219726562,-111.7020034790039 C190.66700744628906,-130.18299865722656 176.75100708007812,-106.59700012207031 196.06500244140625,-124.1780014038086 C200.86700439453125,-114.00399780273438 158.86900329589844,-104.75299835205078 179.5279998779297,-76.84700012207031 C191.6540069580078,-88.40399932861328 191.5679931640625,-87.4010009765625 193.00999450683594,-109.99199676513672 C197.24099731445312,-117.19599914550781 229.0500030517578,-120.86900329589844 235.67999267578125,-125.99299621582031 C237.0030059814453,-128.67300415039062 230.64700317382812,-133.00100708007812 238.48899841308594,-137.67100524902344 C243.38999938964844,-139.9980010986328 247.66900634765625,-127.95500183105469 257.3320007324219,-136.02200317382812 C268.19500732421875,-145.39100646972656 248.5019989013672,-144.1540069580078 246.32699584960938,-145.61000061035156 C240.5970001220703,-148.0330047607422 238.0970001220703,-153.62600708007812 227.77200317382812,-157.00799560546875 C202.82400512695312,-163.80299377441406 225.08700561523438,-151.2530059814453 199.5030059814453,-157.6790008544922 C177.5030059814453,-155.36099243164062 188.8300018310547,-159.4429931640625 180.43099975585938,-164.6750030517578 C168.19900512695312,-164.0290069580078 163.6649932861328,-165.76800537109375 156.50900268554688,-171.50900268554688 C144.90199279785156,-173.9029998779297 135.13400268554688,-176.68899536132812 130.4600067138672,-167.80099487304688 C125.57599639892578,-168.4709930419922 117.24700164794922,-168.9040069580078 115.12000274658203,-165.6790008544922 C103.39199829101562,-160.03199768066406 110.16100311279297,-180.5399932861328 101.29100036621094,-179.218994140625 C93.26499938964844,-181.21299743652344 89.22799682617188,-174.2790069580078 83.80400085449219,-173.60499572753906 C66.3740005493164,-182.75999450683594 57.404998779296875,-173.9290008544922 48.22700119018555,-173.56500244140625 C48.16299819946289,-178.8769989013672 63.29899978637695,-183.0780029296875 66.12799835205078,-187.49899291992188 C70.11399841308594,-191.83299255371094 42.512001037597656,-201.53500366210938 41.74300003051758,-199.90499877929688 C-23.19499969482422,-165.52699279785156 -19.61400032043457,-182.781005859375 -15.508999824523926,-167.50100708007812 C-15.142000198364258,-162.77099609375 -30.018999099731445,-168.6230010986328 -32.97999954223633,-164.04400634765625 C-33.78499984741211,-160.1699981689453 -30.888999938964844,-151.77699279785156 -34.284000396728516,-151.15899658203125 C-40.005001068115234,-153.4499969482422 -33.99300003051758,-176.21200561523438 -41.02299880981445,-175.9550018310547 C-62.16400146484375,-172.69900512695312 -44.31700134277344,-158.13699340820312 -52.19300079345703,-155.3070068359375 C-68.98500061035156,-160.49400329589844 -61.9109992980957,-152.75999450683594 -72.49400329589844,-152.21400451660156 C-101.24299621582031,-158.6750030517578 -98.61100006103516,-124.16699981689453 -103.0270004272461,-151.98699951171875z"></path></g><g opacity="1" transform="matrix(1,0,0,1,685.8579711914062,39.573001861572266)"><path stroke-linecap="round" stroke-linejoin="round" fill-opacity="0" stroke="rgb(43,42,41)" stroke-opacity="1" stroke-width="2.45" d=" M3.674999952316284,-6.031000137329102 C-18.40399932861328,6.03000020980835 17.398000717163086,0.42500001192092896 18.40399932861328,-2.117000102996826 C14.854999542236328,-5.422999858856201 7.486000061035156,-4.698999881744385 3.674999952316284,-6.031000137329102z"></path></g><g opacity="1" transform="matrix(1,0,0,1,614.655029296875,51.569000244140625)"><path stroke-linecap="round" stroke-linejoin="round" fill-opacity="0" stroke="rgb(43,42,41)" stroke-opacity="1" stroke-width="2.45" d=" M59.319000244140625,-31.305999755859375 C30.999000549316406,-30.141000747680664 56.89500045776367,-17.552000045776367 65.7239990234375,-17.11400032043457 C71.91999816894531,-16.993999481201172 64.35600280761719,-30.78499984741211 59.319000244140625,-31.305999755859375z M-10.395000457763672,-5.784999847412109 C-35.516998291015625,-1.4839999675750732 -71.91899871826172,29.093000411987305 -34.54899978637695,31.305999755859375 C-62.124000549316406,7.5329999923706055 14.918999671936035,-1.24399995803833 -10.395000457763672,-5.784999847412109z"></path></g><g opacity="1" transform="matrix(1,0,0,1,785.2260131835938,194.01100158691406)"><path stroke-linecap="round" stroke-linejoin="round" fill-opacity="0" stroke="rgb(43,42,41)" stroke-opacity="1" stroke-width="2.45" d=" M8.878999710083008,-37.84700012207031 C8.930999755859375,32.060001373291016 -11.963000297546387,11.088000297546387 -20.31800079345703,31.55500030517578 C-19.233999252319336,35.71099853515625 -17.43899917602539,37.84600067138672 -13.555999755859375,34.92599868774414 C-6.105999946594238,28.889999389648438 3.5409998893737793,28.69499969482422 6.945000171661377,26.68600082397461 C14.607000350952148,21.860000610351562 4.025000095367432,8.590999603271484 17.475000381469727,1.7089999914169312 C20.31800079345703,-3.2079999446868896 9.98799991607666,-5.870999813079834 11.032999992370605,-11.368000030517578 C13.782999992370605,-19.128000259399414 18.80500030517578,-35.779998779296875 8.878999710083008,-37.84700012207031z"></path></g><g opacity="1" transform="matrix(1,0,0,1,714.3280029296875,333.37799072265625)"><path stroke-linecap="round" stroke-linejoin="round" fill-opacity="0" stroke="rgb(43,42,41)" stroke-opacity="1" stroke-width="2.45" d=" M-39.11000061035156,-24.71500015258789 C-37.14400100708008,6.014999866485596 15.20199966430664,24.71500015258789 39.11000061035156,11.597000122070312 C20.70199966430664,11.842000007629395 14.055999755859375,11.329000473022461 -4.300000190734863,4.294000148773193 C-31.858999252319336,9.343000411987305 9.045000076293945,-0.09300000220537186 -39.11000061035156,-24.71500015258789z"></path></g><g opacity="1" transform="matrix(1,0,0,1,718.5999755859375,317.42999267578125)"><path stroke-linecap="round" stroke-linejoin="round" fill-opacity="0" stroke="rgb(43,42,41)" stroke-opacity="1" stroke-width="2.45" d=" M10.564000129699707,-13.12399959564209 C-6.980999946594238,-2.4730000495910645 -19.659000396728516,12.866999626159668 9.871999740600586,13.486000061035156 C16.833999633789062,8.425999641418457 19.659000396728516,-13.487000465393066 10.564000129699707,-13.12399959564209z"></path></g><g opacity="1" transform="matrix(1,0,0,1,745.7360229492188,288.8739929199219)"><path stroke-linecap="round" stroke-linejoin="round" fill-opacity="0" stroke="rgb(43,42,41)" stroke-opacity="1" stroke-width="2.45" d=" M-2.671999931335449,-14.861000061035156 C-1.7860000133514404,-16.9950008392334 -2.5260000228881836,-19.70599937438965 -4.166999816894531,-20.091999053955078 C-12.189000129699707,-19.753000259399414 -5.855000019073486,1.0800000429153442 -1.809999942779541,1.0449999570846558 C-3.1559998989105225,4.964000225067139 -1.2740000486373901,4.896999835968018 0.6129999756813049,6.482999801635742 C-4.373000144958496,11.23900032043457 5.750999927520752,20.091999053955078 8.930999755859375,11.878999710083008 C12.189000129699707,0.781000018119812 -1.906000018119812,9.48900032043457 2.930000066757202,0.9089999794960022 C8.21399974822998,-11.093999862670898 -9.704999923706055,-0.8029999732971191 -2.671999931335449,-14.861000061035156z"></path></g><g opacity="1" transform="matrix(1,0,0,1,790.6179809570312,334.0039978027344)"><path stroke-linecap="round" stroke-linejoin="round" fill-opacity="0" stroke="rgb(43,42,41)" stroke-opacity="1" stroke-width="2.45" d=" M24.027999877929688,17.399999618530273 C13.897000312805176,6.835999965667725 9.038000106811523,-17.399999618530273 -11.508000373840332,-4.452000141143799 C-18.990999221801758,-4.379000186920166 -24.027000427246094,-11.07800006866455 -19.961000442504883,-0.878000020980835 C-11.019000053405762,2.0309998989105225 -9.413000106811523,1.0520000457763672 -7.290999889373779,12.218000411987305 C20.125,9.87399959564209 10.680999755859375,15.765999794006348 24.027999877929688,17.399999618530273z"></path></g><g opacity="1" transform="matrix(1,0,0,1,556.3159790039062,392.260009765625)"><path stroke-linecap="round" stroke-linejoin="round" fill-opacity="0" stroke="rgb(43,42,41)" stroke-opacity="1" stroke-width="2.45" d=" M0.22200000286102295,-35.04600143432617 C2.125999927520752,-26.892000198364258 -10.824999809265137,-30.010000228881836 -11.189000129699707,-21.975000381469727 C-21.320999145507812,36.17900085449219 21.320999145507812,-36.17900085449219 0.22200000286102295,-35.04600143432617z"></path></g><g opacity="1" transform="matrix(1,0,0,1,769.1840209960938,393.8340148925781)"><path stroke-linecap="round" stroke-linejoin="round" fill-opacity="0" stroke="rgb(43,42,41)" stroke-opacity="1" stroke-width="2.45" d=" M23.054000854492188,-39.731998443603516 C25.768999099731445,-33.41600036621094 23.172000885009766,-8.67300033569336 10.666999816894531,-28.979000091552734 C10.26099967956543,-32.40399932861328 10.149999618530273,-37.96500015258789 6.605000019073486,-39.992000579833984 C-4.464000225067139,-44.17499923706055 -12.211999893188477,-22.8439998626709 -15.57800006866455,-30.593000411987305 C-16.16699981689453,-30.801000595092773 -16.834999084472656,-30.420000076293945 -17.98699951171875,-29.15399932861328 C-33.9109992980957,-3.6070001125335693 -54.323001861572266,-17.415000915527344 -43.54899978637695,15.460000038146973 C-43.257999420166016,39.7140007019043 -29.96500015258789,23.429000854492188 -8.050000190734863,20.024999618530273 C1.6230000257492065,16.113000869750977 10.119000434875488,35.7599983215332 20.81599998474121,37.98899841308594 C44.106998443603516,44.17499923706055 54.323001861572266,25.650999069213867 52.72600173950195,0.31200000643730164 C18.32900047302246,-28.388999938964844 38.04499816894531,-22.260000228881836 23.674999237060547,-40.56100082397461 C23.674999237060547,-40.56100082397461 23.054000854492188,-39.731998443603516 23.054000854492188,-39.731998443603516z"></path></g><g opacity="1" transform="matrix(1,0,0,1,808.8400268554688,451.0169982910156)"><path stroke-linecap="round" stroke-linejoin="round" fill-opacity="0" stroke="rgb(43,42,41)" stroke-opacity="1" stroke-width="2.45" d=" M-9.340999603271484,-9.357000350952148 C-13.005999565124512,10.187999725341797 13.005999565124512,-4.135000228881836 -10.378000259399414,-10.187999725341797 C-10.378000259399414,-10.187999725341797 -9.340999603271484,-9.357000350952148 -9.340999603271484,-9.357000350952148z"></path></g><g opacity="1" transform="matrix(1,0,0,1,880.375,430.57000732421875)"><path stroke-linecap="round" stroke-linejoin="round" fill-opacity="0" stroke="rgb(43,42,41)" stroke-opacity="1" stroke-width="2.45" d=" M-9.086000442504883,-7.169000148773193 C-4.89900016784668,-0.8970000147819519 -5.861000061035156,8.736000061035156 -2.2990000247955322,11.791999816894531 C10.539999961853027,5.14300012588501 -1.3899999856948853,-11.791999816894531 -10.538999557495117,-7.791999816894531 C-10.538999557495117,-7.791999816894531 -9.086000442504883,-7.169000148773193 -9.086000442504883,-7.169000148773193z"></path></g><g opacity="1" transform="matrix(1,0,0,1,865.14501953125,451.80999755859375)"><path stroke-linecap="round" stroke-linejoin="round" fill-opacity="0" stroke="rgb(43,42,41)" stroke-opacity="1" stroke-width="2.45" d=" M-9.003000259399414,9.767999649047852 C-3.9560000896453857,15.979000091552734 7.513000011444092,2.8329999446868896 9.960000038146973,-4.4770002365112305 C8.52400016784668,-15.977999687194824 -9.958999633789062,5.538000106811523 -9.003000259399414,9.767999649047852z"></path></g><g opacity="1" transform="matrix(1,0,0,1,179.69000244140625,288.302001953125)"><path stroke-linecap="round" stroke-linejoin="round" fill-opacity="0" stroke="rgb(43,42,41)" stroke-opacity="1" stroke-width="2.45" d=" M27.6560001373291,-18.437999725341797 C38.3489990234375,-26.045000076293945 29.51300048828125,-35.4370002746582 23.99799919128418,-27.17799949645996 C18.570999145507812,-7.9710001945495605 9.371999740600586,-26.856000900268555 5.248000144958496,-33.99800109863281 C5.248000144958496,-33.99800109863281 3.380000114440918,-33.58300018310547 3.380000114440918,-33.58300018310547 C1.9730000495910645,-56.51599884033203 16.150999069213867,-53.22600173950195 25.788000106811523,-49.35200119018555 C30.804000854492188,-72.4000015258789 53.52299880981445,-21.285999298095703 50.29800033569336,-45.36899948120117 C45.00199890136719,-70.89900207519531 55.638999938964844,-59.2239990234375 59.83100128173828,-69.85399627685547 C55.887001037597656,-87.86399841308594 80.875,-98.11100006103516 93.62200164794922,-105.09200286865234 C90.99299621582031,-118.39600372314453 76.0459976196289,-106.5989990234375 72.03500366210938,-111.86900329589844 C77.03399658203125,-124.28800201416016 104.4489974975586,-112.61799621582031 111.53500366210938,-129.56300354003906 C113.66000366210938,-135.218994140625 105.1780014038086,-136.16000366210938 101.29499816894531,-143.36399841308594 C90.28099822998047,-176.18099975585938 85.33399963378906,-145.58999633789062 74.9540023803711,-153.677001953125 C62.349998474121094,-177.58799743652344 51.46699905395508,-166.63299560546875 60.862998962402344,-142.70899963378906 C59.775001525878906,-137.25900268554688 52.625999450683594,-136.51499938964844 53.79899978637695,-132.75900268554688 C55.215999603271484,-116.12699890136719 46.58599853515625,-129.61900329589844 46.25299835205078,-136.0679931640625 C41.66699981689453,-142.322998046875 30.857999801635742,-140.39100646972656 22.349000930786133,-143.99600219726562 C0.4169999957084656,-157.25999450683594 21.187000274658203,-175.17799377441406 31.90999984741211,-180.72799682617188 C34.21200180053711,-183.51300048828125 32.00600051879883,-164.9080047607422 41.57699966430664,-170.9949951171875 C47.70899963378906,-176.0590057373047 42.15399932861328,-181.27000427246094 38.479000091552734,-181.88299560546875 C31.65999984741211,-184.60299682617188 55.45500183105469,-192.94200134277344 44.736000061035156,-199.96600341796875 C42.75899887084961,-201.22799682617188 40.95199966430664,-200.66799926757812 39.027000427246094,-199.13400268554688 C23.28499984741211,-173.5970001220703 35.42300033569336,-211.47900390625 16.797000885009766,-199.25999450683594 C-5.526000022888184,-181.6230010986328 -58.926998138427734,-202.45599365234375 -71.76799774169922,-204.65199279785156 C-89.74600219726562,-200.06399536132812 -106.20099639892578,-200.36599731445312 -119.31300354003906,-203.7030029296875 C-144.0290069580078,-210.5 -177.24000549316406,-209.88900756835938 -155.21200561523438,-186.57699584960938 C-173.6959991455078,-185.5749969482422 -168.66400146484375,-179.44900512695312 -156.41900634765625,-175.78500366210938 C-173.6320037841797,-160.60400390625 -163.93699645996094,-161.593994140625 -147.96200561523438,-153.42999267578125 C-134.1999969482422,-148.48199462890625 -159.01300048828125,-142.21299743652344 -161.3459930419922,-136.99600219726562 C-128.5260009765625,-128.9510040283203 -136.13699340820312,-179.37399291992188 -100.1520004272461,-154.1280059814453 C-83.62000274658203,-140.22500610351562 -62.62099838256836,-113.07099914550781 -61.83700180053711,-89.31500244140625 C-60.32099914550781,-69.20899963378906 -25.832000732421875,-20.583999633789062 -24.034000396728516,-29.066999435424805 C-26.31999969482422,-35.88600158691406 -43.89500045776367,-60.32500076293945 -30.645999908447266,-55.1609992980957 C-21.14900016784668,-39.49599838256836 -19.951000213623047,-18.680999755859375 -1.4639999866485596,-14.973999977111816 C16.243999481201172,-11.885000228881836 21.332000732421875,-4.059999942779541 33.09700012207031,5.833000183105469 C41.67599868774414,12.446000099182129 44.895999908447266,11.67300033569336 54.6349983215332,13.902000427246094 C62.972999572753906,23.10700035095215 39.58100128173828,27.562000274658203 45.76599884033203,51.11800003051758 C54.71900177001953,77.12899780273438 73.03800201416016,80.2969970703125 73.43399810791016,85.54399871826172 C72.23899841308594,176.11399841308594 46.731998443603516,185.53599548339844 76.0739974975586,202.58700561523438 C89.91200256347656,211.47999572753906 92.46399688720703,207.50599670410156 90.41100311279297,205.2030029296875 C72.49600219726562,194.08900451660156 89.43499755859375,185.29100036621094 87.87300109863281,169.58599853515625 C87.38500213623047,152.81100463867188 95.95500183105469,155.5469970703125 108.42900085449219,146.66299438476562 C113.68499755859375,144.11500549316406 109.02300262451172,136.5279998779297 113.38899993896484,135.37100219726562 C144.6649932861328,102.54000091552734 117.63800048828125,114.75 149.4969940185547,96.51799774169922 C169.35800170898438,22.687000274658203 177.24000549316406,63.558998107910156 131.76600646972656,31.006000518798828 C110.83200073242188,6.107999801635742 82.49299621582031,-10.984000205993652 48.83399963378906,7.895999908447266 C35.33300018310547,6.3480000495910645 50.29499816894531,-12.82699966430664 31.239999771118164,-12.128000259399414 C29.194000244140625,-13.008999824523926 28.040000915527344,-14.829000473022461 27.6560001373291,-18.437999725341797z"></path></g><g opacity="1" transform="matrix(1,0,0,1,238.1719970703125,260.468994140625)"><path stroke-linecap="round" stroke-linejoin="round" fill-opacity="0" stroke="rgb(43,42,41)" stroke-opacity="1" stroke-width="2.45" d=" M-20.45199966430664,-0.9789999723434448 C3.5899999141693115,-18.645000457763672 20.45199966430664,18.643999099731445 -6.406000137329102,-0.289000004529953 C-9.586000442504883,-2.3589999675750732 -19.23200035095215,1.6039999723434448 -20.45199966430664,-0.9789999723434448z"></path></g><g opacity="1" transform="matrix(1,0,0,1,253.45899963378906,268.1969909667969)"><path stroke-linecap="round" stroke-linejoin="round" fill-opacity="0" stroke="rgb(43,42,41)" stroke-opacity="1" stroke-width="2.45" d=" M-4.617000102996826,-2.690000057220459 C-2.809000015258789,-4.436999797821045 4.9679999351501465,-3.1649999618530273 7.258999824523926,-0.7059999704360962 C10.413000106811523,4.083000183105469 -10.413000106811523,4.438000202178955 -4.617000102996826,-2.690000057220459z"></path></g><g opacity="1" transform="matrix(1,0,0,1,293.5060119628906,174.95899963378906)"><path stroke-linecap="round" stroke-linejoin="round" fill-opacity="0" stroke="rgb(43,42,41)" stroke-opacity="1" stroke-width="2.45" d=" M-2.5450000762939453,-10.494999885559082 C-27.638999938964844,10.119999885559082 27.638999938964844,10.494999885559082 -1.437999963760376,-4.553999900817871 C-2.9730000495910645,-6.210000038146973 -1.2599999904632568,-9.28600025177002 -2.5450000762939453,-10.494999885559082z"></path></g><g opacity="1" transform="matrix(1,0,0,1,319.98199462890625,70.87000274658203)"><path stroke-linecap="butt" stroke-linejoin="round" fill-opacity="0" stroke="rgb(43,42,41)" stroke-opacity="1" stroke-width="2.45" d=" M-43.12900161743164,-52.26599884033203 C-49.770999908447266,-51.96900177001953 -51.13999938964844,-44.97700119018555 -56.340999603271484,-38.369998931884766 C-84.36199951171875,-27.63800048828125 -66.03299713134766,-19.59000015258789 -49.40700149536133,-19.676000595092773 C-19.025999069213867,-20.400999069213867 -25.86199951171875,16.915000915527344 -21.520000457763672,32.90599822998047 C-13.33899974822998,62.821998596191406 -0.13899999856948853,68.41999816894531 14.788000106811523,37.42300033569336 C26.506999969482422,20.180999755859375 48.965999603271484,30 58.23699951171875,11.729000091552734 C72.66300201416016,-29.691999435424805 43.39400100708008,-33.31800079345703 74.4489974975586,-47.409000396728516 C80.21099853515625,-50.125 84.36199951171875,-52.25299835205078 82.6050033569336,-55.792999267578125 C79.75199890136719,-60.70100021362305 60.696998596191406,-50.03099822998047 54.82699966430664,-52.400001525878906 C47.893001556396484,-58.915000915527344 67.27799987792969,-63.500999450683594 32.49399948120117,-64.89099884033203 C-47.4010009765625,-68.41999816894531 41.45899963378906,-51.49700164794922 -37.31999969482422,-54.54800033569336 C-37.11199951171875,-56.415000915527344 -38.97999954223633,-53.30400085449219 -43.12900161743164,-52.26599884033203z"></path></g><g opacity="1" transform="matrix(1,0,0,1,231.9980010986328,86.19200134277344)"><path stroke-linecap="butt" stroke-linejoin="miter" fill-opacity="0" stroke-miterlimit="4" stroke="rgb(43,42,41)" stroke-opacity="1" stroke-width="2.45" d=" M7.922999858856201,-18.207000732421875 C-29.020000457763672,-38.944000244140625 -44.887001037597656,3.0239999294281006 2.7780001163482666,-0.5709999799728394 C6.459000110626221,-0.10199999809265137 9.185999870300293,0.703000009059906 12.130000114440918,5.8470001220703125 C21.597000122070312,24.378000259399414 -9.880000114440918,20.341999053955078 12.53600025177002,25.621999740600586 C19.472000122070312,25.965999603271484 18.465999603271484,31.865999221801758 26.981000900268555,34.35599899291992 C43.02000045776367,38.944000244140625 24.702999114990234,16.216999053955078 31.31599998474121,16.57900047302246 C33.821998596191406,18.496999740600586 38.87099838256836,20.266000747680664 41.5629997253418,16.402000427246094 C44.887001037597656,9.652000427246094 33.19300079345703,9.232999801635742 30.04400062561035,4.077000141143799 C28.555999755859375,-9.064000129699707 14.645000457763672,-8.279000282287598 7.922999858856201,-18.207000732421875z"></path></g><g opacity="1" transform="matrix(1,0,0,1,153.30999755859375,74.23799896240234)"><path stroke-linecap="round" stroke-linejoin="round" fill-opacity="0" stroke="rgb(43,42,41)" stroke-opacity="1" stroke-width="2.45" d=" M23.743000030517578,11.381999969482422 C12.6850004196167,6.2220001220703125 11.32699966430664,-19.95199966430664 5.485000133514404,-3.1410000324249268 C4.307000160217285,-2.7709999084472656 2.2100000381469727,-2.7360000610351562 -0.42399999499320984,-3.5190000534057617 C-7.875,-7.800000190734863 -23.743999481201172,-7.943999767303467 -20.360000610351562,3.555000066757202 C-6.828999996185303,8.463000297546387 -12.982000350952148,5.459000110626221 -10.907999992370605,12.859000205993652 C-0.5529999732971191,15.751999855041504 23.110000610351562,19.95199966430664 23.743000030517578,11.381999969482422z"></path></g><g opacity="1" transform="matrix(1,0,0,1,133.39500427246094,68.31300354003906)"><path stroke-linecap="round" stroke-linejoin="round" fill-opacity="0" stroke="rgb(43,42,41)" stroke-opacity="1" stroke-width="2.45" d=" M-9.041999816894531,-7.591000080108643 C-18.854999542236328,-7.921999931335449 -23.91699981689453,2.7920000553131104 -12.347000122070312,9.04699993133545 C23.91699981689453,-9.045999526977539 -9.602999687194824,-1.7999999523162842 -9.041999816894531,-7.591000080108643z"></path></g><g opacity="1" transform="matrix(1,0,0,1,194.43299865722656,77.08599853515625)"><path stroke-linecap="round" stroke-linejoin="round" fill-opacity="0" stroke="rgb(43,42,41)" stroke-opacity="1" stroke-width="2.45" d=" M9.593999862670898,-12.836000442504883 C-9.751999855041504,-22.849000930786133 -5.980999946594238,22.849000930786133 4.257999897003174,5.5 C3.691999912261963,2.628999948501587 0.781000018119812,-0.4189999997615814 0.46399998664855957,-2.4619998931884766 C0.5299999713897705,-8.576000213623047 9.753000259399414,-5.7820000648498535 9.593999862670898,-12.836000442504883z"></path></g><g opacity="1" transform="matrix(1,0,0,1,181.12399291992188,69.80999755859375)"><path stroke-linecap="round" stroke-linejoin="round" fill-opacity="0" stroke="rgb(43,42,41)" stroke-opacity="1" stroke-width="2.45" d=" M-3.86299991607666,-5.353000164031982 C-6.4079999923706055,-1.8459999561309814 -9.29800033569336,8.267999649047852 1.315999984741211,7.859000205993652 C6.176000118255615,4.809000015258789 9.29800033569336,-8.267999649047852 -3.86299991607666,-5.353000164031982z"></path></g><g opacity="1" transform="matrix(1,0,0,1,232.08700561523438,35.17100143432617)"><path stroke-linecap="round" stroke-linejoin="round" fill-opacity="0" stroke="rgb(43,42,41)" stroke-opacity="1" stroke-width="2.45" d=" M-38.433998107910156,-13.663000106811523 C11.79699993133545,-7.563000202178955 -57.52000045776367,-16.823999404907227 -0.9929999709129333,-24.426000595092773 C57.52000045776367,-28.070999145507812 46.917999267578125,-21.1200008392334 8.848999977111816,-0.875 C-1.2979999780654907,17.881999969482422 0.8270000219345093,13.39900016784668 -14.782999992370605,15.383000373840332 C-18.058000564575195,17.816999435424805 -23.823999404907227,13.243000030517578 -25.570999145507812,15.79800033569336 C-25.905000686645508,17.235000610351562 -21.225000381469727,19.357999801635742 -19.604000091552734,19.18199920654297 C-13.081999778747559,19.708999633789062 -1.409999966621399,15.651000022888184 -0.050999999046325684,23.270000457763672 C-4.085000038146973,28.07200050354004 -17.90399932861328,23.135000228881836 -25.54400062561035,24.17799949645996 C-31.479999542236328,23.82699966430664 -38.165000915527344,11.894000053405762 -42.095001220703125,12.725000381469727 C-35.16600036621094,12.281000137329102 -19.714000701904297,9.694000244140625 -15.532999992370605,1.1729999780654907 C-20.6560001373291,-5.927999973297119 -30.16900062561035,15.51200008392334 -37.98400115966797,-4.168000221252441 C-40.784000396728516,-7.309999942779541 -40.66699981689453,-11.461000442504883 -37.8120002746582,-13.663000106811523 C-37.8120002746582,-13.663000106811523 -38.433998107910156,-13.663000106811523 -38.433998107910156,-13.663000106811523z"></path></g><g opacity="1" transform="matrix(1,0,0,1,145.2209930419922,52.72999954223633)"><path stroke-linecap="round" stroke-linejoin="round" fill-opacity="0" stroke="rgb(43,42,41)" stroke-opacity="1" stroke-width="2.45" d=" M-3.6459999084472656,-3.003999948501587 C18.108999252319336,8.326000213623047 4.617000102996826,-12.392999649047852 17.13599967956543,-0.04800000041723251 C24.158000946044922,12.392999649047852 -24.158000946044922,4.190000057220459 -18.84000015258789,-2.4019999504089355 C-13.223999977111816,-11.899999618530273 -4.681000232696533,-10.152000427246094 -3.6459999084472656,-3.003999948501587z"></path></g><g opacity="1" transform="matrix(1,0,0,1,177.72500610351562,38.27299880981445)"><path stroke-linecap="round" stroke-linejoin="round" fill-opacity="0" stroke="rgb(43,42,41)" stroke-opacity="1" stroke-width="2.45" d=" M-11.668000221252441,-3.693000078201294 C-10.916999816894531,-1.190000057220459 -6.328999996185303,2.759000062942505 -1.309000015258789,5.609000205993652 C11.668000221252441,3.1010000705718994 -6.105999946594238,-5.609000205993652 -11.668000221252441,-3.693000078201294z"></path></g><g opacity="1" transform="matrix(1,0,0,1,173.13099670410156,52.0629997253418)"><path stroke-linecap="round" stroke-linejoin="round" fill-opacity="0" stroke="rgb(43,42,41)" stroke-opacity="1" stroke-width="2.45" d=" M10.354999542236328,5.961999893188477 C15.982999801635742,4.941999912261963 11.888999938964844,-2.994999885559082 8.279000282287598,-3.374000072479248 C-15.982999801635742,-5.961999893188477 -2.0320000648498535,4.103000164031982 10.354999542236328,5.961999893188477z"></path></g><g opacity="1" transform="matrix(1,0,0,1,191.83399963378906,38.67399978637695)"><path stroke-linecap="round" stroke-linejoin="round" fill-opacity="0" stroke="rgb(43,42,41)" stroke-opacity="1" stroke-width="2.45" d=" M0.781000018119812,3.1670000553131104 C6.1529998779296875,3.3489999771118164 -9.420000076293945,-8.95300006866455 -7.498000144958496,-0.328000009059906 C0.22200000286102295,8.954000473022461 9.420000076293945,3.4149999618530273 0.781000018119812,3.1670000553131104z"></path></g><g opacity="1" transform="matrix(1,0,0,1,390.3810119628906,105.94999694824219)"><path stroke-linecap="round" stroke-linejoin="round" fill-opacity="0" stroke="rgb(43,42,41)" stroke-opacity="1" stroke-width="2.45" d=" M-13.937000274658203,0.210999995470047 C18.697999954223633,-14.152000427246094 8.52299976348877,14.152000427246094 -11.281999588012695,9.392000198364258 C-15.687000274658203,6.203000068664551 -18.697999954223633,5.4120001792907715 -13.937000274658203,0.210999995470047z"></path></g><g opacity="1" transform="matrix(1,0,0,1,433.0539855957031,147.26600646972656)"><path stroke-linecap="round" stroke-linejoin="round" fill-opacity="0" stroke="rgb(43,42,41)" stroke-opacity="1" stroke-width="2.45" d=" M-17.395999908447266,-6.6620001792907715 C1.559000015258789,8.166000366210938 -23.909000396728516,7.960000038146973 -12.802000045776367,12.736000061035156 C-12.031000137329102,13.71500015258789 -14.470000267028809,15.904000282287598 -15.321000099182129,16.575000762939453 C-22.45199966430664,25.573999404907227 23.909000396728516,22.63800048828125 -9.51200008392334,-8.529999732971191 C0.3190000057220459,-17.12700080871582 -22.94099998474121,-25.573999404907227 -17.395999908447266,-6.6620001792907715z"></path></g><g opacity="1" transform="matrix(1,0,0,1,405.24798583984375,149.71299743652344)"><path stroke-linecap="round" stroke-linejoin="round" fill-opacity="0" stroke="rgb(43,42,41)" stroke-opacity="1" stroke-width="2.45" d=" M3.562999963760376,7.073999881744385 C7.297999858856201,6.0370001792907715 7.7129998207092285,2.7170000076293945 5.2230000495910645,0.019999999552965164 C13.96399974822998,-13.090999603271484 -13.96399974822998,-0.07699999958276749 -2.0390000343322754,2.7170000076293945 C-6.395999908447266,6.658999919891357 -8.262999534606934,13.090999603271484 3.562999963760376,7.073999881744385z"></path></g><g opacity="1" transform="matrix(1,0,0,1,417.41400146484375,151.95399475097656)"><path stroke-linecap="butt" stroke-linejoin="miter" fill-opacity="0" stroke-miterlimit="4" stroke="rgb(43,42,41)" stroke-opacity="1" stroke-width="2.45" d=" M-2.1710000038146973,0.2680000066757202 C-2.1710000038146973,-0.35499998927116394 -2.5859999656677246,-3.052000045776367 -1.75600004196167,-3.052000045776367 C2.5859999656677246,-4.810999870300293 -0.08500000089406967,4.810999870300293 -2.1710000038146973,0.2680000066757202z"></path></g><g opacity="1" transform="matrix(1,0,0,1,514.2119750976562,224.78900146484375)"><path stroke-linecap="butt" stroke-linejoin="miter" fill-opacity="0" stroke-miterlimit="4" stroke="rgb(43,42,41)" stroke-opacity="1" stroke-width="2.45" d=" M-2.9049999713897705,-0.15600000321865082 C-5.701000213623047,-3.4619998931884766 4.656000137329102,-4.105000019073486 5.701000213623047,-4.046999931335449 C4.114999771118164,0.04800000041723251 1.656000018119812,4.104000091552734 -2.9049999713897705,-0.15600000321865082z"></path></g><g opacity="1" transform="matrix(1,0,0,1,471.9129943847656,221.093994140625)"><path stroke-linecap="butt" stroke-linejoin="miter" fill-opacity="0" stroke-miterlimit="4" stroke="rgb(43,42,41)" stroke-opacity="1" stroke-width="2.45" d=" M-1.8949999809265137,-1.440000057220459 C1.8919999599456787,-2.6570000648498535 3.694999933242798,2.6570000648498535 -2.552000045776367,0.9660000205039978 C-3.694999933242798,0.07699999958276749 -3.309999942779541,-0.45399999618530273 -1.8949999809265137,-1.440000057220459z"></path></g><g opacity="1" transform="matrix(1,0,0,1,466.0329895019531,211.1199951171875)"><path stroke-linecap="butt" stroke-linejoin="miter" fill-opacity="0" stroke-miterlimit="4" stroke="rgb(43,42,41)" stroke-opacity="1" stroke-width="2.45" d=" M4.815000057220459,-0.5960000157356262 C3.2100000381469727,-1.5820000171661377 -4.9670000076293945,-7.724999904632568 1.625,3.3980000019073486 C3.9639999866485596,7.724999904632568 4.9670000076293945,2.6080000400543213 4.815000057220459,-0.5960000157356262z"></path></g><g opacity="1" transform="matrix(1,0,0,1,584.64501953125,375.75299072265625)"><path stroke-linecap="round" stroke-linejoin="round" fill-opacity="0" stroke="rgb(43,42,41)" stroke-opacity="1" stroke-width="2.45" d=" M-3.4170000553131104,-1.5260000228881836 C-4.394999980926514,0.12399999797344208 -3.3459999561309814,2.813999891281128 -0.8889999985694885,3.450000047683716 C4.394000053405762,2.691999912261963 1.2359999418258667,-3.450000047683716 -3.4170000553131104,-1.5260000228881836z"></path></g></g></g></svg>