<svg xmlns="http://www.w3.org/2000/svg" xml:space="preserve" width="42px" height="39px" version="1.1" style="shape-rendering:geometricPrecision; text-rendering:geometricPrecision; image-rendering:optimizeQuality; fill-rule:evenodd; clip-rule:evenodd" viewBox="0 0 420 390" xmlns:xlink="http://www.w3.org/1999/xlink">
 <defs>
 </defs>
 <g id="Layer_x0020_1">
  <metadata id="CorelCorpID_0Corel-Layer"></metadata>
  <path class="fil0social" d="M161 389l78 0 0 -177 54 0 7 -66 -61 0c0,0 0,-43 0,-56 0,-15 3,-21 18,-21 12,0 43,0 43,0l0 -68c0,0 -45,0 -55,0 -57,0 -84,25 -84,74 0,43 0,71 0,71l-41 0 0 66 41 0 0 177 0 0z"></path>
 </g>
</svg>