<svg xmlns="http://www.w3.org/2000/svg" viewBox="0 0 90 90" width="90" height="90" preserveAspectRatio="xMidYMid meet" style="width: 100%; height: 100%; transform: translate3d(0px, 0px, 0px);"><defs><clipPath id="__lottie_element_70"><rect width="90" height="90" x="0" y="0"></rect></clipPath><mask id="__lottie_element_89" mask-type="alpha"><g transform="matrix(1,0,0,1,45,45)" opacity="1" style="display: block;"><g opacity="1" transform="matrix(1,0,0,1,0.25,0.25)"><path fill="rgb(255,255,255)" fill-opacity="1" d=" M0,-38.5 C-20.849000930786133,-38.5 -37.75,-21.26300048828125 -37.75,0 C-37.75,21.26300048828125 -20.849000930786133,38.5 0,38.5 C20.849000930786133,38.5 37.75,21.26300048828125 37.75,0 C37.75,-21.26300048828125 20.849000930786133,-38.5 0,-38.5z"></path><path stroke-linecap="butt" stroke-linejoin="miter" fill-opacity="0" stroke-miterlimit="4" stroke="rgb(255,0,246)" stroke-opacity="1" stroke-width="0" d=" M0,-38.5 C-20.849000930786133,-38.5 -37.75,-21.26300048828125 -37.75,0 C-37.75,21.26300048828125 -20.849000930786133,38.5 0,38.5 C20.849000930786133,38.5 37.75,21.26300048828125 37.75,0 C37.75,-21.26300048828125 20.849000930786133,-38.5 0,-38.5z"></path></g></g></mask></defs><g clip-path="url(#__lottie_element_70)"><g mask="url(#__lottie_element_89)" style="display: block;"><g transform="matrix(1,0,0,1,0,0)" opacity="1"><g opacity="1" transform="matrix(1,0,0,1,38.03499984741211,50.96699905395508)"><path fill="rgb(255,255,255)" fill-opacity="1" d=" M-20.82699966430664,19.67300033569336 C-20.82699966430664,19.67300033569336 -4.377999782562256,-6.385000228881836 -4.377999782562256,-6.385000228881836 C-4.377999782562256,-6.385000228881836 7.035999774932861,-24.16200065612793 7.035999774932861,-24.16200065612793 C7.035999774932861,-24.16200065612793 20.82699966430664,-1.6970000267028809 20.82699966430664,-1.6970000267028809 C20.82699966430664,-1.6970000267028809 -17.30500030517578,24.16200065612793 -17.30500030517578,24.16200065612793 C-17.30500030517578,24.16200065612793 -20.82699966430664,19.67300033569336 -20.82699966430664,19.67300033569336z"></path></g><g opacity="1" transform="matrix(1,0,0,1,45.76499938964844,61.987998962402344)"><path fill="rgb(255,220,11)" fill-opacity="1" d=" M27.496999740600586,9.680999755859375 C27.496999740600586,9.680999755859375 16.367000579833984,21.81100082397461 -0.6330000162124634,21.81100082397461 C-17.632999420166016,21.81100082397461 -27.496999740600586,12.104999542236328 -27.496999740600586,12.104999542236328 C-27.496999740600586,12.104999542236328 -25.033000946044922,8.229999542236328 -25.033000946044922,8.229999542236328 C-25.033000946044922,8.229999542236328 -9.961000442504883,-15.246999740600586 -9.961000442504883,-15.246999740600586 C-9.961000442504883,-15.246999740600586 -9.097000122070312,-14.243000030517578 -9.097000122070312,-14.243000030517578 C-9.097000122070312,-14.243000030517578 -4.673999786376953,-21.81100082397461 -4.673999786376953,-21.81100082397461 C-4.673999786376953,-21.81100082397461 1.7029999494552612,-10.755999565124512 1.7029999494552612,-10.755999565124512 C1.7029999494552612,-10.755999565124512 5.275000095367432,-18.4950008392334 5.275000095367432,-18.4950008392334 C5.275000095367432,-18.4950008392334 7.826000213623047,-15.093000411987305 7.826000213623047,-15.093000411987305 C7.826000213623047,-15.093000411987305 9.79800033569336,-18.43899917602539 9.79800033569336,-18.43899917602539 C9.79800033569336,-18.43899917602539 27.496999740600586,9.680999755859375 27.496999740600586,9.680999755859375z"></path></g><g opacity="1" transform="matrix(1,0,0,1,61.42399978637695,57.85599899291992)"><path stroke-linecap="round" stroke-linejoin="round" fill-opacity="0" stroke="rgb(255,255,255)" stroke-opacity="1" stroke-width="2.004" d=" M1.3980000019073486,-1.1089999675750732 C0.5120000243186951,-0.3160000145435333 -0.421999990940094,0.42500001192092896 -1.3980000019073486,1.1089999675750732"></path></g><g opacity="1" transform="matrix(1,0,0,1,50.106998443603516,73.12899780273438)"><path stroke-linecap="round" stroke-linejoin="round" fill-opacity="0" stroke="rgb(255,255,255)" stroke-opacity="1" stroke-width="2.004" d=" M19.76799964904785,-5.640999794006348 C13.505000114440918,1.2879999876022339 4.446000099182129,5.642000198364258 -5.630000114440918,5.642000198364258 C-10.67199993133545,5.642000198364258 -15.458999633789062,4.551000118255615 -19.76799964904785,2.5940001010894775"></path></g><g opacity="1" transform="matrix(1,0,0,1,55.85499954223633,68.51899719238281)"><path stroke-linecap="round" stroke-linejoin="round" fill-opacity="0" stroke="rgb(255,255,255)" stroke-opacity="1" stroke-width="2.004" d=" M11.656999588012695,-5.173999786376953 C5.90500020980835,1.180999994277954 -2.4089999198913574,5.173999786376953 -11.656000137329102,5.173999786376953"></path></g><g opacity="1" transform="matrix(1,0,0,1,61.3849983215332,62.79999923706055)"><path stroke-linecap="round" stroke-linejoin="round" fill-opacity="0" stroke="rgb(255,255,255)" stroke-opacity="1" stroke-width="2.004" d=" M3.9579999446868896,-2.9040000438690186 C1.6690000295639038,-0.5590000152587891 -1.003999948501587,1.4110000133514404 -3.9579999446868896,2.9040000438690186"></path></g><g opacity="1" transform="matrix(1,0,0,1,44.56100082397461,48.83100128173828)"><path stroke-linecap="round" stroke-linejoin="round" fill-opacity="0" stroke="rgb(58,57,57)" stroke-opacity="1" stroke-width="2.004" d=" M-27.552000045776367,21.684999465942383 C-27.552000045776367,21.684999465942383 0.5099999904632568,-22.024999618530273 0.5099999904632568,-22.024999618530273 C0.5099999904632568,-22.024999618530273 27.552000045776367,22.024999618530273 27.552000045776367,22.024999618530273"></path></g><g opacity="1" transform="matrix(1,0,0,1,44.60100173950195,46.025001525878906)"><path stroke-linecap="round" stroke-linejoin="round" fill-opacity="0" stroke="rgb(58,57,57)" stroke-opacity="1" stroke-width="2.004" d=" M10.944999694824219,-2.1549999713897705 C10.944999694824219,-2.1549999713897705 8.972999572753906,1.190999984741211 8.972999572753906,1.190999984741211 C8.972999572753906,1.190999984741211 6.421999931335449,-2.2109999656677246 6.421999931335449,-2.2109999656677246 C6.421999931335449,-2.2109999656677246 2.8499999046325684,5.5269999504089355 2.8499999046325684,5.5269999504089355 C2.8499999046325684,5.5269999504089355 -3.5269999504089355,-5.5269999504089355 -3.5269999504089355,-5.5269999504089355 C-3.5269999504089355,-5.5269999504089355 -7.948999881744385,2.0399999618530273 -7.948999881744385,2.0399999618530273 C-7.948999881744385,2.0399999618530273 -10.944999694824219,-1.440999984741211 -10.944999694824219,-1.440999984741211"></path></g></g></g><g style="display: block;" transform="matrix(1,0,0,1,0,0)" opacity="1"><g opacity="1" transform="matrix(1,0,0,1,40.176998138427734,16.361000061035156)"><path stroke-linecap="round" stroke-linejoin="round" fill-opacity="0" stroke="rgb(58,57,57)" stroke-opacity="1" stroke-width="2.004" d=" M-4.35699987411499,-2.6630001068115234 C-4.35699987411499,-2.6630001068115234 -0.007000000216066837,2.6760001182556152 -0.007000000216066837,2.6760001182556152 C-0.007000000216066837,2.6760001182556152 4.35699987411499,-2.6760001182556152 4.35699987411499,-2.6760001182556152"></path></g></g><g style="display: block;" transform="matrix(1,0,0,1,0,0)" opacity="1"><g opacity="1" transform="matrix(1,0,0,1,32.678001403808594,21.29800033569336)"><path stroke-linecap="round" stroke-linejoin="round" fill-opacity="0" stroke="rgb(58,57,57)" stroke-opacity="1" stroke-width="2.004" d=" M-2.302999973297119,-1.312999963760376 C-2.302999973297119,-1.312999963760376 -0.12800000607967377,1.3550000190734863 -0.12800000607967377,1.3550000190734863 C-0.12800000607967377,1.3550000190734863 2.302999973297119,-1.3550000190734863 2.302999973297119,-1.3550000190734863"></path></g></g><g transform="matrix(1,0,0,1,0,0)" opacity="1" style="display: block;"><g opacity="1" transform="matrix(1,0,0,1,46.61399841308594,44.93600082397461)"><path stroke-linecap="round" stroke-linejoin="round" fill-opacity="0" stroke="rgb(58,57,57)" stroke-opacity="1" stroke-width="2.671" d=" M-37.12099838256836,-15.505000114440918 C-31.141000747680664,-29.17799949645996 -17.493999481201172,-38.73500061035156 -1.6139999628067017,-38.73500061035156 C19.777999877929688,-38.73500061035156 37.12099838256836,-21.39299964904785 37.12099838256836,0 C37.12099838256836,21.39299964904785 19.777999877929688,38.73500061035156 -1.6139999628067017,38.73500061035156 C-13.619000434875488,38.73500061035156 -24.347999572753906,33.27399826049805 -31.452999114990234,24.700000762939453"></path></g></g><g style="display: block;" transform="matrix(1,0,0,1,0,0)" opacity="1"><g opacity="1" transform="matrix(1,0,0,1,64.69300079345703,31.476999282836914)"><path stroke-linecap="round" stroke-linejoin="round" fill-opacity="0" stroke="rgb(255,255,255)" stroke-opacity="1" stroke-width="0.935" d=" M7.572999954223633,2.006999969482422 C7.572999954223633,0.0430000014603138 5.980000019073486,-1.5490000247955322 4.015999794006348,-1.5490000247955322 C4.015999794006348,-3.7669999599456787 2.2179999351501465,-5.564000129699707 0.0010000000474974513,-5.564000129699707 C-2.2179999351501465,-5.564000129699707 -4.015999794006348,-3.7669999599456787 -4.015999794006348,-1.5490000247955322 C-5.980000019073486,-1.5490000247955322 -7.572000026702881,0.0430000014603138 -7.572000026702881,2.006999969482422 C-7.572000026702881,3.9709999561309814 -5.980000019073486,5.564000129699707 -4.015999794006348,5.564000129699707"></path></g><g opacity="1" transform="matrix(1,0,0,1,65.20099639892578,37.018001556396484)"><path stroke-linecap="round" stroke-linejoin="round" fill-opacity="0" stroke="rgb(255,255,255)" stroke-opacity="1" stroke-width="0.938" d=" M-1.0740000009536743,-0.004999999888241291 C-1.0740000009536743,-0.004999999888241291 1.0750000476837158,0.004999999888241291 1.0750000476837158,0.004999999888241291"></path></g></g><g style="display: block;" transform="matrix(1,0,0,1,0,0)" opacity="1"><g opacity="1" transform="matrix(1,0,0,1,0,0)"><path stroke-linecap="round" stroke-linejoin="round" fill-opacity="0" stroke="rgb(255,255,255)" stroke-opacity="1" stroke-width="0.932" d=" M68.14399719238281,37.04800033569336 C68.14399719238281,37.04800033569336 87.14399719238281,37.04800033569336 87.14399719238281,37.04800033569336"></path></g></g><g style="display: block;" transform="matrix(1,0,0,1,0,0)" opacity="1"><g opacity="1" transform="matrix(1,0,0,1,0,0)"><path stroke-linecap="round" stroke-linejoin="round" fill-opacity="0" stroke="rgb(255,255,255)" stroke-opacity="1" stroke-width="0.935" d=" M72.6760025024414,40.19200134277344 C72.6760025024414,40.19200134277344 79.87300109863281,40.19200134277344 79.87300109863281,40.19200134277344"></path></g></g></g></svg>