<svg xmlns="http://www.w3.org/2000/svg" xml:space="preserve" width="42px" height="39px" version="1.1" style="shape-rendering:geometricPrecision; text-rendering:geometricPrecision; image-rendering:optimizeQuality; fill-rule:evenodd; clip-rule:evenodd" viewBox="0 0 420 390" xmlns:xlink="http://www.w3.org/1999/xlink">
 <defs>
 </defs>
 <g id="Layer_x0020_1">
  <metadata id="CorelCorpID_0Corel-Layer"></metadata>
  <path class="fil0social" d="M210 104c-51,0 -91,40 -91,91 0,51 40,91 91,91 51,0 91,-40 91,-91 0,-51 -40,-91 -91,-91zm0 -54c47,0 53,1 71,1 17,1 27,4 34,6 7,3 14,8 20,13 5,6 10,13 13,20 2,7 5,17 6,34 0,18 1,24 1,71 0,47 -1,53 -1,71 -1,17 -4,27 -6,34 -3,7 -8,14 -13,20 -6,5 -13,10 -20,13 -7,2 -17,5 -34,6 -18,0 -24,1 -71,1 -47,0 -53,-1 -71,-1 -17,-1 -27,-4 -34,-6 -7,-3 -14,-8 -20,-13 -5,-6 -10,-13 -13,-20 -2,-7 -5,-17 -6,-34 0,-18 -1,-24 -1,-71 0,-47 1,-53 1,-71 1,-17 4,-27 6,-34 3,-7 8,-14 13,-20 6,-5 13,-10 20,-13 7,-2 17,-5 34,-6 18,0 24,-1 71,-1zm0 -32l0 0c-48,0 -54,0 -73,1 -19,1 -32,4 -42,9 -12,4 -22,10 -33,19 -9,11 -15,21 -19,33 -5,10 -8,23 -9,42 -1,19 -1,25 -1,73 0,48 0,54 1,73 1,19 4,32 9,42 4,12 10,22 19,33 11,9 21,15 33,19 10,5 23,8 42,9 19,1 25,1 73,1 48,0 54,0 73,-1 19,-1 32,-4 42,-9 12,-4 22,-10 33,-19 9,-11 15,-21 19,-33 5,-10 8,-23 9,-42 1,-19 1,-25 1,-73 0,-48 0,-54 -1,-73 -1,-19 -4,-32 -9,-42 -4,-12 -10,-22 -19,-33 -11,-9 -21,-15 -33,-19 -10,-5 -23,-8 -42,-9 -19,-1 -25,-1 -73,-1zm115 82c0,12 -9,22 -20,22 -12,0 -22,-10 -22,-22 0,-11 10,-20 22,-20 11,0 20,9 20,20zm-115 154l0 0c-32,0 -59,-27 -59,-59 0,-32 27,-59 59,-59 32,0 59,27 59,59 0,32 -27,59 -59,59z"></path>
 </g>
</svg>