<svg xmlns="http://www.w3.org/2000/svg" width="163" height="129" viewBox="0 0 1630 1290" shape-rendering="geometricPrecision" text-rendering="geometricPrecision" image-rendering="optimizeQuality" fill-rule="evenodd" clip-rule="evenodd"><path d="M1097 695c-119-60-200-183-200-325 0-202 163-366 365-366s365 164 365 366c0 40-6 79-18 115v1c-3 6-5 12-7 18l-285 782H934l163-591zm-894 0C84 635 3 512 3 370 3 168 166 4 368 4s365 164 365 366c0 40-6 79-19 115v1l-6 18-285 782H40l163-591z" fill="#3f3f3f"/></svg>