<svg xmlns="http://www.w3.org/2000/svg" width="163" height="129" viewBox="0 0 1630 1290" shape-rendering="geometricPrecision" text-rendering="geometricPrecision" image-rendering="optimizeQuality" fill-rule="evenodd" clip-rule="evenodd"><path d="M533 595c119 60 200 183 200 325 0 202-163 366-365 366S3 1122 3 920c0-40 6-79 18-115v-1c3-6 5-12 7-18L313 4h383L533 595zm894 0c119 60 200 183 200 325 0 202-163 366-365 366s-365-164-365-366c0-40 6-79 19-115v-1l6-18L1207 4h383l-163 591z" fill="#3f3f3f"/></svg>