<svg xmlns="http://www.w3.org/2000/svg" xml:space="preserve" width="42px" height="39px" version="1.1" style="shape-rendering:geometricPrecision; text-rendering:geometricPrecision; image-rendering:optimizeQuality; fill-rule:evenodd; clip-rule:evenodd" viewBox="0 0 420 390" xmlns:xlink="http://www.w3.org/1999/xlink">
 <defs>
 </defs>
 <g id="Layer_x0020_1">
  <metadata id="CorelCorpID_0Corel-Layer"></metadata>
  <path class="fil0social" d="M230 249c0,-34 16,-54 46,-54 27,0 41,19 41,54 0,35 0,127 0,127l74 0c0,0 0,-88 0,-153 0,-64 -37,-95 -88,-95 -51,0 -73,39 -73,39l0 -33 -72 0 0 242 72 0c0,0 0,-90 0,-127l0 0zm-157 -146c25,0 45,-20 45,-45 0,-24 -20,-44 -45,-44 -24,0 -44,20 -44,44 0,25 20,45 44,45zm-37 273l75 0 0 -242 -75 0 0 242z"></path>
 </g>
</svg>