<svg xmlns="http://www.w3.org/2000/svg" viewBox="0 0 220 70" class="svg_logo">
    <path class="logo_lamp_bg" fill="#ffdc0c"
        d="M32.48 45.73c-.15-.83-.52-2.36.03-3.07.82-1.08 3.39.14 3.58-1.76.04-.42-.16-.79-.2-1.16.31-.71 1.11-.73.08-2.02-.38-.47 1.54-.52 1-1.42l-1.69-2.85c-.21-.43.36-.66.11-1.25-.45-1.03-.95-2.32-1.36-3.29-.12-.29-2.03-3.31-7.18-2.47a6.44 6.44 0 00-5.21 4.64c-.49 1.62-.11 3.35.35 4.93a10.6 10.6 0 003.04 4.71c.55.51.98 1.04 1.36 1.69.76 1.28.58 2.91.48 4.33-.02.33-.31 1.7-.12 1.69.64-.05 1.28-.32 1.91-.44 1.01-.18 2.06-.22 3.08-.13.3.03 1.4.01 1.53-.07-.15-.29-.34-.55-.48-.85-.18-.37-.23-.82-.31-1.21">
    </path>
    <path
        d="M14.98 29.56c.58-12.41 12.1-13.44 12.21-13.46.12-.02 13.37-1.42 15.09 12 .04.18.98 4.59-2.43 10.67-.43.79-1.52 3.14-1.33 4.4.15.97.27 2.1-.05 3.04-.13.37-.39.62-.77.72l-.67.17c-.63.16-1.26.32-1.9.45-.58.13-1.17.26-1.76.31-.11.01-.22.02-.33.01-.25-.01-.32-.07-.4-.29l-.1-.29-.07-.25c-.35-1.13-.98-3.64-.14-4.75l.05-.07.08-.04c.04-.02.97-.54 2.54-.6 0 0 .41-.06.61-.36.14-.22.15-.55.04-.94l-.12-.38-.03-.13c-.03-.11.71-.65.48-1.18l-.05-.1c-.15-.19-.45-.66-.35-1.08.05-.2.18-.36.37-.45l.05-.02c.32-.1.64-.32.65-.41l-.02-.04-1.62-2.72a.99.99 0 01-.03-1.12l.03-.05c.02-.06.02-.24-.12-.55l-.73-1.55-.49-1.42c0-.01-.22-.5-.79-.98a6.82 6.82 0 00-5.08-1.46l-.15.01c-3.08.31-4.39 1.88-4.9 2.79-.72 1.29-1.06 2.2-.93 3.66.14 1.53.54 3.13 1.08 4.27a8.54 8.54 0 001.31 2.05l.28.35c.09.12.33.37.59.63.98 1.01 1.8 1.89 1.94 2.56.04.18.11.35.14.53.08.39.12.78.15 1.18a30.8 30.8 0 01-.06 2.98c-.03.32 0 .8-.44.84a.44.44 0 01-.48-.39l-.01-.07c.35-3.53-.14-4.76-.14-4.76l-.03-.11c-.08-.46-1.19-1.6-1.72-2.15-.3-.31-.54-.56-.66-.72l-.26-.32c-.36-.44-.86-1.05-1.42-2.23a14.19 14.19 0 01-1.16-4.57 6.47 6.47 0 011.04-4.16c.6-1.06 2.11-2.89 5.58-3.24l.17-.02c2.22-.19 4.2.38 5.72 1.66a3.8 3.8 0 011.05 1.34l.48 1.38.72 1.52c.4.83.16 1.29.03 1.46-.01.03-.03.07 0 .11l.04.05c.05.08 1.25 2.07 1.64 2.76.19.34.15.63.07.81-.17.44-.67.71-.98.84.04.08.11.18.18.27.2.3.19.57.14.74-.02.09-.06.16-.1.23.05.11.06.22.05.3a.75.75 0 01-.34.56.9.9 0 00.06.2c.21.69.16 1.27-.13 1.72a1.8 1.8 0 01-1.27.75 5.69 5.69 0 00-2.09.45c-.08.13-.12.29-.15.44a5.5 5.5 0 00.12 2.02c.07.37.16.73.26 1.09.04.13.06.36.17.45.1.08.26.03.37.02l.33-.06.91-.19 1.45-.34c.39-.1 1.01-.12 1.22-.53.16-.32.1-.74.09-1.08-.01-.48-.05-.96-.12-1.43-.26-1.82 1.36-4.83 1.43-4.96 3.23-5.76 2.35-10.01 2.34-10.09-1.61-12.59-13.6-11.33-14.13-11.28-.45.04-10.87 1-11.42 12.62-.06 1.29.28 2.7.58 3.78.37 1.33.9 2.61 1.57 3.8.54.95 1.23 1.83 1.91 2.69 1.41 1.79 2.87 3.64 3 6.24 0 .02.16 1.99 1.47 2.54 1.39.59 9.07-.13 11.47-.8l.06-.02h.06c.58 0 1.16.34 1.4.88.19.42.23.96.01 1.37-.2.38-.59.64-1.17.79-.28.05-6.88 1.34-10.71.86-.06 0-.28.01-.37.11-.12.12-.09.38-.04.53.07.19.23.32.44.36.05.01 4.85.9 10.86-1a.41.41 0 01.22-.01c.38.08 1.04.42 1.12 1.17.08.45-.04 1.36-.96 1.61-.22.07-5.56 1.75-11.04.8-.21-.04-.24.23-.23.38.01.22.12.42.35.46.05.01 5.36 1.09 10.79-.91a.37.37 0 01.29 0c.33.11.94.56.87 1.45-.03.32-.24.93-.89 1.18-.18.07-4.42 1.67-9.3.99.68.54 3.69 2.26 4.32 2.2h.04c.13-.05.82-.35 2.98-2.19.07-.06.15-.1.24-.12.24-.02.46.15.48.39a.41.41 0 01-.04.22.75.75 0 01-.22.25l-.31.26-.57.47-.92.72c-.37.27-.74.54-1.15.74a1.6 1.6 0 01-.42.14h-.12c-1.24-.01-4.58-2.15-4.94-2.46-.31-.27-.35-.55-.33-.74.05-.45.47-.7.56-.74.09-.05.17-.06.28-.05 4.75.75 9.07-.88 9.11-.9a.53.53 0 00.33-.43c.01-.13-.02-.49-.22-.46-.13.01-.28.1-.4.14l-.4.13a22.98 22.98 0 01-10.07.63l-.16-.03a1.63 1.63 0 01-.37-.13c-.3-.16-.51-.44-.61-.76a1.7 1.7 0 01-.07-.45 1.6 1.6 0 01.05-.58c.04-.1.09-.19.16-.28.3-.36.82-.39.92-.4l.09.01c5.28.94 10.62-.74 10.69-.76.39-.1.36-.51.34-.65-.02-.16-.14-.34-.31-.37-.12-.02-.24.04-.35.08l-.41.12a28.01 28.01 0 01-6.91 1.01 23.47 23.47 0 01-3.09-.17l-.42-.07a1.38 1.38 0 01-.84-.48c-.43-.51-.51-1.4-.02-1.9.4-.4.99-.37 1.09-.37 3.71.46 10.39-.84 10.43-.84.3-.08.5-.19.58-.34.08-.13.05-.27.05-.27-.05-.21-.08-.42-.27-.56-.08-.05-.25-.15-.35-.12-2.5.67-10.27 1.46-11.98.74-1.81-.76-2-3.2-2.01-3.31-.11-2.33-1.42-3.99-2.81-5.75-.7-.88-1.41-1.79-1.98-2.8a18.14 18.14 0 01-1.65-3.99 11.74 11.74 0 01-.66-4.05"
        class="svg_logo_main"></path>
    <path
        d="M46.28 53.25l.76-1.78c.73.38 1.4.55 2.37.55 1.34 0 2.19-.7 3.09-2.83l-6.86-15.04h2.48l5.49 12.58 4.85-12.58h2.39l-6.34 15.59C53.23 52.86 51.77 54 49.49 54a6.73 6.73 0 01-3.21-.75M68.02 47.65c2.07 0 3.53-.85 4.76-2.13l1.4 1.26a7.8 7.8 0 01-6.22 2.83c-4.15 0-7.53-3.18-7.53-7.88 0-4.38 3.07-7.88 7.24-7.88 4.47 0 7.04 3.56 7.04 8 0 .2 0 .44-.03.79H62.7c.33 3.17 2.66 5.01 5.32 5.01m4.41-6.84c-.26-2.74-1.84-5.08-4.82-5.08-2.6 0-4.58 2.16-4.91 5.08h9.73zM77.94 27.94h2.25v21.31h-2.25zM84.7 27.94h2.25v21.31H84.7zM89.44 42.16v-.06a7.81 7.81 0 017.88-7.88 7.75 7.75 0 017.85 7.82v.06a7.84 7.84 0 01-7.91 7.88 7.73 7.73 0 01-7.82-7.82m13.43 0v-.06c0-3.24-2.42-5.9-5.61-5.9-3.27 0-5.52 2.66-5.52 5.84v.06c0 3.24 2.39 5.87 5.58 5.87 3.28 0 5.55-2.63 5.55-5.81zM105.68 34.16h2.39l3.97 12.11 4.06-12.17h1.87l4.09 12.17 3.97-12.11h2.33l-5.31 15.21h-1.96l-4.05-11.91-4.09 11.91h-1.99zM131.83 29.23h4.47v8.03h8.24v-8.03H149v20.3h-4.46v-8.15h-8.24v8.15h-4.47zM151.41 29.23h15.31v3.97h-10.87v4.12h9.57v3.97h-9.57v4.27h11.02v3.97h-15.46zM192.32 29.23h7.92c6.38 0 10.79 4.38 10.79 10.1v.06c0 5.72-4.41 10.15-10.79 10.15h-7.92V29.23zm7.92 16.27c3.65 0 6.12-2.47 6.12-6.06v-.06c0-3.6-2.46-6.12-6.12-6.12h-3.45V45.5h3.45zM177.03 29.24h5.38l8.57 20.28H185l-1.47-3.6h-7.77l-1.44 3.6h-5.87l8.58-20.28zm4.89 12.34l-2.24-5.72-2.27 5.72h4.51z"
        class="svg_logo_main svg_logo_text"></path>
    <path d="M12.5 30.88h-5a.38.38 0 110-.76h5a.38.38 0 110 .76z" class="logo_line line1 svg_logo_main">
    </path>
    <path
        d="M16.5 18.88a.4.4 0 01-.27-.11l-4-4c-.15-.15-.15-.38 0-.53s.38-.15.53 0l4 4c.15.15.15.38 0 .53a.36.36 0 01-.26.11z"
        class="logo_line line2 svg_logo_main"></path>
    <path
        d="M27 13.38a.38.38 0 01-.37-.31l-1-6c-.03-.2.1-.4.31-.43.2-.03.4.1.43.31l1 6c.03.2-.1.4-.31.43H27z"
        class="logo_line line3 svg_logo_main"></path>
    <path
        d="M37.5 15.88a.35.35 0 01-.14-.03.38.38 0 01-.21-.49l2-5a.38.38 0 11.7.28l-2 5a.38.38 0 01-.35.24z"
        class="logo_line line4 svg_logo_main"></path>
    <path
        d="M44.5 24.88a.38.38 0 01-.14-.73l5-2c.19-.08.41.02.49.21a.38.38 0 01-.21.49l-5 2a.35.35 0 01-.14.03z"
        class="logo_line line5 svg_logo_main"></path>
</svg>