<svg xmlns="http://www.w3.org/2000/svg" viewBox="0 0 450 600" width="450" height="600" preserveAspectRatio="xMidYMid meet" style="width: 100%; height: 100%; transform: translate3d(0px, 0px, 0px);"><defs><clipPath id="__lottie_element_343"><rect width="450" height="600" x="0" y="0"></rect></clipPath></defs><g clip-path="url(#__lottie_element_343)"><g class="m_shadow" transform="matrix(1,0,0,1,49.555999755859375,559.7760009765625)" opacity="0.3" style="display: block;"><g opacity="1" transform="matrix(1,0,0,1,181.44400024414062,12.00100040435791)"><path fill="rgb(64,64,65)" fill-opacity="1" d=" M181.44400024414062,0 C181.44400024414062,-6.627999782562256 100.20899963378906,-12.00100040435791 0,-12.00100040435791 C-100.20899963378906,-12.00100040435791 -181.44500732421875,-6.627999782562256 -181.44500732421875,0 C-181.44500732421875,6.627999782562256 -100.20899963378906,12.00100040435791 0,12.00100040435791 C100.20899963378906,12.00100040435791 181.44400024414062,6.627999782562256 181.44400024414062,0z"></path></g></g><g class="m_leg_r" transform="matrix(1,0,0,1,225.44900512695312,447.51898193359375)" opacity="1" style="display: block;"><g opacity="1" transform="matrix(1,0,0,1,72.00399780273438,69.01300048828125)"><path fill="rgb(255,221,11)" fill-opacity="1" d=" M-39.00899887084961,-54.42100143432617 C-30.743999481201172,-59.01300048828125 -24.785999298095703,-52.8650016784668 -22.565000534057617,-49.310001373291016 C-20.341999053955078,-45.755001068115234 2.9059998989105225,-12.199000358581543 -4.785999774932861,-2.681999921798706 C-11.892000198364258,6.107999801635742 -21.645000457763672,16.69499969482422 -21.44499969482422,29.58099937438965 C-3.8529999256134033,25.62700080871582 17.01300048828125,19.860000610351562 30.332000732421875,22.163999557495117 C43.650001525878906,24.468000411987305 62.00400161743164,34.766998291015625 57.08399963378906,42.86399841308594 C52.16400146484375,50.96099853515625 42.512001037597656,59.01300048828125 7.880000114440918,58.82600021362305 C-26.750999450683594,58.64099884033203 -53.095001220703125,54.22700119018555 -62.00400161743164,57.441001892089844 C-50.987998962402344,39.150001525878906 -40.832000732421875,34.36899948120117 -34.551998138427734,23.733999252319336 C-29.958999633789062,15.956000328063965 -29.62700080871582,8.449000358581543 -31.850000381469727,1.2990000247955322 C-34.071998596191406,-5.85099983215332 -46.564998626708984,-30.42099952697754 -49.00899887084961,-35.97700119018555 C-51.452999114990234,-41.53200149536133 -47.00899887084961,-49.97700119018555 -39.00899887084961,-54.42100143432617z"></path><path stroke-linecap="round" stroke-linejoin="round" fill-opacity="0" stroke="rgb(62,62,62)" stroke-opacity="1" stroke-width="4" d=" M-39.00899887084961,-54.42100143432617 C-30.743999481201172,-59.01300048828125 -24.785999298095703,-52.8650016784668 -22.565000534057617,-49.310001373291016 C-20.341999053955078,-45.755001068115234 2.9059998989105225,-12.199000358581543 -4.785999774932861,-2.681999921798706 C-11.892000198364258,6.107999801635742 -21.645000457763672,16.69499969482422 -21.44499969482422,29.58099937438965 C-3.8529999256134033,25.62700080871582 17.01300048828125,19.860000610351562 30.332000732421875,22.163999557495117 C43.650001525878906,24.468000411987305 62.00400161743164,34.766998291015625 57.08399963378906,42.86399841308594 C52.16400146484375,50.96099853515625 42.512001037597656,59.01300048828125 7.880000114440918,58.82600021362305 C-26.750999450683594,58.64099884033203 -53.095001220703125,54.22700119018555 -62.00400161743164,57.441001892089844 C-50.987998962402344,39.150001525878906 -40.832000732421875,34.36899948120117 -34.551998138427734,23.733999252319336 C-29.958999633789062,15.956000328063965 -29.62700080871582,8.449000358581543 -31.850000381469727,1.2990000247955322 C-34.071998596191406,-5.85099983215332 -46.564998626708984,-30.42099952697754 -49.00899887084961,-35.97700119018555 C-51.452999114990234,-41.53200149536133 -47.00899887084961,-49.97700119018555 -39.00899887084961,-54.42100143432617z"></path></g><g opacity="1" transform="matrix(1,0,0,1,130.656005859375,107.42900085449219)"><path fill="rgb(62,62,62)" fill-opacity="1" d=" M-8.475000381469727,-0.3400000035762787 C-9.043000221252441,-3.9800000190734863 -4.336999893188477,-5.6529998779296875 -1.065999984741211,-5.021999835968018 C2.2049999237060547,-4.388999938964844 8.149999618530273,-1.5609999895095825 9.043000221252441,5.6519999504089355 C4.8420000076293945,-0.22499999403953552 1.6390000581741333,3.371000051498413 -1.815000057220459,3.5850000381469727 C-5.269000053405762,3.7990000247955322 -7.914000034332275,3.252000093460083 -8.475000381469727,-0.3400000035762787z"></path></g><g opacity="1" transform="matrix(1,0,0,1,127.12100219726562,117.73200225830078)"><path fill="rgb(62,62,62)" fill-opacity="1" d=" M-12.416999816894531,-0.49799999594688416 C-13.24899959564209,-5.829999923706055 -6.355000019073486,-8.281999588012695 -1.562000036239624,-7.355000019073486 C3.2300000190734863,-6.428999900817871 11.940999984741211,-2.2839999198913574 13.24899959564209,8.282999992370605 C7.0960001945495605,-0.3269999921321869 2.4010000228881836,4.939000129699707 -2.6589999198913574,5.252999782562256 C-7.71999979019165,5.565999984741211 -11.595000267028809,4.765999794006348 -12.416999816894531,-0.49799999594688416z"></path></g></g><g class="m_leg_l" transform="matrix(1,0,0,1,92.98800659179688,447.5190124511719)" opacity="1" style="display: block;"><g opacity="1" transform="matrix(1,0,0,1,72.00399780273438,69.01300048828125)"><path fill="rgb(255,221,11)" fill-opacity="1" d=" M39.007999420166016,-54.42100143432617 C30.743000030517578,-59.01300048828125 24.785999298095703,-52.8650016784668 22.56399917602539,-49.310001373291016 C20.340999603271484,-45.755001068115234 -2.9070000648498535,-12.199000358581543 4.785999774932861,-2.681999921798706 C11.890000343322754,6.107999801635742 21.643999099731445,16.69499969482422 21.444000244140625,29.58099937438965 C3.8519999980926514,25.62700080871582 -17.013999938964844,19.860000610351562 -30.33300018310547,22.163999557495117 C-43.652000427246094,24.468000411987305 -62.00400161743164,34.766998291015625 -57.084999084472656,42.86399841308594 C-52.165000915527344,50.96099853515625 -42.51300048828125,59.01300048828125 -7.88100004196167,58.82600021362305 C26.750999450683594,58.64099884033203 53.09400177001953,54.22700119018555 62.00400161743164,57.441001892089844 C50.98699951171875,39.150001525878906 40.83100128173828,34.36899948120117 34.55099868774414,23.733999252319336 C29.958999633789062,15.956000328063965 29.62700080871582,8.449000358581543 31.849000930786133,1.2990000247955322 C34.07099914550781,-5.85099983215332 46.56399917602539,-30.42099952697754 49.007999420166016,-35.97700119018555 C51.45199966430664,-41.53200149536133 47.007999420166016,-49.97700119018555 39.007999420166016,-54.42100143432617z"></path><path stroke-linecap="round" stroke-linejoin="round" fill-opacity="0" stroke="rgb(62,62,62)" stroke-opacity="1" stroke-width="4" d=" M39.007999420166016,-54.42100143432617 C30.743000030517578,-59.01300048828125 24.785999298095703,-52.8650016784668 22.56399917602539,-49.310001373291016 C20.340999603271484,-45.755001068115234 -2.9070000648498535,-12.199000358581543 4.785999774932861,-2.681999921798706 C11.890000343322754,6.107999801635742 21.643999099731445,16.69499969482422 21.444000244140625,29.58099937438965 C3.8519999980926514,25.62700080871582 -17.013999938964844,19.860000610351562 -30.33300018310547,22.163999557495117 C-43.652000427246094,24.468000411987305 -62.00400161743164,34.766998291015625 -57.084999084472656,42.86399841308594 C-52.165000915527344,50.96099853515625 -42.51300048828125,59.01300048828125 -7.88100004196167,58.82600021362305 C26.750999450683594,58.64099884033203 53.09400177001953,54.22700119018555 62.00400161743164,57.441001892089844 C50.98699951171875,39.150001525878906 40.83100128173828,34.36899948120117 34.55099868774414,23.733999252319336 C29.958999633789062,15.956000328063965 29.62700080871582,8.449000358581543 31.849000930786133,1.2990000247955322 C34.07099914550781,-5.85099983215332 46.56399917602539,-30.42099952697754 49.007999420166016,-35.97700119018555 C51.45199966430664,-41.53200149536133 47.007999420166016,-49.97700119018555 39.007999420166016,-54.42100143432617z"></path></g><g opacity="1" transform="matrix(1,0,0,1,13.35200023651123,107.42900085449219)"><path fill="rgb(62,62,62)" fill-opacity="1" d=" M8.475000381469727,-0.3400000035762787 C9.043000221252441,-3.9800000190734863 4.335999965667725,-5.6529998779296875 1.065999984741211,-5.021999835968018 C-2.2049999237060547,-4.388999938964844 -8.149999618530273,-1.5609999895095825 -9.043000221252441,5.6519999504089355 C-4.8429999351501465,-0.22499999403953552 -1.6390000581741333,3.371000051498413 1.8140000104904175,3.5850000381469727 C5.26800012588501,3.7990000247955322 7.914000034332275,3.252000093460083 8.475000381469727,-0.3400000035762787z"></path></g><g opacity="1" transform="matrix(1,0,0,1,17.334999084472656,117.73200225830078)"><path fill="rgb(62,62,62)" fill-opacity="1" d=" M12.416999816894531,-0.49799999594688416 C13.25,-5.829999923706055 6.354000091552734,-8.281999588012695 1.5609999895095825,-7.355000019073486 C-3.2309999465942383,-6.428999900817871 -11.942000389099121,-2.2839999198913574 -13.25,8.282999992370605 C-7.0960001945495605,-0.3269999921321869 -2.4019999504089355,4.939000129699707 2.6589999198913574,5.252999782562256 C7.718999862670898,5.565999984741211 11.595999717712402,4.765999794006348 12.416999816894531,-0.49799999594688416z"></path></g></g><g class="m_ear_base_r" transform="matrix(0.9953782558441162,-0.0960315391421318,0.0960315391421318,0.9953782558441162,172.74510192871094,15.209078788757324)" opacity="1" style="display: block;"><g opacity="1" transform="matrix(1,0,0,1,109.13400268554688,101.72100067138672)"><path fill="rgb(255,221,11)" fill-opacity="1" d=" M-94.13400268554688,17.863000869750977 C-91.39399719238281,-4.054999828338623 -73.7979965209961,-76.13400268554688 1.9290000200271606,-81.4280014038086 C77.65599822998047,-86.72100067138672 94.13400268554688,10.53499984741211 91.96900177001953,42.05500030517578 C71.43299865722656,22.31599998474121 51.20199966430664,45.54499816894531 49.90999984741211,67.70800018310547 C30.545000076293945,51.94499969482422 9.355999946594238,52.1609992980957 -3.309000015258789,86.72000122070312 C-21.60300064086914,46.01900100708008 -49.750999450683594,15.50100040435791 -94.13400268554688,17.863000869750977z"></path><path stroke-linecap="round" stroke-linejoin="round" fill-opacity="0" stroke="rgb(62,62,62)" stroke-opacity="1" stroke-width="6" d=" M-94.13400268554688,17.863000869750977 C-91.39399719238281,-4.054999828338623 -73.7979965209961,-76.13400268554688 1.9290000200271606,-81.4280014038086 C77.65599822998047,-86.72100067138672 94.13400268554688,10.53499984741211 91.96900177001953,42.05500030517578 C71.43299865722656,22.31599998474121 51.20199966430664,45.54499816894531 49.90999984741211,67.70800018310547 C30.545000076293945,51.94499969482422 9.355999946594238,52.1609992980957 -3.309000015258789,86.72000122070312 C-21.60300064086914,46.01900100708008 -49.750999450683594,15.50100040435791 -94.13400268554688,17.863000869750977z"></path></g><g opacity="1" transform="matrix(1,0,0,1,155.31100463867188,88.37300109863281)"><path stroke-linecap="round" stroke-linejoin="round" fill-opacity="0" stroke="rgb(62,62,62)" stroke-opacity="1" stroke-width="4" d=" M-2.6640000343322754,-6.033999919891357 C1.8819999694824219,-0.0560000017285347 2.6640000343322754,6.033999919891357 2.6640000343322754,6.033999919891357"></path></g><g opacity="1" transform="matrix(1,0,0,1,134.29100036621094,65.22000122070312)"><path stroke-linecap="round" stroke-linejoin="round" fill-opacity="0" stroke="rgb(62,62,62)" stroke-opacity="1" stroke-width="4" d=" M-10.618000030517578,-6.925000190734863 C-1.9819999933242798,-4.519999980926514 6.3420000076293945,2.500999927520752 10.618000030517578,6.925000190734863"></path></g><g opacity="1" transform="matrix(1,0,0,1,88.54100036621094,53.57099914550781)"><path stroke-linecap="round" stroke-linejoin="round" fill-opacity="0" stroke="rgb(62,62,62)" stroke-opacity="1" stroke-width="4" d=" M-21.45400047302246,4.0980000495910645 C-15.850000381469727,0.4880000054836273 -1.6790000200271606,-4.0980000495910645 21.45400047302246,0.503000020980835"></path></g><g opacity="1" transform="matrix(1,0,0,1,91.83499908447266,84.00299835205078)"><path stroke-linecap="round" stroke-linejoin="round" fill-opacity="0" stroke="rgb(62,62,62)" stroke-opacity="1" stroke-width="4" d=" M-20.304000854492188,-9.812000274658203 C-5.193999767303467,-7.5960001945495605 9.918000221252441,0.38100001215934753 20.304000854492188,9.812000274658203"></path></g><g opacity="1" transform="matrix(1,0,0,1,93.4020004272461,112.42500305175781)"><path stroke-linecap="round" stroke-linejoin="round" fill-opacity="0" stroke="rgb(62,62,62)" stroke-opacity="1" stroke-width="4" d=" M-3.7960000038146973,-4.796000003814697 C-0.7599999904632568,-2.684999942779541 2.687999963760376,1.5369999408721924 3.7960000038146973,4.796000003814697"></path></g></g><g class="m_ear_base_l" transform="matrix(0.9953782558441162,-0.0960315391421318,0.0960315391421318,0.9953782558441162,-21.249868392944336,33.103851318359375)" opacity="1" style="display: block;"><g opacity="1" transform="matrix(1,0,0,1,109.13400268554688,101.72100067138672)"><path fill="rgb(255,221,11)" fill-opacity="1" d=" M94.13500213623047,17.863000869750977 C91.3949966430664,-4.054999828338623 73.7979965209961,-76.13400268554688 -1.9290000200271606,-81.4280014038086 C-77.65699768066406,-86.72100067138672 -94.13500213623047,10.53499984741211 -91.97000122070312,42.05500030517578 C-71.43399810791016,22.31599998474121 -51.20199966430664,45.54499816894531 -49.9109992980957,67.70800018310547 C-30.545000076293945,51.94499969482422 -9.355999946594238,52.1609992980957 3.309000015258789,86.72000122070312 C21.604000091552734,46.01900100708008 49.75199890136719,15.50100040435791 94.13500213623047,17.863000869750977z"></path><path stroke-linecap="round" stroke-linejoin="round" fill-opacity="0" stroke="rgb(62,62,62)" stroke-opacity="1" stroke-width="6" d=" M94.13500213623047,17.863000869750977 C91.3949966430664,-4.054999828338623 73.7979965209961,-76.13400268554688 -1.9290000200271606,-81.4280014038086 C-77.65699768066406,-86.72100067138672 -94.13500213623047,10.53499984741211 -91.97000122070312,42.05500030517578 C-71.43399810791016,22.31599998474121 -51.20199966430664,45.54499816894531 -49.9109992980957,67.70800018310547 C-30.545000076293945,51.94499969482422 -9.355999946594238,52.1609992980957 3.309000015258789,86.72000122070312 C21.604000091552734,46.01900100708008 49.75199890136719,15.50100040435791 94.13500213623047,17.863000869750977z"></path></g><g opacity="1" transform="matrix(1,0,0,1,62.957000732421875,88.37300109863281)"><path stroke-linecap="round" stroke-linejoin="round" fill-opacity="0" stroke="rgb(62,62,62)" stroke-opacity="1" stroke-width="4" d=" M2.6640000343322754,-6.033999919891357 C-1.88100004196167,-0.0560000017285347 -2.6640000343322754,6.033999919891357 -2.6640000343322754,6.033999919891357"></path></g><g opacity="1" transform="matrix(1,0,0,1,83.97799682617188,65.22000122070312)"><path stroke-linecap="round" stroke-linejoin="round" fill-opacity="0" stroke="rgb(62,62,62)" stroke-opacity="1" stroke-width="4" d=" M10.618000030517578,-6.925000190734863 C1.9819999933242798,-4.519999980926514 -6.341000080108643,2.500999927520752 -10.618000030517578,6.925000190734863"></path></g><g opacity="1" transform="matrix(1,0,0,1,129.7270050048828,53.57099914550781)"><path stroke-linecap="round" stroke-linejoin="round" fill-opacity="0" stroke="rgb(62,62,62)" stroke-opacity="1" stroke-width="4" d=" M21.454999923706055,4.0980000495910645 C15.85099983215332,0.4880000054836273 1.6779999732971191,-4.0980000495910645 -21.454999923706055,0.503000020980835"></path></g><g opacity="1" transform="matrix(1,0,0,1,126.43299865722656,84.00299835205078)"><path stroke-linecap="round" stroke-linejoin="round" fill-opacity="0" stroke="rgb(62,62,62)" stroke-opacity="1" stroke-width="4" d=" M20.30500030517578,-9.812000274658203 C5.193999767303467,-7.5960001945495605 -9.918000221252441,0.38100001215934753 -20.30500030517578,9.812000274658203"></path></g><g opacity="1" transform="matrix(1,0,0,1,124.86799621582031,112.42500305175781)"><path stroke-linecap="round" stroke-linejoin="round" fill-opacity="0" stroke="rgb(62,62,62)" stroke-opacity="1" stroke-width="4" d=" M3.7960000038146973,-4.796000003814697 C0.7590000033378601,-2.684999942779541 -2.688999891281128,1.5369999408721924 -3.7960000038146973,4.796000003814697"></path></g></g><g class="m_arm_l" transform="matrix(0.9999949932098389,-0.0031696539372205734,0.0031696539372205734,0.9999949932098389,10.47119140625,250.84178161621094)" opacity="1" style="display: block;"><g opacity="1" transform="matrix(1,0,0,1,77.93299865722656,135.93800354003906)"><path fill="rgb(255,221,11)" fill-opacity="1" d=" M53.70399856567383,-119.90799713134766 C49.82500076293945,-125.93699645996094 41.97700119018555,-122.96399688720703 37.308998107910156,-118.29000091552734 C32.64099884033203,-113.61699676513672 -1.3329999446868896,-74.05599975585938 -16.04400062561035,-44.01100158691406 C-20.64299964904785,-34.617000579833984 -36.38100051879883,-1.4639999866485596 -40.722999572753906,7.888999938964844 C-56.222999572753906,41.27799987792969 -56.66699981689453,70.83200073242188 -51.44499969482422,92.48799896240234 C-48.768001556396484,103.58899688720703 -39.422000885009766,125.93800354003906 -18.79199981689453,101.65799713134766 C-10.364999771118164,91.73999786376953 -0.003000000026077032,56.86000061035156 -0.003000000026077032,14.09000015258789 C-0.003000000026077032,3.2769999504089355 5.7129998207092285,-26.81599998474121 7.798999786376953,-36.145999908447266 C15.569999694824219,-70.89299774169922 42.76499938964844,-97.06999969482422 45.64099884033203,-100.35199737548828 C48.36899948120117,-103.46499633789062 56.66699981689453,-115.30400085449219 53.70399856567383,-119.90799713134766z"></path><path stroke-linecap="round" stroke-linejoin="miter" fill-opacity="0" stroke-miterlimit="10" stroke="rgb(62,62,62)" stroke-opacity="1" stroke-width="4" d=" M53.70399856567383,-119.90799713134766 C49.82500076293945,-125.93699645996094 41.97700119018555,-122.96399688720703 37.308998107910156,-118.29000091552734 C32.64099884033203,-113.61699676513672 -1.3329999446868896,-74.05599975585938 -16.04400062561035,-44.01100158691406 C-20.64299964904785,-34.617000579833984 -36.38100051879883,-1.4639999866485596 -40.722999572753906,7.888999938964844 C-56.222999572753906,41.27799987792969 -56.66699981689453,70.83200073242188 -51.44499969482422,92.48799896240234 C-48.768001556396484,103.58899688720703 -39.422000885009766,125.93800354003906 -18.79199981689453,101.65799713134766 C-10.364999771118164,91.73999786376953 -0.003000000026077032,56.86000061035156 -0.003000000026077032,14.09000015258789 C-0.003000000026077032,3.2769999504089355 5.7129998207092285,-26.81599998474121 7.798999786376953,-36.145999908447266 C15.569999694824219,-70.89299774169922 42.76499938964844,-97.06999969482422 45.64099884033203,-100.35199737548828 C48.36899948120117,-103.46499633789062 56.66699981689453,-115.30400085449219 53.70399856567383,-119.90799713134766z"></path></g><g opacity="1" transform="matrix(1,0,0,1,45.97700119018555,141.718994140625)"><path fill="rgb(252,237,132)" fill-opacity="1" d=" M4.234000205993652,1.7589999437332153 C2.930999994277954,4.894000053405762 -0.019999999552965164,6.646999835968018 -2.3580000400543213,5.676000118255615 C-4.697000026702881,4.703999996185303 -5.535999774932861,1.375 -4.234000205993652,-1.7599999904632568 C-2.931999921798706,-4.89300012588501 0.019999999552965164,-6.646999835968018 2.3580000400543213,-5.676000118255615 C4.696000099182129,-4.703999996185303 5.535999774932861,-1.375 4.234000205993652,1.7589999437332153z"></path></g><g opacity="1" transform="matrix(1,0,0,1,58.99300003051758,133.05599975585938)"><path fill="rgb(252,237,132)" fill-opacity="1" d=" M4.002999782562256,1.6629999876022339 C2.7720000743865967,4.626999855041504 -0.01899999938905239,6.284999847412109 -2.2290000915527344,5.366000175476074 C-4.440000057220459,4.447999954223633 -5.234000205993652,1.3009999990463257 -4.002999782562256,-1.6629999876022339 C-2.7709999084472656,-4.625999927520752 0.01899999938905239,-6.283999919891357 2.2300000190734863,-5.364999771118164 C4.440000057220459,-4.447000026702881 5.234000205993652,-1.3009999990463257 4.002999782562256,1.6629999876022339z"></path></g><g opacity="1" transform="matrix(1,0,0,1,57.95800018310547,116.13200378417969)"><path fill="rgb(252,237,132)" fill-opacity="1" d=" M1.2610000371932983,-10.053000450134277 C0.4309999942779541,-10.256999969482422 -0.40400001406669617,-10.3100004196167 -1.225000023841858,-10.237000465393066 C-3.7219998836517334,-5.1570000648498535 -6.415999889373779,0.42899999022483826 -8.552000045776367,5.133999824523926 C-7.456999778747559,7.130000114440918 -5.690999984741211,8.630000114440918 -3.4700000286102295,9.175999641418457 C1.1410000324249268,10.3100004196167 5.939000129699707,6.926000118255615 7.244999885559082,1.6160000562667847 C8.552000045776367,-3.694000005722046 5.872000217437744,-8.918000221252441 1.2610000371932983,-10.053000450134277z"></path></g><g opacity="1" transform="matrix(1,0,0,1,30.920000076293945,244.23899841308594)"><path fill="rgb(62,62,62)" fill-opacity="1" d=" M2.871999979019165,-8.076000213623047 C-0.10599999874830246,-10.244000434875488 -3.746000051498413,-6.822000026702881 -4.677999973297119,-3.624000072479248 C-5.610000133514404,-0.4259999990463257 -5.810999870300293,6.15500020980835 0.19699999690055847,10.244000434875488 C-3.1110000610351562,3.822999954223633 1.5520000457763672,2.615999937057495 3.319999933242798,-0.3580000102519989 C5.0879998207092285,-3.3329999446868896 5.810999870300293,-5.934999942779541 2.871999979019165,-8.076000213623047z"></path></g><g opacity="1" transform="matrix(1,0,0,1,40.34000015258789,249.2169952392578)"><path fill="rgb(62,62,62)" fill-opacity="1" d=" M2.9609999656677246,-8.901000022888184 C-0.34599998593330383,-11.208000183105469 -4.252999782562256,-7.381999969482422 -5.202000141143799,-3.8610000610351562 C-6.150000095367432,-0.3400000035762787 -6.223999977111816,6.866000175476074 0.4410000145435333,11.206999778747559 C-3.321000099182129,4.254000186920166 1.753000020980835,2.8289999961853027 3.621999979019165,-0.46399998664855957 C5.491000175476074,-3.759000062942505 6.224999904632568,-6.624000072479248 2.9609999656677246,-8.901000022888184z"></path></g><g opacity="1" transform="matrix(1,0,0,1,50.529998779296875,247.6699981689453)"><path fill="rgb(62,62,62)" fill-opacity="1" d=" M0.7020000219345093,-8.378000259399414 C-2.7939999103546143,-9.279000282287598 -4.875999927520752,-4.8470001220703125 -4.570000171661377,-1.597000002861023 C-4.265999794006348,1.652999997138977 -2.072999954223633,7.7220001220703125 4.875999927520752,9.279000282287598 C-0.45500001311302185,4.623000144958496 3.3570001125335693,1.8420000076293945 3.8949999809265137,-1.5069999694824219 C4.432000160217285,-4.855000019073486 4.1519999504089355,-7.48799991607666 0.7020000219345093,-8.378000259399414z"></path></g><g opacity="1" transform="matrix(1,0,0,1,67.2300033569336,235.27099609375)"><path fill="rgb(62,62,62)" fill-opacity="1" d=" M-4.663000106811523,-8.16100025177002 C-1.8700000047683716,-11.069000244140625 2.7079999446868896,-8.07800006866455 4.326000213623047,-4.809000015258789 C5.942999839782715,-1.5420000553131104 7.420000076293945,5.511000156402588 1.7300000190734863,11.067999839782715 C4.064000129699707,3.515000104904175 -1.190999984741211,3.109999895095825 -3.6659998893737793,0.24199999868869781 C-6.142000198364258,-2.624000072479248 -7.420000076293945,-5.291999816894531 -4.663000106811523,-8.16100025177002z"></path></g></g><g class="m_arm_r" transform="matrix(0.9999843239784241,-0.005594284739345312,0.005594284739345312,0.9999843239784241,276.4804382324219,243.5581817626953)" opacity="1" style="display: block;"><g opacity="1" transform="matrix(1,0,0,1,66.66699981689453,135.93800354003906)"><path fill="rgb(255,221,11)" fill-opacity="1" d=" M-53.70399856567383,-119.90799713134766 C-49.82400131225586,-125.93699645996094 -41.97700119018555,-122.96399688720703 -37.308998107910156,-118.29000091552734 C-32.641998291015625,-113.61699676513672 1.3329999446868896,-74.05599975585938 16.04400062561035,-44.01100158691406 C20.643999099731445,-34.617000579833984 36.38100051879883,-1.4639999866485596 40.722999572753906,7.888999938964844 C56.222999572753906,41.27799987792969 56.66699981689453,70.83200073242188 51.444000244140625,92.48799896240234 C48.768001556396484,103.58899688720703 39.42300033569336,125.93800354003906 18.792999267578125,101.65799713134766 C10.364999771118164,91.73999786376953 0.003000000026077032,56.86000061035156 0.003000000026077032,14.09000015258789 C0.003000000026077032,3.2769999504089355 -5.714000225067139,-26.81599998474121 -7.800000190734863,-36.145999908447266 C-15.569999694824219,-70.89299774169922 -42.76499938964844,-97.06999969482422 -45.64099884033203,-100.35199737548828 C-48.36800003051758,-103.46499633789062 -56.66699981689453,-115.30400085449219 -53.70399856567383,-119.90799713134766z"></path><path stroke-linecap="round" stroke-linejoin="miter" fill-opacity="0" stroke-miterlimit="10" stroke="rgb(62,62,62)" stroke-opacity="1" stroke-width="4" d=" M-53.70399856567383,-119.90799713134766 C-49.82400131225586,-125.93699645996094 -41.97700119018555,-122.96399688720703 -37.308998107910156,-118.29000091552734 C-32.641998291015625,-113.61699676513672 1.3329999446868896,-74.05599975585938 16.04400062561035,-44.01100158691406 C20.643999099731445,-34.617000579833984 36.38100051879883,-1.4639999866485596 40.722999572753906,7.888999938964844 C56.222999572753906,41.27799987792969 56.66699981689453,70.83200073242188 51.444000244140625,92.48799896240234 C48.768001556396484,103.58899688720703 39.42300033569336,125.93800354003906 18.792999267578125,101.65799713134766 C10.364999771118164,91.73999786376953 0.003000000026077032,56.86000061035156 0.003000000026077032,14.09000015258789 C0.003000000026077032,3.2769999504089355 -5.714000225067139,-26.81599998474121 -7.800000190734863,-36.145999908447266 C-15.569999694824219,-70.89299774169922 -42.76499938964844,-97.06999969482422 -45.64099884033203,-100.35199737548828 C-48.36800003051758,-103.46499633789062 -56.66699981689453,-115.30400085449219 -53.70399856567383,-119.90799713134766z"></path></g><g opacity="1" transform="matrix(1,0,0,1,115.22699737548828,245.23899841308594)"><path fill="rgb(62,62,62)" fill-opacity="1" d=" M-2.871000051498413,-8.076000213623047 C0.10700000077486038,-10.244000434875488 3.746000051498413,-6.822000026702881 4.678999900817871,-3.624000072479248 C5.610000133514404,-0.4259999990463257 5.810999870300293,6.15500020980835 -0.19699999690055847,10.244000434875488 C3.1110000610351562,3.822999954223633 -1.5520000457763672,2.615999937057495 -3.319999933242798,-0.3580000102519989 C-5.089000225067139,-3.3329999446868896 -5.809999942779541,-5.934999942779541 -2.871000051498413,-8.076000213623047z"></path></g><g opacity="1" transform="matrix(1,0,0,1,105.80699920654297,250.2169952392578)"><path fill="rgb(62,62,62)" fill-opacity="1" d=" M-2.9600000381469727,-8.901000022888184 C0.3479999899864197,-11.208000183105469 4.252999782562256,-7.381999969482422 5.202000141143799,-3.8610000610351562 C6.150000095367432,-0.3400000035762787 6.223999977111816,6.866000175476074 -0.4410000145435333,11.206999778747559 C3.321000099182129,4.254000186920166 -1.753000020980835,2.8289999961853027 -3.621999979019165,-0.46399998664855957 C-5.491000175476074,-3.759000062942505 -6.223999977111816,-6.624000072479248 -2.9600000381469727,-8.901000022888184z"></path></g><g opacity="1" transform="matrix(1,0,0,1,95.61699676513672,248.6699981689453)"><path fill="rgb(62,62,62)" fill-opacity="1" d=" M-0.7009999752044678,-8.378000259399414 C2.7950000762939453,-9.279000282287598 4.875,-4.8480000495910645 4.570000171661377,-1.5980000495910645 C4.264999866485596,1.6519999504089355 2.072999954223633,7.7220001220703125 -4.875999927520752,9.279000282287598 C0.45500001311302185,4.623000144958496 -3.3559999465942383,1.840999960899353 -3.8940000534057617,-1.5080000162124634 C-4.432000160217285,-4.855999946594238 -4.150000095367432,-7.48799991607666 -0.7009999752044678,-8.378000259399414z"></path></g><g opacity="1" transform="matrix(1,0,0,1,78.91799926757812,236.27099609375)"><path fill="rgb(62,62,62)" fill-opacity="1" d=" M4.664000034332275,-8.16100025177002 C1.8700000047683716,-11.069000244140625 -2.7090001106262207,-8.07800006866455 -4.326000213623047,-4.809000015258789 C-5.942999839782715,-1.5420000553131104 -7.420000076293945,5.511000156402588 -1.7300000190734863,11.067999839782715 C-4.064000129699707,3.515000104904175 1.190999984741211,3.109999895095825 3.6670000553131104,0.24199999868869781 C6.14300012588501,-2.624000072479248 7.421000003814697,-5.291999816894531 4.664000034332275,-8.16100025177002z"></path></g></g><g class="m_body" transform="matrix(0.9990400671958923,-0.04380585625767708,0.04380585625767708,0.9990400671958923,51.54887390136719,21.3897705078125)" opacity="1" style="display: block;"><g opacity="1" transform="matrix(1,0,0,1,152.7220001220703,259.5790100097656)"><path fill="rgb(255,221,11)" fill-opacity="1" d=" M121.3239974975586,104.80400085449219 C121.3239974975586,66.79100036621094 115,19.42099952697754 83,-12.579000473022461 C83.64199829101562,-27.57699966430664 83.23999786376953,-47.05799865722656 82.39399719238281,-59.06100082397461 C93.2770004272461,-59.08000183105469 95.39299774169922,-83.39600372314453 95.56600189208984,-92.4489974975586 C95.73200225830078,-101.1719970703125 91.13400268554688,-122.96700286865234 74.78099822998047,-119.63899993896484 C74.78099822998047,-136.29800415039062 46.16699981689453,-244.57899475097656 0,-244.57899475097656 C-46.16699981689453,-244.57899475097656 -74.78099822998047,-136.29800415039062 -74.78099822998047,-119.63899993896484 C-91.13400268554688,-122.96700286865234 -95.73300170898438,-101.1719970703125 -95.56700134277344,-92.4489974975586 C-95.39299774169922,-83.39600372314453 -93.27799987792969,-59.08000183105469 -82.3949966430664,-59.06100082397461 C-83.23999786376953,-47.05799865722656 -83.64299774169922,-27.57699966430664 -83,-12.579000473022461 C-115,19.42099952697754 -121.3239974975586,66.79100036621094 -121.3239974975586,104.80400085449219 C-121.3239974975586,159.03199768066406 -137.7220001220703,244.5800018310547 0,244.5800018310547 C137.7220001220703,244.5800018310547 121.3239974975586,159.03199768066406 121.3239974975586,104.80400085449219z"></path><path stroke-linecap="round" stroke-linejoin="round" fill-opacity="0" stroke="rgb(62,62,62)" stroke-opacity="1" stroke-width="6" d=" M121.3239974975586,104.80400085449219 C121.3239974975586,66.79100036621094 115,19.42099952697754 83,-12.579000473022461 C83.64199829101562,-27.57699966430664 83.23999786376953,-47.05799865722656 82.39399719238281,-59.06100082397461 C93.2770004272461,-59.08000183105469 95.39299774169922,-83.39600372314453 95.56600189208984,-92.4489974975586 C95.73200225830078,-101.1719970703125 91.13400268554688,-122.96700286865234 74.78099822998047,-119.63899993896484 C74.78099822998047,-136.29800415039062 46.16699981689453,-244.57899475097656 0,-244.57899475097656 C-46.16699981689453,-244.57899475097656 -74.78099822998047,-136.29800415039062 -74.78099822998047,-119.63899993896484 C-91.13400268554688,-122.96700286865234 -95.73300170898438,-101.1719970703125 -95.56700134277344,-92.4489974975586 C-95.39299774169922,-83.39600372314453 -93.27799987792969,-59.08000183105469 -82.3949966430664,-59.06100082397461 C-83.23999786376953,-47.05799865722656 -83.64299774169922,-27.57699966430664 -83,-12.579000473022461 C-115,19.42099952697754 -121.3239974975586,66.79100036621094 -121.3239974975586,104.80400085449219 C-121.3239974975586,159.03199768066406 -137.7220001220703,244.5800018310547 0,244.5800018310547 C137.7220001220703,244.5800018310547 121.3239974975586,159.03199768066406 121.3239974975586,104.80400085449219z"></path></g><g opacity="1" transform="matrix(1,0,0,1,73.37300109863281,429.1510009765625)"><path fill="rgb(252,237,132)" fill-opacity="1" d=" M4.517000198364258,-1.0709999799728394 C5.4629998207092285,2.9200000762939453 4.208000183105469,6.635000228881836 1.7139999866485596,7.2270002365112305 C-0.7799999713897705,7.817999839782715 -3.569999933242798,5.061999797821045 -4.517000198364258,1.0709999799728394 C-5.4629998207092285,-2.9200000762939453 -4.208000183105469,-6.633999824523926 -1.7139999866485596,-7.22599983215332 C0.781000018119812,-7.817999839782715 3.571000099182129,-5.061999797821045 4.517000198364258,-1.0709999799728394z"></path></g><g opacity="1" transform="matrix(1,0,0,1,53.87799835205078,422.65301513671875)"><path fill="rgb(252,237,132)" fill-opacity="1" d=" M8.727999687194824,-1.0290000438690186 C9.446999549865723,5.067999839782715 6.120999813079834,10.470999717712402 1.3009999990463257,11.038999557495117 C-3.5199999809265137,11.607999801635742 -8.010000228881836,7.125 -8.729000091552734,1.0290000438690186 C-9.446999549865723,-5.067999839782715 -6.122000217437744,-10.470999717712402 -1.3009999990463257,-11.039999961853027 C3.5190000534057617,-11.607999801635742 8.010000228881836,-7.125999927520752 8.727999687194824,-1.0290000438690186z"></path></g><g opacity="1" transform="matrix(1,0,0,1,63.47999954223633,447.35198974609375)"><path fill="rgb(252,237,132)" fill-opacity="1" d=" M5.519999980926514,-2.7869999408721924 C7.841000080108643,1.809999942779541 7.25,6.783999919891357 4.202000141143799,8.322999954223633 C1.152999997138977,9.862000465393066 -3.200000047683716,7.382999897003174 -5.520999908447266,2.7860000133514404 C-7.841000080108643,-1.809999942779541 -7.250999927520752,-6.783999919891357 -4.202000141143799,-8.322999954223633 C-1.152999997138977,-9.862000465393066 3.200000047683716,-7.383999824523926 5.519999980926514,-2.7869999408721924z"></path></g><g opacity="1" transform="matrix(1,0,0,1,85.19499969482422,471.6409912109375)"><path fill="rgb(252,237,132)" fill-opacity="1" d=" M4.353000164031982,-5.014999866485596 C8.741000175476074,-1.2059999704360962 10.350000381469727,4.126999855041504 7.945000171661377,6.895999908447266 C5.540999889373779,9.666000366210938 0.03400000184774399,8.822999954223633 -4.354000091552734,5.013999938964844 C-8.741999626159668,1.2059999704360962 -10.348999977111816,-4.125999927520752 -7.945000171661377,-6.896999835968018 C-5.540999889373779,-9.666000366210938 -0.03500000014901161,-8.824000358581543 4.353000164031982,-5.014999866485596z"></path></g><g opacity="1" transform="matrix(1,0,0,1,59.50299835205078,470.2799987792969)"><path fill="rgb(252,237,132)" fill-opacity="1" d=" M7.760000228881836,11.239999771118164 C10.305000305175781,7.952000141143799 9.795000076293945,2.0329999923706055 6.258999824523926,-3.009999990463257 C2.194999933242798,-8.803000450134277 -4.321000099182129,-11.241000175476074 -8.295000076293945,-8.454999923706055 C-9.16100025177002,-7.8480000495910645 -9.822999954223633,-7.0329999923706055 -10.305000305175781,-6.085000038146973 C-4.456999778747559,3.066999912261963 2.49399995803833,8.322999954223633 7.760000228881836,11.239999771118164z"></path></g></g><g class="m_mouth_back" transform="matrix(0.9990400671958923,-0.04380585625767708,0.04380585625767708,0.9990400671958923,127.20780944824219,185.07359313964844)" opacity="1" style="display: block;"><g opacity="1" transform="matrix(1,0,0,1,84.8479995727539,30.454999923706055)"><path fill="rgb(62,62,62)" fill-opacity="1" d=" M-84.5979995727539,-9.315999984741211 C-84.5979995727539,-9.315999984741211 -84.5979995727539,-22.64900016784668 -84.5979995727539,-22.64900016784668 C-84.5979995727539,-22.64900016784668 -69.04299926757812,-29.31599998474121 -5.710000038146973,-29.760000228881836 C57.624000549316406,-30.204999923706055 84.5979995727539,-24.204999923706055 84.5979995727539,-24.204999923706055 C84.5979995727539,-24.204999923706055 84.5979995727539,-12.368000030517578 84.5979995727539,-12.368000030517578 C84.5979995727539,-12.368000030517578 65.74800109863281,30.204999923706055 -4.47599983215332,30.204999923706055 C-60.82099914550781,30.204999923706055 -84.5979995727539,-9.315999984741211 -84.5979995727539,-9.315999984741211z"></path></g></g><g class="m_mouth_lip_upper" transform="matrix(0.9990400671958923,-0.04380585625767708,0.04380585625767708,0.9990400671958923,117.10134887695312,151.38497924804688)" opacity="1" style="display: block;"><g opacity="1" transform="matrix(1,0,0,1,91.8280029296875,34.91699981689453)"><path fill="rgb(255,221,11)" fill-opacity="1" d=" M-87.80000305175781,15.100000381469727 C-87.80000305175781,15.100000381469727 -82.80000305175781,15.100000381469727 -82.80000305175781,15.100000381469727 C-82.80000305175781,15.100000381469727 -20.465877532958984,32.8809700012207 22.23412322998047,33.3809700012207 C64.93412017822266,33.8809700012207 83.30000305175781,13.699999809265137 83.30000305175781,13.699999809265137 C83.30000305175781,13.699999809265137 87.80000305175781,13.699999809265137 87.80000305175781,13.699999809265137 C87.80000305175781,13.699999809265137 91.5999984741211,-6.599999904632568 71.5999984741211,-13.300000190734863 C51.599998474121094,-20 48.400001525878906,-34.599998474121094 0.20000000298023224,-34.400001525878906 C-48,-34.20000076293945 -57.79999923706055,-13 -74.69999694824219,-6.099999904632568 C-91.5999984741211,0.800000011920929 -87.80000305175781,15.100000381469727 -87.80000305175781,15.100000381469727z"></path></g></g><g class="m_tooth_l" transform="matrix(0.9990400671958923,-0.04380585625767708,0.04380585625767708,0.9990400671958923,180.254150390625,210.18528747558594)" opacity="1" style="display: block;"><g opacity="1" transform="matrix(1,0,0,1,13.434000015258789,16.854000091552734)"><path fill="rgb(255,255,255)" fill-opacity="1" d=" M-13.184000015258789,9.222000122070312 C-13.184000015258789,9.222000122070312 -1.0049999952316284,-16.60300064086914 6.089000225067139,-14.640999794006348 C13.184000015258789,-12.678999900817871 10.89900016784668,16.604000091552734 10.89900016784668,16.604000091552734 C10.89900016784668,16.604000091552734 -13.184000015258789,9.222000122070312 -13.184000015258789,9.222000122070312z"></path></g></g><g class="m_tooth_r" transform="matrix(0.9990400671958923,-0.04380585625767708,0.04380585625767708,0.9990400671958923,243.37615966796875,207.7075958251953)" opacity="1" style="display: block;"><g opacity="1" transform="matrix(1,0,0,1,14.432000160217285,16.68400001525879)"><path fill="rgb(255,255,255)" fill-opacity="1" d=" M-9.937999725341797,16.43400001525879 C-9.937999725341797,16.43400001525879 -14.182000160217285,-11.803000450134277 -7.195000171661377,-14.119000434875488 C-0.20800000429153442,-16.43400001525879 14.182000160217285,9.17199993133545 14.182000160217285,9.17199993133545 C14.182000160217285,9.17199993133545 -9.937999725341797,16.43400001525879 -9.937999725341797,16.43400001525879z"></path></g></g><g class="m_mouth_lip_lower" transform="matrix(0.9990400671958923,-0.04380585625767708,0.04380585625767708,0.9990400671958923,117.87361907958984,190.341552734375)" opacity="1" style="display: block;"><g opacity="1" transform="matrix(1,0,0,1,94.02799987792969,36.58399963378906)"><path fill="rgb(255,221,11)" fill-opacity="1" d=" M-88.19999694824219,-36.29999923706055 C-88.19999694824219,-36.29999923706055 -47.82704544067383,-28.003171920776367 -47.82704544067383,-28.003171920776367 C-47.82704544067383,-28.003171920776367 -34.381839752197266,11.31829833984375 18.39365577697754,10.700836181640625 C64.9524917602539,10.18337345123291 73.5722885131836,-30.542070388793945 73.5722885131836,-30.542070388793945 C73.5722885131836,-30.542070388793945 88.9000015258789,-36.29999923706055 88.9000015258789,-36.29999923706055 C88.9000015258789,-36.29999923706055 93.80000305175781,-21.200000762939453 78.9000015258789,-11.899999618530273 C64,-2.5999999046325684 66.30000305175781,35.5 0.4000000059604645,35.900001525878906 C-65.5,36.29999923706055 -67.5999984741211,-2.0999999046325684 -80.69999694824219,-11.899999618530273 C-93.80000305175781,-21.700000762939453 -88.19999694824219,-36.29999923706055 -88.19999694824219,-36.29999923706055z"></path></g></g><g class="m_eye_ball" transform="matrix(0.9990400671958923,-0.04380585625767708,0.04380585625767708,0.9990400671958923,119.85115051269531,15.539117813110352)" opacity="1" style="display: block;"><g opacity="1" transform="matrix(1,0,0,1,80.2959976196289,80.29499816894531)"><path fill="rgb(255,255,255)" fill-opacity="1" d=" M70.2959976196289,0 C70.2959976196289,38.823001861572266 38.821998596191406,70.29499816894531 0,70.29499816894531 C-38.823001861572266,70.29499816894531 -70.2959976196289,38.823001861572266 -70.2959976196289,0 C-70.2959976196289,-38.823001861572266 -38.823001861572266,-70.29499816894531 0,-70.29499816894531 C38.821998596191406,-70.29499816894531 70.2959976196289,-38.823001861572266 70.2959976196289,0z"></path><path stroke-linecap="round" stroke-linejoin="round" fill-opacity="0" stroke="rgb(62,62,62)" stroke-opacity="1" stroke-width="4" d=" M70.2959976196289,0 C70.2959976196289,38.823001861572266 38.821998596191406,70.29499816894531 0,70.29499816894531 C-38.823001861572266,70.29499816894531 -70.2959976196289,38.823001861572266 -70.2959976196289,0 C-70.2959976196289,-38.823001861572266 -38.823001861572266,-70.29499816894531 0,-70.29499816894531 C38.821998596191406,-70.29499816894531 70.2959976196289,-38.823001861572266 70.2959976196289,0z"></path></g></g><g class="m_eye_pupil" transform="matrix(0.9990400671958923,-0.04380585625767708,0.04380585625767708,0.9990400671958923,188.7931365966797,51.51723861694336)" opacity="1" style="display: block;"><g opacity="1" transform="matrix(1,0,0,1,40.92900085449219,39.391998291015625)"><path fill="rgb(62,62,62)" fill-opacity="1" d=" M40.67900085449219,0 C40.67900085449219,21.617000579833984 22.465999603271484,39.14099884033203 0,39.14099884033203 C-22.466999053955078,39.14099884033203 -40.67900085449219,21.617000579833984 -40.67900085449219,0 C-40.67900085449219,-21.617000579833984 -22.466999053955078,-39.14099884033203 0,-39.14099884033203 C22.465999603271484,-39.14099884033203 40.67900085449219,-21.617000579833984 40.67900085449219,0z"></path></g><g opacity="1" transform="matrix(1,0,0,1,49.00600051879883,27.035999298095703)"><path fill="rgb(255,255,255)" fill-opacity="1" d=" M11,0 C11,5.783999919891357 6.074999809265137,10.472999572753906 0,10.472999572753906 C-6.074999809265137,10.472999572753906 -11,5.783999919891357 -11,0 C-11,-5.783999919891357 -6.074999809265137,-10.472999572753906 0,-10.472999572753906 C6.074999809265137,-10.472999572753906 11,-5.783999919891357 11,0z"></path></g></g><g class="m_eye_lid_lower" transform="matrix(0.9990400671958923,-0.04380585625767708,0.04380585625767708,0.9990400671958923,122.93148040771484,85.76659393310547)" opacity="1" style="display: block;"><g opacity="1" transform="matrix(1,0,0,1,80.29499816894531,45.14799880981445)"><path fill="rgb(255,221,11)" fill-opacity="1" d=" M-70.30000305175781,-35.099998474121094 C-70.30000305175781,-35.099998474121094 -68,27.161239624023438 0,27.161239624023438 C68,27.161239624023438 70.30000305175781,-35.099998474121094 70.30000305175781,-35.099998474121094 C70.30000305175781,3.700000047683716 38.79999923706055,35.099998474121094 0,35.099998474121094 C-38.79999923706055,35.099998474121094 -70.30000305175781,3.700000047683716 -70.30000305175781,-35.099998474121094z"></path><path stroke-linecap="round" stroke-linejoin="round" fill-opacity="0" stroke="rgb(62,62,62)" stroke-opacity="1" stroke-width="4" d=" M-70.30000305175781,-35.099998474121094 C-70.30000305175781,-35.099998474121094 -68,27.161239624023438 0,27.161239624023438 C68,27.161239624023438 70.30000305175781,-35.099998474121094 70.30000305175781,-35.099998474121094 C70.30000305175781,3.700000047683716 38.79999923706055,35.099998474121094 0,35.099998474121094 C-38.79999923706055,35.099998474121094 -70.30000305175781,3.700000047683716 -70.30000305175781,-35.099998474121094z"></path></g></g><g class="m_eye_lid_upper" transform="matrix(0.9990400671958923,-0.04380585625767708,0.04380585625767708,0.9990400671958923,119.85115051269531,15.539117813110352)" opacity="1" style="display: block;"><g opacity="1" transform="matrix(1,0,0,1,80.2959976196289,45.14799880981445)"><path fill="rgb(255,221,11)" fill-opacity="1" d=" M70.30000305175781,35.099998474121094 C70.30000305175781,35.099998474121094 68,-32 0,-32 C-68,-32 -70.30000305175781,35.099998474121094 -70.30000305175781,35.099998474121094 C-70.30000305175781,-3.700000047683716 -38.79999923706055,-35.099998474121094 0,-35.099998474121094 C38.79999923706055,-35.099998474121094 70.30000305175781,-3.700000047683716 70.30000305175781,35.099998474121094z"></path><path stroke-linecap="round" stroke-linejoin="round" fill-opacity="0" stroke="rgb(62,62,62)" stroke-opacity="1" stroke-width="4" d=" M70.30000305175781,35.099998474121094 C70.30000305175781,35.099998474121094 68,-32 0,-32 C-68,-32 -70.30000305175781,35.099998474121094 -70.30000305175781,35.099998474121094 C-70.30000305175781,-3.700000047683716 -38.79999923706055,-35.099998474121094 0,-35.099998474121094 C38.79999923706055,-35.099998474121094 70.30000305175781,-3.700000047683716 70.30000305175781,35.099998474121094z"></path></g></g><g class="m_arm_l_bent" transform="matrix(0.8879836797714233,0.4598750174045563,-0.45090046525001526,0.8706545233726501,95.34358215332031,230.06298828125)" opacity="1" style="display: block;"><g opacity="1" transform="matrix(1,0,0,1,91.3550033569336,78.36299896240234)"><path fill="rgb(255,221,11)" fill-opacity="1" d=" M-40.262001037597656,-64.90699768066406 C-46.54399871826172,-68.36299896240234 -53.70199966430664,-63.48400115966797 -56.89799880981445,-57.70199966430664 C-67.24500274658203,-38.98899841308594 -81.35600280761719,39.81800079345703 -58.70000076293945,57.676998138427734 C-50.486000061035156,64.1510009765625 33.67399978637695,68.36299896240234 60.76599884033203,29.43400001525879 C67.28800201416016,20.06100082397461 81.35600280761719,-1.843000054359436 49.50299835205078,-2.556999921798706 C15.817999839782715,-3.312000036239624 -19.582000732421875,29.44300079345703 -33.821998596191406,23.035999298095703 C-53.729000091552734,14.07800006866455 -52.12200164794922,-11.166000366210938 -38.900001525878906,-51.303001403808594 C-37.60499954223633,-55.23500061035156 -35.47100067138672,-62.27199935913086 -40.262001037597656,-64.90699768066406z"></path><path stroke-linecap="round" stroke-linejoin="miter" fill-opacity="0" stroke-miterlimit="10" stroke="rgb(62,62,62)" stroke-opacity="1" stroke-width="4" d=" M-40.262001037597656,-64.90699768066406 C-46.54399871826172,-68.36299896240234 -53.70199966430664,-63.48400115966797 -56.89799880981445,-57.70199966430664 C-67.24500274658203,-38.98899841308594 -81.35600280761719,39.81800079345703 -58.70000076293945,57.676998138427734 C-50.486000061035156,64.1510009765625 33.67399978637695,68.36299896240234 60.76599884033203,29.43400001525879 C67.28800201416016,20.06100082397461 81.35600280761719,-1.843000054359436 49.50299835205078,-2.556999921798706 C15.817999839782715,-3.312000036239624 -19.582000732421875,29.44300079345703 -33.821998596191406,23.035999298095703 C-53.729000091552734,14.07800006866455 -52.12200164794922,-11.166000366210938 -38.900001525878906,-51.303001403808594 C-37.60499954223633,-55.23500061035156 -35.47100067138672,-62.27199935913086 -40.262001037597656,-64.90699768066406z"></path></g><g opacity="1" transform="matrix(1,0,0,1,163.0489959716797,94.06700134277344)"><path fill="rgb(62,62,62)" fill-opacity="1" d=" M-8.28600025177002,1.8240000009536743 C-8.348999977111816,5.506999969482422 -3.4570000171661377,6.51800012588501 -0.30399999022483826,5.442999839782715 C2.8489999771118164,4.367000102996826 8.350000381469727,0.7490000128746033 8.241999626159668,-6.51800012588501 C4.889999866485596,-0.11999999731779099 1.222000002861023,-3.240999937057495 -2.2290000915527344,-2.9790000915527344 C-5.679999828338623,-2.7160000801086426 -8.223999977111816,-1.812000036239624 -8.28600025177002,1.8240000009536743z"></path><path stroke-linecap="butt" stroke-linejoin="miter" fill-opacity="0" stroke-miterlimit="10" stroke="rgb(255,221,11)" stroke-opacity="1" stroke-width="2" d=" M-8.28600025177002,1.8240000009536743 C-8.348999977111816,5.506999969482422 -3.4570000171661377,6.51800012588501 -0.30399999022483826,5.442999839782715 C2.8489999771118164,4.367000102996826 8.350000381469727,0.7490000128746033 8.241999626159668,-6.51800012588501 C4.889999866485596,-0.11999999731779099 1.222000002861023,-3.240999937057495 -2.2290000915527344,-2.9790000915527344 C-5.679999828338623,-2.7160000801086426 -8.223999977111816,-1.812000036239624 -8.28600025177002,1.8240000009536743z"></path></g><g opacity="1" transform="matrix(1,0,0,1,165.9290008544922,84.97200012207031)"><path fill="rgb(62,62,62)" fill-opacity="1" d=" M-9.083999633789062,2.2330000400543213 C-9.071000099182129,6.264999866485596 -3.694999933242798,7.263000011444092 -0.26899999380111694,6.014999866485596 C3.1579999923706055,4.76800012588501 9.097000122070312,0.6869999766349792 8.817999839782715,-7.263000011444092 C5.290999889373779,-0.18700000643730164 1.2089999914169312,-3.5220000743865967 -2.562000036239624,-3.1579999923706055 C-6.331999778747559,-2.7929999828338623 -9.097000122070312,-1.746000051498413 -9.083999633789062,2.2330000400543213z"></path><path stroke-linecap="butt" stroke-linejoin="miter" fill-opacity="0" stroke-miterlimit="10" stroke="rgb(255,221,11)" stroke-opacity="1" stroke-width="2" d=" M-9.083999633789062,2.2330000400543213 C-9.071000099182129,6.264999866485596 -3.694999933242798,7.263000011444092 -0.26899999380111694,6.014999866485596 C3.1579999923706055,4.76800012588501 9.097000122070312,0.6869999766349792 8.817999839782715,-7.263000011444092 C5.290999889373779,-0.18700000643730164 1.2089999914169312,-3.5220000743865967 -2.562000036239624,-3.1579999923706055 C-6.331999778747559,-2.7929999828338623 -9.097000122070312,-1.746000051498413 -9.083999633789062,2.2330000400543213z"></path></g><g opacity="1" transform="matrix(1,0,0,1,158.2050018310547,76.20899963378906)"><path fill="rgb(62,62,62)" fill-opacity="1" d=" M-6.756999969482422,5.0929999351501465 C-5.486000061035156,8.470999717712402 -0.6629999876022339,7.626999855041504 1.8209999799728394,5.510000228881836 C4.306000232696533,3.3919999599456787 8.01200008392334,-1.8890000581741333 5.291999816894531,-8.470999717712402 C4.546000003814697,-1.4320000410079956 0.07800000160932541,-2.953000068664551 -2.9709999561309814,-1.468999981880188 C-6.019999980926514,0.01600000075995922 -8.01200008392334,1.7580000162124634 -6.756999969482422,5.0929999351501465z"></path><path stroke-linecap="butt" stroke-linejoin="miter" fill-opacity="0" stroke-miterlimit="10" stroke="rgb(255,221,11)" stroke-opacity="1" stroke-width="2" d=" M-6.756999969482422,5.0929999351501465 C-5.486000061035156,8.470999717712402 -0.6629999876022339,7.626999855041504 1.8209999799728394,5.510000228881836 C4.306000232696533,3.3919999599456787 8.01200008392334,-1.8890000581741333 5.291999816894531,-8.470999717712402 C4.546000003814697,-1.4320000410079956 0.07800000160932541,-2.953000068664551 -2.9709999561309814,-1.468999981880188 C-6.019999980926514,0.01600000075995922 -8.01200008392334,1.7580000162124634 -6.756999969482422,5.0929999351501465z"></path></g><g opacity="1" transform="matrix(1,0,0,1,138.91000366210938,70.45899963378906)"><path fill="rgb(62,62,62)" fill-opacity="1" d=" M-3.946000099182129,8.569999694824219 C-7.931000232696533,7.955999851226807 -8.114999771118164,2.490999937057495 -6.369999885559082,-0.7110000252723694 C-4.625999927520752,-3.9130001068115234 0.29600000381469727,-9.175999641418457 8.114999771118164,-7.714000225067139 C0.5920000076293945,-5.2829999923706055 3.2790000438690186,-0.7480000257492065 2.3559999465942383,2.9240000247955322 C1.434000015258789,6.5980000495910645 -0.013000000268220901,9.175999641418457 -3.946000099182129,8.569999694824219z"></path></g></g><g class="m_arm_shield_l" transform="matrix(0.9990400671958923,-0.04380585625767708,0.04380585625767708,0.9990400671958923,126.47270202636719,258.25103759765625)" opacity="1" style="display: block;"><g opacity="1" transform="matrix(1,0,0,1,23.15999984741211,30.29599952697754)"><path fill="rgb(255,221,11)" fill-opacity="1" d=" M15.479000091552734,-24.492000579833984 C15.479000091552734,-24.492000579833984 -14.98799991607666,-30.04599952697754 -14.98799991607666,-30.04599952697754 C-14.98799991607666,-30.04599952697754 -18.594999313354492,-13.527000427246094 -18.594999313354492,-13.527000427246094 C-18.594999313354492,-13.527000427246094 -22.90999984741211,30.04599952697754 -22.90999984741211,30.04599952697754 C-22.90999984741211,30.04599952697754 22.90999984741211,2.8440001010894775 22.90999984741211,2.8440001010894775 C22.90999984741211,2.8440001010894775 22.90999984741211,-14.045999526977539 22.90999984741211,-14.045999526977539 C22.90999984741211,-14.045999526977539 15.479000091552734,-24.492000579833984 15.479000091552734,-24.492000579833984z"></path></g></g><g class="m_plans" transform="matrix(0.9164498448371887,-0.19859090447425842,0.20553044974803925,0.9484742879867554,105.32737731933594,291.2377624511719)" opacity="1" style="display: block;"><g opacity="1" transform="matrix(1,0,0,1,63.279998779296875,76.08899688720703)"><path fill="rgb(62,62,62)" fill-opacity="1" d=" M-25.858999252319336,75.83899688720703 C-33.68899917602539,75.83899688720703 -40.33399963378906,70.23899841308594 -41.6609992980957,62.52399826049805 C-41.6609992980957,62.52399826049805 -62.22700119018555,-57.08700180053711 -62.22700119018555,-57.08700180053711 C-63.029998779296875,-61.75699996948242 -61.7400016784668,-66.51399993896484 -58.68600082397461,-70.13800048828125 C-55.63199996948242,-73.76100158691406 -51.16299819946289,-75.83899688720703 -46.42499923706055,-75.83899688720703 C-46.42499923706055,-75.83899688720703 26.93400001525879,-75.83899688720703 26.93400001525879,-75.83899688720703 C34.83300018310547,-75.83899688720703 41.487998962402344,-70.18099975585938 42.75899887084961,-62.387001037597656 C42.75899887084961,-62.387001037597656 62.270999908447266,57.222999572753906 62.270999908447266,57.222999572753906 C63.029998779296875,61.874000549316406 61.7140007019043,66.60099792480469 58.6619987487793,70.19100189208984 C55.61000061035156,73.77999877929688 51.15800094604492,75.83899688720703 46.44599914550781,75.83899688720703 C46.44599914550781,75.83899688720703 -25.858999252319336,75.83899688720703 -25.858999252319336,75.83899688720703z"></path></g><g opacity="1" transform="matrix(1,0,0,1,63.28200149536133,76.08899688720703)"><path fill="rgb(255,221,11)" fill-opacity="1" d=" M-25.861000061035156,72.83899688720703 C-32.224998474121094,72.83899688720703 -37.62799835205078,68.28600311279297 -38.707000732421875,62.01499938964844 C-38.707000732421875,62.01499938964844 -59.27299880981445,-57.59600067138672 -59.27299880981445,-57.59600067138672 C-59.92499923706055,-61.39099884033203 -58.875999450683594,-65.25900268554688 -56.39400100708008,-68.2040023803711 C-53.9119987487793,-71.14900207519531 -50.27899932861328,-72.83899688720703 -46.426998138427734,-72.83899688720703 C-46.426998138427734,-72.83899688720703 26.93199920654297,-72.83899688720703 26.93199920654297,-72.83899688720703 C33.35300064086914,-72.83899688720703 38.76300048828125,-68.23999786376953 39.79600143432617,-61.90399932861328 C39.79600143432617,-61.90399932861328 59.30799865722656,57.70600128173828 59.30799865722656,57.70600128173828 C59.92499923706055,61.48699951171875 58.85499954223633,65.3290023803711 56.375,68.24700164794922 C53.89400100708008,71.16500091552734 50.27399826049805,72.83899688720703 46.444000244140625,72.83899688720703 C46.444000244140625,72.83899688720703 -25.861000061035156,72.83899688720703 -25.861000061035156,72.83899688720703z"></path></g><g opacity="1" transform="matrix(1,0,0,1,63.268001556396484,76.08899688720703)"><path fill="rgb(62,62,62)" fill-opacity="1" d=" M56.361000061035156,58.18899917602539 C56.361000061035156,58.18899917602539 36.847999572753906,-61.41999816894531 36.847999572753906,-61.41999816894531 C36.05699920654297,-66.27400207519531 31.86400032043457,-69.83799743652344 26.945999145507812,-69.83799743652344 C26.945999145507812,-69.83799743652344 -46.41299819946289,-69.83799743652344 -46.41299819946289,-69.83799743652344 C-52.63399887084961,-69.83799743652344 -57.35599899291992,-64.23600006103516 -56.301998138427734,-58.104000091552734 C-56.301998138427734,-58.104000091552734 -35.736000061035156,61.505001068115234 -35.736000061035156,61.505001068115234 C-34.90800094604492,66.31999969482422 -30.732999801635742,69.83799743652344 -25.847000122070312,69.83799743652344 C-25.847000122070312,69.83799743652344 46.45800018310547,69.83799743652344 46.45800018310547,69.83799743652344 C52.64500045776367,69.83799743652344 57.356998443603516,64.29499816894531 56.361000061035156,58.18899917602539z"></path></g><g opacity="1" transform="matrix(1,0,0,1,61.32400131225586,66.48600006103516)"><path fill="rgb(255,221,11)" fill-opacity="1" d=" M5.61899995803833,3.072999954223633 C3.2309999465942383,1.0740000009536743 0.5509999990463257,1.003000020980835 0.5509999990463257,1.003000020980835 C0.5509999990463257,1.003000020980835 -0.13300000131130219,-2.515000104904175 -0.13300000131130219,-2.515000104904175 C-0.13300000131130219,-2.515000104904175 1.6799999475479126,-3.2179999351501465 1.2920000553131104,-5.2170000076293945 C0.902999997138977,-7.216000080108643 -1.149999976158142,-7.749000072479248 -1.149999976158142,-7.749000072479248 C-2.0429999828338623,-7.960000038146973 -2.867000102996826,-7.98199987411499 -3.5980000495910645,-7.749000072479248 C-3.5980000495910645,-7.749000072479248 -5.584000110626221,-7.348999977111816 -5.144000053405762,-5.084000110626221 C-4.703000068664551,-2.819000005722046 -2.5789999961853027,-2.515000104904175 -2.5789999961853027,-2.515000104904175 C-2.5789999961853027,-2.515000104904175 -1.8960000276565552,1.003000020980835 -1.8960000276565552,1.003000020980835 C-1.8960000276565552,1.003000020980835 -4.927000045776367,1.1790000200271606 -6.614999771118164,2.7780001163482666 C-8.303000450134277,4.377999782562256 -7.736000061035156,7.98199987411499 -7.736000061035156,7.98199987411499 C-7.736000061035156,7.98199987411499 8.303000450134277,7.98199987411499 8.303000450134277,7.98199987411499 C8.303000450134277,7.98199987411499 8.005999565124512,5.072000026702881 5.61899995803833,3.072999954223633z M-3.930000066757202,-5.35099983215332 C-4.085000038146973,-6.150000095367432 -3.299999952316284,-6.611000061035156 -2.244999885559082,-6.651000022888184 C-1.0509999990463257,-6.696000099182129 -0.3569999933242798,-6.160999774932861 -0.041999999433755875,-5.2230000495910645 C0.27399998903274536,-4.284999847412109 -0.7620000243186951,-3.746000051498413 -1.9910000562667847,-3.746000051498413 C-3.2190001010894775,-3.746000051498413 -3.7750000953674316,-4.551000118255615 -3.930000066757202,-5.35099983215332z"></path></g></g><g class="m_arm_r_bent" transform="matrix(0.9164498448371887,-0.19859090447425842,0.20553044974803925,0.9484742879867554,172.41339111328125,270.360107421875)" opacity="1" style="display: block;"><g opacity="1" transform="matrix(1,0,0,1,91.3550033569336,78.36299896240234)"><path fill="rgb(255,221,11)" fill-opacity="1" d=" M40.262001037597656,-64.90699768066406 C46.542999267578125,-68.36299896240234 53.70199966430664,-63.48400115966797 56.89899826049805,-57.70199966430664 C67.24400329589844,-38.98899841308594 81.3550033569336,39.81800079345703 58.69900131225586,57.676998138427734 C50.48500061035156,64.1510009765625 -33.67499923706055,68.36299896240234 -60.76599884033203,29.43400001525879 C-67.28900146484375,20.06100082397461 -81.3550033569336,-1.843000054359436 -49.50299835205078,-2.556999921798706 C-15.817999839782715,-3.312000036239624 19.58099937438965,29.44300079345703 33.82099914550781,23.035999298095703 C53.72800064086914,14.07800006866455 52.12099838256836,-11.166000366210938 38.900001525878906,-51.303001403808594 C37.60499954223633,-55.23500061035156 35.47100067138672,-62.27199935913086 40.262001037597656,-64.90699768066406z"></path><path stroke-linecap="round" stroke-linejoin="miter" fill-opacity="0" stroke-miterlimit="10" stroke="rgb(62,62,62)" stroke-opacity="1" stroke-width="4" d=" M40.262001037597656,-64.90699768066406 C46.542999267578125,-68.36299896240234 53.70199966430664,-63.48400115966797 56.89899826049805,-57.70199966430664 C67.24400329589844,-38.98899841308594 81.3550033569336,39.81800079345703 58.69900131225586,57.676998138427734 C50.48500061035156,64.1510009765625 -33.67499923706055,68.36299896240234 -60.76599884033203,29.43400001525879 C-67.28900146484375,20.06100082397461 -81.3550033569336,-1.843000054359436 -49.50299835205078,-2.556999921798706 C-15.817999839782715,-3.312000036239624 19.58099937438965,29.44300079345703 33.82099914550781,23.035999298095703 C53.72800064086914,14.07800006866455 52.12099838256836,-11.166000366210938 38.900001525878906,-51.303001403808594 C37.60499954223633,-55.23500061035156 35.47100067138672,-62.27199935913086 40.262001037597656,-64.90699768066406z"></path></g><g opacity="1" transform="matrix(1,0,0,1,19.660999298095703,94.06700134277344)"><path fill="rgb(62,62,62)" fill-opacity="1" d=" M8.28600025177002,1.8240000009536743 C8.348999977111816,5.506999969482422 3.4570000171661377,6.51800012588501 0.30399999022483826,5.442999839782715 C-2.8489999771118164,4.367000102996826 -8.348999977111816,0.7490000128746033 -8.243000030517578,-6.51800012588501 C-4.889999866485596,-0.11999999731779099 -1.222000002861023,-3.240999937057495 2.2279999256134033,-2.9790000915527344 C5.678999900817871,-2.7160000801086426 8.223999977111816,-1.812000036239624 8.28600025177002,1.8240000009536743z"></path><path stroke-linecap="butt" stroke-linejoin="miter" fill-opacity="0" stroke-miterlimit="10" stroke="rgb(255,221,11)" stroke-opacity="1" stroke-width="2" d=" M8.28600025177002,1.8240000009536743 C8.348999977111816,5.506999969482422 3.4570000171661377,6.51800012588501 0.30399999022483826,5.442999839782715 C-2.8489999771118164,4.367000102996826 -8.348999977111816,0.7490000128746033 -8.243000030517578,-6.51800012588501 C-4.889999866485596,-0.11999999731779099 -1.222000002861023,-3.240999937057495 2.2279999256134033,-2.9790000915527344 C5.678999900817871,-2.7160000801086426 8.223999977111816,-1.812000036239624 8.28600025177002,1.8240000009536743z"></path></g><g opacity="1" transform="matrix(1,0,0,1,16.781999588012695,84.97200012207031)"><path fill="rgb(62,62,62)" fill-opacity="1" d=" M9.083999633789062,2.2330000400543213 C9.071000099182129,6.264999866485596 3.694999933242798,7.263000011444092 0.26899999380111694,6.014999866485596 C-3.1579999923706055,4.76800012588501 -9.097000122070312,0.6869999766349792 -8.819000244140625,-7.263000011444092 C-5.290999889373779,-0.18700000643730164 -1.2089999914169312,-3.5220000743865967 2.561000108718872,-3.1579999923706055 C6.330999851226807,-2.7929999828338623 9.097000122070312,-1.746000051498413 9.083999633789062,2.2330000400543213z"></path><path stroke-linecap="butt" stroke-linejoin="miter" fill-opacity="0" stroke-miterlimit="10" stroke="rgb(255,221,11)" stroke-opacity="1" stroke-width="2" d=" M9.083999633789062,2.2330000400543213 C9.071000099182129,6.264999866485596 3.694999933242798,7.263000011444092 0.26899999380111694,6.014999866485596 C-3.1579999923706055,4.76800012588501 -9.097000122070312,0.6869999766349792 -8.819000244140625,-7.263000011444092 C-5.290999889373779,-0.18700000643730164 -1.2089999914169312,-3.5220000743865967 2.561000108718872,-3.1579999923706055 C6.330999851226807,-2.7929999828338623 9.097000122070312,-1.746000051498413 9.083999633789062,2.2330000400543213z"></path></g><g opacity="1" transform="matrix(1,0,0,1,24.5049991607666,76.20899963378906)"><path fill="rgb(62,62,62)" fill-opacity="1" d=" M6.756999969482422,5.0929999351501465 C5.486000061035156,8.470999717712402 0.6639999747276306,7.626999855041504 -1.8209999799728394,5.510000228881836 C-4.306000232696533,3.3919999599456787 -8.01099967956543,-1.8890000581741333 -5.291999816894531,-8.470999717712402 C-4.545000076293945,-1.4320000410079956 -0.07900000363588333,-2.953000068664551 2.9690001010894775,-1.468999981880188 C6.019000053405762,0.01600000075995922 8.01200008392334,1.7580000162124634 6.756999969482422,5.0929999351501465z"></path><path stroke-linecap="butt" stroke-linejoin="miter" fill-opacity="0" stroke-miterlimit="10" stroke="rgb(255,221,11)" stroke-opacity="1" stroke-width="2" d=" M6.756999969482422,5.0929999351501465 C5.486000061035156,8.470999717712402 0.6639999747276306,7.626999855041504 -1.8209999799728394,5.510000228881836 C-4.306000232696533,3.3919999599456787 -8.01099967956543,-1.8890000581741333 -5.291999816894531,-8.470999717712402 C-4.545000076293945,-1.4320000410079956 -0.07900000363588333,-2.953000068664551 2.9690001010894775,-1.468999981880188 C6.019000053405762,0.01600000075995922 8.01200008392334,1.7580000162124634 6.756999969482422,5.0929999351501465z"></path></g><g opacity="1" transform="matrix(1,0,0,1,43.79999923706055,70.45899963378906)"><path fill="rgb(62,62,62)" fill-opacity="1" d=" M3.947000026702881,8.569999694824219 C7.932000160217285,7.955999851226807 8.114999771118164,2.490999937057495 6.369999885559082,-0.7110000252723694 C4.625999927520752,-3.9130001068115234 -0.29600000381469727,-9.175999641418457 -8.114999771118164,-7.714000225067139 C-0.5920000076293945,-5.2829999923706055 -3.2799999713897705,-0.7480000257492065 -2.3570001125335693,2.9240000247955322 C-1.434000015258789,6.5980000495910645 0.014000000432133675,9.175999641418457 3.947000026702881,8.569999694824219z"></path></g></g><g class="m_arm_shield_r" transform="matrix(0.9990400671958923,-0.04380585625767708,0.04380585625767708,0.9990400671958923,256.56170654296875,252.54690551757812)" opacity="1" style="display: block;"><g opacity="1" transform="matrix(1,0,0,1,23.159000396728516,30.29599952697754)"><path fill="rgb(255,221,11)" fill-opacity="1" d=" M-15.479000091552734,-24.492000579833984 C-15.479000091552734,-24.492000579833984 14.98799991607666,-30.04599952697754 14.98799991607666,-30.04599952697754 C14.98799991607666,-30.04599952697754 18.5939998626709,-13.527000427246094 18.5939998626709,-13.527000427246094 C18.5939998626709,-13.527000427246094 22.90999984741211,30.04599952697754 22.90999984741211,30.04599952697754 C22.90999984741211,30.04599952697754 -22.90999984741211,2.8440001010894775 -22.90999984741211,2.8440001010894775 C-22.90999984741211,2.8440001010894775 -22.90999984741211,-14.045999526977539 -22.90999984741211,-14.045999526977539 C-22.90999984741211,-14.045999526977539 -15.479000091552734,-24.492000579833984 -15.479000091552734,-24.492000579833984z"></path></g></g><g class="m_akinys_remas_r" transform="matrix(0.6094144582748413,-0.026721572503447533,0.04380585625767708,0.9990400671958923,255.34288024902344,95.32036590576172)" opacity="1" style="display: block;"><g opacity="1" transform="matrix(1,0,0,1,24.916000366210938,31.082000732421875)"><path fill="rgb(62,62,62)" fill-opacity="1" d=" M-20.30299949645996,14.576000213623047 C-5.682000160217285,2.256999969482422 5.038000106811523,-11.718999862670898 14.038000106811523,-24.06999969482422 C14.038000106811523,-24.06999969482422 20.30299949645996,-26.4689998626709 19.270000457763672,-22.187000274658203 C12.258999824523926,6.875 -15.258999824523926,26.4689998626709 -20.30299949645996,26.4689998626709 C-20.30299949645996,26.4689998626709 -20.30299949645996,14.576000213623047 -20.30299949645996,14.576000213623047z"></path><path stroke-linecap="butt" stroke-linejoin="miter" fill-opacity="0" stroke-miterlimit="10" stroke="rgb(255,221,11)" stroke-opacity="1" stroke-width="1.845" d=" M-20.30299949645996,14.576000213623047 C-5.682000160217285,2.256999969482422 5.038000106811523,-11.718999862670898 14.038000106811523,-24.06999969482422 C14.038000106811523,-24.06999969482422 20.30299949645996,-26.4689998626709 19.270000457763672,-22.187000274658203 C12.258999824523926,6.875 -15.258999824523926,26.4689998626709 -20.30299949645996,26.4689998626709 C-20.30299949645996,26.4689998626709 -20.30299949645996,14.576000213623047 -20.30299949645996,14.576000213623047z"></path></g></g><g class="m_akinys_remas_l" transform="matrix(1.3986561298370361,-0.06132819876074791,0.04380585625767708,0.9990400671958923,118.22392272949219,100.83226776123047)" opacity="1" style="display: block;"><g opacity="1" transform="matrix(1,0,0,1,24.916000366210938,31.082000732421875)"><path fill="rgb(62,62,62)" fill-opacity="1" d=" M20.304000854492188,14.576000213623047 C5.683000087738037,2.256999969482422 -5.038000106811523,-11.718999862670898 -14.038999557495117,-24.06999969482422 C-14.038999557495117,-24.06999969482422 -20.304000854492188,-26.4689998626709 -19.270999908447266,-22.187000274658203 C-12.260000228881836,6.875 15.26099967956543,26.4689998626709 20.304000854492188,26.4689998626709 C20.304000854492188,26.4689998626709 20.304000854492188,14.576000213623047 20.304000854492188,14.576000213623047z"></path><path stroke-linecap="butt" stroke-linejoin="miter" fill-opacity="0" stroke-miterlimit="10" stroke="rgb(255,221,11)" stroke-opacity="1" stroke-width="1.845" d=" M20.304000854492188,14.576000213623047 C5.683000087738037,2.256999969482422 -5.038000106811523,-11.718999862670898 -14.038999557495117,-24.06999969482422 C-14.038999557495117,-24.06999969482422 -20.304000854492188,-26.4689998626709 -19.270999908447266,-22.187000274658203 C-12.260000228881836,6.875 15.26099967956543,26.4689998626709 20.304000854492188,26.4689998626709 C20.304000854492188,26.4689998626709 20.304000854492188,14.576000213623047 20.304000854492188,14.576000213623047z"></path></g></g><g class="m_akinys_start" transform="matrix(0.9990400671958923,-0.04380585625767708,0.04380585625767708,0.9990400671958923,145.34645080566406,111.96083068847656)" opacity="1" style="display: block;"><g opacity="1" transform="matrix(0.9925461411476135,-0.12186934053897858,-0.2393878996372223,1.036902904510498,77.95799255371094,34.97600173950195)"><path fill="rgb(62,62,62)" fill-opacity="1" d=" M41.64699935913086,-30.291000366210938 C41.64699935913086,-30.291000366210938 -41.72800064086914,-29.48699951171875 -41.72800064086914,-29.48699951171875 C-49.231998443603516,-29.415000915527344 -54.34600067138672,-21.860000610351562 -51.625,-14.866000175476074 C-51.625,-14.866000175476074 -36.70199966430664,23.48200035095215 -36.70199966430664,23.48200035095215 C-35.08399963378906,27.641000747680664 -31.06100082397461,30.363000869750977 -26.599000930786133,30.31999969482422 C-26.599000930786133,30.31999969482422 28.243000030517578,29.79199981689453 28.243000030517578,29.79199981689453 C32.75699996948242,29.74799919128418 36.7599983215332,26.885000228881836 38.2599983215332,22.628000259399414 C38.2599983215332,22.628000259399414 51.87099838256836,-15.994999885559082 51.87099838256836,-15.994999885559082 C54.34600067138672,-23.017000198364258 49.090999603271484,-30.363000869750977 41.64699935913086,-30.291000366210938z M29.552000045776367,15.652000427246094 C26.78700065612793,20.83799934387207 26.040000915527344,23.65999984741211 21.655000686645508,23.70199966430664 C21.655000686645508,23.70199966430664 -20.590999603271484,24.110000610351562 -20.590999603271484,24.110000610351562 C-24.97599983215332,24.152000427246094 -27.184999465942383,20.714000701904297 -28.642000198364258,16.214000701904297 C-28.642000198364258,16.214000701904297 -39.744998931884766,-10.9399995803833 -39.744998931884766,-10.9399995803833 C-41.04899978637695,-15.54699993133545 -36.23400115966797,-18.947999954223633 -31.847999572753906,-18.990999221801758 C-31.847999572753906,-18.990999221801758 31.756999969482422,-19.604000091552734 31.756999969482422,-19.604000091552734 C36.143001556396484,-19.645999908447266 41.027000427246094,-15.819999694824219 39.80699920654297,-11.706999778747559 C39.80699920654297,-11.706999778747559 29.552000045776367,15.652000427246094 29.552000045776367,15.652000427246094z"></path><path stroke-linecap="butt" stroke-linejoin="miter" fill-opacity="0" stroke-miterlimit="10" stroke="rgb(255,221,11)" stroke-opacity="1" stroke-width="1.845" d=" M41.64699935913086,-30.291000366210938 C41.64699935913086,-30.291000366210938 -41.72800064086914,-29.48699951171875 -41.72800064086914,-29.48699951171875 C-49.231998443603516,-29.415000915527344 -54.34600067138672,-21.860000610351562 -51.625,-14.866000175476074 C-51.625,-14.866000175476074 -36.70199966430664,23.48200035095215 -36.70199966430664,23.48200035095215 C-35.08399963378906,27.641000747680664 -31.06100082397461,30.363000869750977 -26.599000930786133,30.31999969482422 C-26.599000930786133,30.31999969482422 28.243000030517578,29.79199981689453 28.243000030517578,29.79199981689453 C32.75699996948242,29.74799919128418 36.7599983215332,26.885000228881836 38.2599983215332,22.628000259399414 C38.2599983215332,22.628000259399414 51.87099838256836,-15.994999885559082 51.87099838256836,-15.994999885559082 C54.34600067138672,-23.017000198364258 49.090999603271484,-30.363000869750977 41.64699935913086,-30.291000366210938z M29.552000045776367,15.652000427246094 C26.78700065612793,20.83799934387207 26.040000915527344,23.65999984741211 21.655000686645508,23.70199966430664 C21.655000686645508,23.70199966430664 -20.590999603271484,24.110000610351562 -20.590999603271484,24.110000610351562 C-24.97599983215332,24.152000427246094 -27.184999465942383,20.714000701904297 -28.642000198364258,16.214000701904297 C-28.642000198364258,16.214000701904297 -39.744998931884766,-10.9399995803833 -39.744998931884766,-10.9399995803833 C-41.04899978637695,-15.54699993133545 -36.23400115966797,-18.947999954223633 -31.847999572753906,-18.990999221801758 C-31.847999572753906,-18.990999221801758 31.756999969482422,-19.604000091552734 31.756999969482422,-19.604000091552734 C36.143001556396484,-19.645999908447266 41.027000427246094,-15.819999694824219 39.80699920654297,-11.706999778747559 C39.80699920654297,-11.706999778747559 29.552000045776367,15.652000427246094 29.552000045776367,15.652000427246094z"></path></g></g></g></svg>