<?xml version="1.0" encoding="UTF-8"?> <!-- Creator: CorelDRAW X8 --> <svg xmlns="http://www.w3.org/2000/svg" xmlns:xlink="http://www.w3.org/1999/xlink" xml:space="preserve" width="150px" height="80px" style="shape-rendering:geometricPrecision; text-rendering:geometricPrecision; image-rendering:optimizeQuality; fill-rule:evenodd; clip-rule:evenodd" viewBox="0 0 1500 800"> <defs> <style type="text/css"> <![CDATA[ .fil2 {fill:#E53D34;fill-rule:nonzero} .fil1 {fill:#F9BF01;fill-rule:nonzero} .fil6 {fill:#999797;fill-rule:nonzero} .fil5 {fill:#999796;fill-rule:nonzero} .fil3 {fill:#989696;fill-rule:nonzero} .fil0 {fill:#5D80BF;fill-rule:nonzero} .fil4 {fill:#36A24A;fill-rule:nonzero} ]]> </style> </defs> <g id="Layer_x0020_1"> <metadata id="CorelCorpID_0Corel-Layer"></metadata> <g id="_1694856414160"> <path class="fil0" d="M777 169c2,84 -67,164 -165,165 -96,0 -166,-80 -165,-167 1,-91 74,-164 165,-165 93,0 167,77 165,167z"></path> <path class="fil1" d="M888 554c-53,0 -97,-43 -97,-97 0,-52 44,-97 97,-96 54,0 97,43 97,97 0,53 -44,96 -97,96z"></path> <path class="fil2" d="M971 251c0,45 -37,83 -83,83 -45,0 -83,-38 -83,-84 0,-45 38,-82 84,-82 45,0 82,37 82,83z"></path> <path class="fil3" d="M313 697c7,0 15,0 22,0 4,0 5,1 6,5 1,22 -5,41 -25,52 -21,12 -42,12 -63,0 -23,-13 -33,-38 -28,-64 4,-24 25,-43 50,-47 18,-3 34,2 47,13 4,2 4,4 1,6 -1,1 -2,2 -2,3 -4,5 -8,5 -13,1 -14,-10 -33,-10 -47,0 -15,10 -22,28 -19,46 4,17 18,30 35,33 21,4 40,-6 45,-24 2,-7 2,-7 -5,-7 -9,0 -18,0 -27,0 -4,0 -6,-2 -5,-6 0,-13 -2,-11 11,-11 5,0 11,0 17,0z"></path> <path class="fil4" d="M971 154c0,-23 18,-41 41,-41 23,0 42,18 42,41 0,23 -19,42 -42,42 -23,0 -41,-19 -41,-42z"></path> <path class="fil3" d="M850 686c11,0 20,4 26,13 3,3 2,4 -2,6 -4,1 -7,3 -12,-2 -4,-6 -16,-6 -22,-2 -6,4 -6,9 1,13 4,1 8,2 12,3 4,1 8,2 11,4 9,3 15,8 15,18 1,9 -4,16 -14,21 -15,7 -35,1 -43,-13 -1,-2 -3,-3 0,-6 4,-2 7,-7 11,-1 5,7 12,11 20,10 6,0 11,-2 12,-8 1,-6 -4,-9 -9,-10 -5,-2 -10,-3 -16,-5 -6,-2 -12,-4 -16,-10 -6,-10 -1,-22 9,-27 6,-3 11,-4 17,-4z"></path> <path class="fil3" d="M915 686c10,0 19,3 25,12 2,3 3,5 -1,7 -5,1 -8,3 -13,-2 -4,-6 -16,-6 -22,-2 -6,4 -6,10 1,13 6,2 12,3 18,5 4,1 9,2 13,5 11,9 10,24 -1,33 -14,11 -38,7 -48,-9 -1,-1 -5,-4 -1,-7 5,-4 10,-4 12,0 7,9 17,12 26,7 7,-3 7,-10 1,-14 -4,-3 -9,-4 -14,-5 -5,-1 -9,-2 -14,-4 -7,-4 -11,-9 -11,-18 0,-7 4,-13 11,-17 5,-3 11,-4 18,-4z"></path> <path class="fil3" d="M1006 686c10,0 20,3 26,12 2,3 2,5 -2,7 -4,2 -7,3 -12,-2 -4,-6 -16,-6 -22,-2 -6,4 -6,10 1,13 5,2 11,3 17,5 5,1 10,2 14,5 11,9 10,24 -1,33 -15,11 -38,7 -48,-9 -1,-2 -5,-4 -1,-7 5,-4 9,-4 12,0 7,9 17,12 26,7 7,-3 7,-10 1,-14 -4,-3 -9,-4 -14,-5 -5,-1 -9,-2 -14,-4 -7,-4 -11,-10 -11,-18 0,-8 4,-13 11,-17 5,-3 11,-4 17,-4z"></path> <path class="fil3" d="M1177 697c9,-10 19,-13 31,-10 11,3 18,11 19,24 0,15 -1,30 0,45 0,6 -5,4 -8,4 -3,0 -6,1 -6,-4 0,-14 0,-27 0,-40 0,-9 -4,-15 -11,-17 -9,-2 -17,1 -22,9 -2,4 -4,8 -3,13 0,11 -1,22 0,33 0,6 -2,6 -7,6 -6,1 -7,-1 -7,-6 1,-20 0,-40 0,-59 0,-5 1,-7 6,-7 4,1 9,0 7,7 0,0 0,1 1,2z"></path> <path class="fil3" d="M602 703c0,-17 0,-34 0,-51 0,-4 1,-6 5,-6 13,0 13,0 13,12 0,32 0,64 0,96 0,5 -1,7 -6,6 -12,0 -12,0 -12,-12 0,-15 0,-30 0,-45z"></path> <path class="fil3" d="M1051 724c0,-6 0,-12 1,-17 0,-5 -1,-6 -6,-6 -6,0 -10,-5 -7,-11 1,-3 4,-2 6,-1 5,0 7,-2 7,-7 -1,-3 0,-6 -1,-9 0,-6 2,-7 8,-7 5,0 7,1 6,6 0,1 0,2 0,2 0,5 -1,10 1,13 2,3 8,1 13,1 4,0 4,3 4,6 0,3 1,7 -5,7 0,0 0,0 0,0 -13,0 -13,0 -13,13 0,8 0,16 0,24 0,8 4,11 12,10 7,0 5,6 6,9 2,4 -2,3 -3,4 -16,3 -30,-4 -29,-22 1,-5 0,-10 0,-15z"></path> <path class="fil3" d="M1244 724c0,-6 0,-12 0,-18 0,-4 -1,-5 -6,-5 -6,0 -9,-6 -6,-11 1,-2 3,-2 5,-2 6,1 8,-1 7,-7 0,-2 0,-5 0,-7 0,-7 4,-10 12,-8 2,1 2,2 2,4 0,4 0,8 0,13 -1,5 1,6 6,5 1,0 3,1 4,0 6,-1 8,2 8,8 -1,4 -2,5 -6,5 -12,0 -12,0 -12,12 0,8 0,16 0,24 0,9 3,12 12,11 6,0 4,6 6,9 2,4 -2,3 -3,4 -16,3 -30,-4 -29,-22 0,-5 0,-10 0,-15z"></path> <path class="fil5" d="M952 724c0,-11 1,-21 0,-31 0,-6 4,-4 8,-5 3,0 6,-1 6,5 0,21 0,42 0,63 0,5 -3,4 -6,4 -3,0 -8,2 -8,-4 1,-11 0,-22 0,-32z"></path> <path class="fil6" d="M960 654c6,0 9,4 9,10 0,5 -5,9 -10,9 -5,0 -9,-5 -9,-10 0,-5 4,-9 10,-9z"></path> <g> <path class="fil3" d="M591 692c0,-2 0,-4 -1,-4 -4,-1 -9,-1 -13,-1 -4,0 -1,5 -4,6 -12,-12 -33,-10 -45,3 -15,15 -15,39 -2,54 11,12 32,19 48,5 1,19 -6,28 -22,27 -7,-1 -12,-4 -15,-10 -2,-3 -4,-4 -7,-2 -2,1 -4,2 -6,2 -4,1 -5,4 -2,8 9,14 26,21 43,16 16,-4 25,-17 26,-35 0,-23 0,-46 0,-69zm-36 55l0 0c-11,1 -22,-6 -22,-23 0,-16 11,-24 22,-24 12,0 21,11 21,24 0,13 -9,23 -21,23z"></path> </g> <g> <path class="fil3" d="M814 753c-11,-31 -23,-62 -35,-93 -1,-5 -4,-6 -8,-5 -4,0 -9,-2 -11,5 -5,14 -11,29 -16,43 -7,18 -14,36 -21,54 0,2 1,3 2,3 2,0 4,0 6,0 5,0 7,0 9,-6 2,-5 4,-11 6,-17 1,-4 3,-6 7,-5 8,0 15,0 23,0 15,0 15,0 21,14 0,2 1,5 2,7 2,6 3,7 11,7 7,0 7,0 4,-7zm-31 -34l0 0c-9,0 -18,0 -27,0 -3,0 -3,-1 -2,-4 5,-13 10,-27 15,-41 0,0 1,0 1,0 5,14 11,28 16,42 1,2 -1,3 -3,3z"></path> </g> <g> <path class="fil3" d="M386 685c-22,0 -39,16 -39,38 0,23 16,40 38,40 22,0 40,-17 40,-39 0,-22 -17,-39 -39,-39zm-1 62l0 0c-12,0 -21,-10 -21,-23 0,-14 9,-24 22,-24 12,0 21,11 21,24 0,13 -10,23 -22,23z"></path> </g> <g> <path class="fil3" d="M653 733c14,-5 28,-11 42,-17 2,-1 4,-1 3,-5 -4,-15 -18,-26 -34,-26 -20,0 -36,17 -36,39 0,22 16,39 40,39 8,-1 17,-3 25,-10 6,-7 6,-7 -1,-12 -5,-4 -7,-4 -11,0 -9,9 -22,8 -30,0 -3,-3 -4,-5 2,-8zm-5 -12l0 0c-1,1 -2,1 -3,1 0,-8 4,-15 11,-19 6,-4 15,-3 18,0 2,1 4,2 4,4 0,2 0,1 -4,3 -9,4 -18,8 -26,11z"></path> </g> <g> <path class="fil3" d="M1151 754c0,-13 0,-26 0,-39 0,-13 -7,-24 -20,-27 -14,-5 -32,-1 -39,9 -1,1 -3,2 -1,4 3,2 6,4 9,6 3,1 4,-2 5,-4 6,-5 13,-6 20,-4 7,2 11,7 13,14 1,3 0,5 -4,3 -7,-3 -14,-3 -21,-2 -16,1 -26,10 -26,23 0,13 9,24 24,26 11,1 19,-3 27,-12 0,2 0,3 0,3 -1,7 3,6 8,6 5,1 5,-2 5,-6zm-14 -20l0 0c-2,9 -11,16 -21,16 -7,0 -13,-4 -15,-10 -1,-6 3,-12 11,-14 7,-2 15,-2 22,1 4,2 4,4 3,7z"></path> </g> <g> <path class="fil3" d="M471 685c-23,0 -39,16 -40,38 0,23 17,40 39,40 22,0 39,-17 40,-39 0,-22 -17,-39 -39,-39zm-1 62l0 0c-12,0 -21,-10 -21,-23 0,-14 9,-24 21,-24 13,0 22,11 22,24 0,13 -10,23 -22,23z"></path> </g> </g> </g> </svg> 