<?xml version="1.0" encoding="UTF-8"?> <!-- Creator: CorelDRAW X8 --> <svg xmlns="http://www.w3.org/2000/svg" xmlns:xlink="http://www.w3.org/1999/xlink" xml:space="preserve" width="150px" height="45px" style="shape-rendering:geometricPrecision; text-rendering:geometricPrecision; image-rendering:optimizeQuality; fill-rule:evenodd; clip-rule:evenodd" viewBox="0 0 1500 450"> <defs> <style type="text/css"> <![CDATA[ .fil1 {fill:#2B2A29;fill-rule:nonzero} .fil0 {fill:#C49E0D;fill-rule:nonzero} ]]> </style> </defs> <g id="Layer_x0020_1"> <metadata id="CorelCorpID_0Corel-Layer"></metadata> <g id="_1694651493168"> <path class="fil0" d="M1344 140c-11,11 -27,18 -44,18 -34,0 -62,-27 -62,-61 0,-19 9,-35 23,-47l-344 0c-53,-33 -106,-50 -167,-48 -61,-2 -114,15 -167,48l-343 0c13,12 22,28 22,47 0,34 -28,61 -62,61 -17,0 -33,-7 -44,-18 -3,13 -4,27 -4,41 0,122 102,222 229,222 0,0 227,0 294,0 64,0 74,43 75,45l0 0c0,0 0,0 0,0 0,0 0,0 0,0l0 0c1,-2 11,-45 75,-45 67,0 294,0 294,0 127,0 229,-100 229,-222 0,-14 -1,-28 -4,-41z"></path> <path class="fil1" d="M1334 181c0,-6 0,-11 0,-17 -11,5 -22,8 -34,8 -42,0 -76,-34 -76,-75 0,-11 3,-23 8,-33l-89 0 0 -30 -177 0 0 30 -38 0 0 -30 -68 0c-2,0 -5,-1 -8,-1 -31,-12 -63,-18 -96,-18 -2,0 -4,0 -6,0l0 0c-2,0 -4,0 -6,0 -35,0 -67,6 -99,19l-35 0 10 11c-9,5 -18,10 -27,15l0 -26 -142 0 25 30 -51 0 0 -44 -80 0 27 32 0 12 -104 0c5,10 8,22 8,33 0,41 -34,75 -76,75 -12,0 -23,-3 -34,-8 0,6 0,11 0,17 0,62 28,117 72,156l0 45 -32 38 140 0 26 -31c3,0 6,0 9,0l294 0c38,0 62,14 75,30 13,-16 37,-30 75,-30l122 0 0 1 1 -1 166 0 4 17 8 3c20,7 42,10 66,10 65,0 99,-42 99,-81 0,-10 -2,-18 -5,-25 30,-36 48,-82 48,-132z"></path> <g> <g> <path class="fil0" d="M617 188l22 -53 49 0 22 53 41 0 -17 -15 -54 -127 -43 0 10 13 -54 129 24 0zm46 -113l0 0 17 42 -34 0 17 -42z"></path> </g> <g> <path class="fil0" d="M887 135c0,15 0,29 12,41 9,10 23,15 40,15 12,0 28,-3 39,-12l0 9 39 0 -12 -15 0 -112 12 -15 -39 0 0 96c0,17 -12,29 -33,29 -21,0 -31,-12 -31,-38l0 -87 -39 0 12 15 0 74z"></path> </g> <g> <polygon class="fil0" points="1042,170 1027,188 1123,188 1141,167 1069,167 1069,122 1105,122 1105,100 1069,100 1069,67 1119,67 1129,79 1129,46 1027,46 1042,64 "></polygon> </g> <g> <path class="fil0" d="M822 191c30,0 53,-6 53,-6l0 -72 -42 0 15 17 0 38c-9,2 -18,3 -28,3 -33,0 -59,-24 -59,-56 0,-31 23,-53 57,-53 30,0 41,13 41,13l0 -28c0,0 -16,-4 -36,-4 -55,0 -92,30 -92,75 0,44 36,73 91,73z"></path> </g> <g> <polygon class="fil0" points="371,188 389,188 392,188 461,188 479,167 411,167 411,32 371,32 384,48 384,172 "></polygon> </g> <g> <polygon class="fil0" points="491,170 477,188 579,188 588,167 519,167 519,122 555,122 555,100 519,100 519,67 569,67 579,79 579,46 477,46 491,64 "></polygon> </g> <g> <path class="fil0" d="M1032 216l-45 0 0 0 -21 0 16 18 0 119 -16 19 65 0c53,0 91,-32 91,-79 0,-48 -35,-77 -90,-77zm-6 134l0 0 -15 0 0 -112c5,0 13,0 19,0 39,0 59,20 59,57 0,41 -32,55 -63,55z"></path> </g> <g> <polygon class="fil0" points="284,204 284,182 232,182 250,203 250,386 232,407 339,407 365,376 284,376 "></polygon> </g> <g> <path class="fil0" d="M1213 275c-26,-11 -50,-21 -50,-40 0,-19 22,-26 41,-26 19,0 39,7 51,19l5 5 0 -45 -2 -1c-16,-4 -33,-7 -51,-7 -51,0 -82,22 -82,59 0,38 36,53 67,66 26,11 50,21 50,42 0,20 -26,31 -46,31 -25,0 -52,-10 -72,-26l-6 -5 12 49 1 0c19,7 39,10 62,10 56,0 87,-35 87,-69 0,-33 -36,-48 -67,-62z"></path> </g> <g> <polygon class="fil0" points="710,349 710,299 750,299 750,276 710,276 710,239 766,239 777,252 777,239 777,239 777,216 664,216 680,235 680,353 664,372 770,372 790,349 "></polygon> </g> <g> <path class="fil0" d="M488 349l-72 0 0 -50 40 0 0 -23 -40 0 0 -37 55 0 11 13 0 -36 -112 0 16 19 0 118 -16 19 142 0c-15,-9 -24,-23 -24,-23z"></path> </g> <g> <path class="fil0" d="M621 291l-16 0 16 19 0 42c-10,3 -21,4 -31,4 -38,0 -67,-28 -67,-64 0,-34 26,-59 64,-59 9,0 35,2 46,14l1 0 0 -32 -2 0c-14,-3 -26,-4 -39,-4 -62,0 -103,34 -103,85 0,50 40,82 101,82 20,0 38,-3 57,-6l3 -1 0 -80 -27 0 -3 0z"></path> </g> <g> <g> <path class="fil0" d="M1290 205c-1,-1 -3,-2 -5,-2 -2,0 -3,1 -5,2 -1,2 -2,3 -2,6 0,2 1,3 2,5 1,1 3,2 5,2 2,0 4,-1 5,-2 2,-2 2,-3 2,-5 0,-2 0,-4 -2,-6zm-1 10l0 0c-1,1 -2,2 -4,2 -1,0 -3,-1 -4,-2 -1,-1 -2,-3 -2,-4 0,-2 1,-3 2,-5 1,-1 3,-1 4,-1 2,0 3,0 4,1 2,2 2,3 2,5 0,1 0,3 -2,4zm-1 -1l0 0c0,0 0,0 0,0l0 -1c0,-1 0,-1 0,-2 0,0 -1,0 -1,0 0,0 1,0 1,-1 0,0 1,0 1,-1 0,-1 -1,-2 -1,-2 -1,0 -1,0 -2,0 0,0 -1,0 -2,0 -1,0 -1,0 -2,0l0 8 2 0 0 -3 1 0 0 0c0,0 1,0 1,0 0,0 0,0 0,0 0,1 0,1 0,1 1,1 1,1 1,2l2 0 0 -1c0,0 -1,0 -1,0zm-2 -4l0 0c0,0 -1,0 -1,0l-1 0 0 -2 1 0c0,0 1,0 1,0 0,0 1,1 1,1 0,0 -1,1 -1,1z"></path> </g> </g> <g> <path class="fil0" d="M1142 112l0 0c-9,0 -16,7 -16,15 0,9 7,16 16,16 9,0 16,-7 16,-16 0,-8 -7,-15 -16,-15zm0 25l0 0c-5,0 -9,-5 -9,-10 0,-6 4,-9 9,-9 6,0 9,5 9,10 0,6 -4,9 -9,9z"></path> </g> <g> <polygon class="fil0" points="1170,124 1170,119 1176,119 1182,122 1179,113 1159,113 1163,117 1163,138 1159,142 1170,142 1170,129 1181,129 1179,124 "></polygon> </g> <g> <polygon class="fil0" points="917,301 833,216 833,216 832,216 793,216 806,231 806,353 789,372 790,372 790,373 835,373 835,259 947,372 947,232 963,216 917,216 "></polygon> </g> </g> </g> </g> </svg> 