<?xml version="1.0" encoding="UTF-8"?> <!-- Creator: CorelDRAW X8 --> <svg xmlns="http://www.w3.org/2000/svg" xmlns:xlink="http://www.w3.org/1999/xlink" xml:space="preserve" width="56px" height="56px" style="shape-rendering:geometricPrecision; text-rendering:geometricPrecision; image-rendering:optimizeQuality; fill-rule:evenodd; clip-rule:evenodd" viewBox="0 0 560 560"> <defs> <style type="text/css"> <![CDATA[ .fil1 {fill:#FEFEFE;fill-rule:nonzero} .fil0 {fill:#F9E907;fill-rule:nonzero} .fil2 {fill:#262523;fill-rule:nonzero} ]]> </style> </defs> <g id="Layer_x0020_1"> <metadata id="CorelCorpID_0Corel-Layer"></metadata> <g id="_1695970926192"> <path class="fil0" d="M468 4c49,0 88,39 88,88l0 376c0,49 -39,88 -88,88l-376 0c-49,0 -88,-39 -88,-88l0 -376c0,-49 39,-88 88,-88l376 0z"></path> <path class="fil1" d="M282 470c-1,0 -2,0 -3,0l0 0c-1,0 -1,0 -2,0 -24,0 -39,-11 -54,-21 -11,-8 -20,-15 -32,-17 -5,0 -11,-1 -16,-1 -10,0 -17,2 -23,3 -3,0 -6,1 -9,1 -2,0 -4,-1 -5,-4 -1,-4 -2,-7 -3,-10 -1,-7 -3,-12 -6,-13 -38,-6 -49,-14 -51,-19 -1,-1 -1,-2 -1,-3 0,-2 2,-4 4,-4 58,-10 84,-70 85,-72 1,0 1,0 1,0 3,-8 4,-14 2,-19 -4,-9 -17,-14 -26,-16 -2,-1 -4,-2 -6,-2 -17,-7 -19,-14 -18,-18 1,-6 9,-10 16,-10 2,0 3,0 5,1 8,4 15,5 21,5 8,0 12,-3 12,-4 0,-4 0,-8 -1,-12 -1,-28 -4,-62 5,-82 26,-58 82,-63 98,-63 1,0 7,0 7,0l1 0c17,0 73,5 99,63 9,20 6,54 5,82l0 1c-1,4 -1,8 -1,11 0,1 4,4 11,4l0 0c6,0 13,-2 20,-5 2,-1 4,-1 6,-1 2,0 5,0 7,1l0 0c6,2 10,6 10,11 0,4 -3,10 -18,16 -2,0 -4,1 -6,2 -9,2 -22,7 -26,16 -2,5 -1,11 2,19 0,0 0,0 0,0 2,2 28,62 86,72 2,0 4,2 4,4 0,1 0,2 -1,3 -2,5 -13,13 -51,19 -3,1 -4,5 -6,13 -1,3 -2,6 -3,10 0,2 -2,4 -5,4l-1 0c-2,0 -4,-1 -8,-1 -6,-2 -14,-3 -23,-3 -5,0 -11,1 -16,1 -12,2 -21,9 -32,16 -15,11 -30,22 -54,22z"></path> <path class="fil2" d="M283 86l0 0c0,0 0,0 -1,0l0 0c0,0 -6,0 -7,0 -17,0 -75,5 -102,66 -9,20 -7,55 -5,83 0,4 0,7 1,10 -2,1 -4,2 -8,2 -6,0 -12,-2 -19,-5 -2,-1 -5,-1 -7,-1 -8,0 -18,5 -20,13 -1,6 1,15 21,23 1,0 3,1 6,2 8,2 19,6 23,14 1,4 1,9 -2,15 0,0 0,0 0,0 -2,3 -27,60 -83,70 -4,0 -7,4 -7,8 0,2 0,3 1,4 4,10 22,17 54,22 1,2 2,7 3,10 1,3 1,7 2,10 1,3 4,7 10,7 3,0 6,0 10,-1 5,-1 13,-3 22,-3 5,0 10,1 16,2 10,1 19,8 29,15 15,10 32,22 57,22 1,0 1,0 2,0 1,0 2,0 3,0 25,0 42,-12 57,-22 10,-7 19,-14 29,-15 6,-1 11,-2 16,-2 9,0 16,2 22,3 4,0 7,1 9,1l1 0 0 0c5,0 8,-3 10,-7 0,-4 1,-7 2,-10 1,-3 2,-8 3,-10 32,-5 50,-12 54,-22 1,-1 1,-2 1,-4 0,-4 -3,-8 -7,-8 -56,-10 -82,-67 -83,-70 0,0 0,0 0,0 -3,-6 -3,-11 -2,-15 3,-8 15,-12 23,-14 3,-1 5,-2 6,-2 14,-6 21,-13 21,-21 0,-6 -5,-11 -12,-14l0 0c-3,-1 -6,-2 -9,-2 -2,0 -5,1 -8,2 -7,3 -13,5 -18,5 -3,0 -5,-1 -7,-2 0,-3 1,-5 1,-9l0 -1c2,-28 4,-63 -5,-83 -28,-61 -85,-66 -103,-66l0 0zm0 8c16,0 70,5 95,61 8,19 6,53 4,80 0,4 0,8 0,12l0 2 1 1c0,1 4,5 14,6l0 0 0 0c7,-1 14,-3 22,-6 1,-1 2,-1 4,-1 2,0 4,0 5,1l1 0c4,2 7,4 7,7 0,1 -1,6 -16,12 -1,0 -3,1 -5,2 -10,3 -24,7 -29,18 -2,7 -2,14 3,23 1,4 28,64 89,74 -1,0 -1,1 -1,1 -1,2 -7,11 -48,17 -6,1 -8,8 -9,16 -1,3 -2,6 -3,9 0,1 0,1 -1,1 0,0 0,0 -1,0l0 0c-1,0 -4,0 -7,-1 -6,-1 -14,-2 -24,-2 -5,0 -11,0 -17,1 -12,2 -23,9 -33,17 -15,10 -29,21 -52,21 -1,0 -2,0 -3,0l0 0 0 0c-1,0 -2,0 -2,0 -23,0 -38,-11 -52,-21 -11,-8 -21,-15 -33,-17 -6,-1 -12,-1 -17,-1 -10,0 -18,1 -24,2 -3,1 -6,2 -8,2 -1,0 -1,0 -1,-2 -1,-3 -2,-6 -3,-9 -1,-8 -3,-15 -9,-16 -41,-6 -47,-15 -48,-17 0,0 -1,-1 -1,-1 61,-10 88,-70 89,-74 5,-9 5,-16 3,-23 -5,-11 -19,-15 -29,-18 -2,-1 -4,-2 -5,-2 -12,-5 -16,-10 -16,-13 1,-3 7,-7 12,-7 1,0 2,0 3,1 8,4 16,6 23,6 10,0 15,-5 15,-6l1 -1 0 -2c0,-4 0,-8 0,-12 -2,-27 -4,-61 4,-80 25,-56 79,-61 94,-61 1,0 8,0 8,0 0,0 0,0 0,0z"></path> </g> </g> </svg> 