<?xml version="1.0" encoding="UTF-8"?> <!-- Creator: CorelDRAW X8 --> <svg xmlns="http://www.w3.org/2000/svg" xmlns:xlink="http://www.w3.org/1999/xlink" xml:space="preserve" width="109px" height="65px" style="shape-rendering:geometricPrecision; text-rendering:geometricPrecision; image-rendering:optimizeQuality; fill-rule:evenodd; clip-rule:evenodd" viewBox="0 0 1090 650"> <defs> <style type="text/css"> <![CDATA[ .fil1 {fill:#FEFEFE;fill-rule:nonzero} .fil0 {fill:#56C3E9;fill-rule:nonzero} ]]> </style> </defs> <g id="Layer_x0020_1"> <metadata id="CorelCorpID_0Corel-Layer"></metadata> <g id="_1694863895440"> <path class="fil0" d="M787 51c-18,7 -37,13 -57,15 21,-12 36,-32 44,-55 -19,12 -41,20 -63,24 -18,-19 -44,-31 -73,-31 -55,0 -99,44 -99,99 0,8 1,16 2,23 -82,-4 -155,-44 -204,-104 -9,15 -14,32 -14,50 0,35 18,65 44,83 -16,-1 -31,-5 -45,-13 0,1 0,1 0,2 0,48 35,88 80,97 -8,2 -17,4 -26,4 -7,0 -13,-1 -19,-2 13,39 49,68 93,69 -34,26 -77,42 -123,42 -8,0 -16,0 -24,-1 44,28 96,45 152,45 183,0 283,-152 283,-283 0,-4 0,-9 0,-13 19,-14 36,-32 49,-51z"></path> <path class="fil0" d="M26 434c13,-4 29,6 31,20 1,11 1,22 1,33 28,0 56,-1 83,0 10,2 20,10 21,21 4,13 -6,29 -20,31 -28,3 -56,1 -84,1 0,11 -1,21 1,31 2,10 10,19 20,20 21,2 43,0 64,2 18,2 27,27 14,41 -6,12 -21,12 -33,12 -21,-1 -43,2 -64,-4 -31,-10 -55,-41 -55,-74 -1,-34 0,-68 0,-102 -3,-14 7,-29 21,-32z"></path> <path class="fil0" d="M512 441c12,-13 37,-8 43,8 2,20 1,40 1,60 19,0 38,-1 56,1 13,3 23,16 21,30 -1,13 -14,24 -27,22 -16,1 -32,1 -48,1 2,9 3,21 12,26 17,7 38,-2 54,8 6,8 11,17 9,27 -3,14 -17,22 -31,21 -32,4 -71,-6 -85,-38 -16,-40 -14,-85 -15,-128 2,-12 -1,-29 10,-38z"></path> <path class="fil0" d="M660 436c7,-3 15,-4 22,0 6,4 12,9 13,16 2,19 1,38 2,57 18,0 37,-1 55,1 13,3 22,15 21,28 -1,11 -8,22 -20,24 -18,1 -36,0 -54,0 1,9 0,20 9,26 19,10 46,-4 60,15 11,15 3,36 -14,41 -31,5 -67,2 -88,-23 -16,-20 -19,-47 -22,-71 -1,-27 -4,-53 -2,-80 0,-14 4,-28 18,-34z"></path> <path class="fil0" d="M191 497c12,-4 25,5 30,15 3,20 0,40 1,60 2,13 15,26 29,23 9,-1 17,-9 18,-18 2,-19 1,-38 1,-57 2,-11 11,-21 22,-23 8,-2 16,2 22,7 15,22 4,50 9,75 2,8 9,15 18,16 13,2 30,-9 27,-23 1,-20 -3,-41 3,-60 5,-11 20,-20 32,-14 8,4 15,11 16,19 2,20 1,40 0,60 -3,37 -36,69 -73,68 -19,1 -36,-7 -50,-18 -12,8 -24,16 -38,17 -35,7 -73,-17 -82,-52 -5,-22 -4,-44 -3,-67 -1,-11 6,-26 18,-28z"></path> <path class="fil0" d="M1014 499c16,-2 32,-2 48,-1 15,0 29,18 22,33 -4,7 -9,15 -18,16 -15,1 -30,0 -45,1 -10,1 -18,9 -20,18 -1,19 0,37 0,56 -1,15 -19,28 -34,22 -6,-4 -14,-9 -15,-18 -2,-21 -2,-42 0,-63 2,-33 30,-61 62,-64z"></path> <path class="fil0" d="M457 506c14,-2 28,9 30,22 2,31 1,61 1,92 -1,12 -11,23 -23,24 -16,5 -32,-10 -30,-26 -1,-31 -2,-62 0,-92 1,-11 12,-19 22,-20zm-2 -72c19,-5 38,16 31,34 -4,19 -30,25 -43,12 -17,-12 -8,-43 12,-46z"></path> <path class="fil0" d="M825 504c31,-10 68,-8 94,13 16,13 26,35 22,56 -3,9 -13,12 -22,13 -28,1 -56,0 -84,1 8,16 29,18 45,15 14,-3 26,-13 40,-11 11,1 17,14 13,23 -7,16 -23,24 -39,28 -28,7 -60,6 -83,-13 -27,-19 -37,-57 -25,-87 7,-18 22,-32 39,-38z"></path> <path class="fil1" d="M836 551c0,0 0,0 0,-1l0 0c4,-7 10,-11 18,-13 10,-4 22,-2 30,7 2,1 3,3 4,4 1,1 1,2 2,3l0 0 0 1 -31 -1c-8,0 -16,0 -23,0z"></path> </g> </g> </svg> 