<?xml version="1.0" encoding="UTF-8"?> <!-- Creator: CorelDRAW X8 --> <svg xmlns="http://www.w3.org/2000/svg" xmlns:xlink="http://www.w3.org/1999/xlink" xml:space="preserve" width="106px" height="86px" style="shape-rendering:geometricPrecision; text-rendering:geometricPrecision; image-rendering:optimizeQuality; fill-rule:evenodd; clip-rule:evenodd" viewBox="0 0 1060 860"> <defs> <style type="text/css"> <![CDATA[ .fil6 {fill:#E42328;fill-rule:nonzero} .fil7 {fill:#E42327;fill-rule:nonzero} .fil3 {fill:#E42127;fill-rule:nonzero} .fil5 {fill:#E32328;fill-rule:nonzero} .fil2 {fill:#E32327;fill-rule:nonzero} .fil13 {fill:#FBFBFB;fill-rule:nonzero} .fil10 {fill:#F9F9F8;fill-rule:nonzero} .fil11 {fill:#F6F6F6;fill-rule:nonzero} .fil9 {fill:#948D8D;fill-rule:nonzero} .fil12 {fill:#453F3E;fill-rule:nonzero} .fil8 {fill:#443D3C;fill-rule:nonzero} .fil1 {fill:#363130;fill-rule:nonzero} .fil4 {fill:#363130;fill-rule:nonzero} .fil0 {fill:#35312F;fill-rule:nonzero} ]]> </style> </defs> <g id="Layer_x0020_1"> <metadata id="CorelCorpID_0Corel-Layer"></metadata> <g id="_1992029800880"> <path class="fil0" d="M520 418c9,-18 18,-36 27,-55 16,-34 33,-68 49,-102 1,-2 1,-3 2,-4 4,-9 4,-9 14,-9 11,0 22,0 34,0 0,2 -2,4 -3,6 -22,41 -44,83 -66,124 -1,3 -2,5 0,9 24,68 49,136 74,203 3,9 7,17 12,26 -2,0 -4,0 -5,0 -27,0 -53,0 -79,0 -2,0 -5,1 -5,-3 -2,-20 -9,-38 -15,-56 -12,-38 -25,-76 -37,-113 -1,-2 -1,-3 -2,-4 -1,0 -1,1 -1,1 0,48 -1,96 0,143 1,10 2,19 5,28 1,3 0,4 -3,4 -26,0 -52,0 -77,0 -3,0 -4,0 -3,-3 2,-13 3,-26 3,-40 0,-94 0,-189 0,-284 0,-13 -2,-25 -5,-38 -1,-3 0,-3 3,-3 26,0 52,0 78,0 2,0 3,0 3,3 -4,16 -4,32 -4,48 0,38 0,75 0,113 0,2 0,4 0,5 0,1 1,1 1,1z"></path> <path class="fil0" d="M753 508c0,22 0,45 0,67 0,4 1,5 4,5 19,0 38,-1 57,-2 3,-1 5,0 5,4 -1,10 0,20 0,30 0,3 -1,4 -4,4 -46,0 -91,0 -137,0 -4,0 -4,-1 -4,-4 3,-12 4,-25 4,-38 0,-92 0,-185 0,-278 0,-15 -3,-30 -6,-44 0,-3 0,-4 4,-4 44,0 88,0 132,0 4,0 5,0 4,4 0,8 0,17 0,26 0,3 0,4 -3,3 -6,-3 -13,-2 -20,-2 -11,0 -22,0 -33,0 -2,0 -3,1 -3,4 0,39 0,78 0,116 0,3 0,4 3,4 15,0 30,1 45,-2 3,-1 3,0 3,2 0,11 0,22 0,32 0,3 -1,4 -3,3 -15,-4 -29,-3 -44,-3 -3,0 -4,1 -4,5 0,22 0,45 0,68z"></path> <path class="fil1" d="M525 667c-170,0 -340,0 -510,0 -5,0 -7,-1 -6,-6 0,-4 0,-9 0,-13 0,-3 0,-5 4,-4 1,0 2,0 3,0 339,0 678,0 1017,0 6,0 8,1 7,7 0,5 3,12 -1,15 -3,3 -10,1 -15,1 -166,0 -333,0 -499,0z"></path> <path class="fil2" d="M117 62c-2,16 -3,32 -5,49 -1,12 -2,25 -3,38 0,3 -1,4 -4,4 -10,0 -19,0 -29,0 -3,0 -3,-1 -4,-4 -5,-38 -10,-75 -16,-113 -1,-10 -2,-20 -5,-30 11,0 20,0 30,0 2,0 3,1 3,3 3,35 8,71 12,106 0,2 1,3 1,5 2,-1 1,-2 1,-3 3,-33 6,-65 8,-97 0,-4 1,-7 0,-10 -1,-4 1,-4 3,-4 9,0 18,0 27,0 3,0 4,1 4,5 4,34 9,69 13,104 0,1 0,2 1,2 1,-12 3,-24 4,-36 2,-21 3,-42 5,-63 1,-4 -1,-10 1,-11 3,-2 8,0 13,-1 5,-1 5,2 4,6 -4,29 -7,58 -11,86 -2,17 -4,34 -6,50 0,4 -1,5 -5,5 -9,0 -17,0 -26,0 -3,0 -4,-1 -5,-4 -3,-29 -7,-57 -10,-85 0,-1 -1,-2 -1,-2 0,0 0,0 0,0z"></path> <path class="fil0" d="M793 847c-18,0 -36,0 -55,0 -2,0 -5,2 -5,-2 -1,-4 3,-2 5,-2 10,0 20,-1 30,-5 14,-7 23,-19 23,-35 0,-2 -1,-4 -3,-5 -3,-1 -5,-1 -8,1 -2,2 -2,4 -4,6 -8,13 -23,18 -36,13 -14,-4 -23,-16 -22,-31 0,-15 10,-26 24,-30 7,-1 13,-1 19,2 3,1 6,2 8,0 2,-2 0,-5 -2,-7 -6,-9 -8,-19 -4,-29 4,-12 12,-19 25,-21 13,-2 24,2 31,13 8,11 8,22 2,34 -2,3 -6,6 -4,10 3,4 7,0 10,-1 13,-4 24,-1 33,9 9,9 11,21 6,33 -5,13 -15,19 -28,20 -12,0 -22,-5 -28,-16 -2,-1 -3,-3 -4,-5 -2,-2 -5,-2 -8,-1 -3,1 -2,4 -2,6 1,21 14,34 36,38 5,0 11,1 17,1 1,0 4,-2 4,2 0,4 -2,2 -4,2 -19,0 -37,0 -56,0z"></path> <path class="fil3" d="M607 845c-15,-30 -36,-55 -55,-82 -3,-4 -6,-9 -9,-13 -14,-21 4,-46 23,-50 17,-3 31,4 41,20 2,-1 2,-3 4,-5 9,-13 25,-18 39,-14 15,5 25,18 26,33 0,6 -3,11 -6,16 -5,9 -11,17 -17,25 -16,22 -34,44 -46,70z"></path> <path class="fil0" d="M405 809c-14,12 -29,15 -46,8 -4,-2 -7,-4 -10,-7 -10,-10 -11,-20 -3,-31 5,-8 12,-16 18,-23 16,-18 33,-35 45,-56 7,11 14,21 23,31 11,12 22,25 33,37 3,4 6,7 8,11 8,11 7,21 -3,31 -14,13 -38,14 -53,2 -1,-1 -2,-2 -3,-3 -1,9 5,19 14,25 10,7 22,8 34,9 2,0 4,0 6,0 1,0 2,0 2,2 0,1 0,2 -2,2 -1,0 -2,0 -4,0 -36,0 -73,0 -110,0 0,0 -1,0 -1,0 -2,0 -4,1 -4,-2 -1,-3 2,-2 3,-2 8,0 16,-1 24,-3 14,-3 25,-11 29,-26 0,-1 0,-1 0,-2 1,-1 0,-2 0,-3z"></path> <path class="fil1" d="M244 213c-76,0 -153,0 -229,1 -5,0 -7,-1 -6,-6 0,-5 0,-9 0,-14 0,-3 0,-4 4,-4 0,0 1,0 2,0 153,0 305,0 458,0 5,0 7,1 6,7 0,5 3,13 -1,16 -3,2 -10,0 -16,0 -72,0 -145,0 -218,0z"></path> <path class="fil4" d="M819 213c-72,0 -144,0 -216,0 -4,0 -6,0 -5,-5 0,-5 0,-10 0,-15 0,-2 0,-3 3,-3 1,0 2,0 3,0 144,0 287,0 430,0 5,0 7,1 6,6 0,5 0,10 0,14 0,3 0,4 -3,3 -1,0 -2,0 -4,0 -71,0 -143,0 -214,0z"></path> <path class="fil5" d="M612 4c8,1 17,1 26,2 3,0 4,0 4,4 0,15 0,30 0,45 0,3 -1,4 -4,4 -6,0 -13,0 -19,0 -4,0 -4,-1 -4,-4 0,-10 0,-19 0,-29 0,-7 -2,-8 -8,-8 -7,-1 -10,1 -10,8 0,9 0,18 0,28 0,6 3,10 9,13 7,3 14,5 21,8 13,5 16,9 16,22 0,12 0,23 0,34 0,16 -5,21 -20,23 -18,1 -35,1 -53,-1 -2,0 -3,-2 -3,-4 0,-16 0,-31 0,-47 0,-3 1,-4 4,-4 6,0 12,0 18,0 4,0 5,1 5,5 0,9 0,18 0,28 0,7 3,10 11,10 5,0 7,-3 8,-8 0,-10 0,-20 0,-30 0,-6 -4,-9 -9,-12 -6,-2 -13,-5 -20,-7 -14,-6 -17,-10 -17,-25 0,-11 0,-22 0,-33 0,-14 5,-20 19,-21 4,0 7,-1 11,-1 5,0 10,0 15,0 0,0 0,0 0,0z"></path> <path class="fil2" d="M959 4c7,0 16,1 24,1 3,1 5,1 5,5 0,15 0,30 0,45 0,3 -1,4 -4,4 -6,0 -12,0 -18,0 -4,0 -5,-1 -5,-4 1,-10 1,-19 0,-28 0,-8 -1,-9 -8,-9 -7,-1 -10,2 -10,9 0,8 0,17 0,25 0,7 3,13 10,15 7,3 14,5 21,8 12,5 15,9 15,21 0,13 0,26 0,38 0,12 -4,17 -16,19 -18,3 -37,2 -56,0 -3,0 -3,-2 -3,-4 0,-16 0,-31 0,-47 0,-3 0,-4 3,-4 7,0 13,0 20,0 3,0 4,1 4,4 -1,10 -1,19 0,29 0,8 6,12 14,9 2,-1 4,-3 4,-6 0,-11 0,-22 0,-32 0,-5 -4,-9 -8,-10 -7,-3 -14,-6 -20,-9 -14,-5 -17,-9 -17,-24 0,-12 0,-24 0,-37 0,-9 4,-14 13,-16 10,-2 20,-2 32,-2z"></path> <path class="fil2" d="M237 856c-2,-1 -2,-2 -3,-4 -13,-25 -26,-50 -40,-75 -1,-2 -1,-4 0,-7 14,-25 27,-51 41,-77 0,-1 1,-2 2,-3 13,25 25,49 39,73 3,8 4,13 0,20 -14,24 -26,49 -39,73z"></path> <path class="fil6" d="M709 19c-8,-1 -14,0 -21,0 -3,-1 -3,1 -3,3 0,14 0,28 0,43 0,2 1,3 3,3 5,0 9,0 13,-1 4,0 4,1 4,4 0,11 1,11 -9,10 -11,-1 -11,-1 -11,10 0,14 0,28 0,43 0,3 1,5 4,4 6,0 12,0 18,0 3,-1 4,0 4,3 1,12 1,12 -11,12 -14,0 -28,0 -42,0 -3,0 -5,-1 -4,-5 1,-4 1,-9 1,-14 0,-35 0,-70 0,-105 0,-6 0,-13 -2,-19 0,-3 0,-4 4,-4 16,0 32,0 48,0 3,0 4,1 4,4 0,3 0,6 0,9z"></path> <path class="fil7" d="M879 110c0,8 0,16 0,24 0,4 1,5 4,4 6,0 13,0 19,0 2,-1 4,0 4,3 0,12 0,12 -11,12 -14,0 -28,0 -42,0 -3,0 -5,0 -4,-5 1,-9 0,-19 0,-28 0,-30 0,-60 0,-90 0,-6 0,-13 -1,-20 -1,-2 -1,-4 3,-4 16,0 32,0 48,0 4,0 4,1 4,4 0,9 0,9 -8,9 -4,0 -8,0 -12,-1 -3,0 -4,2 -4,4 0,14 0,28 0,42 0,3 1,4 4,4 5,0 9,0 13,-1 2,0 3,-1 3,1 1,4 1,8 0,12 0,2 -1,1 -2,1 -5,0 -9,0 -14,0 -3,-1 -4,0 -4,4 0,8 0,16 0,25z"></path> <path class="fil7" d="M364 153c2,-9 2,-16 2,-24 0,-33 0,-66 0,-98 0,-7 0,-14 -2,-21 -1,-3 0,-4 3,-4 9,0 18,0 26,0 3,0 4,0 3,3 -2,37 0,74 -1,111 0,5 1,10 0,15 0,3 1,4 4,3 6,0 12,0 18,0 4,-1 5,0 5,4 0,11 0,11 -11,11 -15,0 -31,0 -47,0z"></path> <path class="fil7" d="M822 6c5,0 9,0 14,0 1,0 3,0 2,3 -3,16 -1,34 -1,50 0,25 0,49 0,73 0,6 0,12 1,17 1,3 0,4 -3,4 -8,0 -17,0 -26,0 -2,0 -3,0 -3,-3 2,-37 1,-75 1,-112 0,-10 1,-20 -2,-29 0,-3 1,-3 3,-3 5,0 9,0 14,0z"></path> <path class="fil1" d="M549 202c-1,-9 1,-20 -1,-31 0,-3 1,-3 3,-3 7,0 14,1 21,0 3,0 2,2 2,4 1,2 0,3 -3,3 -8,-1 -8,0 -8,8 0,2 0,5 0,7 0,6 1,9 7,7 3,-1 3,2 3,4 0,2 0,4 -3,3 -6,-2 -7,1 -7,6 1,8 -1,17 1,25 0,2 0,2 -2,2 0,0 0,0 0,0 -13,2 -13,2 -13,-11 0,-7 0,-14 0,-24z"></path> <path class="fil8" d="M1031 266c0,-8 6,-13 12,-13 7,0 13,6 13,13 0,6 -6,12 -12,12 -7,0 -13,-5 -13,-12z"></path> <g> <path class="fil0" d="M412 432c0,-13 0,-26 0,-38 0,-36 0,-72 0,-107 0,-19 -8,-32 -24,-37 -5,-2 -10,-3 -16,-4 -24,-4 -48,-4 -72,-3 -16,1 -32,1 -47,5 -15,4 -26,13 -29,29 -1,5 -1,11 -1,17 0,91 0,181 0,271 0,6 0,12 1,18 2,15 9,26 24,31 5,1 10,3 14,4 27,4 55,3 82,2 12,0 23,-1 35,-4 15,-3 28,-10 31,-27 2,-5 2,-11 2,-16 0,-47 0,-94 0,-141 0,0 0,0 0,0zm-75 129l0 0c0,4 0,9 -1,13 -1,7 -5,11 -12,12 -13,1 -25,0 -25,-20 -1,-15 -1,-31 -1,-47 0,-29 0,-59 0,-89 0,-43 0,-85 0,-128 0,-3 0,-5 1,-8 0,-6 1,-12 8,-15 8,-3 17,-3 25,2 4,3 5,7 5,12 0,2 0,4 0,6 0,88 0,175 0,262z"></path> </g> <g> <path class="fil0" d="M1034 613c-6,-15 -6,-30 -6,-45 0,-34 0,-67 0,-100 0,-15 -5,-28 -20,-35 -7,-4 -15,-6 -24,-7 -1,0 -2,0 -2,-1 -1,-1 0,-1 1,-1 9,-2 17,-4 24,-8 11,-6 17,-15 20,-27 0,-5 1,-10 1,-15 0,-25 0,-51 0,-77 0,-5 0,-10 -1,-15 -2,-15 -10,-25 -24,-30 -7,-2 -15,-4 -23,-4 -48,-1 -95,0 -142,-1 -5,0 -5,2 -4,6 3,17 5,34 5,51 0,89 0,178 0,266 0,14 -1,28 -3,41 -1,4 -1,5 4,5 25,0 51,0 77,0 3,0 4,0 3,-4 -5,-11 -6,-23 -6,-36 0,-27 0,-54 0,-81 0,-16 0,-31 0,-47 0,-3 0,-5 4,-4 4,0 8,0 12,0 10,0 18,6 21,16 1,6 2,11 2,17 0,45 0,89 0,134 0,3 -1,5 4,5 25,0 50,0 75,0 3,0 4,0 2,-3zm-82 -229l0 0c-1,17 -10,25 -27,25 -11,0 -11,0 -11,-10 0,-18 0,-35 0,-53 0,-19 0,-39 0,-58 0,-4 1,-5 5,-5 5,0 11,0 17,1 8,1 14,7 16,15 0,2 1,3 1,5 0,26 1,53 -1,80z"></path> <path class="fil9" d="M984 426c0,-1 0,-1 -1,-2 -1,1 1,1 1,2z"></path> <path class="fil9" d="M982 425c0,1 1,1 2,1 0,-1 -2,-1 -1,-2 -1,0 -2,0 -1,1z"></path> </g> <g> <path class="fil0" d="M198 286c0,-18 -10,-29 -27,-35 -6,-2 -13,-3 -20,-3 -48,-1 -95,0 -143,0 -3,0 -4,0 -4,4 3,15 5,31 5,46 0,92 0,183 0,274 0,14 0,27 -3,41 0,3 0,3 3,3 27,0 55,0 83,0 -5,-16 -7,-32 -7,-48 0,-29 0,-57 0,-85 0,-5 1,-6 5,-6 22,1 45,1 67,0 21,0 33,-8 38,-26 2,-5 3,-11 3,-17 0,-32 0,-64 1,-96 0,-17 0,-35 -1,-52zm-75 127l0 0c0,5 0,11 -2,16 -3,12 -8,15 -20,15 -5,0 -12,2 -15,-1 -4,-3 -1,-10 -1,-15 0,-21 0,-43 0,-64 0,-25 0,-50 0,-75 0,-5 1,-7 6,-6 4,0 9,0 13,0 12,1 19,9 19,21 0,19 0,39 0,59 0,17 0,33 0,50z"></path> </g> <g> <path class="fil5" d="M504 25c0,-13 -5,-18 -18,-19 -7,0 -14,0 -21,0 -12,0 -25,0 -39,0 4,11 3,21 3,32 0,28 0,57 0,86 0,9 1,17 -1,25 -1,3 1,4 3,4 19,0 37,0 56,0 12,-1 17,-5 17,-18 0,-16 0,-33 0,-50 0,-20 0,-40 0,-60zm-30 103l0 0c0,9 -2,12 -11,12 -4,0 -4,-1 -4,-5 0,-18 0,-37 0,-55 0,-18 0,-35 0,-53 0,-2 -2,-6 2,-6 7,-2 11,0 13,5 0,1 0,3 0,5 0,32 0,65 0,97z"></path> </g> <g> <path class="fil5" d="M265 24c0,-12 -4,-17 -15,-18 -15,-3 -30,-3 -45,0 -11,1 -15,6 -15,18 0,18 0,36 0,55 0,0 0,0 0,0 0,19 0,38 0,57 0,11 4,15 14,17 15,3 30,3 45,0 13,-2 16,-6 16,-19 0,-19 0,-38 0,-57 0,-18 0,-35 0,-53zm-30 108l0 0c0,7 -1,9 -7,9 -6,0 -8,-3 -8,-10 0,-35 0,-70 0,-105 0,-6 2,-8 8,-8 5,0 7,2 7,8 0,18 0,36 0,54 0,17 0,34 0,52z"></path> </g> <g> <path class="fil2" d="M353 132c0,-10 0,-20 0,-29 1,-13 0,-25 -17,-26 14,-5 17,-9 17,-23 0,-10 0,-19 0,-28 0,-14 -5,-19 -19,-20 -18,0 -36,0 -55,0 -3,0 -4,0 -3,4 1,4 2,8 2,12 -1,43 1,85 -1,128 0,2 0,3 2,3 10,0 19,0 29,0 2,0 2,-1 2,-3 -5,-20 -1,-42 -2,-63 0,-1 -1,-2 1,-3 6,-2 12,2 14,7 0,3 0,6 0,9 0,16 0,32 0,48 0,4 1,5 5,5 9,0 18,0 28,0 -2,-7 -3,-14 -3,-21zm-30 -74l0 0c0,9 -4,12 -11,13 -3,0 -4,-1 -4,-4 0,-7 0,-15 0,-22 0,-7 0,-14 0,-21 0,-3 1,-4 4,-4 8,0 11,3 11,10 0,10 0,19 0,28z"></path> </g> <g> <path class="fil2" d="M794 129c0,-12 0,-23 0,-35 0,-9 -3,-13 -12,-16 -1,0 -3,0 -5,-2 9,-2 17,-5 17,-16 0,-13 0,-26 0,-39 0,-8 -4,-12 -11,-14 -3,0 -6,-1 -9,-1 -18,0 -35,0 -53,0 -4,0 -4,1 -3,5 0,2 1,6 1,8 0,44 1,87 -1,131 0,2 0,3 3,3 10,0 20,0 30,0 0,-4 -1,-6 -1,-9 -1,-19 -1,-38 -1,-58 0,-1 0,-2 2,-2 4,-2 11,2 13,7 0,2 1,5 1,8 0,16 0,33 0,49 0,2 -1,5 2,5 10,0 20,0 30,0 -3,-8 -3,-16 -3,-24zm-29 -71l0 0c-1,9 -4,12 -12,13 -3,0 -4,-1 -4,-4 0,-8 0,-15 0,-22 0,-7 0,-14 0,-21 0,-3 1,-4 4,-4 8,0 12,3 12,11 0,9 0,18 0,27z"></path> </g> <g> <path class="fil1" d="M543 203c0,-9 0,-18 0,-26 0,-5 -2,-8 -7,-9 -7,-1 -14,-1 -21,0 -5,1 -7,4 -7,8 0,18 0,35 0,53 0,5 2,8 7,9 7,0 14,0 21,0 5,-1 7,-4 7,-9 0,-9 0,-17 0,-26zm-14 24l0 0c0,2 0,4 -3,4 -3,0 -4,-1 -4,-4 0,-16 0,-32 0,-49 0,-2 1,-4 3,-4 4,0 4,2 4,5 0,8 0,16 0,24 0,8 0,16 0,24z"></path> </g> <path class="fil10" d="M1037 273c-4,-6 -4,-11 0,-15 4,-4 9,-4 13,0 4,4 4,9 0,15 0,0 -1,0 -1,0 -3,-2 -3,-5 -3,-8 0,-5 0,-6 -6,-4 -1,2 0,5 0,7 -1,2 0,4 -3,5z"></path> <path class="fil11" d="M1037 273c2,-3 1,-6 1,-9 0,-2 -1,-4 2,-6 1,3 0,6 1,10 2,-2 4,-2 6,1 0,1 0,3 2,3 0,1 1,1 1,1 -5,4 -8,4 -13,0z"></path> <path class="fil12" d="M1049 272c-2,1 -3,0 -3,-2 0,-1 -1,-3 -3,-3 -3,0 -1,3 -2,4 0,1 0,1 -2,2 0,-5 0,-10 1,-15 2,0 3,0 5,1 2,0 4,2 3,4 -2,3 0,6 1,9z"></path> <path class="fil13" d="M1043 260c1,1 3,1 3,2 0,2 -1,3 -3,3 -1,0 -2,-1 -2,-2 0,-2 0,-3 2,-3z"></path> </g> </g> </svg> 