<?xml version="1.0" encoding="UTF-8"?> <!-- Creator: CorelDRAW X8 --> <svg xmlns="http://www.w3.org/2000/svg" xmlns:xlink="http://www.w3.org/1999/xlink" xml:space="preserve" width="200px" height="58px" style="shape-rendering:geometricPrecision; text-rendering:geometricPrecision; image-rendering:optimizeQuality; fill-rule:evenodd; clip-rule:evenodd" viewBox="0 0 2000 580"> <defs> <style type="text/css"> <![CDATA[ .fil4 {fill:none;fill-rule:nonzero} .fil3 {fill:#958F8F;fill-rule:nonzero} .fil1 {fill:#524F4E;fill-rule:nonzero} .fil2 {fill:#623385;fill-rule:nonzero} .fil0 {fill:#623385;fill-rule:nonzero} ]]> </style> </defs> <g id="Layer_x0020_1"> <metadata id="CorelCorpID_0Corel-Layer"></metadata> <g id="_1992019133712"> <path class="fil0" d="M20 169c27,44 66,66 117,69 -3,5 -6,10 -8,15 -18,36 -22,74 -18,114 3,32 12,62 24,92 2,6 3,6 7,1 13,-15 25,-33 38,-49 16,-21 34,-41 55,-58 12,-9 24,-16 39,-19 16,-3 30,2 43,9 20,11 35,27 50,44 18,20 34,42 50,63 4,5 8,10 13,15 31,-76 42,-151 1,-227 50,-2 89,-25 116,-69 4,11 6,22 8,33 6,28 9,56 9,84 0,29 -4,58 -10,86 -13,54 -33,106 -64,152 -9,14 -19,26 -31,37 -18,16 -35,18 -60,6 -13,-7 -22,-17 -31,-28 -11,-16 -20,-33 -30,-49 -6,-12 -13,-25 -23,-35 -10,-11 -23,-19 -39,-15 -10,2 -18,8 -24,15 -9,10 -16,22 -23,34 -10,17 -18,34 -30,50 -7,9 -15,18 -25,24 -29,18 -49,15 -70,-6 -22,-21 -37,-46 -50,-72 -27,-53 -44,-109 -50,-168 -4,-49 2,-97 15,-145 0,0 0,-1 1,-3z"></path> <path class="fil1" d="M879 327c-3,23 -10,44 -17,66 -7,24 -14,47 -21,71 -3,11 -7,14 -18,14 -14,0 -28,0 -42,0 -12,0 -17,-3 -20,-15 -7,-30 -15,-61 -22,-91 -16,-62 -32,-125 -48,-187 -2,-11 1,-15 12,-15 15,0 30,0 45,0 12,0 17,4 19,15 8,31 15,62 23,93 5,23 11,46 14,71 4,-7 5,-12 7,-18 10,-37 23,-75 35,-112 2,-8 6,-11 15,-11 15,0 30,0 45,0 9,0 14,3 16,12 12,44 28,86 38,131 0,1 0,1 1,3 1,-10 2,-18 4,-26 6,-30 15,-60 22,-91 4,-17 8,-34 13,-51 3,-13 7,-16 20,-16 12,0 25,0 37,0 11,0 14,4 12,15 -14,53 -27,106 -40,159 -11,40 -21,80 -31,120 -2,10 -7,14 -17,14 -15,0 -31,0 -46,0 -8,0 -13,-3 -15,-11 -13,-44 -28,-87 -38,-132 0,-2 0,-4 -1,-5 0,-2 0,-4 -1,-5 0,1 0,2 -1,2z"></path> <path class="fil2" d="M47 96c-1,-49 40,-91 89,-91 51,0 92,40 92,91 -1,49 -41,90 -90,90 -51,0 -91,-40 -91,-90z"></path> <path class="fil2" d="M340 96c0,-51 40,-91 90,-91 50,0 90,41 90,91 1,50 -40,90 -91,90 -49,0 -89,-40 -89,-90z"></path> <path class="fil3" d="M879 327c0,0 0,-2 1,-2 1,-1 1,1 1,2 0,1 0,2 0,3 0,-1 -1,-2 -2,-3z"></path> <g> <g> <g> <path class="fil4" d="M1196 307c-12,-3 -23,-3 -35,0 -10,3 -14,8 -14,19 0,13 0,26 0,39 0,13 0,26 0,39 0,10 4,16 14,18 11,4 22,4 34,0 10,-2 14,-8 14,-18 0,-26 0,-53 0,-79 0,-9 -4,-15 -13,-18z"></path> </g> <path class="fil1" d="M1282 405c-1,-28 0,-56 0,-84 0,-29 -14,-49 -40,-61 -16,-8 -33,-11 -50,-12 -27,-1 -53,1 -78,12 -26,12 -40,31 -40,60 0,15 0,30 0,45 0,15 0,30 0,46 0,6 1,12 2,17 7,24 23,37 45,45 37,12 75,12 112,0 29,-9 50,-30 49,-68zm-73 -1l0 0c0,10 -4,16 -14,18 -12,4 -23,4 -34,0 -10,-2 -14,-8 -14,-18 0,-13 0,-26 0,-39 0,-13 0,-26 0,-39 0,-11 4,-16 14,-19 12,-3 23,-3 35,0 9,3 13,9 13,18 0,26 0,53 0,79z"></path> </g> <g> <path class="fil1" d="M1767 263c0,-7 -3,-11 -10,-11 -16,0 -32,0 -48,0 -6,0 -9,3 -10,9 -1,3 0,8 -3,11 -1,0 -1,-1 -2,-1 -24,-19 -51,-26 -81,-22 -25,3 -43,18 -50,43 -2,8 -3,16 -3,25 0,29 0,59 0,89 0,7 1,14 1,21 3,27 20,47 45,52 16,4 31,3 46,0 15,-3 29,-10 43,-20 0,11 0,22 0,32 -1,8 -5,12 -12,15 -6,2 -12,3 -19,3 -21,0 -41,0 -62,0 -12,0 -15,3 -15,15 0,9 0,19 0,29 0,12 3,15 15,15 21,0 42,0 63,0 19,0 38,-2 56,-9 32,-11 47,-32 47,-65 0,-75 0,-150 0,-225 0,-2 0,-4 -1,-6zm-75 140l0 0c-13,8 -25,15 -40,16 -14,1 -19,-4 -19,-18 0,-24 0,-48 0,-72 0,-14 5,-19 19,-18 16,0 29,8 41,17 2,1 2,3 2,4 0,11 0,22 0,33 0,11 0,21 0,31 0,4 -1,6 -3,7z"></path> </g> <g> <path class="fil1" d="M1525 321c0,-29 -14,-49 -39,-61 -16,-8 -33,-10 -51,-12 -24,-1 -48,1 -71,9 -27,10 -48,30 -47,65 1,30 0,60 0,89 0,26 12,44 35,56 17,10 36,13 56,14 25,2 49,0 73,-9 29,-12 44,-33 44,-65 0,-14 0,-28 0,-42 0,-15 0,-29 0,-44zm-73 82l0 0c0,11 -4,17 -15,20 -11,3 -22,3 -34,-1 -9,-3 -13,-8 -13,-18 0,-26 0,-52 0,-78 0,-11 4,-16 14,-19 11,-3 22,-3 33,0 11,2 15,9 15,19 0,13 0,26 0,39 0,13 0,25 0,38z"></path> </g> <g> <path class="fil1" d="M1997 310c0,-11 -3,-21 -9,-30 -12,-18 -30,-25 -50,-29 -37,-6 -74,-2 -111,-3 -7,0 -11,4 -11,11 0,10 0,20 0,30 0,7 4,10 11,11 2,0 5,0 7,0 24,1 47,0 70,1 14,0 23,7 22,23 -1,4 0,8 0,12 0,4 -1,6 -5,6 -18,-1 -35,0 -53,0 -9,0 -19,1 -27,4 -23,8 -39,23 -42,47 -1,11 0,21 0,32 0,22 13,42 34,51 24,9 49,7 73,-4 8,-3 15,-8 22,-14 1,4 1,7 2,9 1,8 4,11 12,11 14,0 28,0 43,0 9,0 12,-4 12,-13 0,-52 0,-103 0,-155zm-85 107l0 0c-10,5 -21,10 -33,8 -6,-1 -9,-5 -9,-10 -1,-1 -1,-1 -1,-2 0,-17 0,-24 22,-23 4,0 8,0 11,0 7,0 14,0 20,0 3,0 4,1 4,3 0,0 0,1 0,1 0,15 0,15 -14,23z"></path> </g> </g> </g> </g> </svg> 