<?xml version="1.0" encoding="UTF-8"?> <!-- Creator: CorelDRAW X8 --> <svg xmlns="http://www.w3.org/2000/svg" xmlns:xlink="http://www.w3.org/1999/xlink" xml:space="preserve" width="161px" height="189px" style="shape-rendering:geometricPrecision; text-rendering:geometricPrecision; image-rendering:optimizeQuality; fill-rule:evenodd; clip-rule:evenodd" viewBox="0 0 1610 1890"> <defs> <style type="text/css"> <![CDATA[ .fil0 {fill:#1F60A2} ]]> </style> </defs> <g id="Layer_x0020_1"> <metadata id="CorelCorpID_0Corel-Layer"></metadata> <g id="_1696605367488"> <path class="fil0" d="M1363 657c19,-105 -51,-187 -132,-247 -114,-84 -243,-134 -375,-173l0 1386c58,-52 117,-109 173,-168 121,-133 232,-268 278,-430 19,-74 9,-158 -54,-208 54,-42 103,-95 110,-160l0 0zm-228 479c-42,75 -98,144 -164,208l0 0 -2 -397 0 0c45,-32 92,-61 148,-66 23,0 43,8 58,25 50,79 -9,161 -40,230l0 0zm113 -510c-11,62 -80,99 -128,125 -49,25 -99,45 -151,64l0 -405c79,23 151,63 218,111 31,26 74,59 61,105l0 0z"></path> <path class="fil0" d="M753 1613l0 -1381 -111 58 0 740c-5,21 10,54 -14,64 -6,1 -11,-2 -14,-7 -47,-178 -67,-367 -76,-561l0 0 -4 -169 -106 79 0 45c6,179 19,354 53,521l0 0 -43 48 0 0c-16,-23 -26,-46 -38,-70 -53,-143 -73,-299 -81,-460l0 0 -92 68 0 0c8,246 55,477 203,661 29,-33 58,-67 87,-98 15,66 36,130 61,193 41,96 88,194 175,269z"></path> <path class="fil0" d="M1605 413l-167 -41 -30 -112 -170 -40 -35 -123 -401 -91 -394 91 -35 123 -170 40 0 0c-11,38 -21,76 -31,113l0 0 -167 40 0 0c-12,354 85,666 262,943 128,199 322,409 535,513 144,-69 271,-184 386,-313 279,-322 432,-700 417,-1143l0 0zm-490 1071c-92,102 -194,204 -309,262 -110,-55 -207,-150 -294,-246 -228,-266 -379,-564 -404,-913 -3,-29 -4,-56 -3,-86l0 0 142 -33 32 -116 174 -41 1 -4 32 -120 315 -74 325 74 31 123 176 42 30 116 143 33 0 0c-4,380 -155,699 -391,983l0 0z"></path> <path class="fil0" d="M1032 1840c8,0 14,-5 14,-14 0,-11 -7,-16 -20,-16l-20 0 0 54 9 0 0 -23 8 0 14 23 10 0 -15 -24 0 0zm-17 -6l0 -16 11 0 0 0c5,0 11,1 11,7 0,8 -6,9 -13,9l-9 0 0 0z"></path> <path class="fil0" d="M1025 1793c-25,0 -46,21 -46,46 0,25 21,45 46,45 25,0 46,-20 46,-45 0,-25 -21,-46 -46,-46l0 0zm0 87c-23,0 -41,-19 -41,-41 0,-23 18,-42 41,-42 23,0 41,19 41,42 0,22 -18,41 -41,41l0 0z"></path> </g> </g> </svg> 