<?xml version="1.0" encoding="UTF-8"?> <!-- Creator: CorelDRAW X8 --> <svg xmlns="http://www.w3.org/2000/svg" xmlns:xlink="http://www.w3.org/1999/xlink" xml:space="preserve" width="165px" height="40px" style="shape-rendering:geometricPrecision; text-rendering:geometricPrecision; image-rendering:optimizeQuality; fill-rule:evenodd; clip-rule:evenodd" viewBox="0 0 1650 400"> <defs> <style type="text/css"> <![CDATA[ .fil2 {fill:#F0F2F4;fill-rule:nonzero} .fil3 {fill:#668190;fill-rule:nonzero} .fil0 {fill:#403D3B;fill-rule:nonzero} .fil1 {fill:#444F56;fill-rule:nonzero} ]]> </style> </defs> <g id="Layer_x0020_1"> <metadata id="CorelCorpID_0Corel-Layer"></metadata> <g id="_1991898102096"> <path class="fil0" d="M812 202c4,-11 7,-22 10,-33 11,-33 21,-66 31,-99 3,-11 9,-20 20,-25 19,-9 45,-1 49,24 2,8 0,16 -2,24 -22,61 -43,123 -65,184 -4,12 -10,22 -21,28 -25,13 -53,1 -62,-26 -12,-38 -24,-76 -36,-115 -2,-5 -3,-11 -5,-17 -5,16 -10,31 -15,47 -9,28 -18,56 -27,85 -5,13 -13,25 -28,29 -24,6 -44,-3 -54,-29 -6,-17 -12,-34 -18,-51 -15,-45 -31,-89 -46,-133 -3,-8 -5,-15 -4,-23 3,-18 16,-30 35,-30 17,-1 31,9 36,27 11,36 22,72 33,108 2,8 5,16 8,24 0,-3 1,-5 2,-8 13,-41 25,-82 38,-123 5,-14 13,-25 28,-28 14,-3 28,-2 40,8 6,6 10,13 12,21 14,43 27,87 41,131z"></path> <path class="fil0" d="M1261 245c2,0 3,0 4,0 34,0 68,0 101,0 18,0 31,11 32,29 1,15 -10,27 -24,30 -2,0 -4,1 -7,1 -55,0 -111,0 -166,0 -10,0 -20,-4 -27,-11 -8,-8 -9,-17 -7,-27 1,-11 6,-19 13,-27 24,-26 48,-53 72,-79 17,-19 33,-37 50,-55 0,0 0,-1 1,-2 -2,0 -3,0 -4,0 -33,0 -66,0 -99,0 -14,0 -26,-9 -29,-23 -4,-19 10,-36 29,-37 55,0 109,0 164,1 11,0 20,3 27,11 6,6 7,14 7,22 0,13 -6,23 -15,32 -32,35 -64,71 -96,106 -9,9 -17,19 -26,29z"></path> <g> <path class="fil0" d="M1641 141c-7,-30 -20,-56 -45,-75 -31,-25 -67,-31 -104,-24 -43,9 -73,35 -91,74 -12,28 -15,57 -9,87 8,44 32,76 72,95 26,12 53,14 81,11 26,-3 50,-13 70,-30 9,-7 12,-17 9,-29 -2,-10 -8,-17 -18,-21 -10,-3 -20,-1 -28,5 -20,14 -42,20 -66,16 -26,-5 -41,-21 -48,-46 -2,-4 -1,-4 3,-4 47,0 94,0 142,0 16,0 28,-9 33,-24 0,-1 0,-2 1,-2 0,-8 0,-16 0,-23 -2,-3 -2,-7 -2,-10zm-71 13l0 0c-18,0 -36,0 -53,0 -18,0 -35,0 -52,0 -3,0 -3,0 -3,-3 4,-16 10,-31 24,-42 21,-16 64,-16 80,22 3,7 5,13 6,20 1,3 0,3 -2,3z"></path> </g> <g> <path class="fil0" d="M1155 151c0,-13 -2,-26 -5,-38 -7,-27 -22,-47 -48,-59 -16,-8 -34,-11 -52,-12 -16,-1 -31,0 -47,2 -16,2 -33,5 -48,11 -15,7 -23,23 -18,39 6,15 22,23 37,19 14,-4 27,-7 41,-8 12,-1 24,-1 36,2 26,7 34,28 32,49 -1,0 -1,0 -2,-1 -16,-5 -32,-8 -48,-9 -21,-1 -42,0 -61,7 -19,6 -35,16 -45,33 -12,19 -14,41 -9,63 5,27 23,44 48,54 16,6 32,7 49,6 18,-1 34,-6 49,-16 7,-4 13,-10 19,-16 1,5 1,9 3,13 7,11 17,16 29,17 21,3 40,-14 40,-35 0,-40 0,-81 0,-121zm-70 57l0 0c0,13 -3,24 -11,33 -9,9 -20,14 -32,16 -11,2 -22,2 -32,-1 -13,-4 -22,-14 -23,-26 -1,-16 5,-27 19,-34 12,-5 24,-6 37,-6 13,1 26,3 39,8 2,1 3,3 3,5 -1,2 0,4 0,5z"></path> </g> </g> <g id="_1991898099024"> <path class="fil1" d="M105 329c-16,-5 -33,-11 -48,-19 -14,-8 -27,-17 -38,-30 -3,-3 -6,-7 -8,-10 -6,-9 -4,-23 3,-31 5,-5 12,-8 20,-8 7,0 13,-1 19,-5 6,-4 10,-10 12,-17 3,-9 4,-18 4,-26 0,-8 0,-16 1,-24 1,-10 3,-20 6,-30 9,-30 25,-54 48,-75 23,-21 49,-35 79,-43 12,-4 25,-6 38,-7 12,-1 25,-1 37,1 26,3 51,11 74,24 19,10 36,24 50,40 18,21 30,45 36,72 3,14 4,28 3,42 -1,23 -7,44 -18,64 -9,17 -20,32 -34,45 -12,12 -25,21 -39,29 -1,0 -1,1 0,1 7,10 10,20 8,32 -2,18 -11,32 -29,39 -16,6 -32,4 -46,-7 -10,-8 -15,-18 -17,-30 0,-3 -1,-7 0,-10 0,-1 0,-2 -2,-2 -14,1 -28,0 -42,0 -9,0 -18,-1 -27,-2 0,0 -1,0 -1,0 -1,0 -1,1 -1,1 1,5 0,10 0,14 -3,19 -19,35 -38,38 -22,4 -42,-8 -51,-27 -5,-13 -5,-26 1,-39 0,0 0,0 0,0z"></path> <path class="fil2" d="M90 177c0,-12 1,-25 4,-38 5,-16 12,-32 22,-46 12,-16 27,-30 44,-41 15,-10 31,-17 48,-21 13,-4 27,-6 41,-7 16,0 31,1 46,5 23,5 44,14 63,28 20,14 35,32 47,53 6,12 11,25 13,39 2,11 3,22 2,33 -1,23 -8,45 -21,65 -14,23 -33,40 -56,54 -3,2 -7,4 -11,6 -1,0 -1,0 -2,0 -16,-6 -31,-5 -45,5 -4,3 -7,6 -10,10 -1,1 -1,1 -2,1 -10,1 -20,1 -29,1 -9,0 -18,-1 -26,-1 -9,0 -19,-1 -28,-2 -1,0 -2,0 -4,0 -2,0 -3,-1 -5,-2 -7,-8 -16,-14 -27,-15 -11,-2 -22,0 -32,6 -1,1 -2,1 -3,1 -20,-5 -40,-12 -58,-22 -12,-8 -22,-17 -31,-28 -2,-2 -2,-4 -1,-7 0,-2 2,-2 4,-2 5,-1 11,-1 16,-2 14,-4 25,-12 32,-25 4,-9 7,-18 8,-27 1,-7 1,-14 1,-21z"></path> <path class="fil3" d="M147 365c-8,0 -16,-6 -16,-15 0,-9 7,-16 16,-16 9,0 15,7 15,16 0,8 -7,15 -15,15z"></path> <path class="fil3" d="M328 350c0,8 -7,15 -16,15 -8,0 -15,-6 -15,-15 0,-9 6,-16 15,-16 9,0 16,8 16,16z"></path> <path class="fil1" d="M255 251c-13,0 -26,-2 -38,-9 -17,-9 -28,-24 -33,-43 -2,-5 0,-10 4,-13 3,-2 6,-2 9,-1 4,2 6,4 7,8 4,18 15,30 33,35 13,4 27,4 40,-1 15,-5 25,-16 30,-32 0,-1 0,-2 0,-3 1,-5 6,-8 11,-8 5,1 9,5 10,9 0,3 -1,5 -1,7 -6,21 -19,36 -40,45 -8,4 -18,6 -28,6 -1,0 -2,0 -4,0z"></path> <path class="fil1" d="M328 138c0,11 -10,21 -21,21 -11,0 -21,-10 -21,-21 0,-11 10,-21 21,-21 11,0 21,9 21,21z"></path> <path class="fil1" d="M224 138c0,11 -9,21 -20,21 -12,0 -21,-10 -21,-21 0,-12 9,-21 21,-21 11,0 20,10 20,21z"></path> </g> </g> </svg> 