<?xml version="1.0" encoding="utf-8"?>
<!-- Generator: Adobe Illustrator 24.2.0, SVG Export Plug-In . SVG Version: 6.00 Build 0)  -->
<svg version="1.1" id="Layer_1" xmlns="http://www.w3.org/2000/svg" xmlns:xlink="http://www.w3.org/1999/xlink" x="0px" y="0px"
	 viewBox="0 0 326 316.3" style="enable-background:new 0 0 326 316.3;" xml:space="preserve">
<style type="text/css">
	.st0{opacity:0.15;}
	.st1{fill:#D2D3D4;}
	.st2{fill:#F8D70A;}
	.st3{fill:#FFFFFF;}
	.st4{fill:#818285;}
	.st5{fill:#231F20;}
</style>
<path d="M324.3,15.5c-7,2.5-14.8,2.8-22.3,2.6c1.8-5,3.3-10.1,4.6-15.2c0.1-0.4,0-0.9-0.3-1.2c-0.3-0.5-1-0.7-1.5-0.3l-0.1,0.1
	c-8.2,5.9-20.8,3.9-30.2,2.8S255.7,0.8,246.3,0c-0.1,0-0.1,0-0.2,0h-0.1c-0.1,0-0.2,0-0.3,0.1c-0.1,0-0.2,0.1-0.2,0.2
	c0,0-0.1,0.1-0.1,0.1c-0.1,0.1-0.1,0.2-0.2,0.3c0,0,0,0.1,0,0.1S245,0.9,245,1c-1.3,7.4-8.1,14.9-12.2,21
	c-5.7,8.4-11.9,16.3-18.8,23.7c-13.1,14.1-26,29.4-42.7,39.3c-0.6,0.4-0.9,1.2-0.5,1.9c0.2,0.3,0.5,0.5,0.8,0.6
	c5.2,1.1,10.3,2.1,15.4,3c-7.7,6.1-16.1,11-24.3,16.3c-0.6,0.4-0.9,1.2-0.5,1.9c0.2,0.3,0.5,0.5,0.8,0.6c19.1,3.6,38.4,1.8,57.7,1.5
	c16.8-0.3,33.6,0.5,50.4-0.9c0.2,0,0.4-0.1,0.6-0.2c0.2-0.1,0.4-0.3,0.5-0.5C282.5,94.4,291,78.7,299.6,63
	c8.3-15.3,15.2-31.5,26.2-45.2C326.4,16.8,325.8,15,324.3,15.5z M175.4,85.5c15.6-10.1,27.7-24.5,40.4-37.8
	c7-7.6,13.4-15.7,19.2-24.3c4.2-6,10.5-13.1,12.2-20.5c10.6,1,21.1,3.4,31.8,4.4c7.6,0.8,16.9,1.5,24.1-2c-1.2,4.3-2.5,8.6-4,12.8
	c-0.5,0.3-0.7,0.9-0.5,1.5c-8.9,24.4-22.4,47.4-34.3,70.1c-1.8,3.4-1.1,2.2-5.9,2.2c-5.9,0-11.8-0.1-17.7-0.1
	C218.8,91.9,196.9,89.8,175.4,85.5L175.4,85.5z M300,56.2c-8.8,17.6-18.7,34.6-29.7,50.9c-15.5,1.2-31,0.9-46.5,0.9
	c-19,0-37.9,2.1-56.7-0.8c8-5.1,16.2-10,23.6-16.1c16.6,2.5,33.3,3.7,50.1,3.6c6.4,0,12.9,0.1,19.3,0.1c1.8,0,4.4,0.7,5.4-1.2
	C277.8,70,291.9,46,301.1,20.8c6.6,0.3,13.5,0.1,20-1.5C312.6,30.7,306.4,43.5,300,56.2L300,56.2z"/>
<path d="M238.8,32.3c13.1,2.3,27.5-1,40.2,2.9c1.7,0.5,2.4-2.1,0.7-2.6c-12.8-3.9-27.1-0.5-40.2-2.9C237.8,29.3,237.1,32,238.8,32.3
	z"/>
<path d="M248.2,16.4c6,0.8,12,1.2,18,1.8c7.1,0.7,15.7,0.7,22.4,3.6c1.6,0.7,3-1.7,1.4-2.4c-12.4-5.4-28.6-4.1-41.8-5.7
	C246.5,13.4,246.5,16.2,248.2,16.4z"/>
<path d="M231,45c14.3,0.1,28.5,1.8,42.7,3.7c1.7,0.2,1.7-2.5,0-2.7c-14.2-1.9-28.4-3.5-42.7-3.6c-0.8,0.1-1.3,0.7-1.3,1.5
	C229.8,44.4,230.3,45,231,45z"/>
<path d="M220.1,55.8c14.7,0.2,29.3,1.3,43.9,3.3c1.8,0.2,1.7-2.5,0-2.7c-14.5-2-29.2-3.1-43.9-3.3c-0.8,0.1-1.3,0.7-1.2,1.5
	C218.9,55.3,219.5,55.8,220.1,55.8z"/>
<path d="M255.8,71.6c-15.6-2.8-31.5-1.4-47-5c-1.7-0.4-2.4,2.2-0.7,2.6c15.4,3.7,31.4,2.3,47,5.1C256.7,74.6,257.5,71.9,255.8,71.6z
	"/>
<path d="M66.5,79.4c-0.1-0.1-0.2-0.2-0.3-0.4s-0.1-0.1-0.1-0.1c0-0.1-0.1-0.1-0.2-0.2C51.8,61,36.3,44.6,20.4,28.4l0,0
	c-0.5-0.9-1.2-1.7-2.1-2.2c0.4-3-1-4-3-3.7c-1.6-1.9-3.5-4.8-6.2-5.1c-3.6-0.3-7,1.8-9.6,4.1c-1.9,1.8-2.9,4.3-2.7,6.9
	c0.2,2.9,2.4,4.1,3.4,6.3c-0.6,2,0,3.5,2.7,4c0.5,1.3,1.7,2.3,3.2,2.6c15,17.2,30.2,34.2,45.6,50.9c23.2,25.1,0,0,0.1,0
	c0.1,0.1,0.1,0.1,0.2,0.1c7.6,3.6,15.6,6.4,23.3,10h0.1c0.2,0.1,0.5,0,0.6-0.2c0.1-0.2,0.2-0.4,0.1-0.6c-3.3-7.2-5.2-15.1-9.4-21.9
	C66.6,79.5,66.6,79.5,66.5,79.4z M20.1,29.7c9.1,9.3,18.2,18.7,26.9,28.4c4.4,4.9,8.8,9.9,13,15c1.3,1.6,3,4.3,4.6,5.2
	c-2.9-1.5-5.9-2.6-9-3.4c0,0,0-0.1-0.1-0.1C42.8,59.3,28.1,45.6,15.1,30.2C16.6,29.4,18.4,29.2,20.1,29.7z M38.1,66.3
	c-0.1,0.2-0.3,0.4-0.4,0.6L36.8,66c0.2-0.2,0.2-0.5,0-0.7c0,0-0.1-0.1-0.1-0.1c0.3,0.1,0.3,0,0.6-0.2c0.6-0.4-0.1-1.3-0.8-0.9
	c-0.3,0.2-0.6,0.5-0.8,0.7L35,63.9c0.4-0.4,0.7-0.8,1-1.2c0.2-0.3,0.1-0.7-0.2-0.8s-0.7-0.1-0.8,0.2l0,0c-0.2,0.3-0.5,0.7-0.8,1
	L33,61.7c0.5-0.8,1.1-1.5,1.7-2.2c0.5-0.6-0.5-1.3-1-0.7c-0.6,0.6-1.1,1.3-1.6,2l-1.3-1.5c0.2-0.4,0.4-0.7,0.8-1
	c0.6-0.5-0.2-1.4-0.8-0.9c-0.3,0.3-0.6,0.6-0.9,1l-0.3-0.3c0,0,0,0,0-0.1c0.2-0.5,0.6-1,1.1-1.4c0.6-0.5-0.2-1.4-0.8-0.9
	c-0.5,0.4-0.9,0.9-1.2,1.5c-0.3-0.4-0.7-0.8-1-1.1c0,0,0.1-0.1,0.1-0.2c0.2-0.6,0.5-1.2,0.9-1.7c0.5-0.6-0.2-1.5-0.8-0.9
	c-0.5,0.5-0.9,1.2-1.1,1.8l-0.9-1c0.1-0.1,0.1-0.2,0.1-0.2l0.2-0.3c0.6-0.5-0.2-1.4-0.8-0.9c-0.1,0.1-0.3,0.3-0.3,0.4
	C19.9,47,14.7,40.9,9.6,34.6c1.2-1.5,2.7-2.7,4.3-3.7c0,0.1,0,0.1,0.1,0.2c13,15.4,27.8,29.1,40.5,44.7c0,0,0.1,0.1,0.1,0.1
	c0.5,1.8,1,3.4,1.7,5.1c1,2.7-4.2,0.9-6,0.5c-3.9-4.6-7.9-9.1-11.9-13.6L39,67C39.4,66.3,38.4,65.6,38.1,66.3L38.1,66.3z M-0.2,32.4
	c-2.1-2.7-2.4-5.7-0.6-8.6c1.7-2.7,5.2-4.5,8.2-5.2c2.8-0.6,4.9,2.1,6.5,4.2c-4.5,1.3-11,6.6-13.2,10.8C0.4,33.1,0,32.7-0.2,32.4z
	 M5,29.8c1.4-1.6,3-2.9,4.8-4c1.2-0.7,7.5-3.9,7.4-0.1c-2.8-0.6-6,1.8-8.3,4c-2.2,2.1-4.1,4.5-5.6,7.2c-0.1,0.2-0.2,0.5-0.3,0.7
	C-0.6,36.6,4,30.9,5,29.8L5,29.8z M6.1,34.7c1.2-1.6,2.5-3.1,4-4.5c2.4-2.3,6.4-5.1,8.8-1.9c-2.6-0.2-5.2,1.5-7.1,2.9
	c-2.8,2-5.8,5.3-6.1,8.9C2.4,39,5.1,36.1,6.1,34.7L6.1,34.7z M48,86.5c-4.7-5.1-9.3-10.1-13.8-15.2C24.9,61.1,15.8,50.8,6.8,40.4
	c0.2-1.8,0.9-3.6,2.1-5c12.9,16.1,27.2,31.1,40.6,46.7c0.4,2.2,1.1,4.3,1.6,6.5C52.1,92.6,48.9,87.5,48,86.5L48,86.5z M74.3,100.7
	c-2.6-1.2-5.3-2.3-8-3.4c0-0.1,0-0.2,0-0.3c-0.2-2.9,1.9-4.7,4.6-4.9C72,95,73.1,97.9,74.3,100.7L74.3,100.7z M70.6,91
	c-3.1,0.4-5.4,2.5-5.4,5.8c-4.2-1.7-8.4-3.4-12.5-5.4c-0.2-2.1-0.7-4.3-1.3-6.3c-1.2-4.4,4.1-1.6,6.3-0.6c0.3,0.1,0.6,0,0.8-0.3
	c0-0.1,0-0.2,0-0.3c-0.2-0.9-2.1-7.5-1.5-7.4c3,0.9,5.8,2.1,8.5,3.6C67.6,83.6,69.2,87.2,70.6,91L70.6,91z"/>
<g class="st0">
	<path class="st1" d="M29.8,261.1c-2.8,0-5.1-2.3-5.1-5.1s2.3-5.1,5.1-5.1c2.8,0,5.1,2.3,5.1,5.1c0,0,0,0,0,0
		C34.9,258.8,32.7,261.1,29.8,261.1z M29.8,252.2c-2.1,0-3.8,1.7-3.8,3.8c0,2.1,1.7,3.8,3.8,3.8c2.1,0,3.8-1.7,3.8-3.8c0,0,0,0,0,0
		C33.6,253.9,31.9,252.2,29.8,252.2L29.8,252.2z"/>
</g>
<rect y="112.8" class="st1" width="13.9" height="13.9"/>
<rect x="22.5" y="112.8" class="st1" width="13.9" height="13.9"/>
<rect x="44.9" y="112.8" class="st1" width="13.9" height="13.9"/>
<rect x="67.4" y="112.8" class="st1" width="13.9" height="13.9"/>
<rect x="89.9" y="112.8" class="st1" width="13.9" height="13.9"/>
<rect x="112.4" y="112.8" class="st1" width="13.9" height="13.9"/>
<rect x="134.8" y="112.8" class="st1" width="13.9" height="13.9"/>
<rect y="135" class="st1" width="13.9" height="13.9"/>
<rect x="22.5" y="135" class="st1" width="13.9" height="13.9"/>
<rect x="44.9" y="135" class="st1" width="13.9" height="13.9"/>
<rect x="67.4" y="135" class="st1" width="13.9" height="13.9"/>
<rect x="89.9" y="135" class="st1" width="13.9" height="13.9"/>
<rect x="112.4" y="135" class="st1" width="13.9" height="13.9"/>
<rect x="134.8" y="135" class="st1" width="13.9" height="13.9"/>
<rect y="157.3" class="st1" width="13.9" height="13.9"/>
<rect x="22.5" y="157.3" class="st1" width="13.9" height="13.9"/>
<rect x="44.9" y="157.3" class="st1" width="13.9" height="13.9"/>
<rect x="67.4" y="157.3" class="st1" width="13.9" height="13.9"/>
<rect x="89.9" y="157.3" class="st1" width="13.9" height="13.9"/>
<rect x="112.4" y="157.3" class="st1" width="13.9" height="13.9"/>
<rect x="134.8" y="157.3" class="st1" width="13.9" height="13.9"/>
<rect y="179.5" class="st1" width="13.9" height="13.9"/>
<rect x="22.5" y="179.5" class="st1" width="13.9" height="13.9"/>
<rect x="44.9" y="179.5" class="st1" width="13.9" height="13.9"/>
<rect x="67.4" y="179.5" class="st1" width="13.9" height="13.9"/>
<rect x="89.9" y="179.5" class="st1" width="13.9" height="13.9"/>
<rect x="112.4" y="179.5" class="st1" width="13.9" height="13.9"/>
<rect x="134.8" y="179.5" class="st1" width="13.9" height="13.9"/>
<rect x="157.5" y="112.8" class="st1" width="13.9" height="13.9"/>
<rect x="157.5" y="135" class="st1" width="13.9" height="13.9"/>
<rect x="157.5" y="157.3" class="st1" width="13.9" height="13.9"/>
<rect x="157.5" y="179.5" class="st1" width="13.9" height="13.9"/>
<rect x="-0.1" y="202.3" class="st1" width="13.9" height="13.9"/>
<rect x="22.4" y="202.3" class="st1" width="13.9" height="13.9"/>
<rect x="44.8" y="202.3" class="st1" width="13.9" height="13.9"/>
<rect x="67.3" y="202.3" class="st1" width="13.9" height="13.9"/>
<rect x="89.8" y="202.3" class="st1" width="13.9" height="13.9"/>
<rect x="112.3" y="202.3" class="st1" width="13.9" height="13.9"/>
<rect x="134.7" y="202.3" class="st1" width="13.9" height="13.9"/>
<rect x="-0.1" y="224.5" class="st1" width="13.9" height="13.9"/>
<rect x="22.4" y="224.5" class="st1" width="13.9" height="13.9"/>
<rect x="44.8" y="224.5" class="st1" width="13.9" height="13.9"/>
<rect x="67.3" y="224.5" class="st1" width="13.9" height="13.9"/>
<rect x="89.8" y="224.5" class="st1" width="13.9" height="13.9"/>
<rect x="112.3" y="224.5" class="st1" width="13.9" height="13.9"/>
<rect x="134.7" y="224.5" class="st1" width="13.9" height="13.9"/>
<rect x="157.4" y="202.3" class="st1" width="13.9" height="13.9"/>
<rect x="157.4" y="224.5" class="st1" width="13.9" height="13.9"/>
<path class="st2" d="M207.3,145.6l-12-3.9l3-7.8l34.5-17.5l18.9,2.1l7.9,9.2l14.2,9.6l3.7,22.5l-11,34.2l4.4,17.4l9.3,6l5.4,20
	l1.5,53.4h-76.8l2.8-19.7l2.7-7.6l4.9-12.2l8.2-14.8c0,0,8.2-18.3,0.2-22.2l-5.1-1l-8.5,2l-4.6-2.7l-0.8-4.3l-1.2-7.6l-3.3-1
	l2.1-3.1l-3-1.6l-0.9-5.1l-8.4-2.4l8-13.9l-1.4-4.6L207.3,145.6z"/>
<path class="st3" d="M96,142.8l12-3.9l-2.9-7.8l-34.5-17.5l-18.9,2.1l-7.9,9.2l-14.2,9.6l-3.8,22.5l11,34.2l-4.4,17.4l-9.3,6
	l-5.4,20L16.1,288H93l-2.8-19.8l-2.7-7.6l-4.9-12.2l-8.2-14.8c0,0-8.2-18.2-0.2-22.2l5.1-1l8.5,2l4.6-2.7l0.8-4.3l1.2-7.6l3.3-1
	l-2.1-3.1l3-1.6l0.9-5.1l8.3-2.4l-8-13.9l1.4-4.6L96,142.8z"/>
<rect x="188.4" y="303.1" class="st4" width="9.2" height="5.1"/>
<rect x="201.1" y="303.1" class="st4" width="9.2" height="5.1"/>
<rect x="213.9" y="303.1" class="st4" width="9.2" height="5.1"/>
<rect x="226.6" y="303.1" class="st4" width="9.2" height="5.1"/>
<rect x="239.4" y="303.1" class="st4" width="9.2" height="5.1"/>
<rect x="196.5" y="311.1" class="st4" width="9.2" height="5.1"/>
<rect x="209.3" y="311.1" class="st4" width="9.2" height="5.1"/>
<rect x="222" y="311.1" class="st4" width="9.2" height="5.1"/>
<rect x="234.7" y="311.1" class="st4" width="9.2" height="5.1"/>
<rect x="247.5" y="311.1" class="st4" width="9.2" height="5.1"/>
<polygon class="st5" points="87.4,289.6 32.2,289.6 32.2,286.6 84,286.6 81.4,269.5 78.8,260.7 81.6,259.9 84.4,268.9 "/>
<path class="st5" d="M17.4,289.6H7.2l1.5-54.8l5.6-21l9.2-6.3l4.3-16.1l-11-33.6l3.3-23.6l15.1-10.3l8.2-9.5l19.9-2.2L89.2,124
	l9.5,5.5l3.9,10.4L89.9,144l5.7,22.6l-1.4,4.3l8.6,14.6l-9.2,2.8l-0.9,5.2l-2.2,1l1.8,3.7l-2.1,0.3c-0.9,0.2-1.7,0.8-2.1,1.7
	c-0.8,1.7-0.8,4.9-0.7,6.8v0.7c0,2.8-2.6,6.1-6.8,6.5c-1.6,0-3.2-0.3-4.7-0.9c-2.3-0.8-4.7-1.7-7.8-0.5l-1.1-2.8
	c4.1-1.6,7.3-0.5,9.9,0.4c1.1,0.5,2.2,0.7,3.4,0.8c2.6-0.3,4.1-2.3,4.1-3.5v-0.7c0-2.3,0-5.7,1-8c0.5-1.2,1.4-2.2,2.6-2.8l-1.5-3.1
	l3.5-1.7l1-5.5l7.4-2.2L91,171.2l1.5-4.8L86.4,142l12.3-4l-2.4-6.5l-8.5-5l-24.8-11.4l-17.9,2l-7.7,8.9L23,135.8l-3,21.6l11,33.8
	l-4.8,18l-9.2,6.3l-5.3,19.7l-1.4,51.4h7.1V289.6z"/>
<rect x="70.6" y="234.7" transform="matrix(0.8832 -0.469 0.469 0.8832 -105.2928 62.1052)" class="st5" width="3" height="15.4"/>
<polygon class="st5" points="258.8,289.6 203.6,289.6 206.7,268.7 209.4,259.9 212.2,260.7 209.5,269.5 207,286.6 258.8,286.6 "/>
<path class="st5" d="M283.8,289.6h-10.2v-3h7.1l-1.4-51.4l-5.3-19.6l-9.2-6.4l-4.8-18l11.1-33.8l-3.1-21.6l-14.4-9.8l-7.7-8.9
	l-17.9-2l-24.8,11.4l-8.5,5l-2.5,6.5l12.3,4l-6.1,24.4l1.5,4.8l-7.4,12.5l7.4,2.2l1,5.5l3.5,1.7l-1.5,3.1c1.1,0.6,2.1,1.6,2.6,2.8
	c1,2.3,1,5.7,1,8v0.7c0,1.3,1.5,3.3,4.1,3.5c1.2,0,2.3-0.3,3.4-0.8c2.6-0.9,5.8-2,9.9-0.4l-1.1,2.8c-3.1-1.2-5.5-0.4-7.8,0.5
	c-1.5,0.7-3.1,1-4.7,0.9c-4.2-0.4-6.8-3.7-6.8-6.5v-0.7c0-1.9,0-5-0.7-6.8c-0.4-0.9-1.2-1.5-2.1-1.7l-2-0.3l1.8-3.7l-2.2-1l-1-5.2
	l-9.2-2.8l8.6-14.6l-1.4-4.3L201,144l-12.6-4.1l3.9-10.4l9.6-5.6l25.6-11.8l19.9,2.2l8.2,9.5l15.2,10.3l3.3,23.6L274,158l-10.9,33.3
	l4.3,16.1l9.2,6.3l5.6,21v0.2L283.8,289.6z"/>
<rect x="211.2" y="240.9" transform="matrix(0.4692 -0.8831 0.8831 0.4692 -97.869 322.02)" class="st5" width="15.4" height="3"/>
<path class="st2" d="M151.7,41.1c-29.4,0-53.2,18.1-53.2,40.4c0,13.9,9.2,26.2,23.3,33.4l0,0l-15.6,51.9l31.3-46.4h-0.1
	c4.7,1,9.5,1.5,14.3,1.5c29.4,0,53.2-18.1,53.2-40.4S181.1,41.1,151.7,41.1z"/>
<path class="st5" d="M109.3,176l17.8-59.1c-14.5-7.8-23.1-20.5-23.1-34.1c0-23,24.4-41.7,54.5-41.7c30,0,54.5,18.7,54.5,41.7
	s-24.4,41.7-54.5,41.7c-4.6,0-9.1-0.4-13.6-1.3L109.3,176z M128.8,116.3l1.2,0.3l-13.2,43.7l26.4-39.2l0.9,0.6l0.3-1.2
	c4.6,1,9.3,1.5,14,1.5c28.6,0,51.9-17.5,51.9-39.1s-23.3-39.1-51.9-39.1s-51.9,17.5-51.9,39.1c0,12.9,8.5,25,22.6,32.3L128.8,116.3z
	"/>
<path class="st2" d="M148.2,288.1c19.6,0,35.5-12.1,35.5-27c0-9.3-6.2-17.5-15.6-22.4l0,0l10.5-34.7l-20.9,31h0.1
	c-3.1-0.7-6.3-1-9.6-1c-19.6,0-35.6,12.1-35.6,27S128.6,288.1,148.2,288.1z"/>
<path class="st5" d="M154.6,287.7c-20.3,0-36.8-12.7-36.8-28.3s16.5-28.3,36.9-28.3c3,0,6,0.3,8.9,0.8l25.3-37.4l-12.6,41.9
	c9.6,5.3,15.4,13.8,15.4,23C191.5,275,174.9,287.7,154.6,287.7z M154.6,233.7c-18.9,0-34.2,11.5-34.2,25.7s15.4,25.7,34.2,25.7
	c18.9,0,34.2-11.5,34.2-25.7c0-8.5-5.6-16.4-14.9-21.2l0.5-1.2l-1.2-0.4l8-26.5l-16.1,23.9l-1-0.7l-0.3,1.2
	C160.9,234,157.7,233.7,154.6,233.7L154.6,233.7z"/>
</svg>
