<?xml version="1.0" encoding="utf-8"?>
<!-- Generator: Adobe Illustrator 24.2.0, SVG Export Plug-In . SVG Version: 6.00 Build 0)  -->
<svg version="1.1" id="Layer_1" xmlns="http://www.w3.org/2000/svg" xmlns:xlink="http://www.w3.org/1999/xlink" x="0px" y="0px"
	 viewBox="0 0 369.7 344.5" style="enable-background:new 0 0 369.7 344.5;" xml:space="preserve">
<style type="text/css">
	.st0{fill:#231F20;}
	.st1{fill:#D2D3D4;}
	.st2{fill:#A8AAAD;}
	.st3{fill:#F8D70A;}
	.st4{fill:#FFFFFF;}
	.st5{fill:#2D2E2D;}
</style>
<path class="st0" d="M246.9,344.5h-32.4v-3h29.6c0-3-0.6-8.4-0.8-10.6l3-0.3c0,0.4,1,9.7,0.8,12.6L246.9,344.5z"/>
<rect x="104.5" y="140.8" class="st1" width="26.4" height="26.4"/>
<rect x="138.7" y="140.8" class="st1" width="26.4" height="26.4"/>
<rect x="172.9" y="140.8" class="st1" width="26.4" height="26.4"/>
<rect x="207.1" y="140.8" class="st1" width="26.4" height="26.4"/>
<rect x="241.3" y="140.8" class="st1" width="26.4" height="26.4"/>
<rect x="275.5" y="140.8" class="st1" width="26.4" height="26.4"/>
<rect x="104.5" y="178.5" class="st1" width="26.4" height="26.4"/>
<rect x="138.7" y="178.5" class="st1" width="26.4" height="26.4"/>
<rect x="172.9" y="178.5" class="st1" width="26.4" height="26.4"/>
<rect x="207.1" y="178.5" class="st1" width="26.4" height="26.4"/>
<rect x="241.3" y="178.5" class="st1" width="26.4" height="26.4"/>
<rect x="275.5" y="178.5" class="st1" width="26.4" height="26.4"/>
<rect x="104.5" y="216.3" class="st1" width="26.4" height="26.4"/>
<rect x="138.7" y="216.3" class="st1" width="26.4" height="26.4"/>
<rect x="172.9" y="216.3" class="st1" width="26.4" height="26.4"/>
<rect x="207.1" y="216.3" class="st1" width="26.4" height="26.4"/>
<rect x="241.3" y="216.3" class="st1" width="26.4" height="26.4"/>
<rect x="275.5" y="216.3" class="st1" width="26.4" height="26.4"/>
<rect x="104.5" y="254" class="st1" width="26.4" height="26.4"/>
<rect x="138.7" y="254" class="st1" width="26.4" height="26.4"/>
<rect x="172.9" y="254" class="st1" width="26.4" height="26.4"/>
<rect x="207.1" y="254" class="st1" width="26.4" height="26.4"/>
<rect x="241.3" y="254" class="st1" width="26.4" height="26.4"/>
<rect x="275.5" y="254" class="st1" width="26.4" height="26.4"/>
<rect x="315.9" y="145.6" class="st2" width="9.6" height="9.6"/>
<rect x="330.6" y="145.6" class="st2" width="9.6" height="9.6"/>
<rect x="345.3" y="145.6" class="st2" width="9.6" height="9.6"/>
<rect x="360" y="145.6" class="st2" width="9.6" height="9.6"/>
<rect x="315.9" y="159.6" class="st2" width="9.6" height="9.6"/>
<rect x="330.6" y="159.6" class="st2" width="9.6" height="9.6"/>
<rect x="345.4" y="159.6" class="st2" width="9.6" height="9.6"/>
<rect x="360.1" y="159.6" class="st2" width="9.6" height="9.6"/>
<circle class="st3" cx="211.8" cy="254.5" r="21.1"/>
<path class="st3" d="M174.3,341.1c0-33.1,16.8-60,37.5-60s37.5,26.8,37.5,60H174.3z"/>
<path class="st0" d="M208.3,278.1H208c-20.1-1.2-22.3-19.5-22.4-19.7l3-0.3c0.1,0.6,2,16,19.6,17c0.7,0,16.4,0.5,19.6-17.6
	c0.7-8.5-4-16.5-11.8-20l1.3-2.7c15.2,7.3,13.4,22.9,13.4,23.1v0.1C227.3,277.3,210.6,278.1,208.3,278.1z"/>
<path class="st0" d="M236.3,305.9c-11-22.9-27.5-22.3-28.2-22.3l-0.2-3c0.8,0,19.1-0.7,31,24L236.3,305.9z"/>
<path class="st0" d="M241.9,322.1c-0.6-3.5-1.6-7-3-10.3l2.7-1.2c1.5,3.5,2.6,7.2,3.2,10.9L241.9,322.1z"/>
<path class="st0" d="M178.7,343.5h-9.6v-1.5c0-1.6-0.6-40,22.9-56.1l1.7,2.5c-19.7,13.5-21.5,45-21.6,52.1h6.7L178.7,343.5z"/>
<rect x="207.4" y="182.1" transform="matrix(0.5793 -0.8151 0.8151 0.5793 -61.9397 247.6271)" class="st0" width="3" height="3.3"/>
<path class="st0" d="M201.4,180.3l-5.3-3.7l1.7-2.4l5.3,3.7L201.4,180.3z M190.9,172.8l-5.3-3.8l1.7-2.4l5.3,3.8L190.9,172.8z
	 M180.4,165.3l-5.3-3.7l1.7-2.4l5.3,3.7L180.4,165.3z"/>
<rect x="167.9" y="154" transform="matrix(0.5793 -0.8151 0.8151 0.5793 -55.6813 203.5545)" class="st0" width="3" height="3.3"/>
<path class="st0" d="M201.4,180.3l-5.3-3.7l1.7-2.4l5.3,3.7L201.4,180.3z M190.9,172.8l-5.3-3.8l1.7-2.4l5.3,3.8L190.9,172.8z
	 M180.4,165.3l-5.3-3.7l1.7-2.4l5.3,3.7L180.4,165.3z"/>
<rect x="208.8" y="220.8" class="st0" width="3" height="3.3"/>
<path class="st0" d="M211.8,214.2h-3v-6.5h3V214.2z M211.8,201.2h-3v-6.5h3V201.2z"/>
<polygon class="st0" points="211.8,188.1 208.8,188.1 208.8,184 212.3,181.7 213.9,184.2 211.8,185.6 "/>
<path class="st0" d="M219.9,180.4l-1.6-2.5l6-3.8l1.6,2.5L219.9,180.4z M231.9,172.9l-1.6-2.4l6-3.8l1.6,2.5L231.9,172.9z
	 M243.8,165.3l-1.6-2.5l6-3.8l1.6,2.5L243.8,165.3z"/>
<rect x="254.7" y="154.1" transform="matrix(0.8451 -0.5346 0.5346 0.8451 -43.4874 161.1696)" class="st0" width="3.3" height="3"/>
<path class="st3" d="M216.5,184.8c0,3.5-2.8,6.3-6.3,6.3c-3.5,0-6.3-2.8-6.3-6.3s2.8-6.3,6.3-6.3S216.5,181.3,216.5,184.8
	L216.5,184.8z"/>
<circle class="st4" cx="258.2" cy="251.1" r="15.9"/>
<polygon class="st0" points="257.3,263.6 244.8,248 248.9,244.7 257.1,255.1 274.1,232.2 278.2,235.3 "/>
<path class="st3" d="M339,94.4c-0.7,0.4-1.6,0.1-2-0.5c-0.2-0.2-0.4-0.5-0.5-0.8c-0.2-0.5-0.1-1.1,0.2-1.5c0.1-0.3,0.3-0.5,0.6-0.6
	c1.8-1.1,2.4-3.4,1.3-5.3c0,0,0-0.1,0-0.1c-0.8-1.2-2.1-2.4-3.6-1.9c-0.8,0.4-1.8,0.1-2.3-0.7c-0.1-0.2-0.1-0.3-0.2-0.5l0,0l0,0
	c0,0,0-0.1,0-0.1c0-0.2,0-0.4,0-0.7c0.1-0.5,0.4-1,0.8-1.3c1.8-1.1,2.4-3.4,1.4-5.2c-0.7-1.2-1.9-2.4-3.4-2.2
	c-0.5,0.3-1.1,0.4-1.6,0.1c-0.6-0.2-1-0.7-1.2-1.3c-0.2-0.6,0-1.2,0.4-1.7c0-0.1,0.1-0.1,0.1-0.2c0.9-1.1,2.1-2.4,2.5-3.8
	s-0.4-2.8-1.3-3.8c-5.6-3.7-13.2,3.3-17.6,6.3s-8.4,5.8-12.4,8.9c-1.9,1.5-3.8-1.8-1.9-3.3l0.7-0.5c-1.4-9.9-4.9-17-13.7-22.4
	c-3.8-2.3-13.3-1-9.2,4.5c1.8,2.2,3.4,4.6,4.8,7c5.5,10.5,3.2,23.8-0.5,34.5c2.4,2.3,4.2,6.3,5.7,8.7c2.7,4,4.7,8.4,7.3,12.5
	c1.4,2.2,3.2,4.6,4.7,7.2c3.9-0.1,7.7-1.2,10.9-3.4c3.9-2.3,7.8-4.7,11.7-7.1c4.5-2.8,23.9-11.7,21.8-18.9
	C341.9,95.1,340.6,93.9,339,94.4z M287.3,56.6c-0.6-0.2-1.1-0.5-1.5-1c-0.2-0.2-0.2-0.5-0.1-0.7c0-0.1,0.1-0.2,0.2-0.2
	c0.2-0.1,0.5-0.1,0.7,0.1c0.5,0.4,0.9,1,1,1.7C287.6,56.6,287.5,56.6,287.3,56.6C287.3,56.6,287.3,56.6,287.3,56.6L287.3,56.6z
	 M295,68.6c-2.2-3.6-4.2-7.2-6.6-10.6c-0.2-0.3,0.2-0.6,0.4-0.4c3.8,2.2,5.6,6.9,6.6,10.9c0,0.1-0.1,0.2-0.2,0.2
	C295.1,68.7,295,68.7,295,68.6L295,68.6z M319,112.9c-4.8,4.2-13,11.7-20.1,9.8c-0.1-0.1-0.2-0.3,0-0.3c6.9-1.2,13.4-7.1,19.6-10
	C318.9,112.1,319.3,112.5,319,112.9z M322.3,111.2c-0.7,0.4-1.5,0.6-2.2,0.6c0,0-0.1,0-0.1-0.1c0,0,0,0,0-0.1
	c0.3-0.7,0.9-1.3,1.6-1.8c0.4-0.1,0.8,0.1,1,0.5C322.6,110.6,322.5,111,322.3,111.2L322.3,111.2z"/>
<path class="st5" d="M275.3,107.2c-4.1-6.2-10.4-2.7-15.2,0.6s-11.5,6.5-7.8,13.2c4.9,8.1,9.8,16.2,14.6,24.4c2,3.3,4.1,8,8.7,6.4
	c2.8-1,5.6-3.3,8.2-4.9s6.3-3,7.9-5.6c3-4.7-1.4-10.1-3.9-14.1C283.6,120.6,279.6,113.8,275.3,107.2z M279.5,146.6
	c-2.5,1.5-5.6,4.7-8.5,0.7c-0.9-1.2-1.5-2.5-2.3-3.8c-1.7-2.9-3.4-5.8-5.1-8.6c-3-5-6-10.1-9.1-15.1c-2.6-4.7,2.6-7,5.5-8.9
	c4.3-2.7,10.3-6.8,14.3-0.6c2.5,3.9,4.8,7.9,7.2,11.9s4.9,7.6,7.1,11.5C292.5,140.5,284.2,143.7,279.5,146.6L279.5,146.6z"/>
<path class="st5" d="M273.8,151.7c-2.8,0-4.5-3-6-5.7l-0.5-0.9c-4-6.9-8.2-13.8-12.3-20.6l-2.3-3.8c-3.1-5.6,1.2-8.4,5.8-11.4
	c0.6-0.4,1.2-0.8,1.9-1.2c2.9-2,6.2-4,9.2-4c2.2,0,4,1.1,5.4,3.2c2.8,4.2,5.4,8.6,8,12.8c1.5,2.4,3,4.9,4.5,7.4
	c0.3,0.5,0.7,1.1,1,1.6c2.4,3.6,5.3,8.1,2.8,12c-1.2,1.8-3.6,3.1-5.8,4.3c-0.7,0.4-1.4,0.7-2,1.1c-0.8,0.5-1.7,1.1-2.5,1.7
	c-1.7,1.3-3.6,2.3-5.5,3.1C274.9,151.6,274.4,151.7,273.8,151.7L273.8,151.7z M269,106.5c-3,0-6.3,2-8.9,3.7l-1.4,0.9
	c-2.8,1.7-7.1,4.3-4.6,8.8c3,5,6.1,10.1,9.1,15.1l0.7,1.2c1.5,2.5,3,4.9,4.4,7.4l0.6,1c0.5,1,1.1,1.9,1.7,2.8
	c0.7,1.3,2.1,2.1,3.5,2.2c1.6,0,3.1-1,4.4-1.9c0.4-0.3,0.8-0.5,1.2-0.8c0.6-0.4,1.4-0.8,2.1-1.2c3.3-1.9,7.1-4,8-7.2
	c0.4-1.8,0.1-3.6-0.9-5.1c-1.4-2.4-2.9-4.8-4.3-7.1c-0.9-1.5-1.9-3-2.8-4.5c-0.8-1.3-1.6-2.6-2.4-3.9c-1.5-2.6-3.1-5.3-4.9-7.9
	C273.1,107.7,271.2,106.5,269,106.5z"/>
<path class="st5" d="M271.7,160c-2.7,0-5-1.7-7.5-5.6c-4.2-6.7-8.3-13.7-12.3-20.5c-2.3-4-4.7-8-7-11.9c-4.3-7.5-0.1-12.2,8.1-17.4
	c1.1-0.7,2.2-1.5,3.3-2.2c4.6-3.1,9.3-6.4,14.4-6.4c1.2,0,2.5,0.2,3.6,0.6l0.4,0.1l0.1-0.4c5.2-15.4,5.1-27.8-0.4-36.1
	c-0.7-1-1.5-2.1-2.3-3.1c-3.5-4.6-6.5-8.5-1.3-13c1.8-1.7,4.3-2.7,6.8-2.7c4.4,0,8.8,3,12.9,6.1c6.4,4.9,9.9,11.4,11.7,21.8l0.1,0.7
	l0.6-0.4c5.1-3.7,10.1-7.2,15-10.4c3.6-2.3,7.8-5,11.9-5c2,0,4,0.6,5.6,1.8c0.2,0.1,0.5,0.3,0.7,0.5c1.8,2,3.4,5.1,2.7,7.6
	c-0.3,1.1-0.8,2.1-1.4,3.1l-0.3,0.4l0.5,0.2c1.8,0.8,3.3,2.2,4.2,3.9c0.1,0.1,0.1,0.3,0.2,0.4c1.1,2.2,1.1,4.8,0,7l-0.2,0.4l0.4,0.2
	c1.5,0.7,2.8,1.9,3.7,3.2c0.1,0.1,0.2,0.2,0.3,0.4c0.1,0.1,0.2,0.3,0.2,0.4c1.2,2.3,1.2,5,0,7.2l-0.2,0.4l0.4,0.2
	c1.7,0.9,3.1,2.2,4.1,3.8c0.1,0.1,0.1,0.3,0.2,0.4c3.4,9.3-8.7,15.8-17.6,20.6c-1.8,1-3.5,1.9-4.8,2.7l-1.6,1
	c-5.3,3.3-10.8,6.7-16.3,9.9c-3.3,2-7.1,3.2-10.9,3.4h-0.6l0.2,0.6c1.2,3.4,1.1,6.3-0.1,8.9s-4.9,4.7-7.8,6.3
	c-0.7,0.4-1.4,0.8-2,1.1c-1.6,1-3.3,2-4.9,3c-2.6,1.6-5.2,3.3-7.9,4.8c-1.5,0.9-3.2,1.4-5,1.5L271.7,160z M268.9,100.2
	c-2.2,0.1-4.4,0.8-6.2,2.1c-0.8,0.5-1.9,1.2-3.1,1.9c-4.8,2.7-11.3,6.5-12.5,11.2c-0.5,1.7-0.2,3.6,0.8,5.1
	c3.7,6.2,7.4,12.4,11.1,18.6l1.4,2.3c1.7,2.8,3.3,5.6,4.9,8.4l0.4,0.7c1.2,2.3,3.5,6.6,6.1,6.6c0.3,0,0.6-0.1,0.9-0.2
	c1.9-0.9,3.8-1.9,5.5-3.1c0.7-0.4,1.4-0.9,2-1.3s1.9-1,3.1-1.7c5.9-3.1,15.8-8.2,13.5-14.2c-1.6-3.6-3.5-7.1-5.7-10.4
	c-1.7-2.5-3.2-5.1-4.5-7.7C283.5,112.4,277.5,100.2,268.9,100.2L268.9,100.2z M278.6,45.5c-2.4,0-5.4,0.7-6.3,2.6
	c-0.4,0.8-0.6,2.3,0.9,4.4l1,1.3c1.6,2,3,4.1,4.3,6.4c6.4,12,3.2,27.3-0.6,38l-0.1,0.3l0.2,0.2c1.8,2,3.4,4.3,4.6,6.7
	c0.6,1.1,1.2,2.1,1.7,2.9c1.6,2.4,3,4.9,4.3,7.3c1.2,2.2,2.5,4.5,3.9,6.6c0.5,0.8,1,1.6,1.6,2.4c1.2,1.8,2.5,3.7,3.6,5.6l0.1,0.2
	h0.3c5-0.2,7.8-1.1,12.4-3.9c4.4-2.6,8.8-5.3,13.1-7.9c0.8-0.5,2.1-1.2,3.6-2.1c8-4.4,22.9-12.5,20.8-19.5c-1-1.7-2.4-2.6-3.6-2.6
	c-0.3,0-0.7,0.1-1,0.2c-0.2,0.1-0.4,0.2-0.6,0.2c-0.4,0-0.8-0.2-1.1-0.6c-0.2-0.2-0.3-0.4-0.4-0.7c-0.1-0.4,0-0.9,0.2-1.3
	c0.1-0.2,0.3-0.4,0.5-0.6c2.2-1.3,3-4.3,1.6-6.5c0,0,0,0,0,0c-0.5-0.8-1.8-2.5-3.6-2.5c-0.3,0-0.6,0.1-0.9,0.2
	c-0.2,0.1-0.5,0.2-0.7,0.2c-0.7-0.1-1.3-0.6-1.4-1.3c-0.1-0.2-0.1-0.5-0.1-0.8c0.1-0.5,0.3-0.9,0.7-1.2c2.2-1.3,2.9-4.1,1.7-6.4
	c-0.5-0.8-1.8-2.7-3.7-2.7c-0.2,0-0.4,0-0.5,0c-0.3,0.2-0.5,0.3-0.9,0.3c-0.2,0-0.4-0.1-0.6-0.2c-0.5-0.2-0.9-0.6-1.1-1.2
	c-0.2-0.5,0-1.1,0.3-1.4l0.1-0.2l0.6-0.7c1-1,1.8-2.3,2.2-3.6c0.6-2-1-4.1-1.5-4.7c-1.3-0.9-2.8-1.3-4.3-1.3
	c-4.7,0-9.9,3.8-13.6,6.6c-0.8,0.6-1.6,1.2-2.2,1.6c-4.2,2.9-9,6.3-13.8,10c-0.2,0.2-0.5,0.3-0.8,0.3c-0.6-0.1-1.2-0.5-1.3-1.2
	c-0.3-0.8,0-1.6,0.6-2.1l1-0.7V72c-1.7-12.1-6.3-19.7-15.5-25.2C282.3,45.9,280.5,45.5,278.6,45.5z"/>
<path class="st5" d="M320.6,115c-7,3.3-14.1,9.8-21.9,11.2c-0.2,0-0.2,0.3,0,0.4c7.9,2.2,17.1-6.2,22.4-10.9
	C321.6,115.3,321,114.8,320.6,115z"/>
<path class="st5" d="M301.5,126.4c-0.5,0-0.9,0-1.4-0.1c4.6-1.1,9-3.9,13.3-6.6c2.4-1.6,4.9-3.1,7.5-4.4l-0.5,0.4
	C315.8,119.8,308.2,126.4,301.5,126.4z"/>
<path class="st5" d="M324,112.4c-0.8,0.5-1.4,1.2-1.7,2c0,0,0,0.1,0,0.1c0,0,0,0,0.1,0c0.9,0,1.8-0.2,2.5-0.6
	c0.4-0.2,0.6-0.8,0.3-1.2C324.9,112.3,324.4,112.1,324,112.4z"/>
<path class="st5" d="M323,114c0.3-0.5,0.7-0.9,1.2-1.2c0.1,0,0.1-0.1,0.2-0.1c0.2,0,0.3,0.1,0.3,0.3c0.1,0.2,0,0.4-0.2,0.5
	C324.1,113.8,323.6,113.9,323,114z"/>
<path class="st5" d="M287.6,54c-0.3-0.2-0.7,0.2-0.5,0.5c2.7,3.8,4.9,7.9,7.4,11.9c0.1,0.1,0.2,0.2,0.3,0.1c0.1-0.1,0.2-0.2,0.1-0.3
	C293.9,61.7,291.8,56.4,287.6,54z"/>
<path class="st5" d="M294.2,65c-0.6-1-1.2-2-1.8-3c-1.5-2.6-3.1-5.2-4.9-7.7C290.5,56.2,292.8,59.7,294.2,65z"/>
<path class="st5" d="M284.4,50.8c-0.1,0-0.2,0.1-0.2,0.2c-0.2,0.3-0.1,0.6,0.1,0.8c0.4,0.6,1,1,1.7,1.2c0.2,0,0.3-0.1,0.4-0.2
	c0,0,0,0,0-0.1c-0.1-0.7-0.5-1.4-1.1-1.8C285,50.7,284.6,50.7,284.4,50.8z"/>
<path class="st5" d="M285.8,52.5c-0.4-0.2-0.8-0.5-1-0.8c-0.2-0.2-0.2-0.3-0.2-0.4l0.2-0.1l0.2,0.2
	C285.3,51.7,285.6,52.1,285.8,52.5z"/>
<path class="st5" d="M276.1,144.4c-3.9,0-7-3.1-7.1-6.9c0-2.7,1.6-5.2,4.1-6.4c0.1,0,0.2-0.1,0.3-0.1c0.9-0.4,1.8-0.6,2.8-0.6
	c3.5,0,5.9,3,6.5,6c0.8,3.1-0.9,6.4-3.9,7.6C278,144.3,277.1,144.5,276.1,144.4L276.1,144.4z M276,133.8c-0.4,0-0.9,0.1-1.3,0.2
	c-1.7,0.9-3,2.8-2,4.8c0.6,1.4,1.9,2.3,3.4,2.4c0.5,0,1-0.1,1.4-0.4c1.6-0.7,2.4-2.4,2-4.1C279.2,135.1,277.7,133.9,276,133.8z"/>
<path d="M173.2,226.8c7.7-6.1,1-21.8-8.1-17.8c0.9-4.3-1.2-8.7-5.1-10.7c-0.5-0.3-1-0.5-1.6-0.7v-0.2c0-0.1-0.2-0.1-0.2,0
	s0,0.1,0,0.2l-0.5-0.1l0,0c0-0.1-0.1-0.1-0.2,0c-3.6-0.9-6.4,0.6-9.3,3.2c-0.4-3.8-4.3-6-8.2-6.1c-5.4-0.1-10.4,2.6-11.8,7.8
	c-4.9-4.2-13.5-4.7-18.6-0.4s-4.9,12.8-1.2,18c-1.4,0.6-2.7,1.5-3.7,2.7c-2.2,2.5-3.3,6.3-1.6,9.5c0.9,1.7,2.3,3,4,3.8
	c0.5,0.2,4.8,1.6,5.1,0.6c-0.6,2-0.2,4.2,1.1,5.8c5.5,7.2,21.8,9.6,23.9-0.6c2.2,3.9,6.7,6,11.1,5.2c5.3-1.1,8.6-6.2,10.4-11.1
	c3.1,5.3,12.1,7.4,16.2,2.3C177.6,234.9,177,228.5,173.2,226.8z M147,201.8c-0.1-0.8-0.2-1.6-0.3-2.4C147,200.2,147.1,201,147,201.8
	z M149.4,201.4c0,0.3-0.1,0.6-0.1,0.9c0-0.3,0-0.5,0-0.8L149.4,201.4z M173.6,237.7c-4.2,4-12.6,1.4-14.2-3.9c0-0.1-0.1-0.2-0.1-0.2
	l-0.1-0.1l-0.1-0.1c-0.1,0-0.1-0.1-0.2-0.1h-0.1h-0.3l0,0c-0.1,0-0.1,0-0.2,0.1l-0.1,0.1l-0.1,0.1c-0.1,0.1-0.1,0.2-0.1,0.3
	c-1.2,4-4.2,10.5-8.8,11.5c-5.2,1.1-10.5-1.2-11.8-6.7c-0.1-0.4-0.5-0.6-0.8-0.5c-0.3,0.1-0.5,0.3-0.5,0.6c0.6,15-26.1,7.9-22.4-2.5
	c0.1-0.4-0.1-0.7-0.5-0.8c-0.1,0-0.1,0-0.2,0c-5.4,0.1-12.6-4.3-8.3-10.5c0.7-1,3.6-4.1,4.8-3.7c0.7,0.2,1.1-0.7,0.7-1.1
	c-4.1-4.6-4.7-14.7,1.6-17.9c5.3-2.6,12.1-2.5,16.3,2c0.1,0.1,0.3,0.2,0.5,0.2v0.1c0,0-0.1,0-0.1,0.1c0,0,0,0,0,0
	c0.3,0.7,0.6,1.5,0.9,2.2l0.4,1.1c0,0.1,0.2,0.1,0.2,0c0,0,0,0,0-0.1l0,0l-0.4-1l-0.1-0.5c0.1,0.2,0.1,0.4,0.2,0.6c0,0,0.1,0,0.1,0
	l0,0c0.1,0,0.1-0.2,0-0.2s-0.6-1.9-0.7-2.2s-0.2-0.1-0.2,0c0-0.1-0.1-0.2-0.1-0.3c0.2,0,0.4-0.2,0.5-0.5c0-0.2,0.1-0.4,0.2-0.7
	c0.1,0.3,0.1,0.6,0.2,0.9c0,0-0.1,0.1-0.1,0.1c0,0,0,0,0,0c0,0.3,0.1,0.6,0.1,0.8c0-0.1-0.2,0-0.1,0.1l0.3,1c0,0,0.1,0.1,0.1,0.1
	c0,0,0.1-0.1,0.1-0.1c0-0.2-0.1-0.4-0.1-0.6c0,0.1,0,0.1,0,0.2s0.2,0.1,0.2,0c0-0.1,0-0.2-0.1-0.3c0-0.1,0-0.1,0-0.2
	c0-0.1-0.1-0.2-0.1-0.4c0,0,0,0,0-0.1c-0.1-0.6-0.3-1.2-0.4-1.9c0.2-0.8,0.5-1.5,0.9-2.2c0.1,1.1,0.3,2.2,0.6,3.2c0,0,0.1,0.1,0.1,0
	c0,0,0.1-0.1,0-0.1c-0.4-1.1-0.6-2.3-0.7-3.4c0.1-0.2,0.3-0.5,0.5-0.7c0,1,0.1,2.1,0.2,3.1c0,0.1,0.2,0.1,0.2,0
	c-0.2-1.1-0.3-2.3-0.2-3.4c0.1-0.1,0.2-0.3,0.4-0.4c0.2,1,0.2,2,0.3,3c0,0,0,0.1,0.1,0.1c0,0,0.1,0,0.1-0.1c0-1.1-0.1-2.1-0.3-3.2
	c0.2-0.3,0.5-0.5,0.8-0.8c-0.3,1.2-0.3,2.4,0.1,3.5c0,0,0.1,0.1,0.1,0.1c0,0,0.1-0.1,0.1-0.1c-0.4-1.2-0.4-2.4-0.1-3.6
	c0.2-0.1,0.3-0.2,0.5-0.3c0.1,1.3-0.4,2.6,0.1,3.8c0,0.1,0.2,0,0.2-0.1c-0.5-1.2,0-2.6-0.1-3.9c1.2-0.8,2.6-1.3,4-1.4
	c0,1.4-0.4,2.6-0.2,4c0,0.1,0.2,0.1,0.2,0c-0.2-1.4,0.3-2.6,0.2-4c0.3,0,0.6-0.1,0.9-0.1s0.5,0,0.8,0c-0.3,1.5-0.3,3.1-0.1,4.6
	c0,0.1,0.2,0.1,0.2,0c-0.2-1.5-0.2-3,0.1-4.5h0.7c-0.3,1.6-0.5,3.2-0.4,4.8c0,0,0,0.1,0.1,0.1c0,0,0.1,0,0.1-0.1
	c-0.1-1.6,0-3.2,0.4-4.7h0.1c-0.2,1.3-0.2,2.7,0,4.1c0,0,0,0.1,0.1,0.1c0,0,0.1,0,0.1-0.1c-0.2-1.3-0.2-2.7,0-4
	c0.5,0.1,1,0.1,1.5,0.3c-0.7,1.1-0.4,2.8-0.4,4c0,0,0,0.1,0.1,0.1c0,0,0.1,0,0.1-0.1c0-1.2-0.3-2.9,0.4-4l0.6,0.2c0,0-0.1,0-0.1,0
	c-0.6,1.3-0.7,2.7-0.3,4.1c0,0.1,0.2,0.1,0.2-0.1c-0.3-1.3-0.2-2.7,0.3-4c0,0,0-0.1,0-0.1l0.5,0.2c-0.2,1.4-0.2,2.8,0,4.2
	c0,0.1,0.2,0.1,0.2,0c-0.2-1.3-0.2-2.7,0-4l0.5,0.2c-0.1,1.3,0.1,2.7,0.4,4c0,0.1,0.2,0.1,0.2,0c-0.3-1.3-0.4-2.6-0.4-3.9
	c0.2,0.1,0.3,0.2,0.4,0.3c-0.1,1.2,0,2.4,0.3,3.6c0,0.1,0.2,0.1,0.2,0c-0.3-1.1-0.4-2.3-0.3-3.5c0.2,0.1,0.4,0.3,0.5,0.4
	c0.1,1.4,0.3,2.8,0.5,4.2c0,0.1,0.2,0.1,0.2,0c-0.2-1.3-0.3-2.7-0.5-4c0.3,0.3,0.6,0.6,0.8,1c0.1,1.2,0.2,2.3,0.4,3.5
	c0,0.1,0.1,0.1,0.2,0c0.1,0.1,0.2,0.2,0.3,0.3c0,0.3,0,0.5,0,0.8c-0.1,0.7-0.1,1.4-0.2,2.1c0,0.1,0.2,0.1,0.2,0v-0.1
	c0,0,0.1,0,0.1-0.1c0,0,0,0,0,0c0-0.2,0-0.3,0-0.5c0,0.1,0,0.1,0,0.2s0.2,0.1,0.2-0.1c-0.1-0.4-0.1-0.9-0.1-1.3l0.1-0.7v-0.3
	c0,0,0.1,0,0.1,0c0,0.9-0.1,1.8-0.1,2.8c0,0,0,0.1,0.1,0.1c0,0,0.1,0,0.1-0.1c0-0.9,0-1.9,0.1-2.8c0.1,0,0.1-0.1,0.2-0.1
	c-0.1,0.9-0.1,1.8,0.2,2.7c0,0,0,0.1,0.1,0.1c0,0,0.1,0,0.1-0.1c0,0,0,0,0-0.1c-0.3-0.9-0.3-1.9-0.1-2.9c0.1-0.1,0.2-0.2,0.4-0.4
	v2.8c0,0,0,0.1,0.1,0.1c0,0,0.1,0,0.1-0.1v-3c0.1-0.1,0.2-0.2,0.3-0.3c-0.1,1,0,2,0,3c0,0,0,0.1,0.1,0.1c0,0,0.1,0,0.1-0.1
	c0-0.4,0-0.7,0-1.1h0.1c0-0.8,0.1-1.6,0.2-2.3l0.6-0.5c0,0.2-0.1,0.4-0.1,0.5c-0.1,0.7-0.2,1.4-0.2,2.1c0,0,0,0.1,0.1,0.1
	c0,0,0.1,0,0.1-0.1c0-0.6,0.1-1.2,0.1-1.9c0-0.3,0.1-0.6,0.2-0.9c0.2-0.2,0.5-0.4,0.7-0.6c-0.3,1-0.4,2.1-0.4,3.1
	c0,0.1,0.2,0.1,0.2,0c0.1-1.1,0.3-2.2,0.5-3.3c0.1,0,0.1,0,0.1-0.1l0.2-0.1c-0.3,1-0.4,2-0.4,3c0,0,0,0.1,0.1,0.1c0,0,0.1,0,0.1-0.1
	c-0.1-1.2,0-2.4,0.4-3.5c0.2-0.1,0.4-0.2,0.6-0.3c-0.3,1-0.5,2-0.4,3c0,0,0,0.1,0.1,0.1c0,0,0.1,0,0.1-0.1c0,0,0,0,0,0
	c0-1.1,0.1-2.1,0.5-3.1c0.2-0.1,0.5-0.2,0.7-0.3c-0.3,0.9-0.4,1.9-0.4,2.9c0,0,0,0.1,0.1,0.1c0,0,0.1,0,0.1-0.1c-0.1-1,0.1-2,0.4-3
	l0.4-0.1c-0.2,0.7-0.3,1.5-0.2,2.3c0,0,0,0.1,0.1,0.1c0,0,0.1,0,0.1-0.1c-0.1-0.8-0.1-1.6,0.2-2.4c0.2,0,0.4-0.1,0.6-0.1
	c-0.1,0.8-0.2,1.7-0.1,2.6c0,0,0,0.1,0.1,0.1c0,0,0.1,0,0.1-0.1c-0.1-0.9-0.1-1.7,0.1-2.6c0.5,0,1,0,1.5,0.1c-0.2,0.8-0.2,1.7,0,2.5
	c0,0.1,0.2,0.1,0.2,0c-0.2-0.8-0.2-1.6-0.1-2.4c0.2,0.1,0.5,0.1,0.7,0.2c0,0.7,0.1,1.5,0.2,2.2c0,0.1,0.2,0.1,0.2,0
	c-0.1-0.7-0.2-1.4-0.2-2.1l0.5,0.2c0,0.6,0.1,1.2,0.2,1.8c0,0.1,0.2,0.1,0.2-0.1c-0.1-0.5-0.2-1.1-0.2-1.7l0.6,0.3
	c0,0.8,0,1.5,0.1,2.3c0,0.1,0.2,0.1,0.2-0.1c-0.1-0.7-0.1-1.4-0.1-2.1l0.1,0.1c0.1,0.1,0.3,0.2,0.4,0.3v2.2c0,0,0,0.1,0.1,0.1
	c0,0,0.1,0,0.1-0.1V200l0.4,0.3c-0.1,0.8,0,1.7,0,2.5c0,0,0,0.1,0.1,0.1c0,0,0.1,0,0.1-0.1c0-0.8-0.1-1.6,0-2.4l0.2,0.1
	c0,0.8,0,1.6,0.2,2.4c0,0,0.1,0.1,0.1,0c0,0,0.1-0.1,0-0.1c-0.2-0.7-0.3-1.5-0.2-2.2c0.2,0.1,0.3,0.3,0.4,0.4s0,0.3,0.1,0.4
	c0.1,0.7,0.2,1.3,0.4,2c0,0,0,0.1,0.1,0.1c0,0,0.1,0,0.1-0.1c0,0,0,0,0-0.1c-0.1-0.5-0.2-1-0.3-1.6c0-0.1-0.1-0.4-0.1-0.6l0.4,0.4
	c0,1,0.1,1.9,0.2,2.9c0,0,0.1,0.1,0.1,0c0,0,0.1-0.1,0-0.1c-0.2-0.9-0.2-1.7-0.2-2.6l0.2,0.2c0,1.1,0.1,2.1,0.2,3.2
	c0,0.1,0.2,0.1,0.2,0c-0.1-1-0.2-1.9-0.2-2.9c0.4,0.5,0.7,1,0.9,1.5c0,1.6-0.1,3.1-0.1,4.7c0,0,0,0.1,0.1,0.1c0,0,0.1,0,0.1-0.1
	c0,0,0,0,0,0c0-1.4,0.1-2.8,0.1-4.2c0.2,0.5,0.3,0.9,0.4,1.4c0,1-0.1,2-0.2,3c0,0.1,0.1,0.1,0.1,0c-0.1,0.4-0.2,0.9-0.3,1.3
	c-0.1,0.2,0,0.4,0.1,0.5c-0.1,0.5-0.3,1-0.4,1.6c0,0.1,0.1,0.2,0.2,0.1c0.1-0.5,0.2-1,0.4-1.5c0.1,0.1,0.2,0.1,0.3,0.1l0,0
	c-0.1,0.5-0.2,1.1-0.2,1.6c0,0.1,0.2,0.1,0.2,0c0-0.6,0.1-1.1,0.2-1.6h0.1c-0.1,0.7-0.2,1.3-0.2,2c0,0.1,0.2,0.1,0.2,0
	c0-0.7,0.1-1.4,0.2-2.1l0,0c-0.1,0.8-0.1,1.6-0.1,2.4c0,0,0,0.1,0.1,0.1c0,0,0.1,0,0.1-0.1c0-0.6,0-1.3,0-1.9c0-0.2,0-0.4,0.1-0.6
	l0.5-0.3c-0.1,0.9-0.1,1.9-0.1,2.8c0,0,0,0.1,0.1,0.1c0,0,0.1,0,0.1-0.1c0,0,0,0,0,0c0-1,0-1.9,0.1-2.9l0,0c-0.1,1-0.1,2,0.1,2.9
	c0,0.1,0.2,0.1,0.2,0c-0.2-1-0.2-2-0.1-3l0.5-0.2c-0.1,0.9-0.1,1.7,0.1,2.6c0,0,0.1,0.1,0.1,0c0,0,0.1-0.1,0-0.1
	c-0.2-0.8-0.3-1.7-0.1-2.6c0.2-0.1,0.4-0.1,0.6-0.2c-0.1,0.8-0.1,1.7,0,2.5c0,0.1,0.2,0.1,0.2,0c-0.1-0.9-0.1-1.7,0-2.6l0.4-0.1
	c-0.1,0.9,0,1.7,0.2,2.5c0,0.1,0.2,0.1,0.2-0.1c-0.3-0.8-0.3-1.7-0.2-2.5h0.6c0,0.6,0,1.2,0.1,1.8c0,0.1,0.2,0.1,0.2-0.1
	c-0.1-0.6-0.1-1.1-0.1-1.7l0.6,0.1c0,0.7,0,1.3,0.2,2c0,0.1,0.2,0.1,0.2,0c-0.1-0.7-0.2-1.3-0.2-2c0.2,0.1,0.4,0.1,0.6,0.1
	c0,0.6,0,1.3,0.1,1.9c0,0.1,0.2,0.1,0.2,0c-0.1-0.6-0.1-1.2-0.1-1.9l0.4,0.2c-0.1,0.7,0,1.3,0.2,1.9c0,0,0.1,0.1,0.1,0.1
	c0,0,0,0,0.1-0.1c-0.2-0.6-0.3-1.2-0.2-1.8c0.3,0.1,0.5,0.3,0.8,0.5c0.1,0.7,0.2,1.4,0.3,2.1c0,0.1,0.2,0.1,0.2,0
	c-0.1-0.7-0.1-1.3-0.3-2c0.2,0.1,0.4,0.3,0.6,0.5c0.1,0.6,0.2,1.3,0.4,1.9c0,0.1,0.2,0.1,0.2,0c-0.2-0.5-0.3-1.1-0.4-1.6l0.4,0.4
	c0.1,0.4,0.2,0.9,0.3,1.3c0,0,0.1,0.1,0.1,0.1c0,0,0.1-0.1,0.1-0.1l0,0c-0.1-0.3-0.2-0.7-0.3-1c0.2,0.3,0.4,0.6,0.6,0.9
	c0.1,0.5,0.1,1,0.2,1.5c0,0.1,0.2,0.1,0.2-0.1c-0.1-0.3-0.1-0.7-0.2-1c2.3,4.1,2.2,10.2-2.5,12.8c-0.3,0.2-0.4,0.6-0.2,0.9
	c0.1,0.2,0.3,0.3,0.6,0.3C175.9,228.1,176.2,235.3,173.6,237.7L173.6,237.7z M163.8,208.6c0.1-0.6,0.1-1.2,0.1-1.8
	C164,207.4,163.9,208,163.8,208.6L163.8,208.6z"/>
<path d="M173.7,243.2L173.7,243.2h-0.2c-1.1,0.6-2.4,1.1-2.7,2.6s-0.4,3.2,1,4c2.2,1.2,5.8,0.4,7.9-0.6s4.3-3.7,2.1-5.9
	S176.1,242.3,173.7,243.2z M179.9,243.5c1.9,0.7,1.8,2.1,0.9,3.1c0.2-0.4,0.3-0.8,0.2-1.2c0,0-0.1-0.1-0.1-0.1c0,0,0,0-0.1,0.1
	c0,0.6-0.1,1.1-0.4,1.6l-0.1,0.1c0.3-0.5,0.4-1.2,0.4-1.8c0-0.1-0.2-0.1-0.2,0c0,0.7-0.2,1.4-0.5,2l-0.2,0.1
	c0.3-0.6,0.4-1.2,0.4-1.8c0-0.1-0.2-0.1-0.2,0c0,0.7-0.1,1.4-0.5,2c-0.1,0.1-0.2,0.1-0.4,0.2c0.3-0.5,0.4-1.2,0.4-1.8
	c0-0.1-0.2-0.1-0.2,0c0,0.6-0.1,1.3-0.4,1.9h-0.1l-0.3,0.1c0.2-0.5,0.3-1,0.4-1.5c0-0.1-0.2-0.1-0.2,0c0,0.5-0.2,1.1-0.4,1.6
	l-0.2,0.1c0.2-0.5,0.4-1,0.4-1.6c0,0,0-0.1-0.1-0.1c0,0-0.1,0-0.1,0.1c0,0,0,0,0,0.1c0,0.6-0.2,1.1-0.4,1.7l-0.4,0.1
	c0.2-0.5,0.3-1,0.4-1.5c0-0.1-0.2-0.2-0.2,0c-0.1,0.5-0.3,1.1-0.5,1.6l-0.2,0.1c0.2-0.5,0.3-1,0.5-1.5c0-0.1-0.1-0.2-0.2,0l-0.5,1.6
	l-0.4,0.1c0.2-0.6,0.3-1.1,0.4-1.7c0-0.1-0.2-0.2-0.2,0c-0.1,0.6-0.3,1.2-0.4,1.8l-0.4,0.1c0.2-0.5,0.4-1.1,0.5-1.6
	c0,0,0-0.1-0.1-0.1c0,0-0.1,0-0.1,0c-0.1,0.6-0.3,1.1-0.5,1.7h-0.2c0.2-0.5,0.3-1,0.5-1.5c0,0-0.1-0.1-0.1-0.1c0,0,0,0-0.1,0.1
	c-0.1,0.5-0.3,1-0.5,1.5h-0.4c0.2-0.5,0.3-0.9,0.5-1.4c0,0,0-0.1-0.1-0.1c0,0-0.1,0-0.1,0.1c0,0,0,0,0,0.1c-0.1,0.5-0.3,1-0.5,1.5
	h-0.4c0.2-0.5,0.3-1,0.5-1.5c0-0.1-0.1-0.2-0.2,0c-0.1,0.5-0.3,1-0.5,1.5h-0.2c0.1-0.4,0.3-0.9,0.5-1.3c0-0.1-0.1-0.1-0.2,0
	l-0.5,1.3c-0.1,0-0.2-0.1-0.4-0.1c0.1-0.4,0.3-0.9,0.5-1.3c0.1-0.1-0.1-0.2-0.1-0.1c-0.2,0.4-0.4,0.9-0.5,1.4
	c-0.1-0.1-0.2-0.1-0.4-0.2c0.1-0.4,0.3-0.7,0.4-1.1c0-0.1-0.1-0.1-0.2,0c-0.1,0.4-0.2,0.7-0.4,1c-0.1-0.1-0.2-0.3-0.3-0.4
	c0.1-0.2,0.1-0.5,0.2-0.7c0,0,0-0.1,0-0.1c0,0-0.1,0-0.1,0c0,0,0,0,0,0l-0.2,0.6c-0.1-0.2-0.1-0.4-0.2-0.6c0-0.1,0-0.1,0.1-0.2
	s0-0.1-0.1-0.1c0-0.3,0-0.6,0.1-0.8c0.3-1,1.1-1.3,2-1.7C175.8,243.8,178.1,242.9,179.9,243.5z"/>
<path class="st0" d="M27.6,123c1.2-1.5,2.2-3,3.1-4.7c0.3-0.6-0.1-1.4-0.7-1.6c-0.5-0.2-1.1-0.1-1.4,0.3c-1.2,1.5-2.2,3.1-3,4.8
	c-0.9,1.3-1.5,2.8-1.7,4.3c0,0.2,0.2,0.3,0.3,0.3c0,0,0,0,0.1,0C25.7,125.5,26.8,124.4,27.6,123z M9.8,80.9
	c-1.7,0.3-3.3,0.8-4.9,1.3c-1.6,0.3-3.2,0.9-4.6,1.7c-0.3,0.2-0.4,0.7-0.2,1c0.1,0.2,0.3,0.3,0.5,0.3c1.5,0,3.1-0.2,4.5-0.7
	c1.8-0.3,3.5-0.8,5.2-1.3C11.6,82.7,11.2,80.6,9.8,80.9z M60.7,133.4c-1.2,2.8-2.8,6.7-2.2,9.8c0.1,0.6,1.1,1.2,1.5,0.5
	c0.7-1.4,1.2-2.8,1.6-4.3c0.6-1.6,1.2-3.1,1.8-4.7C64.3,132.9,61.5,131.6,60.7,133.4z M12.4,104.4c1.4-1,2.8-2,4-3.1
	s-0.2-3.2-1.5-2.2s-2.8,2.4-4.1,3.6c-1.2,0.9-2.2,2-3,3.2c-0.3,0.5,0.4,1.1,0.8,0.9C10,106.2,11.2,105.3,12.4,104.4z M46.6,129.4
	c-0.3-0.5-0.8-0.7-1.3-0.6c-0.5,0.1-1,0.4-1.2,0.9c-1.2,2.5-2.5,5.5-2.6,8.3c0,0.2,0.2,0.4,0.4,0.4c0.1,0,0.1,0,0.2-0.1
	c2.1-1.9,3.5-4.9,4.6-7.4C47,130.3,46.9,129.8,46.6,129.4L46.6,129.4z M108.3,16.8c1.4-0.5,1.9-2.2,2.6-3.5s1.7-2.7,1.7-4.1
	c0-0.6-0.7-0.7-1.1-0.5c-1.3,0.7-2.1,2.4-2.9,3.6s-1.9,2.3-1.7,3.7c0.1,0.5,0.6,0.9,1.2,0.8C108.2,16.9,108.3,16.9,108.3,16.8z
	 M65.7,10.5c0.4-1.3,0.4-2.8-0.1-4.1c-0.4-1.6-0.8-3.2-1.4-4.8c-0.1-0.4-0.6-0.6-1-0.4C63,1.3,62.8,1.7,62.8,2
	c0.1,1.7,0.3,3.3,0.6,5c0.1,1.4,0.6,2.7,1.5,3.8c0.3,0.2,0.6,0.1,0.8-0.1C65.7,10.6,65.7,10.5,65.7,10.5z M27,34.6
	c-0.3-1.4-1.9-2-3-2.8c-1.2-0.8-2.5-1.6-3.8-2.3c-0.4-0.2-1,0.4-0.6,0.8c1.1,1.2,2.2,2.3,3.5,3.3c1,0.9,2,2.1,3.4,2
	c0.4-0.1,0.7-0.5,0.6-0.9C27,34.7,27,34.6,27,34.6z M47.3,18.1c0.2-0.4,0.1-0.9-0.1-1.2c-1.4-2.3-2.8-4.9-4.8-6.8
	c-0.5-0.5-1.2,0.2-1,0.7c0.7,2.6,2.4,5.1,3.7,7.5c0.3,0.4,0.7,0.6,1.2,0.5C46.9,18.9,47,18.6,47.3,18.1z M9.2,59.7
	c1.4,0.2,3.2,0.8,4.4,0c0.4-0.3,0.5-0.8,0.2-1.2c0-0.1-0.1-0.1-0.1-0.2c-1-1.1-3-0.7-4.4-0.8c-1.6-0.1-3.2-0.1-4.8,0
	c-0.6,0.1-0.8,1-0.2,1.2C5.9,59.2,7.5,59.5,9.2,59.7z M133.4,147c-1.2,0.6-2.4,1-3.6,1.2c-0.2,0-0.1,0.3,0,0.4
	c1.3,0.3,2.7,0.2,4-0.4c1.1-0.4,2.6-1.2,2.9-2.3c0.1-0.3-0.1-0.6-0.4-0.6c-0.1,0-0.1,0-0.2,0C135.1,145.5,134.3,146.5,133.4,147z
	 M57.6,40.4c0.2-0.2,0-0.7-0.3-0.6c-23.6,12.1-25.9,49.3-3.6,63.8l0,0C34.6,83.3,36,58.3,57.6,40.4z M159.4,156.4
	c-0.8,0.7-1.7,1.2-2.5,1.8c-0.2,0.1-0.2,0.4-0.1,0.5c0.1,0.1,0.1,0.1,0.2,0.1c1.4,0.1,2.8-0.6,3.7-1.7c0.2-0.2,0.2-0.5,0.1-0.7
	C160.5,155.8,159.9,156,159.4,156.4z M90.1,6.6c0.5-2,0.7-4.1,0.7-6.2c0-0.6-0.8-0.6-1-0.2c-0.9,1.9-1.6,3.9-2,6
	c-0.1,0.5,0.2,1,0.7,1.3c0.1,0,0.2,0.1,0.3,0.1C89.5,7.7,90,7.3,90.1,6.6z M99.9,70c-1,0.5-0.5,2,0.6,1.6c1.1-0.3,2.2-0.1,3,0.7
	c0,0.1,0.1,0.1,0.1,0.2c1,1.6,1.2,3.6,0.4,5.3c-1.2-1.5-2.3-3-3.5-4.4c-0.2-0.3-0.8-0.1-0.6,0.3c1,2,2,3.9,3.2,5.8
	c-1.3,1.9-3.2,3.5-5.4,4.4c-0.1-2-1.1-3.9-2.8-5.1h-0.1c0,0-0.1-0.1-0.1-0.1c-1.6-0.8-3.5-0.3-4.4,1.3c0,0.1-0.1,0.2-0.1,0.2
	c-0.9,1.9,0.1,4,1.6,5.2c0.1,0.1,0.3,0.2,0.5,0.2c1.1,0.6,2.4,0.9,3.7,0.8c-0.1,0.9-0.2,1.8-0.5,2.7c-0.6,2.1-2.2,3.9-4.3,4.6
	c0.3-1.3,0.2-2.7-0.1-4.1c0-0.2,0-0.3-0.1-0.4c-1.3-2.6-4.5-3.6-6.4-1s-0.3,5.5,2.1,6.8c0.1,0.1,0.3,0.1,0.5,0.1
	c0.5,0.2,1.1,0.3,1.6,0.4c-0.4,0.9-0.9,1.8-1.5,2.6c-1.9-0.7-3.8-1.3-5.7-1.9c-0.9-0.3-1.5,1-0.6,1.4l4.9,2c-1.5,1.6-3.9,2.3-6,1.6
	l0,0c-1.1-0.5-1.9-2.1-0.8-3.1c0.7-0.7-0.1-1.9-0.9-1.3c-0.9,0.7-1.3,1.9-1.2,3c0.2,1.2,0.9,2.2,1.9,2.8c0,0,0,0,0.1,0.1
	c0.1,0,0.2,0.1,0.2,0.2c0.1,0.1,0.3,0.1,0.5,0.1c3,0.9,5.9-0.4,8.1-2.6c15.3,6.4,31.1,13.8,40.6,27.6c-2.1,3.3-3.7,6.9-4.8,10.7
	c0,0.1,0.1,0.2,0.2,0.1c7.3-10.9,13.2-20.7,23.6-29c0.8-0.7-0.1-2-0.9-1.3c-2,1.6-4.1,3.3-6,5.2c-0.1-0.1-0.2-0.3-0.3-0.4
	c-7.3-5.1-14.1-10.8-20.6-16.9c-5.4-5.3-9.9-11.2-14.5-17.1c1.1-2.3,1.2-5,0.2-7.4c-0.1-0.2-0.3-0.4-0.4-0.4
	C103.7,69.8,101.6,69.3,99.9,70z M93,84.1L93,84.1c-1-0.6-1.6-1.7-1.4-2.8c0.2-0.9,1.1-1.4,2-1.2c0.1,0,0.3,0.1,0.4,0.2
	c1.3,1.1,2,2.6,2,4.3C95,84.7,94,84.5,93,84.1z M85.6,89.4c1-1.7,3-1.3,3.8,0.3l0.1,0.1c0.3,1.3,0.3,2.7-0.1,4.1
	c-0.6,0-1.3-0.2-1.9-0.4c0,0-0.1-0.1-0.1-0.1C85.9,92.6,84.7,90.9,85.6,89.4L85.6,89.4z M138.8,114.7c0.1,0,0.1,0.1,0.2,0.1
	c-3.7,3.5-7,7.4-9.8,11.6c-8.2-13.5-25-22.3-40.2-27.8c0.7-1,1.3-2.1,1.7-3.2c2.5-0.4,4.7-2.1,5.9-4.4c0.7-1.5,1.2-3.2,1.2-4.9
	c2.6-0.9,4.8-2.7,6.2-5C112.6,94.5,125.8,106.4,138.8,114.7L138.8,114.7z M53,29.1C31.7,40.2,21.4,65.5,28.4,88.4
	c3.7,11.7,11.3,21.7,21.6,28.3c4.9,3.2,10.3,5.6,16.1,6.9c8.6,2,17.9-0.2,26.2,3.3c10.2,4.4,18.1,20.4,30.2,19.9
	c0.2,4.2,4,7.3,8.5,7.9c0.4,0.1,0.9,0.1,1.3,0.1c0.2,4.2,4,7.4,8.5,7.9c2.2,0.3,4.3,0,6.4-0.8c8.1,5.9,18.8,3.1,25.3-4.2
	c9-10.2,11.8-20,3-31.2c0,0-0.1-0.1-0.1-0.1c0.3-1.2,0.4-2.4,0.4-3.6c-0.1-5.5-4.1-9.8-9.6-8.4c-0.1,0-0.2,0.1-0.2,0.1
	c-0.2-5.2-4.1-9.3-9.3-8.2c-0.4-5.8-4.4-10.8-11.5-16c-4-2.9-8.3-5.5-11.7-9.1c-4.2-4.5-5.4-9.7-6.8-15.6c-1.9-8-3.9-15.4-8.7-22.2
	c-0.1-0.1-0.2-0.3-0.3-0.4c-0.1-0.1-0.2-0.3-0.4-0.4C101.4,24.4,74.9,17.7,53,29.1z M178.1,141.8c-0.7,4.3-3.9,8.3-6.6,11.6
	c-6.1,7.7-13.4,10-21.8,7c4.6-2.8,8.5-7.6,11.6-11.3c4.4-5.3,10.6-12.8,13.1-20.3C176.5,132.9,178.9,137.1,178.1,141.8z
	 M167.3,134.7c-2.3,3.9-4.8,7.6-7.6,11.1c-2.1,2.7-4.4,5.3-6.8,7.8c-4.8,4.6-13.7,9-17.9,0.9c6.9-1.5,12.5-8.3,16.6-13.3
	c5.2-6.2,12.9-15.6,14-24.3c0.2,0.2,0.4,0.2,0.6,0.2C177.3,117.6,169.1,131.6,167.3,134.7z M157.6,126.7c-2.2,3.9-4.8,7.6-7.6,11.1
	c-2.1,2.7-4.4,5.3-6.8,7.8c-4.8,4.6-13.8,9.1-18,0.8c11.1-2.7,21.2-17.1,26.8-26c2.6-4.2,4.1-7.9,4.5-11.2c0,0,0.1,0,0.1,0
	C167.5,109.6,159.3,123.6,157.6,126.7L157.6,126.7z M114,45.6c8.5,11.7,6.2,28.4,16.3,38.8c5.1,5.2,11.9,8.4,17.3,13.2
	c10,8.9,2.3,19.4-4.1,27.5c-4.4,5.7-10.9,14.5-18,16.9c-10.1,3.4-17.8-9-24.4-14.1c-10.7-8.3-20.9-5.2-33.2-7.8
	c-32-6.6-48.7-44.7-30.8-72.3C55.3,20,93.6,21.3,114,45.6z M130,22.6c-3.1,2.3-5.8,5.4-8.4,8.2c-1.2,1.3,0.9,3,2.1,1.7
	c2.6-2.7,5.5-5.4,7.6-8.6C131.8,23.1,130.9,21.9,130,22.6L130,22.6z M134.2,41.9c-1.5,0.8,0,2.9,1.5,2.1c2.2-1.2,4.2-2.6,6.1-4.2
	c0.2-0.2,0.3-0.5,0.1-0.7c-0.1-0.2-0.4-0.2-0.6-0.2C138.7,39.7,136.4,40.7,134.2,41.9L134.2,41.9z M142.8,154
	c-1,0.4-2.6,0.8-3.2,1.7c-0.1,0.1-0.1,0.3,0,0.4c1,0.8,2.8,0.2,3.9-0.3s3.1-1.2,3.2-2.6c0-0.3-0.2-0.6-0.5-0.7
	C145.1,152.4,143.8,153.6,142.8,154L142.8,154z M64.5,35.4c-0.6,0.8-0.4,2,0.5,2.6c0.8,0.5,1.8,0.4,2.4-0.2c0.6-0.8,0.4-2-0.5-2.6
	C66.2,34.7,65.2,34.8,64.5,35.4z"/>
</svg>
