<svg xmlns="http://www.w3.org/2000/svg" viewBox="0 0 160 190" width="160" height="190" preserveAspectRatio="xMidYMid meet" style="width: 100%; height: 100%; transform: translate3d(0px, 0px, 0px);"><defs><clipPath id="__lottie_element_88"><rect width="160" height="190" x="0" y="0"></rect></clipPath></defs><g clip-path="url(#__lottie_element_88)"><g transform="matrix(0.7071067690849304,0.7071067690849304,-0.7071067690849304,0.7071067690849304,88.3726806640625,77.2359619140625)" opacity="1" style="display: block;"><g opacity="1" transform="matrix(1,0,0,1,29.06800079345703,23.042999267578125)"><path stroke-linecap="butt" stroke-linejoin="miter" fill-opacity="0" stroke-miterlimit="22.93" stroke="rgb(64,64,65)" stroke-opacity="1" stroke-width="1.83" d=" M-10.925999641418457,-12.541999816894531 C-10.925999641418457,-12.541999816894531 11,-12.47700023651123 11,-12.47700023651123 C15.175000190734863,-12.46500015258789 18.57900047302246,-9.038999557495117 18.566999435424805,-4.863999843597412 C18.566999435424805,-4.863999843597412 18.538000106811523,4.974999904632568 18.538000106811523,4.974999904632568 C18.524999618530273,9.14900016784668 15.098999977111816,12.553999900817871 10.925000190734863,12.541999816894531 C10.925000190734863,12.541999816894531 -11.00100040435791,12.47700023651123 -11.00100040435791,12.47700023651123 C-15.175999641418457,12.46399974822998 -18.579999923706055,9.038999557495117 -18.569000244140625,4.864999771118164 C-18.569000244140625,4.864999771118164 -18.538999557495117,-4.974999904632568 -18.538999557495117,-4.974999904632568 C-18.527000427246094,-9.14900016784668 -15.100000381469727,-12.555000305175781 -10.925999641418457,-12.541999816894531z"></path></g><g opacity="1" transform="matrix(1,0,0,1,35.25400161743164,22.86199951171875)"><path stroke-linecap="butt" stroke-linejoin="miter" fill-opacity="0" stroke-miterlimit="22.93" stroke="rgb(64,64,65)" stroke-opacity="1" stroke-width="1.83" d=" M-2.4240000247955322,6.051000118255615 C-2.4240000247955322,6.051000118255615 1.2920000553131104,3.492000102996826 1.2920000553131104,3.492000102996826 C6.031000137329102,0.2290000021457672 5.994999885559082,-0.29100000858306885 1.2940000295639038,-3.569999933242798 C1.2940000295639038,-3.569999933242798 -1.3890000581741333,-5.445000171661377 -1.3890000581741333,-5.445000171661377 C-6.0320000648498535,-8.590999603271484 -5.986000061035156,-6.776000022888184 -6.000999927520752,-1.4539999961853027 C-6.000999927520752,-1.4539999961853027 -6.010000228881836,1.062999963760376 -6.010000228881836,1.062999963760376 C-5.943999767303467,5.4120001792907715 -6.019999980926514,8.59000015258789 -2.4240000247955322,6.051000118255615z"></path></g></g><g transform="matrix(0.7071067690849304,0.7071067690849304,-0.7071067690849304,0.7071067690849304,88.35995483398438,79.49446105957031)" opacity="1" style="display: block;"><g opacity="1" transform="matrix(1,0,0,1,27.479999542236328,21.437000274658203)"><path stroke-linecap="butt" stroke-linejoin="miter" fill-opacity="0" stroke-miterlimit="22.93" stroke="rgb(64,64,65)" stroke-opacity="1" stroke-width="0.854" d=" M22.56800079345703,-4.99399995803833 C22.56800079345703,-4.947000026702881 22.56800079345703,-4.900000095367432 22.56800079345703,-4.853000164031982 C22.56800079345703,-4.853000164031982 22.538000106811523,4.986000061035156 22.538000106811523,4.986000061035156 C22.520999908447266,10.824000358581543 18.1560001373291,15.663000106811523 12.526000022888184,16.434999465942383"></path></g></g><g transform="matrix(1,0,0,1,0,0)" opacity="1" style="display: block;"><g opacity="1" transform="matrix(1,0,0,1,73.49700164794922,90.08300018310547)"><g opacity="1" transform="matrix(1,0,0,1,17.332000732421875,17.332000732421875)"><path fill="rgb(255,255,255)" fill-opacity="1" d=" M13.029999732971191,0 C13.029999732971191,-7.196000099182129 7.196000099182129,-13.029999732971191 0,-13.029999732971191 C-7.197000026702881,-13.029999732971191 -13.029999732971191,-7.196000099182129 -13.029999732971191,0 C-13.029999732971191,7.196000099182129 -7.197000026702881,13.029999732971191 0,13.029999732971191 C7.196000099182129,13.029999732971191 13.029999732971191,7.196000099182129 13.029999732971191,0z"></path><path stroke-linecap="butt" stroke-linejoin="miter" fill-opacity="0" stroke-miterlimit="10" stroke="rgb(248,235,56)" stroke-opacity="1" stroke-width="1.721" d=" M13.029999732971191,0 C13.029999732971191,-7.196000099182129 7.196000099182129,-13.029999732971191 0,-13.029999732971191 C-7.197000026702881,-13.029999732971191 -13.029999732971191,-7.196000099182129 -13.029999732971191,0 C-13.029999732971191,7.196000099182129 -7.197000026702881,13.029999732971191 0,13.029999732971191 C7.196000099182129,13.029999732971191 13.029999732971191,7.196000099182129 13.029999732971191,0z"></path></g><g opacity="1" transform="matrix(1,0,0,1,17.332000732421875,17.332000732421875)"><path stroke-linecap="butt" stroke-linejoin="miter" fill-opacity="0" stroke-miterlimit="10" stroke="rgb(248,235,56)" stroke-opacity="1" stroke-width="0.861" d=" M9.163999557495117,0 C9.163999557495117,-5.060999870300293 5.059999942779541,-9.163999557495117 0,-9.163999557495117 C-5.061999797821045,-9.163999557495117 -9.163999557495117,-5.060999870300293 -9.163999557495117,0 C-9.163999557495117,5.060999870300293 -5.061999797821045,9.163999557495117 0,9.163999557495117 C5.059999942779541,9.163999557495117 9.163999557495117,5.060999870300293 9.163999557495117,0z"></path></g><g opacity="1" transform="matrix(1,0,0,1,17.332000732421875,17.332000732421875)"><path stroke-linecap="butt" stroke-linejoin="miter" fill-opacity="0" stroke-miterlimit="10" stroke="rgb(248,235,56)" stroke-opacity="1" stroke-width="0.861" d=" M5.111000061035156,0 C5.111000061035156,-2.822999954223633 2.8239998817443848,-5.111000061035156 0.0010000000474974513,-5.111000061035156 C-2.822999954223633,-5.111000061035156 -5.111000061035156,-2.822999954223633 -5.111000061035156,0 C-5.111000061035156,2.822999954223633 -2.822999954223633,5.111000061035156 0.0010000000474974513,5.111000061035156 C2.8239998817443848,5.111000061035156 5.111000061035156,2.822999954223633 5.111000061035156,0z"></path></g></g><g opacity="1" transform="matrix(1,0,0,1,92.24700164794922,85.83300018310547)"><g opacity="1" transform="matrix(1,0,0,1,17.332000732421875,17.332000732421875)"><path fill="rgb(255,255,255)" fill-opacity="1" d=" M13.029999732971191,0 C13.029999732971191,-7.196000099182129 7.196000099182129,-13.029999732971191 0,-13.029999732971191 C-7.197000026702881,-13.029999732971191 -13.029999732971191,-7.196000099182129 -13.029999732971191,0 C-13.029999732971191,7.196000099182129 -7.197000026702881,13.029999732971191 0,13.029999732971191 C7.196000099182129,13.029999732971191 13.029999732971191,7.196000099182129 13.029999732971191,0z"></path><path stroke-linecap="butt" stroke-linejoin="miter" fill-opacity="0" stroke-miterlimit="10" stroke="rgb(248,235,56)" stroke-opacity="1" stroke-width="1.721" d=" M13.029999732971191,0 C13.029999732971191,-7.196000099182129 7.196000099182129,-13.029999732971191 0,-13.029999732971191 C-7.197000026702881,-13.029999732971191 -13.029999732971191,-7.196000099182129 -13.029999732971191,0 C-13.029999732971191,7.196000099182129 -7.197000026702881,13.029999732971191 0,13.029999732971191 C7.196000099182129,13.029999732971191 13.029999732971191,7.196000099182129 13.029999732971191,0z"></path></g><g opacity="1" transform="matrix(1,0,0,1,17.332000732421875,17.332000732421875)"><path stroke-linecap="butt" stroke-linejoin="miter" fill-opacity="0" stroke-miterlimit="10" stroke="rgb(248,235,56)" stroke-opacity="1" stroke-width="0.861" d=" M9.163999557495117,0 C9.163999557495117,-5.060999870300293 5.059999942779541,-9.163999557495117 0,-9.163999557495117 C-5.061999797821045,-9.163999557495117 -9.163999557495117,-5.060999870300293 -9.163999557495117,0 C-9.163999557495117,5.060999870300293 -5.061999797821045,9.163999557495117 0,9.163999557495117 C5.059999942779541,9.163999557495117 9.163999557495117,5.060999870300293 9.163999557495117,0z"></path></g><g opacity="1" transform="matrix(1,0,0,1,17.332000732421875,17.332000732421875)"><path stroke-linecap="butt" stroke-linejoin="miter" fill-opacity="0" stroke-miterlimit="10" stroke="rgb(248,235,56)" stroke-opacity="1" stroke-width="0.861" d=" M5.111000061035156,0 C5.111000061035156,-2.822999954223633 2.8239998817443848,-5.111000061035156 0.0010000000474974513,-5.111000061035156 C-2.822999954223633,-5.111000061035156 -5.111000061035156,-2.822999954223633 -5.111000061035156,0 C-5.111000061035156,2.822999954223633 -2.822999954223633,5.111000061035156 0.0010000000474974513,5.111000061035156 C2.8239998817443848,5.111000061035156 5.111000061035156,2.822999954223633 5.111000061035156,0z"></path></g></g><g opacity="1" transform="matrix(1,0,0,1,106.24700164794922,53.58300018310547)"><g opacity="1" transform="matrix(1,0,0,1,17.332000732421875,17.332000732421875)"><path fill="rgb(255,255,255)" fill-opacity="1" d=" M13.029999732971191,0 C13.029999732971191,-7.196000099182129 7.196000099182129,-13.029999732971191 0,-13.029999732971191 C-7.197000026702881,-13.029999732971191 -13.029999732971191,-7.196000099182129 -13.029999732971191,0 C-13.029999732971191,7.196000099182129 -7.197000026702881,13.029999732971191 0,13.029999732971191 C7.196000099182129,13.029999732971191 13.029999732971191,7.196000099182129 13.029999732971191,0z"></path><path stroke-linecap="butt" stroke-linejoin="miter" fill-opacity="0" stroke-miterlimit="10" stroke="rgb(248,235,56)" stroke-opacity="1" stroke-width="1.721" d=" M13.029999732971191,0 C13.029999732971191,-7.196000099182129 7.196000099182129,-13.029999732971191 0,-13.029999732971191 C-7.197000026702881,-13.029999732971191 -13.029999732971191,-7.196000099182129 -13.029999732971191,0 C-13.029999732971191,7.196000099182129 -7.197000026702881,13.029999732971191 0,13.029999732971191 C7.196000099182129,13.029999732971191 13.029999732971191,7.196000099182129 13.029999732971191,0z"></path></g><g opacity="1" transform="matrix(1,0,0,1,17.332000732421875,17.332000732421875)"><path stroke-linecap="butt" stroke-linejoin="miter" fill-opacity="0" stroke-miterlimit="10" stroke="rgb(248,235,56)" stroke-opacity="1" stroke-width="0.861" d=" M9.163999557495117,0 C9.163999557495117,-5.060999870300293 5.059999942779541,-9.163999557495117 0,-9.163999557495117 C-5.061999797821045,-9.163999557495117 -9.163999557495117,-5.060999870300293 -9.163999557495117,0 C-9.163999557495117,5.060999870300293 -5.061999797821045,9.163999557495117 0,9.163999557495117 C5.059999942779541,9.163999557495117 9.163999557495117,5.060999870300293 9.163999557495117,0z"></path></g><g opacity="1" transform="matrix(1,0,0,1,17.332000732421875,17.332000732421875)"><path stroke-linecap="butt" stroke-linejoin="miter" fill-opacity="0" stroke-miterlimit="10" stroke="rgb(248,235,56)" stroke-opacity="1" stroke-width="0.861" d=" M5.111000061035156,0 C5.111000061035156,-2.822999954223633 2.8239998817443848,-5.111000061035156 0.0010000000474974513,-5.111000061035156 C-2.822999954223633,-5.111000061035156 -5.111000061035156,-2.822999954223633 -5.111000061035156,0 C-5.111000061035156,2.822999954223633 -2.822999954223633,5.111000061035156 0.0010000000474974513,5.111000061035156 C2.8239998817443848,5.111000061035156 5.111000061035156,2.822999954223633 5.111000061035156,0z"></path></g></g><g opacity="1" transform="matrix(1,0,0,1,106.74700164794922,67.08300018310547)"><g opacity="1" transform="matrix(1,0,0,1,17.332000732421875,17.332000732421875)"><path fill="rgb(255,255,255)" fill-opacity="1" d=" M13.029999732971191,0 C13.029999732971191,-7.196000099182129 7.196000099182129,-13.029999732971191 0,-13.029999732971191 C-7.197000026702881,-13.029999732971191 -13.029999732971191,-7.196000099182129 -13.029999732971191,0 C-13.029999732971191,7.196000099182129 -7.197000026702881,13.029999732971191 0,13.029999732971191 C7.196000099182129,13.029999732971191 13.029999732971191,7.196000099182129 13.029999732971191,0z"></path><path stroke-linecap="butt" stroke-linejoin="miter" fill-opacity="0" stroke-miterlimit="10" stroke="rgb(248,235,56)" stroke-opacity="1" stroke-width="1.721" d=" M13.029999732971191,0 C13.029999732971191,-7.196000099182129 7.196000099182129,-13.029999732971191 0,-13.029999732971191 C-7.197000026702881,-13.029999732971191 -13.029999732971191,-7.196000099182129 -13.029999732971191,0 C-13.029999732971191,7.196000099182129 -7.197000026702881,13.029999732971191 0,13.029999732971191 C7.196000099182129,13.029999732971191 13.029999732971191,7.196000099182129 13.029999732971191,0z"></path></g><g opacity="1" transform="matrix(1,0,0,1,17.332000732421875,17.332000732421875)"><path stroke-linecap="butt" stroke-linejoin="miter" fill-opacity="0" stroke-miterlimit="10" stroke="rgb(248,235,56)" stroke-opacity="1" stroke-width="0.861" d=" M9.163999557495117,0 C9.163999557495117,-5.060999870300293 5.059999942779541,-9.163999557495117 0,-9.163999557495117 C-5.061999797821045,-9.163999557495117 -9.163999557495117,-5.060999870300293 -9.163999557495117,0 C-9.163999557495117,5.060999870300293 -5.061999797821045,9.163999557495117 0,9.163999557495117 C5.059999942779541,9.163999557495117 9.163999557495117,5.060999870300293 9.163999557495117,0z"></path></g><g opacity="1" transform="matrix(1,0,0,1,17.332000732421875,17.332000732421875)"><path stroke-linecap="butt" stroke-linejoin="miter" fill-opacity="0" stroke-miterlimit="10" stroke="rgb(248,235,56)" stroke-opacity="1" stroke-width="0.861" d=" M5.111000061035156,0 C5.111000061035156,-2.822999954223633 2.8239998817443848,-5.111000061035156 0.0010000000474974513,-5.111000061035156 C-2.822999954223633,-5.111000061035156 -5.111000061035156,-2.822999954223633 -5.111000061035156,0 C-5.111000061035156,2.822999954223633 -2.822999954223633,5.111000061035156 0.0010000000474974513,5.111000061035156 C2.8239998817443848,5.111000061035156 5.111000061035156,2.822999954223633 5.111000061035156,0z"></path></g></g><g opacity="1" transform="matrix(1,0,0,1,94.74700164794922,73.08300018310547)"><g opacity="1" transform="matrix(1,0,0,1,17.332000732421875,17.332000732421875)"><path fill="rgb(255,255,255)" fill-opacity="1" d=" M13.029999732971191,0 C13.029999732971191,-7.196000099182129 7.196000099182129,-13.029999732971191 0,-13.029999732971191 C-7.197000026702881,-13.029999732971191 -13.029999732971191,-7.196000099182129 -13.029999732971191,0 C-13.029999732971191,7.196000099182129 -7.197000026702881,13.029999732971191 0,13.029999732971191 C7.196000099182129,13.029999732971191 13.029999732971191,7.196000099182129 13.029999732971191,0z"></path><path stroke-linecap="butt" stroke-linejoin="miter" fill-opacity="0" stroke-miterlimit="10" stroke="rgb(248,235,56)" stroke-opacity="1" stroke-width="1.721" d=" M13.029999732971191,0 C13.029999732971191,-7.196000099182129 7.196000099182129,-13.029999732971191 0,-13.029999732971191 C-7.197000026702881,-13.029999732971191 -13.029999732971191,-7.196000099182129 -13.029999732971191,0 C-13.029999732971191,7.196000099182129 -7.197000026702881,13.029999732971191 0,13.029999732971191 C7.196000099182129,13.029999732971191 13.029999732971191,7.196000099182129 13.029999732971191,0z"></path></g><g opacity="1" transform="matrix(1,0,0,1,17.332000732421875,17.332000732421875)"><path stroke-linecap="butt" stroke-linejoin="miter" fill-opacity="0" stroke-miterlimit="10" stroke="rgb(248,235,56)" stroke-opacity="1" stroke-width="0.861" d=" M9.163999557495117,0 C9.163999557495117,-5.060999870300293 5.059999942779541,-9.163999557495117 0,-9.163999557495117 C-5.061999797821045,-9.163999557495117 -9.163999557495117,-5.060999870300293 -9.163999557495117,0 C-9.163999557495117,5.060999870300293 -5.061999797821045,9.163999557495117 0,9.163999557495117 C5.059999942779541,9.163999557495117 9.163999557495117,5.060999870300293 9.163999557495117,0z"></path></g><g opacity="1" transform="matrix(1,0,0,1,17.332000732421875,17.332000732421875)"><path stroke-linecap="butt" stroke-linejoin="miter" fill-opacity="0" stroke-miterlimit="10" stroke="rgb(248,235,56)" stroke-opacity="1" stroke-width="0.861" d=" M5.111000061035156,0 C5.111000061035156,-2.822999954223633 2.8239998817443848,-5.111000061035156 0.0010000000474974513,-5.111000061035156 C-2.822999954223633,-5.111000061035156 -5.111000061035156,-2.822999954223633 -5.111000061035156,0 C-5.111000061035156,2.822999954223633 -2.822999954223633,5.111000061035156 0.0010000000474974513,5.111000061035156 C2.8239998817443848,5.111000061035156 5.111000061035156,2.822999954223633 5.111000061035156,0z"></path></g></g><g opacity="1" transform="matrix(1,0,0,1,82.74700164794922,76.33300018310547)"><g opacity="1" transform="matrix(1,0,0,1,17.332000732421875,17.332000732421875)"><path fill="rgb(255,255,255)" fill-opacity="1" d=" M13.029999732971191,0 C13.029999732971191,-7.196000099182129 7.196000099182129,-13.029999732971191 0,-13.029999732971191 C-7.197000026702881,-13.029999732971191 -13.029999732971191,-7.196000099182129 -13.029999732971191,0 C-13.029999732971191,7.196000099182129 -7.197000026702881,13.029999732971191 0,13.029999732971191 C7.196000099182129,13.029999732971191 13.029999732971191,7.196000099182129 13.029999732971191,0z"></path><path stroke-linecap="butt" stroke-linejoin="miter" fill-opacity="0" stroke-miterlimit="10" stroke="rgb(248,235,56)" stroke-opacity="1" stroke-width="1.721" d=" M13.029999732971191,0 C13.029999732971191,-7.196000099182129 7.196000099182129,-13.029999732971191 0,-13.029999732971191 C-7.197000026702881,-13.029999732971191 -13.029999732971191,-7.196000099182129 -13.029999732971191,0 C-13.029999732971191,7.196000099182129 -7.197000026702881,13.029999732971191 0,13.029999732971191 C7.196000099182129,13.029999732971191 13.029999732971191,7.196000099182129 13.029999732971191,0z"></path></g><g opacity="1" transform="matrix(1,0,0,1,17.332000732421875,17.332000732421875)"><path stroke-linecap="butt" stroke-linejoin="miter" fill-opacity="0" stroke-miterlimit="10" stroke="rgb(248,235,56)" stroke-opacity="1" stroke-width="0.861" d=" M9.163999557495117,0 C9.163999557495117,-5.060999870300293 5.059999942779541,-9.163999557495117 0,-9.163999557495117 C-5.061999797821045,-9.163999557495117 -9.163999557495117,-5.060999870300293 -9.163999557495117,0 C-9.163999557495117,5.060999870300293 -5.061999797821045,9.163999557495117 0,9.163999557495117 C5.059999942779541,9.163999557495117 9.163999557495117,5.060999870300293 9.163999557495117,0z"></path></g><g opacity="1" transform="matrix(1,0,0,1,17.332000732421875,17.332000732421875)"><path stroke-linecap="butt" stroke-linejoin="miter" fill-opacity="0" stroke-miterlimit="10" stroke="rgb(248,235,56)" stroke-opacity="1" stroke-width="0.861" d=" M5.111000061035156,0 C5.111000061035156,-2.822999954223633 2.8239998817443848,-5.111000061035156 0.0010000000474974513,-5.111000061035156 C-2.822999954223633,-5.111000061035156 -5.111000061035156,-2.822999954223633 -5.111000061035156,0 C-5.111000061035156,2.822999954223633 -2.822999954223633,5.111000061035156 0.0010000000474974513,5.111000061035156 C2.8239998817443848,5.111000061035156 5.111000061035156,2.822999954223633 5.111000061035156,0z"></path></g></g><g opacity="1" transform="matrix(1,0,0,1,95.49700164794922,61.08300018310547)"><g opacity="1" transform="matrix(1,0,0,1,17.332000732421875,17.332000732421875)"><path fill="rgb(255,255,255)" fill-opacity="1" d=" M13.029999732971191,0 C13.029999732971191,-7.196000099182129 7.196000099182129,-13.029999732971191 0,-13.029999732971191 C-7.197000026702881,-13.029999732971191 -13.029999732971191,-7.196000099182129 -13.029999732971191,0 C-13.029999732971191,7.196000099182129 -7.197000026702881,13.029999732971191 0,13.029999732971191 C7.196000099182129,13.029999732971191 13.029999732971191,7.196000099182129 13.029999732971191,0z"></path><path stroke-linecap="butt" stroke-linejoin="miter" fill-opacity="0" stroke-miterlimit="10" stroke="rgb(248,235,56)" stroke-opacity="1" stroke-width="1.721" d=" M13.029999732971191,0 C13.029999732971191,-7.196000099182129 7.196000099182129,-13.029999732971191 0,-13.029999732971191 C-7.197000026702881,-13.029999732971191 -13.029999732971191,-7.196000099182129 -13.029999732971191,0 C-13.029999732971191,7.196000099182129 -7.197000026702881,13.029999732971191 0,13.029999732971191 C7.196000099182129,13.029999732971191 13.029999732971191,7.196000099182129 13.029999732971191,0z"></path></g><g opacity="1" transform="matrix(1,0,0,1,17.332000732421875,17.332000732421875)"><path stroke-linecap="butt" stroke-linejoin="miter" fill-opacity="0" stroke-miterlimit="10" stroke="rgb(248,235,56)" stroke-opacity="1" stroke-width="0.861" d=" M9.163999557495117,0 C9.163999557495117,-5.060999870300293 5.059999942779541,-9.163999557495117 0,-9.163999557495117 C-5.061999797821045,-9.163999557495117 -9.163999557495117,-5.060999870300293 -9.163999557495117,0 C-9.163999557495117,5.060999870300293 -5.061999797821045,9.163999557495117 0,9.163999557495117 C5.059999942779541,9.163999557495117 9.163999557495117,5.060999870300293 9.163999557495117,0z"></path></g><g opacity="1" transform="matrix(1,0,0,1,17.332000732421875,17.332000732421875)"><path stroke-linecap="butt" stroke-linejoin="miter" fill-opacity="0" stroke-miterlimit="10" stroke="rgb(248,235,56)" stroke-opacity="1" stroke-width="0.861" d=" M5.111000061035156,0 C5.111000061035156,-2.822999954223633 2.8239998817443848,-5.111000061035156 0.0010000000474974513,-5.111000061035156 C-2.822999954223633,-5.111000061035156 -5.111000061035156,-2.822999954223633 -5.111000061035156,0 C-5.111000061035156,2.822999954223633 -2.822999954223633,5.111000061035156 0.0010000000474974513,5.111000061035156 C2.8239998817443848,5.111000061035156 5.111000061035156,2.822999954223633 5.111000061035156,0z"></path></g></g><g opacity="1" transform="matrix(1,0,0,1,82.74700164794922,63.33300018310547)"><g opacity="1" transform="matrix(1,0,0,1,17.332000732421875,17.332000732421875)"><path fill="rgb(255,255,255)" fill-opacity="1" d=" M13.029999732971191,0 C13.029999732971191,-7.196000099182129 7.196000099182129,-13.029999732971191 0,-13.029999732971191 C-7.197000026702881,-13.029999732971191 -13.029999732971191,-7.196000099182129 -13.029999732971191,0 C-13.029999732971191,7.196000099182129 -7.197000026702881,13.029999732971191 0,13.029999732971191 C7.196000099182129,13.029999732971191 13.029999732971191,7.196000099182129 13.029999732971191,0z"></path><path stroke-linecap="butt" stroke-linejoin="miter" fill-opacity="0" stroke-miterlimit="10" stroke="rgb(248,235,56)" stroke-opacity="1" stroke-width="1.721" d=" M13.029999732971191,0 C13.029999732971191,-7.196000099182129 7.196000099182129,-13.029999732971191 0,-13.029999732971191 C-7.197000026702881,-13.029999732971191 -13.029999732971191,-7.196000099182129 -13.029999732971191,0 C-13.029999732971191,7.196000099182129 -7.197000026702881,13.029999732971191 0,13.029999732971191 C7.196000099182129,13.029999732971191 13.029999732971191,7.196000099182129 13.029999732971191,0z"></path></g><g opacity="1" transform="matrix(1,0,0,1,17.332000732421875,17.332000732421875)"><path stroke-linecap="butt" stroke-linejoin="miter" fill-opacity="0" stroke-miterlimit="10" stroke="rgb(248,235,56)" stroke-opacity="1" stroke-width="0.861" d=" M9.163999557495117,0 C9.163999557495117,-5.060999870300293 5.059999942779541,-9.163999557495117 0,-9.163999557495117 C-5.061999797821045,-9.163999557495117 -9.163999557495117,-5.060999870300293 -9.163999557495117,0 C-9.163999557495117,5.060999870300293 -5.061999797821045,9.163999557495117 0,9.163999557495117 C5.059999942779541,9.163999557495117 9.163999557495117,5.060999870300293 9.163999557495117,0z"></path></g><g opacity="1" transform="matrix(1,0,0,1,17.332000732421875,17.332000732421875)"><path stroke-linecap="butt" stroke-linejoin="miter" fill-opacity="0" stroke-miterlimit="10" stroke="rgb(248,235,56)" stroke-opacity="1" stroke-width="0.861" d=" M5.111000061035156,0 C5.111000061035156,-2.822999954223633 2.8239998817443848,-5.111000061035156 0.0010000000474974513,-5.111000061035156 C-2.822999954223633,-5.111000061035156 -5.111000061035156,-2.822999954223633 -5.111000061035156,0 C-5.111000061035156,2.822999954223633 -2.822999954223633,5.111000061035156 0.0010000000474974513,5.111000061035156 C2.8239998817443848,5.111000061035156 5.111000061035156,2.822999954223633 5.111000061035156,0z"></path></g></g></g><g style="display: block;" transform="matrix(0,0,0,0,96.2040023803711,37.790000915527344)" opacity="1"><g opacity="1" transform="matrix(1,0,0,1,107.74700164794922,25.08300018310547)"><g opacity="1" transform="matrix(1,0,0,1,17.332000732421875,17.332000732421875)"><path fill="rgb(255,255,255)" fill-opacity="1" d=" M13.029999732971191,0 C13.029999732971191,-7.196000099182129 7.196000099182129,-13.029999732971191 0,-13.029999732971191 C-7.197000026702881,-13.029999732971191 -13.029999732971191,-7.196000099182129 -13.029999732971191,0 C-13.029999732971191,7.196000099182129 -7.197000026702881,13.029999732971191 0,13.029999732971191 C7.196000099182129,13.029999732971191 13.029999732971191,7.196000099182129 13.029999732971191,0z"></path><path stroke-linecap="butt" stroke-linejoin="miter" fill-opacity="0" stroke-miterlimit="10" stroke="rgb(248,235,56)" stroke-opacity="1" stroke-width="1.721" d=" M13.029999732971191,0 C13.029999732971191,-7.196000099182129 7.196000099182129,-13.029999732971191 0,-13.029999732971191 C-7.197000026702881,-13.029999732971191 -13.029999732971191,-7.196000099182129 -13.029999732971191,0 C-13.029999732971191,7.196000099182129 -7.197000026702881,13.029999732971191 0,13.029999732971191 C7.196000099182129,13.029999732971191 13.029999732971191,7.196000099182129 13.029999732971191,0z"></path></g><g opacity="1" transform="matrix(1,0,0,1,17.332000732421875,17.332000732421875)"><path stroke-linecap="butt" stroke-linejoin="miter" fill-opacity="0" stroke-miterlimit="10" stroke="rgb(248,235,56)" stroke-opacity="1" stroke-width="0.861" d=" M9.163999557495117,0 C9.163999557495117,-5.060999870300293 5.059999942779541,-9.163999557495117 0,-9.163999557495117 C-5.061999797821045,-9.163999557495117 -9.163999557495117,-5.060999870300293 -9.163999557495117,0 C-9.163999557495117,5.060999870300293 -5.061999797821045,9.163999557495117 0,9.163999557495117 C5.059999942779541,9.163999557495117 9.163999557495117,5.060999870300293 9.163999557495117,0z"></path></g><g opacity="1" transform="matrix(1,0,0,1,17.332000732421875,17.332000732421875)"><path stroke-linecap="butt" stroke-linejoin="miter" fill-opacity="0" stroke-miterlimit="10" stroke="rgb(248,235,56)" stroke-opacity="1" stroke-width="0.861" d=" M5.111000061035156,0 C5.111000061035156,-2.822999954223633 2.8239998817443848,-5.111000061035156 0.0010000000474974513,-5.111000061035156 C-2.822999954223633,-5.111000061035156 -5.111000061035156,-2.822999954223633 -5.111000061035156,0 C-5.111000061035156,2.822999954223633 -2.822999954223633,5.111000061035156 0.0010000000474974513,5.111000061035156 C2.8239998817443848,5.111000061035156 5.111000061035156,2.822999954223633 5.111000061035156,0z"></path></g></g><g opacity="1" transform="matrix(1,0,0,1,49.99700164794922,14.583000183105469)"><g opacity="1" transform="matrix(1,0,0,1,17.332000732421875,17.332000732421875)"><path fill="rgb(255,255,255)" fill-opacity="1" d=" M13.029999732971191,0 C13.029999732971191,-7.196000099182129 7.196000099182129,-13.029999732971191 0,-13.029999732971191 C-7.197000026702881,-13.029999732971191 -13.029999732971191,-7.196000099182129 -13.029999732971191,0 C-13.029999732971191,7.196000099182129 -7.197000026702881,13.029999732971191 0,13.029999732971191 C7.196000099182129,13.029999732971191 13.029999732971191,7.196000099182129 13.029999732971191,0z"></path><path stroke-linecap="butt" stroke-linejoin="miter" fill-opacity="0" stroke-miterlimit="10" stroke="rgb(248,235,56)" stroke-opacity="1" stroke-width="1.721" d=" M13.029999732971191,0 C13.029999732971191,-7.196000099182129 7.196000099182129,-13.029999732971191 0,-13.029999732971191 C-7.197000026702881,-13.029999732971191 -13.029999732971191,-7.196000099182129 -13.029999732971191,0 C-13.029999732971191,7.196000099182129 -7.197000026702881,13.029999732971191 0,13.029999732971191 C7.196000099182129,13.029999732971191 13.029999732971191,7.196000099182129 13.029999732971191,0z"></path></g><g opacity="1" transform="matrix(1,0,0,1,17.332000732421875,17.332000732421875)"><path stroke-linecap="butt" stroke-linejoin="miter" fill-opacity="0" stroke-miterlimit="10" stroke="rgb(248,235,56)" stroke-opacity="1" stroke-width="0.861" d=" M9.163999557495117,0 C9.163999557495117,-5.060999870300293 5.059999942779541,-9.163999557495117 0,-9.163999557495117 C-5.061999797821045,-9.163999557495117 -9.163999557495117,-5.060999870300293 -9.163999557495117,0 C-9.163999557495117,5.060999870300293 -5.061999797821045,9.163999557495117 0,9.163999557495117 C5.059999942779541,9.163999557495117 9.163999557495117,5.060999870300293 9.163999557495117,0z"></path></g><g opacity="1" transform="matrix(1,0,0,1,17.332000732421875,17.332000732421875)"><path stroke-linecap="butt" stroke-linejoin="miter" fill-opacity="0" stroke-miterlimit="10" stroke="rgb(248,235,56)" stroke-opacity="1" stroke-width="0.861" d=" M5.111000061035156,0 C5.111000061035156,-2.822999954223633 2.8239998817443848,-5.111000061035156 0.0010000000474974513,-5.111000061035156 C-2.822999954223633,-5.111000061035156 -5.111000061035156,-2.822999954223633 -5.111000061035156,0 C-5.111000061035156,2.822999954223633 -2.822999954223633,5.111000061035156 0.0010000000474974513,5.111000061035156 C2.8239998817443848,5.111000061035156 5.111000061035156,2.822999954223633 5.111000061035156,0z"></path></g></g><g opacity="1" transform="matrix(1,0,0,1,62.74700164794922,1.8330001831054688)"><g opacity="1" transform="matrix(1,0,0,1,17.332000732421875,17.332000732421875)"><path fill="rgb(255,255,255)" fill-opacity="1" d=" M13.029999732971191,0 C13.029999732971191,-7.196000099182129 7.196000099182129,-13.029999732971191 0,-13.029999732971191 C-7.197000026702881,-13.029999732971191 -13.029999732971191,-7.196000099182129 -13.029999732971191,0 C-13.029999732971191,7.196000099182129 -7.197000026702881,13.029999732971191 0,13.029999732971191 C7.196000099182129,13.029999732971191 13.029999732971191,7.196000099182129 13.029999732971191,0z"></path><path stroke-linecap="butt" stroke-linejoin="miter" fill-opacity="0" stroke-miterlimit="10" stroke="rgb(248,235,56)" stroke-opacity="1" stroke-width="1.721" d=" M13.029999732971191,0 C13.029999732971191,-7.196000099182129 7.196000099182129,-13.029999732971191 0,-13.029999732971191 C-7.197000026702881,-13.029999732971191 -13.029999732971191,-7.196000099182129 -13.029999732971191,0 C-13.029999732971191,7.196000099182129 -7.197000026702881,13.029999732971191 0,13.029999732971191 C7.196000099182129,13.029999732971191 13.029999732971191,7.196000099182129 13.029999732971191,0z"></path></g><g opacity="1" transform="matrix(1,0,0,1,17.332000732421875,17.332000732421875)"><path stroke-linecap="butt" stroke-linejoin="miter" fill-opacity="0" stroke-miterlimit="10" stroke="rgb(248,235,56)" stroke-opacity="1" stroke-width="0.861" d=" M9.163999557495117,0 C9.163999557495117,-5.060999870300293 5.059999942779541,-9.163999557495117 0,-9.163999557495117 C-5.061999797821045,-9.163999557495117 -9.163999557495117,-5.060999870300293 -9.163999557495117,0 C-9.163999557495117,5.060999870300293 -5.061999797821045,9.163999557495117 0,9.163999557495117 C5.059999942779541,9.163999557495117 9.163999557495117,5.060999870300293 9.163999557495117,0z"></path></g><g opacity="1" transform="matrix(1,0,0,1,17.332000732421875,17.332000732421875)"><path stroke-linecap="butt" stroke-linejoin="miter" fill-opacity="0" stroke-miterlimit="10" stroke="rgb(248,235,56)" stroke-opacity="1" stroke-width="0.861" d=" M5.111000061035156,0 C5.111000061035156,-2.822999954223633 2.8239998817443848,-5.111000061035156 0.0010000000474974513,-5.111000061035156 C-2.822999954223633,-5.111000061035156 -5.111000061035156,-2.822999954223633 -5.111000061035156,0 C-5.111000061035156,2.822999954223633 -2.822999954223633,5.111000061035156 0.0010000000474974513,5.111000061035156 C2.8239998817443848,5.111000061035156 5.111000061035156,2.822999954223633 5.111000061035156,0z"></path></g></g><g opacity="1" transform="matrix(1,0,0,1,86.74700164794922,7.083000183105469)"><g opacity="1" transform="matrix(1,0,0,1,17.332000732421875,17.332000732421875)"><path fill="rgb(255,255,255)" fill-opacity="1" d=" M13.029999732971191,0 C13.029999732971191,-7.196000099182129 7.196000099182129,-13.029999732971191 0,-13.029999732971191 C-7.197000026702881,-13.029999732971191 -13.029999732971191,-7.196000099182129 -13.029999732971191,0 C-13.029999732971191,7.196000099182129 -7.197000026702881,13.029999732971191 0,13.029999732971191 C7.196000099182129,13.029999732971191 13.029999732971191,7.196000099182129 13.029999732971191,0z"></path><path stroke-linecap="butt" stroke-linejoin="miter" fill-opacity="0" stroke-miterlimit="10" stroke="rgb(248,235,56)" stroke-opacity="1" stroke-width="1.721" d=" M13.029999732971191,0 C13.029999732971191,-7.196000099182129 7.196000099182129,-13.029999732971191 0,-13.029999732971191 C-7.197000026702881,-13.029999732971191 -13.029999732971191,-7.196000099182129 -13.029999732971191,0 C-13.029999732971191,7.196000099182129 -7.197000026702881,13.029999732971191 0,13.029999732971191 C7.196000099182129,13.029999732971191 13.029999732971191,7.196000099182129 13.029999732971191,0z"></path></g><g opacity="1" transform="matrix(1,0,0,1,17.332000732421875,17.332000732421875)"><path stroke-linecap="butt" stroke-linejoin="miter" fill-opacity="0" stroke-miterlimit="10" stroke="rgb(248,235,56)" stroke-opacity="1" stroke-width="0.861" d=" M9.163999557495117,0 C9.163999557495117,-5.060999870300293 5.059999942779541,-9.163999557495117 0,-9.163999557495117 C-5.061999797821045,-9.163999557495117 -9.163999557495117,-5.060999870300293 -9.163999557495117,0 C-9.163999557495117,5.060999870300293 -5.061999797821045,9.163999557495117 0,9.163999557495117 C5.059999942779541,9.163999557495117 9.163999557495117,5.060999870300293 9.163999557495117,0z"></path></g><g opacity="1" transform="matrix(1,0,0,1,17.332000732421875,17.332000732421875)"><path stroke-linecap="butt" stroke-linejoin="miter" fill-opacity="0" stroke-miterlimit="10" stroke="rgb(248,235,56)" stroke-opacity="1" stroke-width="0.861" d=" M5.111000061035156,0 C5.111000061035156,-2.822999954223633 2.8239998817443848,-5.111000061035156 0.0010000000474974513,-5.111000061035156 C-2.822999954223633,-5.111000061035156 -5.111000061035156,-2.822999954223633 -5.111000061035156,0 C-5.111000061035156,2.822999954223633 -2.822999954223633,5.111000061035156 0.0010000000474974513,5.111000061035156 C2.8239998817443848,5.111000061035156 5.111000061035156,2.822999954223633 5.111000061035156,0z"></path></g></g><g opacity="1" transform="matrix(1,0,0,1,73.74700164794922,8.083000183105469)"><g opacity="1" transform="matrix(1,0,0,1,17.332000732421875,17.332000732421875)"><path fill="rgb(255,255,255)" fill-opacity="1" d=" M13.029999732971191,0 C13.029999732971191,-7.196000099182129 7.196000099182129,-13.029999732971191 0,-13.029999732971191 C-7.197000026702881,-13.029999732971191 -13.029999732971191,-7.196000099182129 -13.029999732971191,0 C-13.029999732971191,7.196000099182129 -7.197000026702881,13.029999732971191 0,13.029999732971191 C7.196000099182129,13.029999732971191 13.029999732971191,7.196000099182129 13.029999732971191,0z"></path><path stroke-linecap="butt" stroke-linejoin="miter" fill-opacity="0" stroke-miterlimit="10" stroke="rgb(248,235,56)" stroke-opacity="1" stroke-width="1.721" d=" M13.029999732971191,0 C13.029999732971191,-7.196000099182129 7.196000099182129,-13.029999732971191 0,-13.029999732971191 C-7.197000026702881,-13.029999732971191 -13.029999732971191,-7.196000099182129 -13.029999732971191,0 C-13.029999732971191,7.196000099182129 -7.197000026702881,13.029999732971191 0,13.029999732971191 C7.196000099182129,13.029999732971191 13.029999732971191,7.196000099182129 13.029999732971191,0z"></path></g><g opacity="1" transform="matrix(1,0,0,1,17.332000732421875,17.332000732421875)"><path stroke-linecap="butt" stroke-linejoin="miter" fill-opacity="0" stroke-miterlimit="10" stroke="rgb(248,235,56)" stroke-opacity="1" stroke-width="0.861" d=" M9.163999557495117,0 C9.163999557495117,-5.060999870300293 5.059999942779541,-9.163999557495117 0,-9.163999557495117 C-5.061999797821045,-9.163999557495117 -9.163999557495117,-5.060999870300293 -9.163999557495117,0 C-9.163999557495117,5.060999870300293 -5.061999797821045,9.163999557495117 0,9.163999557495117 C5.059999942779541,9.163999557495117 9.163999557495117,5.060999870300293 9.163999557495117,0z"></path></g><g opacity="1" transform="matrix(1,0,0,1,17.332000732421875,17.332000732421875)"><path stroke-linecap="butt" stroke-linejoin="miter" fill-opacity="0" stroke-miterlimit="10" stroke="rgb(248,235,56)" stroke-opacity="1" stroke-width="0.861" d=" M5.111000061035156,0 C5.111000061035156,-2.822999954223633 2.8239998817443848,-5.111000061035156 0.0010000000474974513,-5.111000061035156 C-2.822999954223633,-5.111000061035156 -5.111000061035156,-2.822999954223633 -5.111000061035156,0 C-5.111000061035156,2.822999954223633 -2.822999954223633,5.111000061035156 0.0010000000474974513,5.111000061035156 C2.8239998817443848,5.111000061035156 5.111000061035156,2.822999954223633 5.111000061035156,0z"></path></g></g><g opacity="1" transform="matrix(1,0,0,1,54.74700164794922,39.08300018310547)"><g opacity="1" transform="matrix(1,0,0,1,17.332000732421875,17.332000732421875)"><path fill="rgb(255,255,255)" fill-opacity="1" d=" M13.029999732971191,0 C13.029999732971191,-7.196000099182129 7.196000099182129,-13.029999732971191 0,-13.029999732971191 C-7.197000026702881,-13.029999732971191 -13.029999732971191,-7.196000099182129 -13.029999732971191,0 C-13.029999732971191,7.196000099182129 -7.197000026702881,13.029999732971191 0,13.029999732971191 C7.196000099182129,13.029999732971191 13.029999732971191,7.196000099182129 13.029999732971191,0z"></path><path stroke-linecap="butt" stroke-linejoin="miter" fill-opacity="0" stroke-miterlimit="10" stroke="rgb(248,235,56)" stroke-opacity="1" stroke-width="1.721" d=" M13.029999732971191,0 C13.029999732971191,-7.196000099182129 7.196000099182129,-13.029999732971191 0,-13.029999732971191 C-7.197000026702881,-13.029999732971191 -13.029999732971191,-7.196000099182129 -13.029999732971191,0 C-13.029999732971191,7.196000099182129 -7.197000026702881,13.029999732971191 0,13.029999732971191 C7.196000099182129,13.029999732971191 13.029999732971191,7.196000099182129 13.029999732971191,0z"></path></g><g opacity="1" transform="matrix(1,0,0,1,17.332000732421875,17.332000732421875)"><path stroke-linecap="butt" stroke-linejoin="miter" fill-opacity="0" stroke-miterlimit="10" stroke="rgb(248,235,56)" stroke-opacity="1" stroke-width="0.861" d=" M9.163999557495117,0 C9.163999557495117,-5.060999870300293 5.059999942779541,-9.163999557495117 0,-9.163999557495117 C-5.061999797821045,-9.163999557495117 -9.163999557495117,-5.060999870300293 -9.163999557495117,0 C-9.163999557495117,5.060999870300293 -5.061999797821045,9.163999557495117 0,9.163999557495117 C5.059999942779541,9.163999557495117 9.163999557495117,5.060999870300293 9.163999557495117,0z"></path></g><g opacity="1" transform="matrix(1,0,0,1,17.332000732421875,17.332000732421875)"><path stroke-linecap="butt" stroke-linejoin="miter" fill-opacity="0" stroke-miterlimit="10" stroke="rgb(248,235,56)" stroke-opacity="1" stroke-width="0.861" d=" M5.111000061035156,0 C5.111000061035156,-2.822999954223633 2.8239998817443848,-5.111000061035156 0.0010000000474974513,-5.111000061035156 C-2.822999954223633,-5.111000061035156 -5.111000061035156,-2.822999954223633 -5.111000061035156,0 C-5.111000061035156,2.822999954223633 -2.822999954223633,5.111000061035156 0.0010000000474974513,5.111000061035156 C2.8239998817443848,5.111000061035156 5.111000061035156,2.822999954223633 5.111000061035156,0z"></path></g></g><g opacity="1" transform="matrix(1,0,0,1,56.24700164794922,26.08300018310547)"><g opacity="1" transform="matrix(1,0,0,1,17.332000732421875,17.332000732421875)"><path fill="rgb(255,255,255)" fill-opacity="1" d=" M13.029999732971191,0 C13.029999732971191,-7.196000099182129 7.196000099182129,-13.029999732971191 0,-13.029999732971191 C-7.197000026702881,-13.029999732971191 -13.029999732971191,-7.196000099182129 -13.029999732971191,0 C-13.029999732971191,7.196000099182129 -7.197000026702881,13.029999732971191 0,13.029999732971191 C7.196000099182129,13.029999732971191 13.029999732971191,7.196000099182129 13.029999732971191,0z"></path><path stroke-linecap="butt" stroke-linejoin="miter" fill-opacity="0" stroke-miterlimit="10" stroke="rgb(248,235,56)" stroke-opacity="1" stroke-width="1.721" d=" M13.029999732971191,0 C13.029999732971191,-7.196000099182129 7.196000099182129,-13.029999732971191 0,-13.029999732971191 C-7.197000026702881,-13.029999732971191 -13.029999732971191,-7.196000099182129 -13.029999732971191,0 C-13.029999732971191,7.196000099182129 -7.197000026702881,13.029999732971191 0,13.029999732971191 C7.196000099182129,13.029999732971191 13.029999732971191,7.196000099182129 13.029999732971191,0z"></path></g><g opacity="1" transform="matrix(1,0,0,1,17.332000732421875,17.332000732421875)"><path stroke-linecap="butt" stroke-linejoin="miter" fill-opacity="0" stroke-miterlimit="10" stroke="rgb(248,235,56)" stroke-opacity="1" stroke-width="0.861" d=" M9.163999557495117,0 C9.163999557495117,-5.060999870300293 5.059999942779541,-9.163999557495117 0,-9.163999557495117 C-5.061999797821045,-9.163999557495117 -9.163999557495117,-5.060999870300293 -9.163999557495117,0 C-9.163999557495117,5.060999870300293 -5.061999797821045,9.163999557495117 0,9.163999557495117 C5.059999942779541,9.163999557495117 9.163999557495117,5.060999870300293 9.163999557495117,0z"></path></g><g opacity="1" transform="matrix(1,0,0,1,17.332000732421875,17.332000732421875)"><path stroke-linecap="butt" stroke-linejoin="miter" fill-opacity="0" stroke-miterlimit="10" stroke="rgb(248,235,56)" stroke-opacity="1" stroke-width="0.861" d=" M5.111000061035156,0 C5.111000061035156,-2.822999954223633 2.8239998817443848,-5.111000061035156 0.0010000000474974513,-5.111000061035156 C-2.822999954223633,-5.111000061035156 -5.111000061035156,-2.822999954223633 -5.111000061035156,0 C-5.111000061035156,2.822999954223633 -2.822999954223633,5.111000061035156 0.0010000000474974513,5.111000061035156 C2.8239998817443848,5.111000061035156 5.111000061035156,2.822999954223633 5.111000061035156,0z"></path></g></g><g opacity="1" transform="matrix(1,0,0,1,62.99700164794922,14.583000183105469)"><g opacity="1" transform="matrix(1,0,0,1,17.332000732421875,17.332000732421875)"><path fill="rgb(255,255,255)" fill-opacity="1" d=" M13.029999732971191,0 C13.029999732971191,-7.196000099182129 7.196000099182129,-13.029999732971191 0,-13.029999732971191 C-7.197000026702881,-13.029999732971191 -13.029999732971191,-7.196000099182129 -13.029999732971191,0 C-13.029999732971191,7.196000099182129 -7.197000026702881,13.029999732971191 0,13.029999732971191 C7.196000099182129,13.029999732971191 13.029999732971191,7.196000099182129 13.029999732971191,0z"></path><path stroke-linecap="butt" stroke-linejoin="miter" fill-opacity="0" stroke-miterlimit="10" stroke="rgb(248,235,56)" stroke-opacity="1" stroke-width="1.721" d=" M13.029999732971191,0 C13.029999732971191,-7.196000099182129 7.196000099182129,-13.029999732971191 0,-13.029999732971191 C-7.197000026702881,-13.029999732971191 -13.029999732971191,-7.196000099182129 -13.029999732971191,0 C-13.029999732971191,7.196000099182129 -7.197000026702881,13.029999732971191 0,13.029999732971191 C7.196000099182129,13.029999732971191 13.029999732971191,7.196000099182129 13.029999732971191,0z"></path></g><g opacity="1" transform="matrix(1,0,0,1,17.332000732421875,17.332000732421875)"><path stroke-linecap="butt" stroke-linejoin="miter" fill-opacity="0" stroke-miterlimit="10" stroke="rgb(248,235,56)" stroke-opacity="1" stroke-width="0.861" d=" M9.163999557495117,0 C9.163999557495117,-5.060999870300293 5.059999942779541,-9.163999557495117 0,-9.163999557495117 C-5.061999797821045,-9.163999557495117 -9.163999557495117,-5.060999870300293 -9.163999557495117,0 C-9.163999557495117,5.060999870300293 -5.061999797821045,9.163999557495117 0,9.163999557495117 C5.059999942779541,9.163999557495117 9.163999557495117,5.060999870300293 9.163999557495117,0z"></path></g><g opacity="1" transform="matrix(1,0,0,1,17.332000732421875,17.332000732421875)"><path stroke-linecap="butt" stroke-linejoin="miter" fill-opacity="0" stroke-miterlimit="10" stroke="rgb(248,235,56)" stroke-opacity="1" stroke-width="0.861" d=" M5.111000061035156,0 C5.111000061035156,-2.822999954223633 2.8239998817443848,-5.111000061035156 0.0010000000474974513,-5.111000061035156 C-2.822999954223633,-5.111000061035156 -5.111000061035156,-2.822999954223633 -5.111000061035156,0 C-5.111000061035156,2.822999954223633 -2.822999954223633,5.111000061035156 0.0010000000474974513,5.111000061035156 C2.8239998817443848,5.111000061035156 5.111000061035156,2.822999954223633 5.111000061035156,0z"></path></g></g></g><g style="display: block;" transform="matrix(0,0,0,0,48.81700134277344,74.02300262451172)" opacity="1"><g opacity="1" transform="matrix(1,0,0,1,14.53499984741211,14.53499984741211)"><path stroke-linecap="round" stroke-linejoin="round" fill-opacity="0" stroke="rgb(64,64,65)" stroke-opacity="1" stroke-width="1.83" d=" M0.0010000000474974513,-4.046999931335449 C2.2360000610351562,-4.046999931335449 4.046000003814697,-2.234999895095825 4.046000003814697,-0.0010000000474974513 C4.046000003814697,2.2339999675750732 2.2360000610351562,4.046999931335449 0.0010000000474974513,4.046999931335449 C-2.2339999675750732,4.046999931335449 -4.046000003814697,2.2339999675750732 -4.046000003814697,-0.0010000000474974513 C-4.046000003814697,-2.234999895095825 -2.2339999675750732,-4.046999931335449 0.0010000000474974513,-4.046999931335449z"></path></g></g><g style="display: none;" transform="matrix(0.0047007096000015736,0,0,0.0047007096000015736,59.98128128051758,67.7802734375)" opacity="1"><g opacity="1" transform="matrix(1,0,0,1,15.470000267028809,15.470000267028809)"><path stroke-linecap="round" stroke-linejoin="round" fill-opacity="0" stroke="rgb(64,64,65)" stroke-opacity="1" stroke-width="1.83" d=" M0,-4.980999946594238 C2.750999927520752,-4.980999946594238 4.980999946594238,-2.750999927520752 4.980999946594238,0 C4.980999946594238,2.750999927520752 2.750999927520752,4.980999946594238 0,4.980999946594238 C-2.750999927520752,4.980999946594238 -4.980999946594238,2.750999927520752 -4.980999946594238,0 C-4.980999946594238,-2.750999927520752 -2.750999927520752,-4.980999946594238 0,-4.980999946594238z"></path></g></g><g style="display: none;" transform="matrix(0.001980824861675501,0,0,0.001980824861675501,99.32139587402344,51.96539306640625)" opacity="1"><g opacity="1" transform="matrix(1,0,0,1,42.20800018310547,42.20800018310547)"><path fill="rgb(255,255,255)" fill-opacity="1" d=" M0.0010000000474974513,-28.229000091552734 C15.590999603271484,-28.229000091552734 28.229000091552734,-15.59000015258789 28.229000091552734,0.0010000000474974513 C28.229000091552734,15.59000015258789 15.590999603271484,28.229000091552734 0.0010000000474974513,28.229000091552734 C-15.59000015258789,28.229000091552734 -28.229000091552734,15.59000015258789 -28.229000091552734,0.0010000000474974513 C-28.229000091552734,-15.59000015258789 -15.59000015258789,-28.229000091552734 0.0010000000474974513,-28.229000091552734z"></path><path stroke-linecap="round" stroke-linejoin="round" fill-opacity="0" stroke="rgb(64,64,65)" stroke-opacity="1" stroke-width="2.439" d=" M0.0010000000474974513,-28.229000091552734 C15.590999603271484,-28.229000091552734 28.229000091552734,-15.59000015258789 28.229000091552734,0.0010000000474974513 C28.229000091552734,15.59000015258789 15.590999603271484,28.229000091552734 0.0010000000474974513,28.229000091552734 C-15.59000015258789,28.229000091552734 -28.229000091552734,15.59000015258789 -28.229000091552734,0.0010000000474974513 C-28.229000091552734,-15.59000015258789 -15.59000015258789,-28.229000091552734 0.0010000000474974513,-28.229000091552734z"></path></g><g opacity="1" transform="matrix(1,0,0,1,42.83100128173828,43.07400131225586)"><path fill="rgb(251,219,65)" fill-opacity="1" d=" M6.436999797821045,-10.97700023651123 C7.489999771118164,-9.505000114440918 8.109000205993652,-7.703000068664551 8.109000205993652,-5.755000114440918 C8.109000205993652,0.30799999833106995 4.328000068664551,-0.7490000128746033 3.8570001125335693,4.158999919891357 C3.252000093460083,10.46500015258789 0.20900000631809235,12.906999588012695 -2.2860000133514404,11.487000465393066 C-3.0490000247955322,10.208999633789062 -3.627000093460083,8.378999710083008 -3.8570001125335693,5.998000144958496 C-4.330999851226807,1.0779999494552612 -8.109000205993652,2.138000011444092 -8.109000205993652,-3.9240000247955322 C-8.109000205993652,-8.885000228881836 -4.0879998207092285,-12.906999588012695 0.8740000128746033,-12.906999588012695 C2.9739999771118164,-12.906999588012695 4.9070000648498535,-12.1850004196167 6.436999797821045,-10.97700023651123z"></path></g><g opacity="1" transform="matrix(1,0,0,1,41.95800018310547,42.930999755859375)"><path stroke-linecap="round" stroke-linejoin="round" fill-opacity="0" stroke="rgb(64,64,65)" stroke-opacity="1" stroke-width="1.83" d=" M0,-14.595999717712402 C4.960000038146973,-14.595999717712402 8.982000350952148,-10.574000358581543 8.982000350952148,-5.61299991607666 C8.982000350952148,0.44999998807907104 5.201000213623047,-0.6069999933242798 4.730000019073486,4.301000118255615 C3.74399995803833,14.593000411987305 -3.740999937057495,14.595999717712402 -4.730000019073486,4.309000015258789 C-5.203999996185303,-0.6110000014305115 -8.982000350952148,0.4480000138282776 -8.982000350952148,-5.61299991607666 C-8.982000350952148,-10.574000358581543 -4.960999965667725,-14.595999717712402 0,-14.595999717712402z"></path></g><g opacity="1" transform="matrix(1,0,0,1,0,0)"><path stroke-linecap="round" stroke-linejoin="round" fill-opacity="0" stroke="rgb(64,64,65)" stroke-opacity="1" stroke-width="1.83" d=" M35.1619987487793,48.20800018310547 C35.1619987487793,48.20800018310547 48.75400161743164,48.20800018310547 48.75400161743164,48.20800018310547"></path></g><g opacity="1" transform="matrix(1,0,0,1,0,0)"><path stroke-linecap="round" stroke-linejoin="round" fill-opacity="0" stroke="rgb(64,64,65)" stroke-opacity="1" stroke-width="1.83" d=" M35.9900016784668,51 C35.9900016784668,51 47.92499923706055,51 47.92499923706055,51"></path></g><g opacity="1" transform="matrix(1,0,0,1,41.922000885009766,42.334999084472656)"><path stroke-linecap="round" stroke-linejoin="round" fill-opacity="0" stroke="rgb(64,64,65)" stroke-opacity="1" stroke-width="1.83" d=" M0.035999998450279236,5.873000144958496 C0.035999998450279236,5.873000144958496 0.035999998450279236,-2.696000099182129 0.035999998450279236,-2.696000099182129 C0.035999998450279236,-2.696000099182129 3.2139999866485596,-5.873000144958496 3.2139999866485596,-5.873000144958496 C3.2139999866485596,-5.873000144958496 -3.2139999866485596,-5.873000144958496 -3.2139999866485596,-5.873000144958496 C-3.2139999866485596,-5.873000144958496 0.035999998450279236,-2.696000099182129 0.035999998450279236,-2.696000099182129"></path></g></g><g style="display: none;" transform="matrix(0.001980824861675501,0,0,0.001980824861675501,99.35248565673828,51.99648666381836)" opacity="1"><g opacity="1" transform="matrix(1,0,0,1,26.510000228881836,26.510000228881836)"><path stroke-linecap="round" stroke-linejoin="round" fill-opacity="0" stroke="rgb(64,64,65)" stroke-opacity="1" stroke-width="0.683" d=" M0,-22.594999313354492 C0,-22.594999313354492 0.0010000000474974513,-22.594999313354492 0.0010000000474974513,-22.594999313354492 C12.479000091552734,-22.594999313354492 22.594999313354492,-12.479000091552734 22.594999313354492,0 C22.594999313354492,8.02400016784668 18.41200065612793,15.071999549865723 12.107999801635742,19.079999923706055"></path></g></g><g style="display: none;" transform="matrix(0.008119143545627594,0,0,0.008119143545627594,74.77408599853516,64.06008911132812)" opacity="1"><g opacity="1" transform="matrix(1,0,0,1,27.825000762939453,27.825000762939453)"><path stroke-linecap="round" stroke-linejoin="round" fill-opacity="0" stroke="rgb(255,255,255)" stroke-opacity="1" stroke-width="3.659" d=" M0,-6.853000164031982 C3.7850000858306885,-6.853000164031982 6.853000164031982,-3.7850000858306885 6.853000164031982,0 C6.853000164031982,3.7850000858306885 3.7850000858306885,6.853000164031982 0,6.853000164031982 C-3.7850000858306885,6.853000164031982 -6.853000164031982,3.7850000858306885 -6.853000164031982,0 C-6.853000164031982,-3.7850000858306885 -3.7850000858306885,-6.853000164031982 0,-6.853000164031982z"></path><path stroke-linecap="round" stroke-linejoin="round" fill-opacity="0" stroke="rgb(64,64,65)" stroke-opacity="1" stroke-width="1.83" d=" M0,-6.853000164031982 C3.7850000858306885,-6.853000164031982 6.853000164031982,-3.7850000858306885 6.853000164031982,0 C6.853000164031982,3.7850000858306885 3.7850000858306885,6.853000164031982 0,6.853000164031982 C-3.7850000858306885,6.853000164031982 -6.853000164031982,3.7850000858306885 -6.853000164031982,0 C-6.853000164031982,-3.7850000858306885 -3.7850000858306885,-6.853000164031982 0,-6.853000164031982z"></path></g></g><g transform="matrix(1,0,0,1,40.020999908447266,140.02099609375)" opacity="1" style="display: block;"><g opacity="1" transform="matrix(1,0,0,1,14.479000091552734,29.979000091552734)"><path stroke-linecap="round" stroke-linejoin="miter" fill-opacity="0" stroke-miterlimit="22.93" stroke="rgb(64,64,65)" stroke-opacity="1" stroke-width="2.439" d=" M0.5,-16 C-0.5,-10 -6.5,-2.5 0.25,10.25"></path></g></g><g transform="matrix(1,0,0,1,28.0049991607666,161.031005859375)" opacity="1" style="display: block;"><g opacity="1" transform="matrix(1,0,0,1,20.367000579833984,17.566999435424805)"><path stroke-linecap="round" stroke-linejoin="round" fill-opacity="0" stroke="rgb(64,64,65)" stroke-opacity="1" stroke-width="2.439" d=" M-2.799999952316284,-3.5880000591278076 C-0.3630000054836273,-3.5880000591278076 3.7260000705718994,0.013000000268220901 6.388000011444092,1.4780000448226929 C6.388000011444092,1.4780000448226929 -2.497999906539917,3.5880000591278076 -2.497999906539917,3.5880000591278076 C-2.497999906539917,3.5880000591278076 -2.494999885559082,3.575000047683716 -2.494999885559082,3.575000047683716 C-2.5950000286102295,3.5840001106262207 -2.697000026702881,3.5880000591278076 -2.799999952316284,3.5880000591278076 C-4.781000137329102,3.5880000591278076 -6.388000011444092,1.9819999933242798 -6.388000011444092,0.0010000000474974513 C-6.388000011444092,-1.9819999933242798 -5.236000061035156,-3.5880000591278076 -2.799999952316284,-3.5880000591278076z"></path></g></g><g transform="matrix(1,0,0,1,55.020999908447266,140.02099609375)" opacity="1" style="display: block;"><g opacity="1" transform="matrix(1,0,0,1,14.479000091552734,29.979000091552734)"><path stroke-linecap="round" stroke-linejoin="miter" fill-opacity="0" stroke-miterlimit="22.93" stroke="rgb(64,64,65)" stroke-opacity="1" stroke-width="2.439" d=" M-0.5,-16 C0.5,-9 5.5,-0.5 0,10.25"></path></g></g><g transform="matrix(1,0,0,1,55.27299880981445,161.531005859375)" opacity="1" style="display: block;"><g opacity="1" transform="matrix(1,0,0,1,20.367000579833984,17.566999435424805)"><path stroke-linecap="round" stroke-linejoin="round" fill-opacity="0" stroke="rgb(64,64,65)" stroke-opacity="1" stroke-width="2.439" d=" M2.799999952316284,-3.5880000591278076 C0.36399999260902405,-3.5880000591278076 -3.7249999046325684,0.013000000268220901 -6.388000011444092,1.4780000448226929 C-6.388000011444092,1.4780000448226929 2.499000072479248,3.5880000591278076 2.499000072479248,3.5880000591278076 C2.499000072479248,3.5880000591278076 2.496000051498413,3.575000047683716 2.496000051498413,3.575000047683716 C2.5959999561309814,3.5840001106262207 2.697000026702881,3.5880000591278076 2.799999952316284,3.5880000591278076 C4.7820000648498535,3.5880000591278076 6.388000011444092,1.9819999933242798 6.388000011444092,0.0010000000474974513 C6.388000011444092,-1.9819999933242798 5.236999988555908,-3.5880000591278076 2.799999952316284,-3.5880000591278076z"></path></g></g><g transform="matrix(1,0,0,1,-0.07199859619140625,51.51499938964844)" opacity="1" style="display: block;"><g opacity="1" transform="matrix(1,0,0,1,62.07899856567383,72.94400024414062)"><path fill="rgb(255,255,255)" fill-opacity="1" d=" M0,-41.540000915527344 C0,-41.540000915527344 0,-41.540000915527344 0,-41.540000915527344 C15.982000350952148,-41.540000915527344 29.05900001525879,-28.426000595092773 29.05900001525879,-12.395999908447266 C29.05900001525879,-12.395999908447266 29.05900001525879,24.023000717163086 29.05900001525879,24.023000717163086 C29.05900001525879,24.023000717163086 29.05900001525879,28.937999725341797 29.05900001525879,28.937999725341797 C29.05900001525879,28.937999725341797 29.05900001525879,34.255001068115234 29.05900001525879,34.255001068115234 C29.05900001525879,38.26300048828125 25.788999557495117,41.54100036621094 21.792999267578125,41.54100036621094 C17.79800033569336,41.54100036621094 14.529000282287598,38.26300048828125 14.529000282287598,34.255001068115234 C14.529000282287598,38.26300048828125 11.260000228881836,41.54100036621094 7.264999866485596,41.54100036621094 C3.2690000534057617,41.54100036621094 0,38.26300048828125 0,34.255001068115234 C0,38.26300048828125 -3.2690000534057617,41.54100036621094 -7.264999866485596,41.54100036621094 C-11.26099967956543,41.54100036621094 -14.529000282287598,38.26300048828125 -14.529000282287598,34.255001068115234 C-14.529000282287598,38.26300048828125 -17.79800033569336,41.54100036621094 -21.79400062561035,41.54100036621094 C-25.790000915527344,41.54100036621094 -29.05900001525879,38.26300048828125 -29.05900001525879,34.255001068115234 C-29.05900001525879,34.255001068115234 -29.05900001525879,28.937999725341797 -29.05900001525879,28.937999725341797 C-29.05900001525879,28.937999725341797 -29.05900001525879,24.023000717163086 -29.05900001525879,24.023000717163086 C-29.05900001525879,24.023000717163086 -29.05900001525879,-12.395999908447266 -29.05900001525879,-12.395999908447266 C-29.05900001525879,-28.426000595092773 -15.982000350952148,-41.540000915527344 0,-41.540000915527344z"></path></g><g opacity="1" transform="matrix(1,0,0,1,64.18699645996094,74.01899719238281)"><path fill="rgb(251,219,65)" fill-opacity="1" d=" M26.950000762939453,-13.557000160217285 C26.950000762939453,-13.557000160217285 26.950000762939453,32.96200180053711 26.950000762939453,32.96200180053711 C26.950000762939453,36.957000732421875 23.68000030517578,40.22600173950195 19.68400001525879,40.22600173950195 C14.218000411987305,40.22600173950195 12.420000076293945,35.46699905395508 12.420000076293945,32.96200180053711 C12.420000076293945,36.957000732421875 9.152000427246094,40.22600173950195 5.156000137329102,40.22600173950195 C0.10700000077486038,40.22600173950195 -2.1089999675750732,35.46699905395508 -2.1089999675750732,32.96200180053711 C-2.1089999675750732,36.957000732421875 -5.377999782562256,40.22600173950195 -9.373000144958496,40.22600173950195 C-14.07800006866455,40.22600173950195 -16.63800048828125,35.46699905395508 -16.63800048828125,32.96200180053711 C-16.63800048828125,36.957000732421875 -19.906999588012695,40.22600173950195 -23.902999877929688,40.22600173950195 C-24.329999923706055,40.22600173950195 -26.950000762939453,37.16999816894531 -26.950000762939453,35.35100173950195 C-26.950000762939453,35.35100173950195 -26.950000762939453,-11.166999816894531 -26.950000762939453,-11.166999816894531 C-26.950000762939453,-27.14900016784668 -18.448999404907227,-40.22600173950195 2.1080000400543213,-40.22600173950195 C22.663999557495117,-40.22600173950195 26.950000762939453,-21.02400016784668 26.950000762939453,-13.557000160217285z"></path></g><g opacity="1" transform="matrix(1,0,0,1,90.7699966430664,39.650001525878906)"><path stroke-linecap="round" stroke-linejoin="round" fill-opacity="0" stroke="rgb(255,255,255)" stroke-opacity="1" stroke-width="3.659" d=" M0.5429999828338623,-18.67799949645996 C10.451000213623047,-2.5769999027252197 12.208000183105469,3.7760000228881836 -0.3009999990463257,18.67799949645996 C-8.13599967956543,15.255000114440918 -10.67199993133545,8.95300006866455 -12.208000183105469,2.7170000076293945 C-1.0709999799728394,-3.3459999561309814 -0.09300000220537186,-6.099999904632568 0.5429999828338623,-18.67799949645996z"></path></g><g opacity="1" transform="matrix(1,0,0,1,33.17900085449219,39.650001525878906)"><path fill="rgb(255,255,255)" fill-opacity="1" d=" M-0.5419999957084656,-18.67799949645996 C-10.451000213623047,-2.5769999027252197 -12.208000183105469,3.7760000228881836 0.3009999990463257,18.67799949645996 C8.135000228881836,15.255000114440918 10.67199993133545,8.95300006866455 12.208000183105469,2.7170000076293945 C1.0709999799728394,-3.3459999561309814 0.09399999678134918,-6.099999904632568 -0.5419999957084656,-18.67799949645996z"></path><path stroke-linecap="round" stroke-linejoin="round" fill-opacity="0" stroke="rgb(255,255,255)" stroke-opacity="1" stroke-width="3.659" d=" M-0.5419999957084656,-18.67799949645996 C-10.451000213623047,-2.5769999027252197 -12.208000183105469,3.7760000228881836 0.3009999990463257,18.67799949645996 C8.135000228881836,15.255000114440918 10.67199993133545,8.95300006866455 12.208000183105469,2.7170000076293945 C1.0709999799728394,-3.3459999561309814 0.09399999678134918,-6.099999904632568 -0.5419999957084656,-18.67799949645996z"></path></g><g opacity="1" transform="matrix(1,0,0,1,62.07899856567383,72.8239974975586)"><path stroke-linecap="round" stroke-linejoin="round" fill-opacity="0" stroke="rgb(64,64,65)" stroke-opacity="1" stroke-width="2.439" d=" M0,34.15599822998047 C0,37.57500076293945 3.2690000534057617,41.42100143432617 7.264999866485596,41.42100143432617 C11.260000228881836,41.42100143432617 14.529000282287598,38.1510009765625 14.529000282287598,34.15599822998047 C14.529000282287598,38.1510009765625 17.79800033569336,41.42100143432617 21.792999267578125,41.42100143432617 C25.788999557495117,41.42100143432617 29.05900001525879,38.1510009765625 29.05900001525879,34.15599822998047 C29.05900001525879,34.15599822998047 29.05900001525879,28.854000091552734 29.05900001525879,28.854000091552734 C29.05900001525879,28.854000091552734 29.05900001525879,23.95199966430664 29.05900001525879,23.95199966430664 C29.05900001525879,23.95199966430664 29.05900001525879,-12.36299991607666 29.05900001525879,-12.36299991607666 C29.05900001525879,-28.344999313354492 15.982000350952148,-41.42100143432617 0,-41.42100143432617 C-15.982000350952148,-41.42100143432617 -29.05900001525879,-28.344999313354492 -29.05900001525879,-12.36299991607666 C-29.05900001525879,-12.36299991607666 -29.05900001525879,23.95199966430664 -29.05900001525879,23.95199966430664 C-29.05900001525879,23.95199966430664 -29.05900001525879,28.854000091552734 -29.05900001525879,28.854000091552734 C-29.05900001525879,28.854000091552734 -29.05900001525879,34.15599822998047 -29.05900001525879,34.15599822998047 C-29.05900001525879,38.1510009765625 -25.790000915527344,41.42100143432617 -21.79400062561035,41.42100143432617 C-17.79800033569336,41.42100143432617 -14.529000282287598,38.1510009765625 -14.529000282287598,34.15599822998047 C-14.529000282287598,38.1510009765625 -11.26099967956543,41.42100143432617 -7.264999866485596,41.42100143432617 C-3.2690000534057617,41.42100143432617 0,37.57500076293945 0,34.15599822998047z"></path></g><g opacity="1" transform="matrix(1,0,0,1,90.7699966430664,39.650001525878906)"><path fill="rgb(255,255,255)" fill-opacity="1" d=" M0.5429999828338623,-18.67799949645996 C10.451000213623047,-2.5769999027252197 12.208000183105469,3.7760000228881836 -0.3009999990463257,18.67799949645996 C-8.13599967956543,15.255000114440918 -10.67199993133545,8.95300006866455 -12.208000183105469,2.7170000076293945 C-1.0709999799728394,-3.3459999561309814 -0.09300000220537186,-6.099999904632568 0.5429999828338623,-18.67799949645996z"></path></g><g opacity="1" transform="matrix(1,0,0,1,62.07899856567383,38.7239990234375)"><path fill="rgb(255,255,255)" fill-opacity="1" d=" M0,-7.320000171661377 C0,-7.320000171661377 0,-7.320000171661377 0,-7.320000171661377 C3.802999973297119,-7.320000171661377 7.440000057220459,-6.578000068664551 10.777000427246094,-5.235000133514404 C10.777000427246094,-5.235000133514404 10.777000427246094,3.7269999980926514 10.777000427246094,3.7269999980926514 C10.777000427246094,5.703000068664551 9.15999984741211,7.320000171661377 7.184999942779541,7.320000171661377 C5.208000183105469,7.320000171661377 3.5920000076293945,5.703000068664551 3.5920000076293945,3.7269999980926514 C3.5920000076293945,5.703000068664551 1.9759999513626099,7.320000171661377 0,7.320000171661377 C-1.9759999513626099,7.320000171661377 -3.5929999351501465,5.703000068664551 -3.5929999351501465,3.7269999980926514 C-3.5929999351501465,5.703000068664551 -5.208000183105469,7.320000171661377 -7.184999942779541,7.320000171661377 C-9.16100025177002,7.320000171661377 -10.777000427246094,5.703000068664551 -10.777000427246094,3.7269999980926514 C-10.777000427246094,3.7269999980926514 -10.777000427246094,1.1059999465942383 -10.777000427246094,1.1059999465942383 C-10.777000427246094,1.1059999465942383 -10.777000427246094,-1.3179999589920044 -10.777000427246094,-1.3179999589920044 C-10.777000427246094,-1.3179999589920044 -10.777000427246094,-5.235000133514404 -10.777000427246094,-5.235000133514404 C-7.440000057220459,-6.578000068664551 -3.802999973297119,-7.320000171661377 0,-7.320000171661377z"></path></g><g opacity="1" transform="matrix(1,0,0,1,62.07899856567383,38.7239990234375)"><path stroke-linecap="round" stroke-linejoin="round" fill-opacity="0" stroke="rgb(64,64,65)" stroke-opacity="1" stroke-width="1.83" d=" M0,-7.320000171661377 C0,-7.320000171661377 0,-7.320000171661377 0,-7.320000171661377 C3.802999973297119,-7.320000171661377 7.440000057220459,-6.578000068664551 10.777000427246094,-5.235000133514404 C10.777000427246094,-5.235000133514404 10.777000427246094,3.7269999980926514 10.777000427246094,3.7269999980926514 C10.777000427246094,5.703000068664551 9.15999984741211,7.320000171661377 7.184999942779541,7.320000171661377 C5.208000183105469,7.320000171661377 3.5920000076293945,5.703000068664551 3.5920000076293945,3.7269999980926514 C3.5920000076293945,5.703000068664551 1.9759999513626099,7.320000171661377 0,7.320000171661377 C-1.9759999513626099,7.320000171661377 -3.5920000076293945,5.703000068664551 -3.5929999351501465,3.7269999980926514 C-3.5920000076293945,5.59499979019165 -5.208000183105469,7.320000171661377 -7.184999942779541,7.320000171661377 C-9.16100025177002,7.320000171661377 -10.777000427246094,5.703000068664551 -10.777000427246094,3.7269999980926514 C-10.777000427246094,3.7269999980926514 -10.777000427246094,1.1059999465942383 -10.777000427246094,1.1059999465942383 C-10.777000427246094,1.1059999465942383 -10.777000427246094,-1.3179999589920044 -10.777000427246094,-1.3179999589920044 C-10.777000427246094,-1.3179999589920044 -10.777000427246094,-5.517000198364258 -10.777000427246094,-5.517000198364258 C-7.440000057220459,-6.860000133514404 -3.802999973297119,-7.320000171661377 0,-7.320000171661377z"></path></g><g opacity="1" transform="matrix(1,0,0,1,90.7699966430664,39.650001525878906)"><path stroke-linecap="round" stroke-linejoin="round" fill-opacity="0" stroke="rgb(64,64,65)" stroke-opacity="1" stroke-width="1.83" d=" M0.5429999828338623,-18.67799949645996 C10.451000213623047,-2.5769999027252197 12.208000183105469,3.7760000228881836 -0.3009999990463257,18.67799949645996 C-8.13599967956543,15.255000114440918 -10.67199993133545,8.95300006866455 -12.208000183105469,2.7170000076293945 C-1.0709999799728394,-3.3459999561309814 -0.09300000220537186,-6.099999904632568 0.5429999828338623,-18.67799949645996z"></path></g><g opacity="1" transform="matrix(1,0,0,1,33.17900085449219,39.650001525878906)"><path fill="rgb(255,255,255)" fill-opacity="1" d=" M-0.5419999957084656,-18.67799949645996 C-10.451000213623047,-2.5769999027252197 -12.208000183105469,3.7760000228881836 0.3009999990463257,18.67799949645996 C8.135000228881836,15.255000114440918 10.67199993133545,8.95300006866455 12.208000183105469,2.7170000076293945 C1.0709999799728394,-3.3459999561309814 0.09399999678134918,-6.099999904632568 -0.5419999957084656,-18.67799949645996z"></path><path stroke-linecap="round" stroke-linejoin="round" fill-opacity="0" stroke="rgb(64,64,65)" stroke-opacity="1" stroke-width="1.83" d=" M-0.5419999957084656,-18.67799949645996 C-10.451000213623047,-2.5769999027252197 -12.208000183105469,3.7760000228881836 0.3009999990463257,18.67799949645996 C8.135000228881836,15.255000114440918 10.67199993133545,8.95300006866455 12.208000183105469,2.7170000076293945 C1.0709999799728394,-3.3459999561309814 0.09399999678134918,-6.099999904632568 -0.5419999957084656,-18.67799949645996z"></path></g><g opacity="1" transform="matrix(1,0,0,1,31.98200035095215,50.28200149536133)"><path stroke-linecap="round" stroke-linejoin="round" fill-opacity="0" stroke="rgb(64,64,65)" stroke-opacity="1" stroke-width="0.854" d=" M-2.809000015258789,2.825000047683716 C0.13600000739097595,1.774999976158142 1.6469999551773071,-0.49799999594688416 2.809000015258789,-2.825000047683716"></path></g><g opacity="1" transform="matrix(1,0,0,1,47.51900100708008,102.61699676513672)"><path stroke-linecap="round" stroke-linejoin="round" fill-opacity="0" stroke="rgb(64,64,65)" stroke-opacity="1" stroke-width="2.439" d=" M0.03099999949336052,4.36299991607666 C0.03099999949336052,4.36299991607666 -0.03099999949336052,-4.36299991607666 -0.03099999949336052,-4.36299991607666"></path></g><g opacity="1" transform="matrix(1,0,0,1,58.45600128173828,39.95800018310547)"><path stroke-linecap="round" stroke-linejoin="round" fill-opacity="0" stroke="rgb(64,64,65)" stroke-opacity="1" stroke-width="1.83" d=" M0.03099999949336052,2.493000030517578 C0.03099999949336052,2.493000030517578 -0.03099999949336052,-2.493000030517578 -0.03099999949336052,-2.493000030517578"></path></g><g opacity="1" transform="matrix(1,0,0,1,65.64099884033203,40.698001861572266)"><path stroke-linecap="round" stroke-linejoin="round" fill-opacity="0" stroke="rgb(64,64,65)" stroke-opacity="1" stroke-width="1.83" d=" M0.03099999949336052,1.753000020980835 C0.03099999949336052,1.753000020980835 -0.03099999949336052,-1.753000020980835 -0.03099999949336052,-1.753000020980835"></path></g><g opacity="1" transform="matrix(1,0,0,1,40.26599884033203,106.00599670410156)"><path stroke-linecap="round" stroke-linejoin="round" fill-opacity="0" stroke="rgb(255,255,255)" stroke-opacity="1" stroke-width="0.854" d=" M-3.86299991607666,0.5289999842643738 C-3.86299991607666,2.6540000438690186 -2.125,4.39300012588501 0,4.39300012588501 C2.124000072479248,4.39300012588501 3.86299991607666,2.6540000438690186 3.86299991607666,0.5289999842643738 C3.86299991607666,0.5289999842643738 3.86299991607666,-4.39300012588501 3.86299991607666,-4.39300012588501"></path></g><g opacity="1" transform="matrix(1,0,0,1,0,0)"><path stroke-linecap="round" stroke-linejoin="round" fill-opacity="0" stroke="rgb(255,255,255)" stroke-opacity="1" stroke-width="0.854" d=" M44.12900161743164,96.7959976196289 C44.12900161743164,96.7959976196289 44.12900161743164,99.11499786376953 44.12900161743164,99.11499786376953"></path></g><g opacity="1" transform="matrix(1,0,0,1,83.9990005493164,106.18499755859375)"><path stroke-linecap="round" stroke-linejoin="round" fill-opacity="0" stroke="rgb(255,255,255)" stroke-opacity="1" stroke-width="0.854" d=" M-3.864000082015991,0.5299999713897705 C-3.864000082015991,2.6540000438690186 -2.125999927520752,4.392000198364258 -0.0010000000474974513,4.392000198364258 C2.122999906539917,4.392000198364258 3.86299991607666,2.6540000438690186 3.86299991607666,0.5299999713897705 C3.86299991607666,0.5299999713897705 3.86299991607666,-4.392000198364258 3.86299991607666,-4.392000198364258"></path></g><g opacity="1" transform="matrix(1,0,0,1,0,0)"><path stroke-linecap="round" stroke-linejoin="round" fill-opacity="0" stroke="rgb(255,255,255)" stroke-opacity="1" stroke-width="0.854" d=" M80.13600158691406,101.73999786376953 C80.13600158691406,101.73999786376953 80.13600158691406,104.05899810791016 80.13600158691406,104.05899810791016"></path></g><g opacity="1" transform="matrix(1,0,0,1,54.8380012512207,108.92500305175781)"><path stroke-linecap="round" stroke-linejoin="round" fill-opacity="0" stroke="rgb(255,255,255)" stroke-opacity="1" stroke-width="0.854" d=" M-3.86299991607666,-1.930999994277954 C-3.86299991607666,0.19300000369548798 -2.125,1.930999994277954 0,1.930999994277954 C2.124000072479248,1.930999994277954 3.86299991607666,0.19300000369548798 3.86299991607666,-1.930999994277954"></path></g><g opacity="1" transform="matrix(1,0,0,1,89.87699890136719,52.231998443603516)"><path stroke-linecap="round" stroke-linejoin="round" fill-opacity="0" stroke="rgb(64,64,65)" stroke-opacity="1" stroke-width="0.854" d=" M3.0260000228881836,2.8959999084472656 C-0.20499999821186066,1.9220000505447388 -1.8070000410079956,-0.4569999873638153 -3.0250000953674316,-2.8959999084472656"></path></g><g opacity="1" transform="matrix(1,0,0,1,92.12100219726562,50.41299819946289)"><path stroke-linecap="round" stroke-linejoin="round" fill-opacity="0" stroke="rgb(64,64,65)" stroke-opacity="1" stroke-width="0.854" d=" M2.809000015258789,2.8239998817443848 C-0.13500000536441803,1.774999976158142 -1.6469999551773071,-0.4970000088214874 -2.809000015258789,-2.8239998817443848"></path></g><g opacity="1" transform="matrix(1,0,0,1,93.74199676513672,48.22700119018555)"><path stroke-linecap="round" stroke-linejoin="round" fill-opacity="0" stroke="rgb(64,64,65)" stroke-opacity="1" stroke-width="0.854" d=" M2.134999990463257,2.5169999599456787 C0.04899999871850014,1.3300000429153442 -1.1649999618530273,-0.574999988079071 -2.134999990463257,-2.5169999599456787"></path></g><g opacity="1" transform="matrix(1,0,0,1,95.29199981689453,45.77799987792969)"><path stroke-linecap="round" stroke-linejoin="round" fill-opacity="0" stroke="rgb(64,64,65)" stroke-opacity="1" stroke-width="0.854" d=" M1.5640000104904175,2.125 C0.14800000190734863,0.9660000205039978 -0.7870000004768372,-0.5669999718666077 -1.5640000104904175,-2.125"></path></g><g opacity="1" transform="matrix(1,0,0,1,34.150001525878906,52.12300109863281)"><path stroke-linecap="round" stroke-linejoin="round" fill-opacity="0" stroke="rgb(64,64,65)" stroke-opacity="1" stroke-width="0.854" d=" M-3.1010000705718994,2.9179999828338623 C0.2329999953508377,1.9739999771118164 1.8639999628067017,-0.4410000145435333 3.1010000705718994,-2.9179999828338623"></path></g><g opacity="1" transform="matrix(1,0,0,1,28.809999465942383,45.64699935913086)"><path stroke-linecap="round" stroke-linejoin="round" fill-opacity="0" stroke="rgb(64,64,65)" stroke-opacity="1" stroke-width="0.854" d=" M-1.5640000104904175,2.125 C-0.14800000190734863,0.9660000205039978 0.7860000133514404,-0.5669999718666077 1.5640000104904175,-2.125"></path></g></g><g transform="matrix(1,0,0,1,42.154998779296875,109.71099853515625)" opacity="1" style="display: block;"><g opacity="1" transform="matrix(1,0,0,1,18.746000289916992,13.96500015258789)"><path stroke-linecap="round" stroke-linejoin="round" fill-opacity="0" stroke="rgb(64,64,65)" stroke-opacity="1" stroke-width="1.83" d=" M8.258000373840332,-3.4760000705718994 C8.258000373840332,-3.4760000705718994 -8.258000373840332,-3.4760000705718994 -8.258000373840332,-3.4760000705718994 C-4.058000087738037,2.6489999294281006 4.910999774932861,3.4760000705718994 8.258000373840332,-3.4760000705718994z"></path></g><g opacity="1" transform="matrix(1,0,0,1,16.783000946044922,13.791000366210938)"><path fill="rgb(255,255,255)" fill-opacity="1" d=" M2.2820000648498535,0.6430000066757202 C2.2820000648498535,2.1059999465942383 1.25600004196167,3.302999973297119 0.0010000000474974513,3.302999973297119 C-1.253999948501587,3.302999973297119 -2.2820000648498535,2.1059999465942383 -2.2820000648498535,0.6430000066757202 C-2.2820000648498535,0.6430000066757202 -2.2820000648498535,-1.2960000038146973 -2.2820000648498535,-1.2960000038146973 C-2.2820000648498535,-1.2960000038146973 -2.2820000648498535,-3.0889999866485596 -2.2820000648498535,-3.0889999866485596 C-2.2820000648498535,-3.0889999866485596 -2.2820000648498535,-3.302999973297119 -2.2820000648498535,-3.302999973297119 C-2.2820000648498535,-3.302999973297119 2.2820000648498535,-3.302999973297119 2.2820000648498535,-3.302999973297119 C2.2820000648498535,-3.302999973297119 2.2820000648498535,0.6430000066757202 2.2820000648498535,0.6430000066757202z"></path><path stroke-linecap="round" stroke-linejoin="round" fill-opacity="0" stroke="rgb(64,64,65)" stroke-opacity="1" stroke-width="1.83" d=" M2.2820000648498535,0.6430000066757202 C2.2820000648498535,2.1059999465942383 1.25600004196167,3.302999973297119 0.0010000000474974513,3.302999973297119 C-1.253999948501587,3.302999973297119 -2.2820000648498535,2.1059999465942383 -2.2820000648498535,0.6430000066757202 C-2.2820000648498535,0.6430000066757202 -2.2820000648498535,-1.2960000038146973 -2.2820000648498535,-1.2960000038146973 C-2.2820000648498535,-1.2960000038146973 -2.2820000648498535,-3.0889999866485596 -2.2820000648498535,-3.0889999866485596 C-2.2820000648498535,-3.0889999866485596 -2.2820000648498535,-3.302999973297119 -2.2820000648498535,-3.302999973297119 C-2.2820000648498535,-3.302999973297119 2.2820000648498535,-3.302999973297119 2.2820000648498535,-3.302999973297119 C2.2820000648498535,-3.302999973297119 2.2820000648498535,0.6430000066757202 2.2820000648498535,0.6430000066757202z"></path></g><g opacity="1" transform="matrix(1,0,0,1,21.34600067138672,13.791000366210938)"><path fill="rgb(255,255,255)" fill-opacity="1" d=" M2.2820000648498535,0.6430000066757202 C2.2820000648498535,2.1059999465942383 1.2549999952316284,3.302999973297119 -0.0010000000474974513,3.302999973297119 C-1.2549999952316284,3.302999973297119 -2.2820000648498535,2.1059999465942383 -2.2820000648498535,0.6430000066757202 C-2.2820000648498535,0.6430000066757202 -2.2820000648498535,-1.2960000038146973 -2.2820000648498535,-1.2960000038146973 C-2.2820000648498535,-1.2960000038146973 -2.2820000648498535,-3.0889999866485596 -2.2820000648498535,-3.0889999866485596 C-2.2820000648498535,-3.0889999866485596 -2.2820000648498535,-3.302999973297119 -2.2820000648498535,-3.302999973297119 C-2.2820000648498535,-3.302999973297119 2.2820000648498535,-3.302999973297119 2.2820000648498535,-3.302999973297119 C2.2820000648498535,-3.302999973297119 2.2820000648498535,0.6430000066757202 2.2820000648498535,0.6430000066757202z"></path><path stroke-linecap="round" stroke-linejoin="round" fill-opacity="0" stroke="rgb(64,64,65)" stroke-opacity="1" stroke-width="1.83" d=" M2.2820000648498535,0.6430000066757202 C2.2820000648498535,2.1059999465942383 1.2549999952316284,3.302999973297119 -0.0010000000474974513,3.302999973297119 C-1.2549999952316284,3.302999973297119 -2.2820000648498535,2.1059999465942383 -2.2820000648498535,0.6430000066757202 C-2.2820000648498535,0.6430000066757202 -2.2820000648498535,-1.2960000038146973 -2.2820000648498535,-1.2960000038146973 C-2.2820000648498535,-1.2960000038146973 -2.2820000648498535,-3.0889999866485596 -2.2820000648498535,-3.0889999866485596 C-2.2820000648498535,-3.0889999866485596 -2.2820000648498535,-3.302999973297119 -2.2820000648498535,-3.302999973297119 C-2.2820000648498535,-3.302999973297119 2.2820000648498535,-3.302999973297119 2.2820000648498535,-3.302999973297119 C2.2820000648498535,-3.302999973297119 2.2820000648498535,0.6430000066757202 2.2820000648498535,0.6430000066757202z"></path></g></g><g transform="matrix(1,0,0,1,35.040000915527344,91.55599975585938)" opacity="1" style="display: block;"><g opacity="1" transform="matrix(1,0,0,1,17.552000045776367,17.552000045776367)"><path fill="rgb(255,255,255)" fill-opacity="1" d=" M0,-7.064000129699707 C3.9010000228881836,-7.064000129699707 7.063000202178955,-3.9019999504089355 7.063000202178955,-0.0010000000474974513 C7.063000202178955,3.9010000228881836 3.9010000228881836,7.064000129699707 0,7.064000129699707 C-3.9010000228881836,7.064000129699707 -7.063000202178955,3.9010000228881836 -7.063000202178955,-0.0010000000474974513 C-7.063000202178955,-3.9019999504089355 -3.9010000228881836,-7.064000129699707 0,-7.064000129699707z"></path><path stroke-linecap="round" stroke-linejoin="round" fill-opacity="0" stroke="rgb(64,64,65)" stroke-opacity="1" stroke-width="1.83" d=" M0,-7.064000129699707 C3.9010000228881836,-7.064000129699707 7.063000202178955,-3.9019999504089355 7.063000202178955,-0.0010000000474974513 C7.063000202178955,3.9010000228881836 3.9010000228881836,7.064000129699707 0,7.064000129699707 C-3.9010000228881836,7.064000129699707 -7.063000202178955,3.9010000228881836 -7.063000202178955,-0.0010000000474974513 C-7.063000202178955,-3.9019999504089355 -3.9010000228881836,-7.064000129699707 0,-7.064000129699707z"></path></g><g opacity="1" transform="matrix(1,0,0,1,36.17100143432617,17.552000045776367)"><path fill="rgb(255,255,255)" fill-opacity="1" d=" M0,-7.064000129699707 C3.9010000228881836,-7.064000129699707 7.063000202178955,-3.9019999504089355 7.063000202178955,-0.0010000000474974513 C7.063000202178955,3.9010000228881836 3.9010000228881836,7.064000129699707 0,7.064000129699707 C-3.9010000228881836,7.064000129699707 -7.063000202178955,3.9010000228881836 -7.063000202178955,-0.0010000000474974513 C-7.063000202178955,-3.9019999504089355 -3.9010000228881836,-7.064000129699707 0,-7.064000129699707z"></path><path stroke-linecap="round" stroke-linejoin="round" fill-opacity="0" stroke="rgb(64,64,65)" stroke-opacity="1" stroke-width="1.83" d=" M0,-7.064000129699707 C3.9010000228881836,-7.064000129699707 7.063000202178955,-3.9019999504089355 7.063000202178955,-0.0010000000474974513 C7.063000202178955,3.9010000228881836 3.9010000228881836,7.064000129699707 0,7.064000129699707 C-3.9010000228881836,7.064000129699707 -7.063000202178955,3.9010000228881836 -7.063000202178955,-0.0010000000474974513 C-7.063000202178955,-3.9019999504089355 -3.9010000228881836,-7.064000129699707 0,-7.064000129699707z"></path></g></g><g transform="matrix(1,0,0,1,53.60100555419922,109.65899658203125)" opacity="1" style="display: block;"><g opacity="1" transform="matrix(1,0,0,1,2.0239999294281006,2.0239999294281006)"><path fill="rgb(64,64,65)" fill-opacity="1" d=" M0,-1.7740000486373901 C0.9789999723434448,-1.7740000486373901 1.7740000486373901,-0.9800000190734863 1.7740000486373901,-0.0010000000474974513 C1.7740000486373901,0.9800000190734863 0.9789999723434448,1.7740000486373901 0,1.7740000486373901 C-0.9800000190734863,1.7740000486373901 -1.7740000486373901,0.9800000190734863 -1.7740000486373901,-0.0010000000474974513 C-1.7740000486373901,-0.9800000190734863 -0.9800000190734863,-1.7740000486373901 0,-1.7740000486373901z"></path></g><g opacity="1" transform="matrix(1,0,0,1,20.64299964904785,2.0239999294281006)"><path fill="rgb(64,64,65)" fill-opacity="1" d=" M0,-1.7740000486373901 C0.9800000190734863,-1.7740000486373901 1.7740000486373901,-0.9800000190734863 1.7740000486373901,-0.0010000000474974513 C1.7740000486373901,0.9800000190734863 0.9800000190734863,1.7740000486373901 0,1.7740000486373901 C-0.9789999723434448,1.7740000486373901 -1.7740000486373901,0.9800000190734863 -1.7740000486373901,-0.0010000000474974513 C-1.7740000486373901,-0.9800000190734863 -0.9789999723434448,-1.7740000486373901 0,-1.7740000486373901z"></path></g></g><g style="display: block;" transform="matrix(0.9945219159126282,0.10452846437692642,-0.10452846437692642,0.9945219159126282,71.78307342529297,99.10530090332031)" opacity="1"><g opacity="1" transform="matrix(1,0,0,1,14.677000045776367,28.7450008392334)"><path fill="rgb(255,255,255)" fill-opacity="1" d=" M-3.9820001125335693,-18.256999969482422 C-3.9820001125335693,-18.256999969482422 4.189000129699707,-18.20199966430664 4.189000129699707,-18.20199966430664 C4.189000129699707,-18.20199966430664 3.9820001125335693,12.829000473022461 3.9820001125335693,12.829000473022461 C3.9820001125335693,12.829000473022461 -0.14000000059604645,18.256999969482422 -0.14000000059604645,18.256999969482422 C-0.14000000059604645,18.256999969482422 -0.14100000262260437,18.256999969482422 -0.14100000262260437,18.256999969482422 C-0.14100000262260437,18.256999969482422 -4.189000129699707,12.774999618530273 -4.189000129699707,12.774999618530273 C-4.189000129699707,12.774999618530273 -3.9820001125335693,-18.256999969482422 -3.9820001125335693,-18.256999969482422z"></path><path stroke-linecap="round" stroke-linejoin="round" fill-opacity="0" stroke="rgb(64,64,65)" stroke-opacity="1" stroke-width="1.83" d=" M-3.9820001125335693,-18.256999969482422 C-3.9820001125335693,-18.256999969482422 4.189000129699707,-18.20199966430664 4.189000129699707,-18.20199966430664 C4.189000129699707,-18.20199966430664 3.9820001125335693,12.829000473022461 3.9820001125335693,12.829000473022461 C3.9820001125335693,12.829000473022461 -0.14000000059604645,18.256999969482422 -0.14000000059604645,18.256999969482422 C-0.14000000059604645,18.256999969482422 -0.14100000262260437,18.256999969482422 -0.14100000262260437,18.256999969482422 C-0.14100000262260437,18.256999969482422 -4.189000129699707,12.774999618530273 -4.189000129699707,12.774999618530273 C-4.189000129699707,12.774999618530273 -3.9820001125335693,-18.256999969482422 -3.9820001125335693,-18.256999969482422z"></path></g><g opacity="1" transform="matrix(1,0,0,1,14.765000343322754,12.880999565124512)"><path stroke-linecap="round" stroke-linejoin="round" fill-opacity="0" stroke="rgb(64,64,65)" stroke-opacity="1" stroke-width="0.854" d=" M-4.070000171661377,-2.3919999599456787 C-4.070000171661377,-2.3919999599456787 4.10099983215332,-2.3369998931884766 4.10099983215332,-2.3369998931884766 C4.10099983215332,-2.3369998931884766 4.070000171661377,2.3919999599456787 4.070000171661377,2.3919999599456787 C4.070000171661377,2.3919999599456787 -4.10099983215332,2.3369998931884766 -4.10099983215332,2.3369998931884766 C-4.10099983215332,2.3369998931884766 -4.070000171661377,-2.3919999599456787 -4.070000171661377,-2.3919999599456787z"></path></g><g opacity="1" transform="matrix(1,0,0,1,14.572999954223633,41.547000885009766)"><path stroke-linecap="round" stroke-linejoin="round" fill-opacity="0" stroke="rgb(64,64,65)" stroke-opacity="1" stroke-width="0.854" d=" M-4.085000038146973,-0.027000000700354576 C-4.085000038146973,-0.027000000700354576 4.085000038146973,0.027000000700354576 4.085000038146973,0.027000000700354576"></path></g><g opacity="1" transform="matrix(1,0,0,1,13.357999801635742,28.38800048828125)"><path stroke-linecap="round" stroke-linejoin="round" fill-opacity="0" stroke="rgb(64,64,65)" stroke-opacity="1" stroke-width="0.854" d=" M0.08799999952316284,-13.151000022888184 C0.08799999952316284,-13.151000022888184 -0.08799999952316284,13.151000022888184 -0.08799999952316284,13.151000022888184"></path></g><g opacity="1" transform="matrix(1,0,0,1,15.881999969482422,28.40399932861328)"><path stroke-linecap="round" stroke-linejoin="round" fill-opacity="0" stroke="rgb(64,64,65)" stroke-opacity="1" stroke-width="0.854" d=" M0.08799999952316284,-13.151000022888184 C0.08799999952316284,-13.151000022888184 -0.08799999952316284,13.151000022888184 -0.08799999952316284,13.151000022888184"></path></g></g><g style="display: block;" transform="matrix(1,0,0,1,58.10400390625,118.27099609375)" opacity="1"><g opacity="1" transform="matrix(1,0,0,1,17.729000091552734,17.729000091552734)"><path stroke-linecap="round" stroke-linejoin="round" fill-opacity="0" stroke="rgb(255,255,255)" stroke-opacity="1" stroke-width="2.439" d=" M0,-3.75 C2.071000099182129,-3.75 3.75,-2.071000099182129 3.75,0 C3.75,2.071000099182129 2.071000099182129,3.75 0,3.75 C-2.071000099182129,3.75 -3.75,2.071000099182129 -3.75,0 C-3.75,-2.071000099182129 -2.071000099182129,-3.75 0,-3.75z"></path></g></g><g transform="matrix(1,0,0,1,70.02799987792969,90.02799987792969)" opacity="1" style="display: block;"><g opacity="1" transform="matrix(1,0,0,1,45.47200012207031,23.472000122070312)"><path stroke-linecap="round" stroke-linejoin="round" fill-opacity="0" stroke="rgb(255,255,255)" stroke-opacity="1" stroke-width="3.659" d=" M-24.5,0.5 C-5,22.5 -13.25,36.75 -40,22.5"></path></g></g><g transform="matrix(1,0,0,1,77.02100372314453,97.02099609375)" opacity="1" style="display: block;"><g opacity="1" transform="matrix(1,0,0,1,38.479000091552734,16.479000091552734)"><path stroke-linecap="round" stroke-linejoin="round" fill-opacity="0" stroke="rgb(64,64,65)" stroke-opacity="1" stroke-width="2.439" d=" M-24.5,0.5 C-5,22.5 -13.25,36.75 -40,22.5"></path></g></g><g style="display: block;" transform="matrix(1,0,0,1,58.73200225830078,118.89899444580078)" opacity="1"><g opacity="1" transform="matrix(1,0,0,1,17.10099983215332,17.10099983215332)"><path fill="rgb(255,255,255)" fill-opacity="1" d=" M0,-3.121999979019165 C1.725000023841858,-3.121999979019165 3.121999979019165,-1.725000023841858 3.121999979019165,0 C3.121999979019165,1.7239999771118164 1.725000023841858,3.121999979019165 0,3.121999979019165 C-1.7239999771118164,3.121999979019165 -3.121999979019165,1.7239999771118164 -3.121999979019165,0 C-3.121999979019165,-1.725000023841858 -1.7239999771118164,-3.121999979019165 0,-3.121999979019165z"></path><path stroke-linecap="round" stroke-linejoin="round" fill-opacity="0" stroke="rgb(64,64,65)" stroke-opacity="1" stroke-width="2.439" d=" M0,-3.121999979019165 C1.725000023841858,-3.121999979019165 3.121999979019165,-1.725000023841858 3.121999979019165,0 C3.121999979019165,1.7239999771118164 1.725000023841858,3.121999979019165 0,3.121999979019165 C-1.7239999771118164,3.121999979019165 -3.121999979019165,1.7239999771118164 -3.121999979019165,0 C-3.121999979019165,-1.725000023841858 -1.7239999771118164,-3.121999979019165 0,-3.121999979019165z"></path></g></g><g style="display: block;" transform="matrix(1,0,0,1,36.772003173828125,126.02099609375)" opacity="1"><g opacity="1" transform="matrix(1,0,0,1,17.729000091552734,17.729000091552734)"><path stroke-linecap="round" stroke-linejoin="round" fill-opacity="0" stroke="rgb(255,255,255)" stroke-opacity="1" stroke-width="2.439" d=" M0,-3.75 C-2.071000099182129,-3.75 -3.75,-2.071000099182129 -3.75,0 C-3.75,2.071000099182129 -2.071000099182129,3.75 0,3.75 C2.071000099182129,3.75 3.75,2.071000099182129 3.75,0 C3.75,-2.071000099182129 2.071000099182129,-3.75 0,-3.75z"></path></g></g><g transform="matrix(1,0,0,1,-13.887998580932617,95.02799987792969)" opacity="1" style="display: block;"><g opacity="1" transform="matrix(1,0,0,1,45.47200012207031,23.472000122070312)"><path stroke-linecap="round" stroke-linejoin="round" fill-opacity="0" stroke="rgb(255,255,255)" stroke-opacity="1" stroke-width="3.659" d=" M4.25,11 C-7.583000183105469,3.25 3.4170000553131104,34.75 23.25,25.25"></path></g></g><g transform="matrix(1,0,0,1,-6.894998550415039,102.02099609375)" opacity="1" style="display: block;"><g opacity="1" transform="matrix(1,0,0,1,38.479000091552734,16.479000091552734)"><path stroke-linecap="round" stroke-linejoin="round" fill-opacity="0" stroke="rgb(64,64,65)" stroke-opacity="1" stroke-width="2.439" d=" M4.25,11 C-7.583000183105469,3.25 3.4170000553131104,34.75 23.25,25.25"></path></g></g><g style="display: block;" transform="matrix(1,0,0,1,37.400001525878906,126.64899444580078)" opacity="1"><g opacity="1" transform="matrix(1,0,0,1,17.10099983215332,17.10099983215332)"><path fill="rgb(255,255,255)" fill-opacity="1" d=" M0,-3.121999979019165 C-1.7239999771118164,-3.121999979019165 -3.121999979019165,-1.725000023841858 -3.121999979019165,0 C-3.121999979019165,1.7239999771118164 -1.7239999771118164,3.121999979019165 0,3.121999979019165 C1.725000023841858,3.121999979019165 3.121999979019165,1.7239999771118164 3.121999979019165,0 C3.121999979019165,-1.725000023841858 1.725000023841858,-3.121999979019165 0,-3.121999979019165z"></path><path stroke-linecap="round" stroke-linejoin="round" fill-opacity="0" stroke="rgb(64,64,65)" stroke-opacity="1" stroke-width="2.439" d=" M0,-3.121999979019165 C-1.7239999771118164,-3.121999979019165 -3.121999979019165,-1.725000023841858 -3.121999979019165,0 C-3.121999979019165,1.7239999771118164 -1.7239999771118164,3.121999979019165 0,3.121999979019165 C1.725000023841858,3.121999979019165 3.121999979019165,1.7239999771118164 3.121999979019165,0 C3.121999979019165,-1.725000023841858 1.725000023841858,-3.121999979019165 0,-3.121999979019165z"></path></g></g></g></svg>