<?xml version="1.0" encoding="utf-8"?>
<!-- Generator: Adobe Illustrator 24.2.0, SVG Export Plug-In . SVG Version: 6.00 Build 0)  -->
<svg version="1.1" id="Layer_1" xmlns="http://www.w3.org/2000/svg" xmlns:xlink="http://www.w3.org/1999/xlink" x="0px" y="0px"
	 viewBox="0 0 373.1 316.9" style="enable-background:new 0 0 373.1 316.9;" xml:space="preserve">
<style type="text/css">
	.st0{fill:#D2D3D4;}
	.st1{fill:#FFFFFF;}
	.st2{fill:#F8D70A;}
	.st3{fill:#231F20;}
</style>
<rect x="184.7" y="121.8" class="st0" width="18.4" height="18.4"/>
<rect x="208.6" y="121.8" class="st0" width="18.4" height="18.4"/>
<rect x="232.5" y="121.8" class="st0" width="18.4" height="18.4"/>
<rect x="256.4" y="121.8" class="st0" width="18.4" height="18.4"/>
<rect x="280.3" y="121.8" class="st0" width="18.4" height="18.4"/>
<rect x="304.2" y="121.8" class="st0" width="18.4" height="18.4"/>
<rect x="184.7" y="148.2" class="st0" width="18.4" height="18.4"/>
<rect x="208.6" y="148.2" class="st0" width="18.4" height="18.4"/>
<rect x="232.5" y="148.2" class="st0" width="18.4" height="18.4"/>
<rect x="256.4" y="148.2" class="st0" width="18.4" height="18.4"/>
<rect x="280.3" y="148.2" class="st0" width="18.4" height="18.4"/>
<rect x="304.2" y="148.2" class="st0" width="18.4" height="18.4"/>
<rect x="184.7" y="174.5" class="st0" width="18.4" height="18.4"/>
<rect x="208.6" y="174.5" class="st0" width="18.4" height="18.4"/>
<rect x="232.5" y="174.5" class="st0" width="18.4" height="18.4"/>
<rect x="256.4" y="174.5" class="st0" width="18.4" height="18.4"/>
<rect x="280.3" y="174.5" class="st0" width="18.4" height="18.4"/>
<rect x="304.2" y="174.5" class="st0" width="18.4" height="18.4"/>
<rect x="184.7" y="200.9" class="st0" width="18.4" height="18.4"/>
<rect x="208.6" y="200.9" class="st0" width="18.4" height="18.4"/>
<rect x="232.5" y="200.9" class="st0" width="18.4" height="18.4"/>
<rect x="256.4" y="200.9" class="st0" width="18.4" height="18.4"/>
<rect x="280.3" y="200.9" class="st0" width="18.4" height="18.4"/>
<rect x="304.2" y="200.9" class="st0" width="18.4" height="18.4"/>
<rect x="73.8" y="234.5" class="st1" width="23.3" height="44"/>
<rect x="1.5" y="226.3" class="st2" width="70.4" height="58"/>
<rect x="301.3" y="233.7" class="st2" width="70.4" height="58"/>
<path class="st3" d="M139.7,295.8c-10.4-6.2-20.6-18.6-22.9-21.4H97v-27.6h3v24.6h18.4l0.4,0.6c0.1,0.1,11.4,14.6,22.5,21.3
	L139.7,295.8z"/>
<path class="st3" d="M200.3,313.7c-1.2,0-2.4-0.1-3.5-0.4l0.8-2.9c0.3,0.1,8,2,10.8-4.8l-11.7-12l2.1-2.1l12.9,13.3l-0.3,0.9
	C209.5,312,204.4,313.7,200.3,313.7z"/>
<path class="st3" d="M213.5,307.1c-1.3,0-2.5-0.2-3.7-0.5l0.8-2.9l-0.4,1.4l0.4-1.4c1.2,0.3,4.7,0.8,6.6-0.6l1.7,2.4
	C217.3,306.6,215.4,307.2,213.5,307.1z"/>
<path class="st3" d="M222.3,300.7c-0.3,0-0.6,0-0.9,0l-0.6,0l-11.3-12.8l2.2-2l10.5,11.8c1.8,0,6.8-0.5,7.4-5.2
	c0.5-4.3-14.6-17-25.5-24.6l1.7-2.4c4.6,3.2,27.6,19.8,26.7,27.4C231.9,299.1,226,300.7,222.3,300.7z"/>
<rect x="270.7" y="245.9" class="st3" width="3" height="15.7"/>
<rect x="270.7" y="263.4" class="st3" width="3" height="5.6"/>
<path class="st3" d="M231,295.6l-0.4-2.9c9.4-1.3,13.2-4.2,14.7-6.4c0.9-1.1,1.3-2.5,1.1-3.9l-0.4-1.8h24.7v-8.8h3v11.8h-24.3
	c-0.2,1.6-0.7,3.1-1.6,4.4C245,291.9,239.4,294.5,231,295.6z"/>
<path class="st3" d="M248.9,250.3c-4.7,0-9.3-0.4-12-1.6c-2.4-1.2-4.6-2.6-6.7-4.2c-4.3-3.1-8.4-6.1-14.6-5.8
	c-7,0.4-14,1.3-20.9,2.6l-0.6-2.9c7-1.4,14.1-2.3,21.3-2.7c7.2-0.3,12.1,3.3,16.5,6.4c1.9,1.5,4,2.8,6.2,3.9
	c5.3,2.5,21.4,1,27.2,0.2l0.4,2.9C260.1,249.9,254.5,250.3,248.9,250.3z"/>
<path class="st3" d="M176.5,278.6c-0.5,0-1,0-1.4-0.1c-1.8-0.4-3.4-1.4-4.4-3c-1-1.7-0.7-4.6-0.1-9.3c0.2-1.8,0.4-3.5,0.5-4.7
	c0-0.9,0-2.2,0-3.5c-0.1-5.7-0.1-10.1,0.9-12.2c0.6-1.3,1.6-2.2,2.9-2.8c-17.8-3-45.1,1.3-45.4,1.4h-0.2h-0.2
	c-7-0.9-30.3-2.4-30.5-2.4l0.2-3c1,0.1,23.2,1.5,30.5,2.4c3.2-0.5,35.9-5.4,52.8,0.3l5,1.7l-9.8,2.2h-0.2c-1,0-1.9,0.6-2.3,1.5
	c-0.8,1.6-0.7,7.4-0.6,10.9c0,1.4,0.1,2.6,0,3.6c-0.1,1.7-0.2,3.3-0.5,5c-0.3,2.4-0.8,6.4-0.3,7.3c0.6,0.8,1.5,1.4,2.5,1.6
	c1.3,0.2,2.7-0.1,3.8-0.9c3-2.1,5-9.3,4.6-11.7c-0.3-2-2.3-4.7-3-5.6l-3.4-4.2l5,1.8c0.5,0.2,11.5,4.2,15.1,6l-1.3,2.7
	c-2.1-1-7-3-10.6-4.3c0.5,1,0.9,2,1.1,3.1c0.5,3.1-1.6,11.7-5.8,14.6C179.8,278.1,178.2,278.6,176.5,278.6z"/>
<path class="st3" d="M130.3,295.1c-2.3-0.1-4.6-0.7-6.7-1.9c-3.2-1.7-3.2-5.1-2.2-7.8c0.7-1.9,3.8-3.6,4.7-4l1.3,2.7
	c-1.5,0.7-3,1.9-3.2,2.4c-0.4,0.9-1,3.2,0.9,4.1c2.6,1.4,5.8,2.6,10.6,0l1.4,2.6C135,294.4,132.7,295,130.3,295.1z"/>
<path class="st3" d="M148,307.2c-0.8,0-1.5-0.1-2.2-0.3c-3.5-1.1-6-2.4-7.1-5.5c-0.9-2.4-3.1-10.8-3-15.4c0-0.7,0-1.4,0-2.1
	c0-3.8,0-8.2,3.6-9c6.5-1.4,9,1.4,9.9,3.9c1.4,3.6,1.9,11.2,2.2,15.3l0.1,1c0.1,1.7,0.7,3.3,1.8,4.6l-2.1,2.1
	c-1.6-1.8-2.5-4.1-2.6-6.5l-0.1-1c-0.3-3.6-0.8-11.3-2-14.4c-0.3-0.8-1.2-3.1-6.5-2c-1.3,0.3-1.2,3.3-1.2,6c0,0.7,0,1.5,0,2.2
	c-0.1,3.9,1.9,11.9,2.8,14.2c0.6,1.5,1.6,2.6,5.2,3.7c1.6,0.5,3.4,0.1,4.6-1.1l2.1,2.1C151.9,306.4,150,307.2,148,307.2z"/>
<path class="st3" d="M161.6,312c-3.4,0-8.8-0.5-9.5-4.1c-0.1-0.6-0.3-1.3-0.5-2c-1.9-6.7-2.4-13.7-1.4-20.5c0.7-6.3,3.5-7.8,5.7-8
	c4.3-0.4,8.8,4.2,9.5,6.8c0.7,3,1.1,6.2,1.2,9.3l-3,0.1c-0.1-2.9-0.5-5.7-1.1-8.5c-0.5-1.6-4-4.9-6.4-4.7c-2,0.2-2.8,3-3,5.4
	c-0.9,6.5-0.4,13.1,1.4,19.4c0.2,0.9,0.4,1.6,0.5,2.2c0.2,1.1,4.2,1.9,8.3,1.6l0.2,3C163,311.9,162.4,312,161.6,312z"/>
<path class="st3" d="M187.5,317c-2.8,0-8.5-2.2-12.1-3.7c-0.8,0.8-2.6,1.9-6.1,1.3c-4.8-0.8-7.8-2.7-7.9-5.1c0-0.3-0.1-1-0.2-1.8
	c-0.8-6.6-1-10.8,0.4-12.5s3.8-4.8,7.5-2.6s4.2,10.1,4.3,11c0.1,2,0.5,4.6,0.7,5.9c4.3,2,11.2,4.7,13.5,4.6h1.6c2.5,0,4.3-0.1,6-1.9
	l-13.4-11.8l2-2.2l15.4,13.5l-0.7,1.1c-2.8,4.2-6.1,4.3-9.2,4.3h-1.5L187.5,317z M166.7,294.8c-0.7,0-1.4,0.6-2.7,2.2
	c-0.6,0.8-0.5,4.3,0.2,10.3c0.1,0.9,0.2,1.6,0.2,2s1.4,1.7,5.4,2.3c0.7,0.1,1.4,0.1,2.1,0l-0.5-0.2l-0.1-0.8c0-0.2-0.6-4.1-0.8-6.9
	c-0.2-3.5-1.4-7.8-2.8-8.7C167.4,294.9,167,294.8,166.7,294.8L166.7,294.8z"/>
<path class="st3" d="M224.7,282l-0.3-3l0.1,1.5l-0.1-1.5c0.1,0,10.4-1.1,12-8.5l2.9,0.6C237.2,280.7,225.2,281.9,224.7,282z"/>
<polygon class="st3" points="75.3,252.2 72.3,252.2 72.3,233 97.1,233 97.1,236 75.3,236 "/>
<polygon class="st3" points="97.1,280 72.3,280 72.3,257.2 75.3,257.2 75.3,277 97.1,277 "/>
<rect x="275.1" y="240.7" class="st1" width="23.3" height="44"/>
<polygon class="st3" points="299.9,286.2 275.1,286.2 275.1,283.2 296.9,283.2 296.9,267 299.9,267 "/>
<polygon class="st3" points="299.9,262 296.9,262 296.9,242.2 275.1,242.2 275.1,239.2 299.9,239.2 "/>
<polygon class="st3" points="73.3,285.7 34.9,285.7 34.9,282.7 70.4,282.7 70.4,226.3 73.3,226.3 "/>
<rect x="14.2" y="282.7" class="st3" width="13" height="3"/>
<polygon class="st3" points="3,284.2 0,284.2 0,224.8 49.8,224.8 49.8,227.7 3,227.7 "/>
<polygon class="st3" points="373.1,244.6 370.1,244.6 370.1,235.2 301.3,235.2 301.3,232.2 373.1,232.2 "/>
<rect x="370.1" y="250" class="st3" width="3" height="19"/>
<polygon class="st3" points="371.6,293.1 299.8,293.1 299.8,240.7 302.8,240.7 302.8,290.2 371.6,290.2 "/>
<path class="st3" d="M18.9,278.2c-3.3,0-5.9-2.7-5.9-5.9s2.7-5.9,5.9-5.9c3.3,0,5.9,2.6,5.9,5.9C24.9,275.5,22.2,278.2,18.9,278.2
	C18.9,278.2,18.9,278.2,18.9,278.2z M18.9,269.3c-1.7,0-3,1.3-3,3s1.3,3,3,3s3-1.3,3-3C21.9,270.7,20.6,269.3,18.9,269.3
	C18.9,269.3,18.9,269.3,18.9,269.3L18.9,269.3z"/>
<path class="st3" d="M33.1,278.2c-3.3,0-5.9-2.7-5.9-5.9s2.7-5.9,5.9-5.9c3.3,0,5.9,2.6,5.9,5.9C39,275.5,36.4,278.2,33.1,278.2z
	 M33.1,269.3c-1.7,0-3,1.3-3,3s1.3,3,3,3s3-1.3,3-3C36.1,270.7,34.8,269.3,33.1,269.3C33.1,269.3,33.1,269.3,33.1,269.3L33.1,269.3z
	"/>
<path class="st3" d="M47.2,278.2c-3.3,0-5.9-2.7-5.9-5.9c0-3.3,2.7-5.9,5.9-5.9c3.3,0,5.9,2.7,5.9,5.9
	C53.1,275.6,50.5,278.2,47.2,278.2z M47.2,269.3c-1.7,0-3,1.3-3,3s1.3,3,3,3s3-1.3,3-3C50.2,270.7,48.9,269.3,47.2,269.3
	C47.2,269.3,47.2,269.3,47.2,269.3L47.2,269.3z"/>
<path class="st3" d="M322.3,286.4c-3.3,0-5.9-2.7-5.9-5.9s2.7-5.9,5.9-5.9s5.9,2.7,5.9,5.9C328.2,283.8,325.6,286.4,322.3,286.4z
	 M322.3,277.5c-1.7,0-3,1.3-3,3s1.3,3,3,3s3-1.3,3-3S324,277.5,322.3,277.5z"/>
<path class="st3" d="M336.5,286.4c-3.3,0-5.9-2.7-5.9-5.9s2.7-5.9,5.9-5.9s5.9,2.7,5.9,5.9C342.4,283.8,339.8,286.4,336.5,286.4z
	 M336.5,277.5c-1.7,0-3,1.3-3,3s1.3,3,3,3s3-1.3,3-3S338.2,277.5,336.5,277.5z"/>
<path class="st3" d="M350.6,286.4c-3.3,0-5.9-2.6-6-5.9c0-3.3,2.6-5.9,5.9-5.9c3.3,0,5.9,2.6,6,5.9c0,0,0,0,0,0
	C356.5,283.8,353.9,286.4,350.6,286.4z M350.6,277.5c-1.7,0-3,1.3-3,3s1.3,3,3,3s3-1.3,3-3S352.3,277.5,350.6,277.5z"/>
<rect x="12.2" y="289.5" class="st3" width="65.7" height="3.1"/>
<rect x="282.2" y="225" class="st3" width="72.6" height="3.2"/>
<path class="st1" d="M162.3,155.2H92.7c-3,0-5.4,2.4-5.4,5.4v32.8c0,3,2.4,5.4,5.4,5.4l0,0h30.6c2.9,4.4,9,13.7,18.2,12.7
	c0.6-0.1-8.2-5.7-3.1-12.7h23.9c3,0,5.4-2.4,5.4-5.4v-32.8C167.7,157.7,165.3,155.2,162.3,155.2z"/>
<rect x="97.8" y="170.9" class="st2" width="59.4" height="2.6"/>
<rect x="97.8" y="176.5" class="st2" width="59.4" height="2.6"/>
<rect x="97.8" y="182.2" class="st2" width="59.4" height="2.6"/>
<rect x="97.8" y="187.8" class="st2" width="59.4" height="2.6"/>
<rect x="97.8" y="165.2" class="st2" width="59.4" height="2.6"/>
<rect x="97.8" y="153.8" class="st3" width="48.7" height="2.8"/>
<path class="st3" d="M169.1,177.8h-2.8v-17.8c0-3.2-4.9-3.4-5-3.4h-8.9v-2.8h8.9c2.7,0.1,7.8,1.6,7.8,6.3V177.8z"/>
<rect x="166.3" y="180.9" class="st3" width="2.8" height="8.8"/>
<path class="st3" d="M139.5,213.3c-3.3,0-9.3-2-16.9-13.1l-31.1-0.1c-1.9-0.3-5.4-1.8-5.5-5.8c-0.1-3.8-0.1-24.7-0.1-25.6h2.8
	c0,0.2,0,21.8,0.1,25.5c0,2.3,2.4,2.9,3,3l32.3,0.1l0.4,0.6c6.5,9.6,11.4,12,14.1,12.4c-5.7-7-1.2-12.5-1.1-12.5l0.4-0.5h0.7
	c0.2,0,20.3,0,24.5,0c1.7,0.1,3.1-1.2,3.2-2.9l2.8,0.2c-0.2,3.1-2.9,5.5-6,5.5c-3.8,0-20.1,0-23.8,0c-0.8,1.3-2.2,5.2,3.3,10.2
	l1.4,1.3l-1.7,1C141.4,213.2,140.5,213.4,139.5,213.3z"/>
<rect x="79.1" y="139.8" class="st3" width="69" height="3"/>
<rect x="156.1" y="139.8" class="st3" width="9.1" height="3"/>
<path class="st3" d="M98.3,132.5c-3.1,0-5.6-2.5-5.6-5.6s2.5-5.6,5.6-5.6c3.1,0,5.6,2.5,5.6,5.6C103.8,130,101.3,132.5,98.3,132.5z
	 M98.3,122.9c-2.3,0-4.1,1.8-4.1,4.1s1.8,4.1,4.1,4.1c2.2,0,4.1-1.8,4.1-4.1C102.4,124.7,100.5,122.9,98.3,122.9
	C98.3,122.9,98.3,122.9,98.3,122.9z"/>
<path class="st3" d="M113.6,132.5c-3.1,0-5.6-2.5-5.6-5.6c0-3.1,2.5-5.6,5.6-5.6s5.6,2.5,5.6,5.6c0,0,0,0,0,0
	C119.2,130,116.7,132.5,113.6,132.5z M113.6,122.9c-2.3,0-4.1,1.8-4.1,4.1s1.8,4.1,4.1,4.1c2.3,0,4.1-1.8,4.1-4.1
	S115.9,122.9,113.6,122.9L113.6,122.9z"/>
<path class="st3" d="M129,132.5c-3.1,0-5.6-2.5-5.6-5.6s2.5-5.6,5.6-5.6c3.1,0,5.6,2.5,5.6,5.6C134.5,130,132,132.5,129,132.5
	L129,132.5z M129,122.9c-2.3,0-4.1,1.8-4.1,4.1s1.8,4.1,4.1,4.1c2.2,0,4.1-1.8,4.1-4.1C133.1,124.7,131.2,122.9,129,122.9
	C129,122.9,129,122.9,129,122.9z"/>
<rect x="251.8" y="308.1" class="st3" width="4.7" height="4.7"/>
<rect x="260.2" y="308.1" class="st3" width="4.7" height="4.7"/>
<rect x="268.6" y="308.1" class="st3" width="4.7" height="4.7"/>
<rect x="276.9" y="308.1" class="st3" width="4.7" height="4.7"/>
<rect x="285.3" y="308.1" class="st3" width="4.7" height="4.7"/>
<rect x="293.7" y="308.1" class="st3" width="4.7" height="4.7"/>
<rect x="245.3" y="315.5" class="st3" width="4.7" height="4.7"/>
<rect x="253.7" y="315.5" class="st3" width="4.7" height="4.7"/>
<rect x="262" y="315.5" class="st3" width="4.7" height="4.7"/>
<rect x="270.4" y="315.5" class="st3" width="4.7" height="4.7"/>
<rect x="278.8" y="315.5" class="st3" width="4.7" height="4.7"/>
<rect x="287.1" y="315.5" class="st3" width="4.7" height="4.7"/>
<path d="M279.8,2.2c0,0,0-0.1,0-0.1l0.4-0.5c0.7-1-0.7-2-1.6-1.3c-0.2,0-0.4,0-0.6,0.1c-6.3,3.4-10.5,13.2-14.9,18.3
	c-8.1,9.5-15.4,19.4-23.1,29.2c-6.4,8.1-12.1,16.9-18,25.4c-6.5,9.3-13.7,18.4-19.5,28.1c-4.1-7.2-7.6-14.8-11.9-22
	c-2.7-4.6-4.8-9.9-9.3-13.1c-0.3-0.4-0.8-0.5-1.2-0.2c-3.9,1.5-8.1,2-12.1,3c-4.3,1.1-8.5,2.4-12.6,4c-0.1,0-0.1,0.1-0.1,0.1
	l-0.2,0.1l-0.1,0.1c-0.2,0.1-0.3,0.3-0.3,0.5c-2.1,5.9-4.2,11.8-6.3,17.6c-0.1,0.2-0.1,0.4,0,0.6c0,0.1,0,0.1,0,0.2
	c0,0.2,0.1,0.4,0.2,0.6c20.7,25.9,41,52.3,62.6,77.5c0.1,0.1,0.2,0.3,0.3,0.4c0.4,0.4,1,0.4,1.3,0c0,0,0.1-0.1,0.1-0.1
	c0.1-0.1,0.3-0.3,0.3-0.4c5.1-13.7,9.6-27.6,14.9-41.2s12.5-26.3,17.8-40c5.9-15.4,11.4-30.7,19-45.4
	C271.6,30.5,276.6,16.6,279.8,2.2z M270.4,13.1l-0.6,1l-0.1-0.1L270.4,13.1z M269.5,14.3l0.1,0.1l-0.6,1l-0.3-0.2
	C269,14.9,269.2,14.6,269.5,14.3z M268.5,15.5l0.3,0.3l-0.9,1.6c-0.2-0.2-0.3-0.4-0.5-0.6C267.8,16.4,268.1,15.9,268.5,15.5z
	 M267.1,17.1c0.2,0.2,0.4,0.4,0.6,0.6c-0.2,0.4-0.4,0.8-0.6,1.2c-0.2-0.3-0.5-0.5-0.8-0.8C266.6,17.8,266.9,17.5,267.1,17.1
	L267.1,17.1z M266,18.5l0.8,0.9l-0.8,1.4l-1-1.1L266,18.5z M264.8,20l1.1,1.2c-0.2,0.4-0.4,0.8-0.6,1.1c-0.4-0.4-0.9-0.9-1.3-1.3
	L264.8,20z M263.7,21.3c0.5,0.4,0.9,0.9,1.4,1.4c-0.2,0.4-0.5,0.9-0.7,1.4c-0.5-0.6-1-1.1-1.7-1.5L263.7,21.3z M262.4,22.9
	c0.6,0.4,1.2,1,1.7,1.6c-0.2,0.3-0.4,0.7-0.5,1c-0.7-0.6-1.3-1.1-2.1-1.6L262.4,22.9z M261.2,24.2c0.8,0.5,1.5,1,2.1,1.6l-0.6,1.2
	c-0.7-0.8-1.5-1.4-2.4-1.8C260.6,24.9,260.9,24.6,261.2,24.2z M259.8,25.8l0.2-0.2c1,0.4,1.8,1,2.5,1.8l-0.7,1.3
	c-0.9-0.7-1.8-1.4-2.8-1.9L259.8,25.8z M258.8,27.1c1,0.6,2,1.2,2.8,2l-0.4,0.8c-0.8-0.8-1.8-1.5-2.9-2c0,0-0.1,0-0.1,0L258.8,27.1z
	 M258.1,28c0,0.1,0,0.2,0.1,0.3c0,0,0,0,0,0c1,0.5,2,1.2,2.8,2l-0.4,0.8c-0.9-0.9-1.9-1.7-3.1-2.3L258.1,28z M257.3,29
	c1.2,0.6,2.3,1.4,3.2,2.4c-0.2,0.4-0.4,0.8-0.6,1.2c-1-1-2-2-3.2-2.7L257.3,29z M256.3,30.2c1.2,0.8,2.3,1.7,3.3,2.8l-0.6,1.1
	c-0.8-0.7-1.6-1.4-2.4-2.1c-0.2-0.2-0.6-0.6-1-1C255.8,30.9,256.1,30.5,256.3,30.2z M255.3,31.5c0.6,0.4,1.3,1.3,1.7,1.6l1.8,1.5
	l-0.5,1.1c-1.3-0.9-2.6-2-3.7-3.1L255.3,31.5z M254.1,32.9c0.1,0.2,0.3,0.3,0.5,0.4c0.6,0.5,1.2,1,1.8,1.5s1.1,0.8,1.7,1.2l-0.5,0.9
	c-1.4-1-2.8-2-4.2-3C253.7,33.5,253.9,33.2,254.1,32.9L254.1,32.9z M253.1,34.2l0.1,0.1c0.6,0.5,1.2,0.9,1.9,1.4s1.5,1.1,2.3,1.6
	l-1.1,2.1c-1-0.9-2-1.8-3.1-2.7c-0.4-0.3-0.9-0.6-1.4-0.9L253.1,34.2z M251.5,36.2c0.1,0.1,0.2,0.1,0.3,0c0,0,0,0,0,0
	c1.5,1.1,3,2.2,4.4,3.5l-0.6,1.3c-1.5-1.3-3.1-3-5-3.6L251.5,36.2z M250.2,37.8C250.2,37.8,250.2,37.8,250.2,37.8
	c2,0.6,3.5,2.3,5.1,3.6c-0.1,0.3-0.3,0.5-0.4,0.8c-1.4-1.6-3.2-2.9-5.1-3.8L250.2,37.8z M249.5,38.8c2,0.9,3.8,2.2,5.2,3.8l-0.5,1
	c0,0,0-0.1,0-0.1c-1.6-1.6-3.3-2.9-5.3-3.9C249.1,39.4,249.3,39.1,249.5,38.8L249.5,38.8z M248.6,40c2,1,3.7,2.3,5.3,3.8
	c0.1,0.1,0.2,0.1,0.2,0l-0.7,1.3c-1.5-1.8-3.2-3.8-5.5-4.3L248.6,40z M247.6,41.2L247.6,41.2c2.3,0.5,4.1,2.5,5.6,4.4l-0.5,1
	c-1.8-1.7-3.6-3.2-5.6-4.6C247.3,41.7,247.5,41.5,247.6,41.2L247.6,41.2z M246.8,42.3c0,0,0.1,0.1,0.1,0.1c0.8,0.6,1.5,1.1,2.3,1.7
	c1.2,0.9,2.3,1.8,3.3,2.9l-0.7,1.3c-2-1.6-3.9-3.3-6-4.7L246.8,42.3z M245.5,43.9c2.2,1.4,4,3.2,6.1,4.8l-0.7,1.4
	c-1.8-1.4-4-3.8-6.3-4.9L245.5,43.9z M244.3,45.6c1.2,0.7,2.3,1.5,3.3,2.4c1,0.8,2,1.7,3.1,2.5c-0.2,0.4-0.4,0.8-0.6,1.2
	c-1.6-2.3-3.7-4.2-6.2-5.6L244.3,45.6z M243.7,46.4c2.4,1.1,4.6,3.6,6.2,5.7l-0.4,0.8c-1.3-1.2-2.6-2.3-4-3.4
	c-0.8-0.8-1.6-1.4-2.5-2.1C243.2,47.1,243.4,46.7,243.7,46.4L243.7,46.4z M242.7,47.7c0.4,0.2,0.7,0.6,0.9,0.7
	c0.9,0.7,1.8,1.4,2.6,2.1c1,0.9,2,1.8,3,2.6c-0.1,0.3-0.3,0.6-0.4,0.8c-1.5-1.2-2.9-2.4-4.4-3.5c-0.8-0.7-1.6-1.3-2.4-1.9
	L242.7,47.7z M241.8,48.9c0.5,0.6,1,1.2,1.7,1.6c1.8,1.3,3.5,2.6,5.1,4c-0.2,0.4-0.5,0.9-0.7,1.3c-1.3-1.2-2.5-2.5-3.9-3.6
	c-0.9-0.9-1.8-1.7-2.9-2.4L241.8,48.9z M241,50c1.3,0.9,2.5,1.9,3.5,3c1.1,1,2.2,2,3.2,3.1c-0.2,0.4-0.5,0.9-0.7,1.3
	c-1.1-1.2-2.2-2.4-3.5-3.5c-1-1.1-2.2-2-3.5-2.7L241,50z M239.8,51.6c1.5,0.8,2.8,1.8,3.9,3c1.1,1,2.1,2.1,3.1,3.2
	c-0.1,0.3-0.3,0.5-0.5,0.8c-1-1.2-2-2.4-3.1-3.5c-1-1.3-2.3-2.3-3.8-3C239.5,52,239.6,51.8,239.8,51.6L239.8,51.6z M239.1,52.5
	c1.6,0.5,3,2.2,4.2,3.3s1.9,2.1,2.9,3.2c-0.2,0.4-0.5,0.8-0.7,1.2c-0.3-0.3-0.5-0.6-0.6-0.7c-1-1-2-2-3-3c-1-1.2-2.2-2.3-3.5-3.2
	L239.1,52.5z M238.1,53.8c0.7,0.5,1.3,1,1.9,1.6c1.1,1,2.1,2,3.1,3.1c0.3,0.3,1.2,1.5,2,2.3c-0.2,0.4-0.4,0.7-0.6,1.1
	c-1.1-1.2-2.3-2.4-3.4-3.6c-0.8-0.9-2.5-3.1-3.9-3.3C237.6,54.6,237.9,54.2,238.1,53.8L238.1,53.8z M237,55.3c0,0,0.1,0.1,0.1,0.1
	c1.4,0.1,3.5,3,4.3,3.8s1.9,2,2.9,3c-0.1,0.3-0.3,0.6-0.5,0.8c-2.1-2.7-4.5-5.2-7.2-7.2L237,55.3z M236.4,56.2
	c2.7,2.1,5.2,4.6,7.3,7.3c-0.1,0.2-0.2,0.4-0.3,0.6c-1.3-1.4-2.7-2.9-4.1-4.3c-0.5-0.5-2.2-2.5-3.5-2.8L236.4,56.2z M235.5,57.4
	c1.3,0,4.2,3.4,4.8,4c1,1,1.9,2,2.9,3.1c-0.2,0.3-0.3,0.6-0.5,0.8c-1.3-1.4-2.6-2.8-4-4.2c-1-1.2-2.2-2.2-3.6-3.1L235.5,57.4z
	 M234.8,58.4c1.6,0.8,3.1,2.7,4.2,3.8s2.3,2.4,3.4,3.6c-0.2,0.3-0.3,0.5-0.5,0.8c-2.7-2.3-5.3-4.7-7.8-7.3c0,0,0,0,0,0L234.8,58.4z
	 M233.9,59.6c2.5,2.6,5.1,5,7.8,7.3l-0.5,0.8c-1.9-2.9-5.3-5.2-8.1-7.1L233.9,59.6z M232.9,61c2.8,2,6.2,4.3,8.1,7.2l-0.6,0.9
	c-1-1-2-2-3.1-2.8c-1.7-1.5-3.4-2.9-5.2-4.3L232.9,61z M231.8,62.4c1.4,1.1,2.8,2.2,4.1,3.3c1,0.9,2,1.8,3,2.7
	c0.4,0.4,0.9,0.8,1.3,1.2l-0.6,1c0,0,0,0,0-0.1c-3.1-2-5.5-4.9-8.3-7.3L231.8,62.4z M230.9,63.6c2.8,2.4,5.2,5.3,8.3,7.4h0.1
	l-0.9,1.5c-2.3-3.1-5.1-5.7-8.4-7.7L230.9,63.6z M229.8,65.1c3.3,2,6.1,4.7,8.4,7.8l-1,1.6c-2.7-2.7-5-6.4-8.5-7.9L229.8,65.1z
	 M228.5,66.9c3.6,1.5,5.8,5.2,8.6,7.9c-0.3,0.5-0.6,1-1,1.6c-2.8-2.8-5.1-6.3-8.6-8.1L228.5,66.9z M227.2,68.6
	c3.6,1.7,5.9,5.3,8.7,8.1l-0.8,1.3c-1-1.4-2.2-2.7-3.6-3.9c-1.6-1.6-3.3-3.1-5.1-4.5L227.2,68.6z M226.2,70c1.7,1.2,3.2,2.6,4.7,4.1
	c1.1,1.1,3.1,2.7,4,4.3l-1,1.6l-0.1-0.2c-1-1.2-2.1-2.4-3.2-3.5c-1.6-1.7-3.2-3.8-5.2-5.2L226.2,70z M225.1,71.5
	c1.8,1.4,3.4,3,4.8,4.8c1,1,1.9,2.1,2.8,3.1c0.2,0.3,0.6,0.6,0.9,0.9c-0.3,0.5-0.6,1-1,1.6c-2.6-3.3-5.3-6.5-8.2-9.6L225.1,71.5z
	 M224.3,72.7c2.9,3.1,5.6,6.3,8.2,9.6l-0.6,1c-2.5-3.4-6.3-5.9-8-9.9l0,0C223.9,73.1,224.1,72.9,224.3,72.7L224.3,72.7z M223.5,73.7
	c0,0.1,0.1,0.3,0.1,0.4s0,0,0,0s0,0.1,0,0.1c0,0.1,0.1,0.1,0.2,0.1c0.2,0.4,0.5,0.8,0.7,1.2c0.6,0.9,1.3,1.7,2,2.5
	c1.7,1.9,3.6,3.6,5.1,5.6l-1,1.7c-2.7-3.4-5.5-6.7-8.2-10.1L223.5,73.7z M221.9,75.9L221.9,75.9c0,0.1,0.1,0.2,0.2,0.2
	c0.1,0,0.2-0.1,0.2-0.2c0-0.6,0-0.5,0.1,0.1c0.3,0.4,0.7,0.8,1,1.2l2.6,3.1c1.5,1.7,2.9,3.5,4.3,5.3l-0.4,0.7
	c-0.2-0.3-0.5-0.5-0.6-0.7c-1-1.3-2-2.5-3-3.7s-2.2-2.6-3.4-3.8c-0.4-0.4-1-1.2-1.6-1.2c-0.3,0-0.3,0.4,0,0.4c0.6,0,1.6,1.4,1.9,1.8
	c0.9,1,1.8,2,2.7,3.1s1.7,2.1,2.5,3.1c0.2,0.2,0.8,0.8,1.1,1.3l-0.9,1.4c-2.9-3.4-5.4-7.2-8-10.8C221.2,76.9,221.5,76.4,221.9,75.9
	L221.9,75.9z M220.5,77.9c0.1,0,0.2,0,0.2-0.1c0,0,0,0.1,0,0.1l1,1.4c0.9,1.2,1.7,2.4,2.5,3.6c1.4,1.9,2.8,3.9,4.4,5.7
	c-0.2,0.3-0.4,0.7-0.6,1c-2.4-3.8-5.1-7.6-7.9-11.1L220.5,77.9z M219.6,79.1c0.1,0.1,0.3,0.1,0.3-0.1c0.1-0.6-0.1-0.2,0.3,0.3
	c1,1.3,2,2.6,3,3.9c1.6,2.2,3.1,4.4,4.5,6.7c-0.2,0.3-0.4,0.6-0.6,1c-2-4-4-9.2-7.9-11.3L219.6,79.1z M219.1,79.9
	c3.9,2.1,5.9,7.4,7.9,11.4c-0.2,0.2-0.3,0.5-0.5,0.8c-1.2-2.2-2.5-4.3-3.9-6.3c-0.5-0.8-2.7-5.1-4-5.1L219.1,79.9z M218.3,80.9
	c0,0.1,0.1,0.1,0.2,0.1c0.5,0,1.5,1.8,1.8,2.1c0.9,1.2,1.7,2.4,2.5,3.7c1.3,1.8,2.4,3.7,3.4,5.6l-0.7,1.2c-1.4-2.7-3-5.4-4.7-7.9
	c-0.8-1.2-1.8-3-3-3.8c0,0-0.1,0-0.1,0L218.3,80.9z M217.3,82.4C217.3,82.4,217.3,82.4,217.3,82.4c0,0.4,0.5,0.2,0.4,0
	c0.2,1.3,2.1,3.1,3,4.3c1.7,2.4,3.2,4.9,4.5,7.5l-1.2,2c-2.4-4.2-3.9-9.3-7.5-12.6L217.3,82.4z M216.3,83.9c3.6,3.3,5,8.5,7.5,12.6
	l-0.8,1.3c-1.5-2.7-3.1-5.4-4.9-8c-0.9-1.4-1.4-3.5-2.7-4.6C215.6,84.8,215.9,84.4,216.3,83.9L216.3,83.9z M215.1,85.6
	c1.5,1.3,2.4,4.1,3.4,5.7c1.5,2.2,2.9,4.5,4.2,6.9l-0.8,1.4c-2.7-4.2-4.9-8.7-7.5-12.9C214.5,86.4,214.8,86,215.1,85.6L215.1,85.6z
	 M214.1,87.1c2.6,4.2,4.8,8.7,7.5,12.9l-0.5,0.9c-0.6-1.2-1.3-2.4-2-3.5c-2-3.1-3.8-6.4-5.3-9.7L214.1,87.1z M213.4,88.1
	c1.3,2.7,2.7,5.4,4.3,7.9c0.9,1.5,2.5,3.5,3.1,5.4l-0.8,1.4c-0.5-1.1-1.3-2.3-1.5-2.8c-1.8-3.7-4-7.2-5.7-10.9L213.4,88.1z
	 M212.5,89.5c1.2,2.6,2.6,5.1,4,7.7c1,1.9,1.7,4.5,3.1,6.3l-1,1.7c-1.6-3.2-3.5-6.3-4.8-9.6c-0.5-1.7-1.2-3.3-2.1-4.9L212.5,89.5z
	 M211.5,91c1,1.6,1.5,3.7,2.2,5.4c1.3,3.1,3.2,6.1,4.7,9.1l-1,1.6c-2.4-4.9-3.7-10.3-6.9-14.7C210.8,92,211.1,91.5,211.5,91
	L211.5,91z M210.3,92.9c3.1,4.5,4.5,9.9,6.8,14.8l-1.2,2.1c-1.6-3.1-2.9-6.3-4.1-9.6c-0.5-2-1.4-3.9-2.5-5.6
	C209.5,94,209.9,93.4,210.3,92.9L210.3,92.9z M209.1,94.9c1.6,2.4,2.3,5.3,3.2,7.9c1,2.6,2.1,5,3.4,7.5c-0.5,0.9-1,1.9-1.6,2.8
	c-1.2-3-2.7-5.8-3.9-8.8c-0.9-2.3-1.1-5.3-2.2-7.6C208.2,96.1,208.6,95.5,209.1,94.9L209.1,94.9z M207.5,97.4
	c0.2,0.6,0.5,1.2,0.5,1.4c0.6,1.8,1.1,3.7,1.7,5.5c1.1,3.1,2.8,6,4,9.1c0,0,0,0,0.1,0.1c-0.6,1.1-1.2,2.1-1.8,3.2
	c-2.5-5.7-4.3-11.6-5.5-17.7C206.7,98.5,207,97.9,207.5,97.4L207.5,97.4z M206.2,99.5c1.2,6.1,3.1,12,5.6,17.7
	c-0.7,1.3-1.4,2.6-2,3.8c-1.1-6.9-3.4-13.5-4.2-20.4L206.2,99.5z M205.4,100.9c0.1,6.9,3,13.9,4,20.8l-0.5,1
	c-0.2-1.9-0.8-3.9-1.2-5.8c-1-4.8-2.2-9.6-3.2-14.4C204.6,102,205,101.4,205.4,100.9L205.4,100.9z M204.1,103
	c0.9,3.8,1.9,7.5,2.6,11.3c0.5,2.7,1.6,6,1.8,9c-0.5,1-1.1,2.1-1.6,3.1c-0.3-3.6-0.8-7.2-1.5-10.8c-0.7-4.1-0.9-8.1-1.8-12.1
	C203.8,103.4,203.9,103.2,204.1,103L204.1,103z M203.5,104c0.7,3.3,1,6.7,1.4,10.1c0.5,4.2,1.5,8.4,1.6,12.7c0,0.1,0,0.1,0.1,0.2
	c-0.5,1.1-1,2.2-1.5,3.3c-0.3-4.5-0.1-9.1-0.6-13.6c-0.1-1.1-0.4-2.4-0.6-3.8c0-2.9-0.3-5.7-0.7-8.5
	C203.3,104.3,203.4,104.2,203.5,104L203.5,104z M204.8,131.1c-0.4,0.8-0.7,1.5-1,2.2c-0.2-6,0.2-12,0.2-18
	C204.4,120.6,204.2,125.9,204.8,131.1L204.8,131.1z M201,103.2c0,0.2,0,0.4,0,0.5c0.4,2.5,0.7,5.1,0.8,7.6c-0.1,5.4-0.5,10.7-1.3,16
	c-0.4-0.9-0.9-1.9-1.4-2.8c0.5-2.9,0.9-5.8,1-8.7c0.4-4.3,0.7-8.6,0.8-12.9L201,103.2z M201.8,116.5c0,4.4-0.3,8.8-0.3,13.2
	c-0.2-0.5-0.5-1.1-0.7-1.6C201.2,124.2,201.5,120.4,201.8,116.5z M200.5,102.2c0,3.5-0.2,7-0.5,10.4c-0.3,3.7-0.3,7.7-1.2,11.4
	l-1.2-2.4c0.5-3.3,0.9-6.5,1.3-9.8c0.4-3.4,1.2-7.6,0.7-11.1C199.9,101.2,200.2,101.8,200.5,102.2z M199,99.5
	c0.4,2.9-1.6,18.2-1.7,21.5c-0.6-1.1-1.1-2.2-1.7-3.2c0.7-3.2,1.3-6.5,1.9-9.8c0.5-2.8,0.3-6.4,1.1-9.2L199,99.5z M198.4,98.3
	c-1,3-0.7,6.6-1.2,9.7s-1.1,6.2-1.8,9.3c-0.3-0.6-0.6-1.1-0.9-1.7c1.2-6.1,3.1-12,3.6-18.2C198,97.7,198.2,98,198.4,98.3L198.4,98.3
	z M197.6,96.7c-0.3,6.3-2.2,12.2-3.5,18.4l-0.9-1.6c0.4-2.9,1.4-6.1,1.9-8.8c0.6-3.1,1.1-6.3,1.8-9.4L197.6,96.7z M196.6,94.7
	c-0.7,3.3-1.1,6.6-1.9,9.8c-0.6,2.6-1.5,5.5-1.9,8.3c-0.2-0.3-0.4-0.7-0.6-1c1-6.2,2.4-12.3,3.7-18.4L196.6,94.7z M195.6,92.8
	c-1.3,6.1-2.7,12.2-3.7,18.4l-0.7-1.2c0.9-6.2,2.2-12.3,3.9-18.3L195.6,92.8z M194.8,91.1c-1.7,6-3,12.1-4,18.2l-0.9-1.6
	c0.4-2.7,1-5.3,1.7-7.9c0.9-3.5,1.4-7.1,2.3-10.5C194.2,90,194.4,90.6,194.8,91.1L194.8,91.1z M193.6,88.8c-1.1,3.6-1.6,7.3-2.5,11
	c-0.6,2.5-1.2,4.9-1.6,7.4l-0.7-1.1c1.4-6.4,3-12.8,3.5-19.4C192.8,87.5,193.2,88.2,193.6,88.8L193.6,88.8z M192,86
	c-0.4,6.6-2,13.1-3.4,19.6l-1.2-1.9c0.4-6.3,3.7-12.6,3.9-18.9C191.5,85.2,191.7,85.6,192,86L192,86z M190.8,83.9L190.8,83.9
	c0.1,6.4-3.2,12.7-3.8,19.1l-1.2-1.9c0.9-3.5,1.5-7.1,2.4-10.6c0.6-2.3,1.8-4.8,2.3-7.2C190.6,83.6,190.7,83.8,190.8,83.9
	L190.8,83.9z M190.2,82.8c-0.8,2.6-1.6,5.1-2.4,7.6c-1,3.3-1.5,6.8-2.3,10.1c-0.5-0.9-1.1-1.7-1.6-2.6c2.3-5.4,4.1-11,5.4-16.7
	C189.6,81.8,189.9,82.3,190.2,82.8L190.2,82.8z M189,80.8c-0.1,0-0.1,0.1-0.1,0.1c-1.3,5.7-3,11.3-5.3,16.7c-0.2-0.3-0.4-0.6-0.6-1
	c1.9-5.5,4.2-10.9,5.6-16.5c0,0,0,0,0-0.1C188.8,80.2,188.9,80.5,189,80.8L189,80.8z M187.9,78.5l0.7,1.3c-0.1-0.1-0.2,0-0.3,0
	c0,0,0,0,0,0.1c-1.4,5.6-3.6,10.8-5.5,16.2l-1.1-1.8c1.1-3.2,2.5-6.4,3.9-9.5c0.5-1.2,1-2.4,1.4-3.6c0.1-0.3,0.2-0.6,0.3-0.9
	c0.1,0.1,0.2,0,0.3-0.1c0,0,0,0,0,0C187.6,79.6,187.7,79,187.9,78.5L187.9,78.5z M186.8,77.1c0-0.1,0-0.3,0.1-0.5c0,0.2,0,0.2,0,0
	l0.6,1c-1.5,5.6-4.9,10.8-6,16.4c-0.1-0.2-0.3-0.5-0.4-0.7c0.2-0.7,0.4-1.3,0.6-2c0.5-1.7,1.1-3.4,1.6-5.2c1-3.1,2.7-6.5,3.1-9.2
	C186.3,77.2,186.7,77.4,186.8,77.1L186.8,77.1z M186.4,75.8c-0.8,3.1-1.9,6.1-3.1,9c-1,2.6-1.8,5.3-2.5,8.1l-0.5-0.8
	c1.5-6,4-11.6,5.3-17.6C185.8,74.9,186.1,75.4,186.4,75.8L186.4,75.8z M185.3,73.9c-1.2,6.1-3.8,11.7-5.3,17.7l-0.7-1.2
	c0.8-2.7,1.4-5.5,2.1-8.2c0.9-3.2,2.2-6.4,3-9.6C184.6,73,184.9,73.5,185.3,73.9L185.3,73.9z M183.1,71.2l0.1-0.1
	c0.3,0.3,0.6,0.7,0.8,1.1c-0.7,3-1.7,5.8-2.7,8.7s-1.6,6.1-2.5,9.1l-1.1-1.9c1-2.8,1.9-5.5,2.8-8.3c0.5-1.4,0.9-2.9,1.3-4.3
	C182.4,74,182.8,72.6,183.1,71.2L183.1,71.2z M182.7,70.5c-1.4,5.8-3.3,11.4-5.2,17.1l-0.6-1c1.2-5.8,4.2-11.1,4.9-17
	C182.1,69.8,182.3,70.1,182.7,70.5L182.7,70.5z M181.2,69.1l0.2,0.1c-0.6,5.9-3.5,11.1-4.8,16.8l-0.7-1.2
	C177.5,79.5,179.6,74.4,181.2,69.1L181.2,69.1z M179,68.8c-1.5,4.9-3.4,9.6-5,14.4l-2.3,0.6c1.4-2.8,2.9-5.4,4.2-8.2
	c0.5-0.9,3.1-5.1,2.7-6.7L179,68.8z M178.2,69c0.5,1.7-3.4,7.8-4,9c-1,2-2.1,3.9-3,5.9l-0.9,0.2c1.9-5,4.6-9.8,6.7-14.8L178.2,69z
	 M176.9,69.4c-2.4,4.7-5.5,9.8-6.9,14.8l-0.9,0.2c1-1.8,1.9-3.8,2.6-5.7c0.8-2.2,1.7-4.3,2.8-6.4c0.5-0.8,0.8-1.6,1.1-2.5
	L176.9,69.4z M175.2,69.8c-0.6,2.4-2.5,5.4-3.4,7.5c-0.9,2.5-2,4.9-3.2,7.2l-1.3,0.3c0.2-0.2,0.3-0.5,0.3-0.7
	c0.4-0.6,0.8-1.3,1.1-1.9c0.8-1.3,1.5-2.6,2.1-4c0.5-1.1,0.9-2.3,1.3-3.5c0.2-0.5,1.4-3.2,1.9-4.6L175.2,69.8z M173.3,70.2
	c-0.7,1.4-1,2.9-1.6,4.4c-1.4,3.7-3.4,6.9-5,10.4l-0.4,0.1c1.6-1.9,2.4-4.7,3.3-7c0.5-1.3,1-2.6,1.4-3.9c0.4-1.3,0.8-2.6,1.3-3.8
	L173.3,70.2z M170.4,74.7c-1.2,3.4-2.3,8-4.9,10.5l-0.4,0.1c1.4-2,2.4-4.8,3.3-6.9c0.6-1.4,1.3-2.8,1.8-4.2c0.4-1,0.9-2.1,1.3-3.1
	C171.1,72.4,170.6,74,170.4,74.7L170.4,74.7z M171.4,70.6c-0.7,1.5-1.3,3-2,4.6c-0.9,2.2-1.9,4.4-3,6.5c-0.5,1.1-1,2.2-1.6,3.3
	c0.7-1.5,1.2-3.1,1.8-4.6c1.2-3.2,2.7-6.5,4.2-9.6L171.4,70.6z M169.3,71.1c0.3-0.1,0.6-0.2,1-0.2c-1.2,2.8-2.4,5.5-3.6,8.3
	c-0.9,2.1-1.6,4.4-2.6,6.5l-1.1,0.3c1.3-2.7,2.5-5.5,3.7-8.3c0.6-1.5,1.3-2.9,2-4.4C168.7,72.6,169,71.8,169.3,71.1L169.3,71.1z
	 M168.1,71.4l0.4-0.1c-0.7,1.6-1.2,3.6-1.8,4.9c-1.5,3.3-2.8,6.6-4.4,9.8l-0.6,0.1c1.1-2,2.1-4,2.8-6.2c0.8-2.2,1.8-4.4,2.7-6.5
	C167.6,72.8,167.8,72.1,168.1,71.4L168.1,71.4z M167.4,71.6c-0.6,1.3-1,2.8-1.5,4c-1.5,3.6-2.6,7.5-4.8,10.8l-0.6,0.2
	c0.9-2.1,1.9-4.2,2.8-6.4c1-2.6,2.5-5.4,3.1-8.2L167.4,71.6z M166,72c-0.6,2.4-1.8,4.5-2.6,6.8c-0.1,0.4-2.6,5.8-3.4,7.8l-1,0.3
	c2.2-4.7,4.1-9.6,5.7-14.6L166,72z M164.1,72.6c-0.8,2-1.5,4.1-2.2,6.2c-0.9,2.7-2.7,5.6-3.6,8.4l-0.5,0.2c0.5-1.4,0.9-2.7,1.3-4.1
	c1.2-3.4,2.8-6.8,3.8-10.2L164.1,72.6z M160.3,74.1c0.2-0.2,0.3-0.3,0.4-0.5l1.5-0.5c-1.1,2.7-2.1,5.6-3.1,8.3
	c-0.4,1.2-1,4.4-1.9,6.1c-0.6,0.2-1.2,0.4-1.8,0.6c1.7-4.6,2.9-9.4,4.8-13.9C160.2,74.2,160.3,74.2,160.3,74.1L160.3,74.1z
	 M159.8,73.9c-0.6,1.4-1.1,2.8-1.6,4.1c-0.6,1.6-1,3.2-1.5,4.9c-0.2,0.8-0.5,1.6-0.8,2.4s-0.4,1.9-0.7,2.9l-0.8,0.3
	c1.4-4.7,2.5-9.5,4.1-14.2l0,0L159.8,73.9z M156.5,75.1l1.7-0.6c-1.6,4.7-2.7,9.5-4.1,14.2c-1,0.4-1.9,0.8-2.9,1.3
	C152.9,85,154.7,80,156.5,75.1z M245.1,84.9c-5.2,13.8-12.1,26.7-17.7,40.4c-5.8,14.1-10.4,28.5-15.6,42.7
	c-21-24.5-40.7-50.2-60.9-75.4c6-3.4,12.7-4.7,19.3-6.2c0,0.1,0.2,0.1,0.2,0.1c0,0,0,0,0.1-0.1l0,0c1.1-0.2,2.1-0.5,3.2-0.8
	c5.1,8.6,9.9,17.3,14.8,26c4.4,7.8,9.8,15.7,13.1,24l0,0c0,0.4,0.2,0.7,0.6,0.9c-0.5,1.2,1.3,2.3,1.9,1.1
	c10.3-24,24.8-45.1,38.2-67.5c12.2-20.3,21.2-42.6,33.9-62.6C269.1,34.3,254.8,58.9,245.1,84.9L245.1,84.9z"/>
</svg>
