<?xml version="1.0" encoding="utf-8"?>
<!-- Generator: Adobe Illustrator 24.2.0, SVG Export Plug-In . SVG Version: 6.00 Build 0)  -->
<svg version="1.1" id="Layer_1" xmlns="http://www.w3.org/2000/svg" xmlns:xlink="http://www.w3.org/1999/xlink" x="0px" y="0px"
	 viewBox="0 0 283.1 354.1" style="enable-background:new 0 0 283.1 354.1;" xml:space="preserve">
<style type="text/css">
	.st0{fill:#D2D3D4;}
	.st1{fill:#F8D70A;}
	.st2{fill:#231F20;}
	.st3{fill:#FFFFFF;}
	.st4{fill:#818285;}
	.st5{fill:#020202;}
	.st6{opacity:0.14;}
	.st7{fill:#603913;}
	.st8{fill:#070808;}
	.st9{fill:#D2EDF3;}
	.st10{fill:#E6E7E8;}
	.st11{opacity:0.63;}
	.st12{fill:none;}
</style>
<rect x="219.3" y="264.4" class="st0" width="9.4" height="9.4"/>
<rect x="219.3" y="249.2" class="st0" width="9.4" height="9.4"/>
<rect x="219.3" y="234" class="st0" width="9.4" height="9.4"/>
<rect x="219.3" y="218.7" class="st0" width="9.4" height="9.4"/>
<rect x="219.3" y="203.5" class="st0" width="9.4" height="9.4"/>
<rect x="219.3" y="188.3" class="st0" width="9.4" height="9.4"/>
<rect x="219.3" y="173.1" class="st0" width="9.4" height="9.4"/>
<rect x="234.4" y="264.4" class="st0" width="9.4" height="9.4"/>
<rect x="234.4" y="249.2" class="st0" width="9.4" height="9.4"/>
<rect x="234.3" y="233.9" class="st0" width="9.4" height="9.4"/>
<rect x="234.3" y="218.7" class="st0" width="9.4" height="9.4"/>
<rect x="234.4" y="203.5" class="st0" width="9.4" height="9.4"/>
<rect x="234.4" y="188.3" class="st0" width="9.4" height="9.4"/>
<rect x="234.4" y="173.1" class="st0" width="9.4" height="9.4"/>
<rect x="249.4" y="264.4" class="st0" width="9.4" height="9.4"/>
<rect x="249.4" y="249.2" class="st0" width="9.4" height="9.4"/>
<rect x="249.4" y="234" class="st0" width="9.4" height="9.4"/>
<rect x="249.4" y="218.7" class="st0" width="9.4" height="9.4"/>
<rect x="249.4" y="203.5" class="st0" width="9.4" height="9.4"/>
<rect x="249.4" y="188.3" class="st0" width="9.4" height="9.4"/>
<rect x="249.4" y="173.1" class="st0" width="9.4" height="9.4"/>
<rect x="264.5" y="264.4" class="st0" width="9.4" height="9.4"/>
<rect x="264.5" y="249.2" class="st0" width="9.4" height="9.4"/>
<rect x="264.5" y="233.9" class="st0" width="9.4" height="9.4"/>
<rect x="264.5" y="218.7" class="st0" width="9.4" height="9.4"/>
<rect x="264.5" y="203.5" class="st0" width="9.4" height="9.4"/>
<rect x="264.5" y="188.3" class="st0" width="9.4" height="9.4"/>
<rect x="264.5" y="173.1" class="st0" width="9.4" height="9.4"/>
<rect x="219.3" y="157.8" class="st0" width="9.4" height="9.4"/>
<rect x="219.3" y="142.6" class="st0" width="9.4" height="9.4"/>
<rect x="219.3" y="127.4" class="st0" width="9.4" height="9.4"/>
<rect x="219.3" y="112.1" class="st0" width="9.4" height="9.4"/>
<rect x="219.3" y="96.9" class="st0" width="9.4" height="9.4"/>
<rect x="219.3" y="81.7" class="st0" width="9.4" height="9.4"/>
<rect x="219.3" y="66.5" class="st0" width="9.4" height="9.4"/>
<rect x="234.4" y="157.8" class="st0" width="9.4" height="9.4"/>
<rect x="234.4" y="142.6" class="st0" width="9.4" height="9.4"/>
<rect x="234.3" y="127.3" class="st0" width="9.4" height="9.4"/>
<rect x="234.4" y="112.1" class="st0" width="9.4" height="9.4"/>
<rect x="234.4" y="96.9" class="st0" width="9.4" height="9.4"/>
<rect x="234.4" y="81.7" class="st0" width="9.4" height="9.4"/>
<rect x="234.4" y="66.5" class="st0" width="9.4" height="9.4"/>
<rect x="249.4" y="157.8" class="st0" width="9.4" height="9.4"/>
<rect x="249.4" y="142.6" class="st0" width="9.4" height="9.4"/>
<rect x="249.4" y="127.4" class="st0" width="9.4" height="9.4"/>
<rect x="249.4" y="112.1" class="st0" width="9.4" height="9.4"/>
<rect x="249.4" y="96.9" class="st0" width="9.4" height="9.4"/>
<rect x="249.4" y="81.7" class="st0" width="9.4" height="9.4"/>
<rect x="249.4" y="66.5" class="st0" width="9.4" height="9.4"/>
<rect x="264.5" y="157.8" class="st0" width="9.4" height="9.4"/>
<rect x="264.5" y="142.6" class="st0" width="9.4" height="9.4"/>
<rect x="264.5" y="127.3" class="st0" width="9.4" height="9.4"/>
<rect x="264.5" y="112.1" class="st0" width="9.4" height="9.4"/>
<rect x="264.5" y="96.9" class="st0" width="9.4" height="9.4"/>
<rect x="264.5" y="81.7" class="st0" width="9.4" height="9.4"/>
<rect x="264.5" y="66.5" class="st0" width="9.4" height="9.4"/>
<path class="st1" d="M51.1,150.4l-6.5-3.1l-1.7,3.6c-1.6-0.3-3.2-0.4-4.9-0.3l-1.3-3.7l-6.8,2.4l1.3,3.6c-1.4,0.9-2.7,2-3.8,3.3
	l-3.4-1.6L21,161l3.2,1.5c-0.4,1.7-0.5,3.5-0.4,5.2l-3.3,1.2l2.4,6.8l3.1-1.1c0.9,1.5,2.2,2.9,3.6,4l-1.4,3l6.5,3.1l1.4-3
	c1.8,0.4,3.6,0.5,5.4,0.2l1.1,3.2l6.8-2.4l-1.1-3.3c1.5-1,2.8-2.2,3.8-3.6l3.2,1.5l3.1-6.5l-3.4-1.6c0.3-1.6,0.4-3.3,0.1-5l3.6-1.3
	l-2.4-6.8l-3.7,1.3c-0.9-1.4-2-2.6-3.3-3.6L51.1,150.4z M35,175.7c-5.2-2.5-7.4-8.7-4.9-13.9s8.7-7.4,13.9-4.9s7.4,8.7,4.9,13.9
	c0,0,0,0,0,0C46.5,176,40.2,178.2,35,175.7z"/>
<path class="st2" d="M39.7,183.9l-1.2-3.4c-1.4,0.1-2.7,0.1-4.1-0.2l-1.5,3.2l-8.3-4l1.5-3.2c-1-0.9-1.9-1.9-2.7-3.1l-3.4,1.2
	l-3.1-8.7l3.5-1.2c-0.1-1.3,0-2.6,0.3-3.9l-3.4-1.6l4-8.3l3.6,1.7c0.8-0.9,1.8-1.7,2.8-2.4l-1.4-3.8l8.7-3.1l1.4,4
	c1.2-0.1,2.4,0,3.6,0.2l1.8-3.8l8.3,4l-1.8,3.8c0.9,0.8,1.7,1.7,2.4,2.6l4-1.4l3.1,8.7l-3.8,1.4c0.1,1.2,0.1,2.5-0.1,3.7l3.6,1.7
	l-4,8.3l-3.5-1.6c-0.9,1-1.8,1.9-2.9,2.7l1.2,3.5L39.7,183.9z M39.9,178.3l1,3l4.8-1.7l-1.1-3l0.7-0.4c1.4-0.9,2.6-2,3.6-3.3
	l0.5-0.7l3,1.5l2.2-4.6l-3.2-1.5l0.1-0.8c0.3-1.5,0.3-3.1,0.1-4.7l-0.1-0.8l3.4-1.2l-1.7-4.8l-3.5,1.2l-0.4-0.7
	c-0.8-1.3-1.9-2.4-3.1-3.4l-0.6-0.5l1.6-3.4l-4.6-2.2l-1.6,3.4l-0.8-0.2c-1.5-0.3-3-0.4-4.5-0.3l-0.8,0.1l-1.2-3.6l-4.8,1.7l1.2,3.4
	l-0.7,0.4c-1.3,0.8-2.5,1.9-3.6,3.1l-0.5,0.6l-3.2-1.5l-2.2,4.6l3,1.5l-0.2,0.8c-0.4,1.6-0.5,3.2-0.4,4.9l0.1,0.8l-3.1,1.1l1.7,4.8
	l3-1.1l0.4,0.7c0.9,1.4,2,2.7,3.3,3.8l0.6,0.5l-1.3,2.8l4.6,2.2l1.3-2.8l0.8,0.2c1.6,0.4,3.3,0.4,5,0.2L39.9,178.3z M37.2,175.3
	c-6.3,0-11.5-5.2-11.4-11.5c0-1.7,0.4-3.4,1.1-4.9c1.9-4,5.9-6.5,10.4-6.5c6.3,0,11.5,5.2,11.5,11.5c0,1.7-0.4,3.4-1.1,4.9
	C45.6,172.7,41.6,175.3,37.2,175.3L37.2,175.3z M37.2,154.4c-3.6,0-7,2.1-8.5,5.4c-2.2,4.7-0.2,10.3,4.5,12.6c1.3,0.6,2.6,0.9,4,0.9
	c3.6,0,6.9-2.1,8.5-5.4c2.2-4.7,0.3-10.3-4.4-12.6C40,154.7,38.6,154.4,37.2,154.4z"/>
<path class="st1" d="M39.7,155.7c-4.6-1.1-9.2,1.8-10.3,6.4c-1.1,4.6,1.8,9.2,6.4,10.3c4.6,1.1,9.2-1.8,10.3-6.4
	C47.2,161.4,44.3,156.8,39.7,155.7z"/>
<path class="st2" d="M37.7,173.7L37.7,173.7c-0.7,0-1.5-0.1-2.2-0.3c-5.2-1.1-8.5-6.2-7.4-11.4c1-4.5,5-7.6,9.6-7.6
	c0.7,0,1.5,0.1,2.2,0.3c5.2,1.1,8.5,6.2,7.4,11.4C46.3,170.6,42.3,173.8,37.7,173.7z M37.7,156.5c-4.2,0-7.6,3.4-7.5,7.6
	c0,3.5,2.4,6.5,5.8,7.3c0.6,0.1,1.2,0.2,1.7,0.2c4.2,0,7.6-3.3,7.7-7.5c0-3.6-2.4-6.7-5.9-7.5C38.9,156.5,38.3,156.5,37.7,156.5
	L37.7,156.5z"/>
<path class="st1" d="M16.8,109.3l-3.2-1.5l-0.8,1.8c-0.8-0.2-1.6-0.2-2.4-0.1l-0.7-1.8l-3.3,1.2l0.6,1.8c-0.7,0.4-1.3,1-1.9,1.6
	l-1.7-0.8L2,114.6l1.6,0.8c-0.2,0.8-0.3,1.7-0.2,2.6l-1.6,0.6l1.2,3.3l1.6-0.6c0.5,0.8,1.1,1.4,1.8,2l-0.7,1.5l3.2,1.5l0.7-1.5
	c0.9,0.2,1.8,0.2,2.6,0.1l0.6,1.6l3.3-1.2l-0.6-1.6c0.7-0.5,1.3-1.1,1.9-1.8l1.6,0.8l1.5-3.2l-1.7-0.8c0.2-0.8,0.2-1.6,0.1-2.5
	l1.8-0.6l-1.2-3.3l-1.8,0.6c-0.4-0.7-1-1.3-1.6-1.8L16.8,109.3z M8.9,121.8c-2.6-1.2-3.7-4.3-2.4-6.9c1.2-2.6,4.3-3.7,6.9-2.4
	s3.7,4.3,2.4,6.9c0,0,0,0,0,0C14.5,121.9,11.5,123,8.9,121.8C8.9,121.8,8.9,121.8,8.9,121.8L8.9,121.8z"/>
<path class="st2" d="M11.2,125.8l-0.6-1.6c-0.7,0-1.3,0-2-0.1l-0.7,1.6l-4.1-2l0.8-1.6c-0.5-0.4-1-1-1.3-1.5l-1.7,0.6L0,116.9
	l1.7-0.6c0-0.6,0-1.3,0.1-1.9l-1.7-0.8l2-4.1l1.8,0.8c0.4-0.4,0.9-0.9,1.4-1.2l-0.7-1.9l4.3-1.5l0.7,1.9c0.6,0,1.2,0,1.8,0.1
	l0.9-1.9l4.1,2l-0.9,1.9c0.4,0.4,0.8,0.8,1.2,1.3l2-0.7l1.4,4.3l-1.9,0.7c0,0.6,0,1.2-0.1,1.8l1.8,0.9l-2,4.1l-1.7-0.8
	c-0.4,0.5-0.9,0.9-1.4,1.3l0.6,1.7L11.2,125.8z M11.3,123.1l0.5,1.5l2.4-0.8l-0.5-1.5L14,122c0.7-0.4,1.3-1,1.8-1.6L16,120l1.5,0.7
	l1.1-2.3l-1.6-0.7l0.1-0.4c0.1-0.8,0.2-1.5,0.1-2.3l-0.1-0.4l1.7-0.6l-0.8-2.4l-1.7,0.6l-0.2-0.3c-0.4-0.6-0.9-1.2-1.5-1.6l-0.3-0.2
	l0.8-1.7l-2.3-1.1l-0.8,1.7l-0.4-0.1c-0.7-0.2-1.5-0.2-2.2-0.1H8.9L8.3,107l-2.4,0.9l0.6,1.7l-0.3,0.2c-0.7,0.4-1.2,0.9-1.8,1.5
	l-0.2,0.3l-1.6-0.7l-1.1,2.3l1.5,0.7l-0.1,0.4c-0.2,0.8-0.2,1.6-0.2,2.4v0.4l-1.5,0.5l0.8,2.4l1.5-0.5l0.2,0.4
	c0.4,0.7,1,1.3,1.6,1.9l0.3,0.2L5,123.2l2.3,1.1l0.7-1.4l0.4,0.1c0.8,0.2,1.7,0.2,2.5,0.1L11.3,123.1z M9.9,121.6
	c-3.1,0-5.6-2.5-5.6-5.7c0-3.1,2.5-5.6,5.7-5.6s5.6,2.5,5.6,5.7c0,0.8-0.2,1.7-0.5,2.4C14.1,120.3,12.1,121.6,9.9,121.6L9.9,121.6z
	 M9.9,111.3c-1.8,0-3.4,1-4.2,2.6c-1.1,2.3-0.1,5.1,2.2,6.2c0.6,0.3,1.3,0.5,2,0.5c1.8,0,3.4-1,4.2-2.6c1.1-2.3,0.1-5.1-2.2-6.2
	C11.3,111.4,10.6,111.3,9.9,111.3z"/>
<path class="st1" d="M11.2,111.9c-2.3-0.5-4.6,0.9-5.1,3.2s0.9,4.6,3.2,5.1c2.3,0.5,4.5-0.9,5.1-3.1
	C14.9,114.7,13.5,112.5,11.2,111.9z"/>
<path class="st2" d="M10.2,120.8L10.2,120.8c-0.4,0-0.8,0-1.1-0.1c-2.5-0.6-4.1-3.1-3.6-5.7c0.5-2.2,2.4-3.7,4.6-3.7
	c0.4,0,0.7,0,1.1,0.1c2.5,0.6,4.1,3.1,3.6,5.7C14.3,119.3,12.4,120.8,10.2,120.8L10.2,120.8z M10.2,112.3c-1.7,0-3.2,1.2-3.6,2.9
	c-0.5,2,0.8,4,2.8,4.5c0.3,0.1,0.6,0.1,0.9,0.1c2.1,0,3.7-1.7,3.7-3.7c0-1.7-1.2-3.2-2.9-3.6C10.8,112.4,10.5,112.3,10.2,112.3
	L10.2,112.3z"/>
<path class="st1" d="M45.1,197.8l-3.6-1.7l-1,2c-0.9-0.2-1.8-0.3-2.7-0.2l-0.7-2.1l-3.8,1.3l0.7,2c-0.8,0.5-1.5,1.1-2.1,1.8
	l-1.9-0.9l-1.7,3.6l1.8,0.9c-0.2,0.9-0.3,1.9-0.2,2.9l-1.8,0.6l1.3,3.8l1.8-0.6c0.5,0.9,1.2,1.6,2,2.2l-0.8,1.7l3.6,1.7l0.8-1.7
	c1,0.2,2,0.3,3,0.1l0.6,1.8l3.8-1.3l-0.6-1.8c0.8-0.5,1.5-1.2,2.1-2l1.8,0.9l1.7-3.6l-1.9-0.9c0.2-0.9,0.2-1.9,0.1-2.8l2-0.7
	l-1.3-3.7l-2.1,0.7c-0.5-0.8-1.1-1.4-1.8-2L45.1,197.8z M36.1,211.9c-2.9-1.4-4.1-4.9-2.8-7.8c1.4-2.9,4.9-4.1,7.8-2.8
	c2.9,1.4,4.1,4.9,2.8,7.8c0,0,0,0,0,0C42.5,212,39,213.3,36.1,211.9L36.1,211.9z"/>
<path class="st2" d="M38.8,216.5l-0.7-1.9c-0.8,0.1-1.5,0-2.3-0.1l-0.9,1.8l-4.6-2.2l0.9-1.8c-0.6-0.5-1.1-1.1-1.5-1.7l-1.9,0.7
	l-1.7-4.8l2-0.7c0-0.7,0-1.5,0.1-2.2l-1.9-0.9l2.2-4.6l2,1c0.5-0.5,1-1,1.6-1.4l-0.8-2.1l4.9-1.7L37,196c0.7,0,1.3,0,2,0.1l1-2.1
	l4.6,2.2l-1,2.1c0.5,0.4,1,0.9,1.4,1.5l2.2-0.8l1.7,4.8l-2.1,0.8c0.1,0.7,0,1.4-0.1,2.1l2,1l-2.2,4.6l-1.9-0.9
	c-0.5,0.6-1,1.1-1.6,1.5l0.7,2L38.8,216.5z M38.9,213.4l0.6,1.7l2.7-1l-0.6-1.7l0.4-0.2c0.8-0.5,1.4-1.1,2-1.9l0.3-0.4l1.7,0.8
	l1.2-2.6l-1.8-0.8l0.1-0.4c0.2-0.9,0.2-1.7,0.1-2.6l-0.1-0.5l1.9-0.7l-1-2.7l-2,0.7l-0.2-0.4c-0.5-0.7-1-1.3-1.7-1.9l-0.4-0.3l1-1.8
	l-2.6-1.2l-0.9,1.9l-0.4-0.1c-0.8-0.2-1.7-0.2-2.5-0.2h-0.4l-0.7-2l-2.7,1l0.7,1.9l-0.4,0.2c-0.8,0.5-1.4,1-2,1.7l-0.3,0.3l-1.8-0.8
	l-1.2,2.6l1.7,0.8l-0.1,0.4c-0.2,0.9-0.3,1.8-0.2,2.7v0.4l-1.7,0.6l1,2.7l1.6-0.6l0.2,0.4c0.5,0.8,1.1,1.5,1.9,2.1l0.4,0.3l-0.7,1.6
	l2.6,1.2l0.8-1.6l0.4,0.1c0.9,0.2,1.9,0.2,2.8,0.1L38.9,213.4z M37.4,211.7c-3.5,0-6.4-2.9-6.4-6.4c0-3.5,2.9-6.4,6.4-6.4
	c3.5,0,6.4,2.9,6.4,6.4c0,0.9-0.2,1.9-0.6,2.7C42.1,210.3,39.8,211.7,37.4,211.7L37.4,211.7z M37.4,200c-2,0-3.9,1.2-4.8,3
	c-1.2,2.6-0.1,5.8,2.5,7c0.7,0.3,1.5,0.5,2.2,0.5c2,0,3.9-1.2,4.8-3c1.3-2.6,0.2-5.8-2.5-7C38.9,200.2,38.1,200,37.4,200L37.4,200z"
	/>
<path class="st3" d="M235.6,314.2l-3.5-1.6l-0.9,1.9c-0.8-0.2-1.7-0.2-2.6-0.2l-0.7-2l-3.6,1.3l0.7,1.9c-0.8,0.5-1.4,1.1-2,1.8
	l-1.8-0.9l-1.6,3.5l1.7,0.8c-0.2,0.9-0.3,1.8-0.2,2.8l-1.7,0.6l1.3,3.6l1.7-0.6c0.5,0.8,1.1,1.5,1.9,2.1l-0.8,1.6l3.5,1.6l0.8-1.6
	c0.9,0.2,1.9,0.2,2.9,0.1l0.6,1.7l3.6-1.3l-0.6-1.7c0.8-0.5,1.4-1.2,2-1.9l1.7,0.8l1.6-3.5l-1.8-0.9c0.2-0.9,0.2-1.8,0.1-2.7
	l1.9-0.7l-1.3-3.6l-2,0.7c-0.5-0.7-1.1-1.4-1.8-1.9L235.6,314.2z M227,327.8c-2.8-1.3-4-4.7-2.6-7.4c1.3-2.8,4.7-4,7.4-2.6
	c2.8,1.3,4,4.7,2.6,7.4c0,0,0,0,0,0C233.1,327.9,229.8,329.1,227,327.8L227,327.8z"/>
<path class="st2" d="M230.8,333.3l-0.6-1.8c-0.7,0.1-1.5,0-2.2-0.1l-0.8,1.7l-4.4-2.1l0.8-1.7c-0.5-0.5-1-1-1.4-1.6l-1.8,0.6
	l-1.7-4.6l1.9-0.7c0-0.7,0-1.4,0.1-2.1l-1.8-0.9l2.1-4.4l1.9,0.9c0.5-0.5,1-0.9,1.5-1.3l-0.7-2l4.6-1.6l0.8,2.1c0.6,0,1.3,0,1.9,0.1
	l1-2l4.4,2.1l-1,2c0.5,0.4,0.9,0.9,1.3,1.4l2.1-0.7l1.6,4.6l-2,0.7c0.1,0.7,0,1.3-0.1,2l1.9,0.9l-2.1,4.4l-1.8-0.9
	c-0.5,0.5-1,1-1.5,1.4l0.7,1.9L230.8,333.3z M230.9,330.3l0.6,1.6l2.6-0.9l-0.6-1.6l0.4-0.2c0.7-0.5,1.4-1.1,1.9-1.8l0.3-0.4
	l1.6,0.8l1.2-2.5l-1.7-0.8l0.1-0.4c0.2-0.8,0.2-1.7,0.1-2.5l0-0.4l1.8-0.6l-0.9-2.6l-1.9,0.7l-0.2-0.4c-0.5-0.7-1-1.3-1.6-1.8
	l-0.3-0.3l0.9-1.8l-2.5-1.2l-0.9,1.8l-0.4-0.1c-0.8-0.2-1.6-0.2-2.4-0.1h-0.4l-0.7-1.9l-2.6,0.9l0.6,1.8l-0.4,0.2
	c-0.7,0.4-1.4,1-1.9,1.6l-0.3,0.3l-1.7-0.8l-1.2,2.5l1.6,0.8l-0.1,0.4c-0.2,0.8-0.3,1.7-0.2,2.6v0.4l-1.6,0.6l0.9,2.6l1.6-0.6
	l0.2,0.4c0.5,0.8,1.1,1.4,1.8,2l0.3,0.3l-0.7,1.5l2.5,1.2l0.7-1.5l0.4,0.1c0.9,0.2,1.8,0.2,2.7,0.1L230.9,330.3z M229.4,328.7
	c-2.6,0-4.9-1.6-5.8-4.1c-0.5-1.5-0.5-3.2,0.2-4.7c1.5-3,5.1-4.3,8.2-2.9c3,1.5,4.3,5.1,2.9,8.2
	C233.9,327.3,231.8,328.7,229.4,328.7z M229.4,317.5c-2.8,0-5,2.2-5.1,4.9c0,0.6,0.1,1.2,0.3,1.8c0.7,2,2.6,3.4,4.7,3.4
	c1.9,0,3.7-1.1,4.5-2.9c1.2-2.5,0.2-5.5-2.3-6.7c0,0,0,0-0.1,0C230.9,317.7,230.2,317.5,229.4,317.5L229.4,317.5z"/>
<path class="st4" d="M53.8,130.5l-1.2-3.3c-1.3,0.1-2.7,0-4-0.2l-1.5,3.2l-8.2-3.9l1.5-3.2c-1-0.9-1.9-1.9-2.7-3l-3.3,1.2l-3-8.6
	l3.5-1.2c-0.1-1.3,0-2.6,0.3-3.9l-3.4-1.6l3.9-8.2l3.6,1.7c0.8-0.9,1.8-1.7,2.8-2.4l-1.4-3.8l8.6-3.1l1.4,3.9c1.2-0.1,2.4,0,3.5,0.2
	l1.8-3.8l8.2,3.9l-1.8,3.8c0.9,0.8,1.7,1.7,2.4,2.6l3.9-1.4l3,8.6l-3.8,1.4c0.1,1.2,0.1,2.5-0.1,3.7l3.6,1.7l-3.9,8.2l-3.4-1.6
	c-0.8,1-1.8,1.9-2.9,2.7l1.2,3.5L53.8,130.5z M53.9,125l1,2.9l4.8-1.7l-1.1-3l0.7-0.4c1.4-0.9,2.5-2,3.5-3.3l0.5-0.6l3,1.4l2.2-4.6
	l-3.1-1.5l0.1-0.8c0.3-1.5,0.3-3.1,0.1-4.6l-0.1-0.8l3.4-1.2l-1.7-4.8l-3.5,1.2l-0.4-0.7c-0.8-1.3-1.8-2.4-3-3.3l-0.6-0.5l1.6-3.4
	l-4.6-2.2l-1.6,3.4l-0.8-0.2c-1.5-0.3-3-0.4-4.5-0.3l-0.8,0.1l-1.2-3.5l-4.8,1.7l1.2,3.4l-0.7,0.4c-1.3,0.8-2.5,1.8-3.5,3l-0.5,0.6
	l-3.1-1.5l-2.2,4.6l3,1.4l-0.2,0.8c-0.4,1.6-0.5,3.2-0.3,4.8l0.1,0.8l-3,1.1l1.7,4.8l2.9-1l0.4,0.7c0.9,1.4,2,2.7,3.3,3.7l0.6,0.5
	l-1.3,2.8l4.6,2.2l1.3-2.8l0.8,0.2c1.6,0.4,3.3,0.4,5,0.2L53.9,125z M51.3,122c-6.3,0-11.4-5.1-11.4-11.4c0-1.7,0.4-3.4,1.1-4.9
	c1.9-3.9,5.9-6.5,10.3-6.5c6.3,0,11.4,5.1,11.3,11.4c0,1.7-0.4,3.3-1.1,4.8C59.6,119.4,55.7,121.9,51.3,122L51.3,122z M51.3,101.3
	c-5.2,0-9.3,4.2-9.3,9.4c0,1,0.2,2.1,0.5,3c1.3,3.7,4.8,6.2,8.8,6.2c3.6,0,6.9-2.1,8.4-5.3c2.2-4.7,0.3-10.2-4.4-12.5
	C54.1,101.5,52.7,101.2,51.3,101.3L51.3,101.3z"/>
<path d="M130.3,82.7c0.1,0,0.2,0,0.4,0c0.1,0,0.2-0.1,0.2-0.2c0,0,0.1-0.1,0.1-0.2c2.2-10,4.4-20,6.8-30c0-0.3-0.1-0.5-0.4-0.5
	c0,0-0.1,0-0.1,0c-1.7,0.4-4.8,2-7.5,2.9c0,0-0.1,0-0.2,0c-2.4,0.7-4.5,0.8-5.3-1.1c-1.6-4.2-3.2-8.4-4.7-12.7
	c-3.4-9.3-6.6-18.6-9.7-27.9c0-0.2-0.2-0.3-0.4-0.3c-0.1,0-0.1,0-0.2,0c-5,2.1-9.9,4.6-15.1,6.3c-0.2,0.1-0.4,0.4-0.3,0.6
	c0,0,0,0,0,0c4,8.2,8.1,16.3,12.4,24.3c2.2,4.2,4.5,8.4,6.8,12.6c1.2,2.2,3.1,4.1,0,5.4c-2.9,1.4-5.8,2.5-8.9,3.4
	c-0.4,0.1-0.6,0.6-0.2,0.8c8.6,5.7,17.5,10.8,26.2,16.4C130.2,82.6,130.2,82.7,130.3,82.7z M95.5,20.8c-0.5-1.1,0-1.4,0.7-1.6
	c-0.1,0.9-0.1,1.8-0.1,2.7C95.9,21.5,95.7,21.1,95.5,20.8z M97,23.8l-0.6-1.2c0.1-1.2,0.1-2.3,0.1-3.5c0.2-0.1,0.4-0.1,0.6-0.2
	l0.7-0.3c-0.2,0.8-0.3,1.5-0.4,2.3c-0.2,1-0.3,2-0.4,3L97,23.8z M97.4,24.6c0.1-1,0.2-2,0.4-3c0.1-1.1,0.3-2.1,0.6-3.2l1.7-0.7
	c-0.2,1.4-0.6,2.8-0.9,4.2c-0.3,1.7-0.5,3.4-0.6,5.1L97.4,24.6z M98.9,27.6c0.1-1.7,0.3-3.5,0.6-5.2c0.3-1.6,0.7-3.3,1-4.9l2.5-1.1
	c-0.8,1.9-1.4,3.9-1.8,6c-0.6,2.3-1,4.6-1.2,7L98.9,27.6z M100.8,31.3l-0.6-1.2c0.2-2.2,0.5-4.3,1-6.4c0.4-2.6,1.2-5.1,2.2-7.5
	l1.8-0.8c-1.4,3-2,6.3-2.7,9.5c-0.5,2.2-1.5,4.8-1.3,7.2C101.1,31.9,100.9,31.6,100.8,31.3L100.8,31.3z M101.8,33.3
	c-0.8-2.6,0.4-5.8,1.1-8.3c0.9-3.3,1.3-6.7,2.8-9.8l2.2-1c-1.3,4.2-2.5,8.4-3.5,12.7c-0.4,1.6-1.7,5.3-1.7,8L101.8,33.3z
	 M103.1,35.8c-0.3-3.1,1.7-8.5,2.1-10.4c0.9-3.8,2-7.5,3.2-11.2l0.8-0.3c0.2,0.5,0.3,1,0.5,1.5c0,0-0.1,0.1-0.1,0.1
	c-1.6,3.8-2.1,7.9-2.7,12s-1.7,7.9-1.9,11.8C104.3,38.1,103.7,36.9,103.1,35.8z M106.4,42.1l-1.2-2.2c0.2-3.8,1.2-7.4,1.8-11.2
	c0.6-4.3,1.2-8.9,2.8-13c0.4,1.3,0.9,2.7,1.4,4c-0.8,4-1.5,8-2.2,11.9C108.4,35.3,106.8,38.5,106.4,42.1L106.4,42.1z M106.7,42.8
	c0.2-3.8,1.9-7.2,2.6-11s1.3-7.5,2.1-11.3c0.7,2.1,1.4,4.2,2.2,6.3c-0.9,4-2.6,7.9-3.7,11.8c-0.8,2.4-1.3,4.9-1.3,7.5
	C107.9,45,107.3,43.9,106.7,42.8L106.7,42.8z M108.9,47c-0.5-3.6,1-7.7,2.1-10.9c0.9-2.9,2-5.7,2.8-8.7c0.4,1.2,0.8,2.3,1.2,3.5
	c-0.4,4.2-2.5,8.6-3.7,12.6c-0.6,1.7-1.1,3.5-1.4,5.2C109.6,48.2,109.3,47.6,108.9,47L108.9,47z M110.3,49.4c0-2.8,2.3-8.7,2.7-9.8
	c1-2.5,1.7-5.1,2.4-7.8l1,2.9c-0.7,3.5-1.6,7-2.7,10.4c-0.8,2.4-1.4,4.8-1.7,7.3L110.3,49.4z M112.3,53c0-3.1,1.3-6.4,2.1-9.3
	c0.8-2.7,1.6-5.5,2.2-8.2c0.3,0.8,0.6,1.7,0.9,2.5c-1.5,5.3-4.5,10.5-4.7,16.1L112.3,53z M113.2,54.7c-0.1-5.7,2.9-10.9,4.5-16.2
	l0.6,1.6c-1.2,5.6-3.4,10.8-4.1,16.6L113.2,54.7z M114.6,57.2c0.5-5.7,2.7-10.9,4-16.4c0.4,1.1,0.8,2.1,1.2,3.2
	c-1.4,4.9-3.6,9.8-4.3,14.9L114.6,57.2z M105.9,66c0.5-0.1,0.9-0.3,1.4-0.4c0,0.5,0.1,1.1,0.2,1.6C106.5,66.5,105.8,66,105.9,66
	L105.9,66z M108,67.5C108,67.5,108,67.4,108,67.5c-0.2-0.7-0.3-1.4-0.3-2.1l1.1-0.4c-0.2,1-0.2,2,0,3L108,67.5z M109.2,68.3
	c-0.2-1.1-0.2-2.3,0-3.4c0.3-0.1,0.6-0.3,1-0.4c-0.2,1.5-0.2,3,0,4.6L109.2,68.3z M110.6,69.3c-0.2-1.7-0.2-3.3,0-5
	c0.5-0.2,1-0.4,1.5-0.7c-0.5,2.1-0.6,4.4-0.1,6.5L110.6,69.3z M112.3,70.4c-0.5-2.3-0.4-4.7,0.1-7l1.4-0.7c-0.6,2.7-0.8,5.5-0.6,8.2
	L112.3,70.4z M113.7,71.3c-0.2-2.9,0-5.8,0.6-8.7c0.7-0.3,1.4-0.6,2.1-0.9c0.2-0.1,0.4-0.4,0.3-0.6c0,0,0,0,0,0
	c-0.3-0.5-0.6-1.1-0.9-1.6c0.5-5.1,2.6-10,4.1-14.9l1,2.8c-2.3,8.2-3.8,16.7-5.4,25.1L113.7,71.3z M115.9,72.7
	c1.5-8.3,3-16.6,5.2-24.7c0.4,1.1,0.8,2.1,1.2,3.2c-1.8,7.4-4.1,15-4.8,22.5L115.9,72.7z M117.9,73.9c0.7-7.4,2.9-14.9,4.7-22.1
	l1.8,4.8c-1.6,6.1-3.9,12.2-4.6,18.5L117.9,73.9z M120.1,75.2c0.7-6.2,3-12.2,4.6-18.2c0.1,0.1,0.2,0.1,0.3,0.1
	c0.7-0.2,1.4-0.4,2.1-0.6c-2.8,6.2-4.8,12.7-5.9,19.4L120.1,75.2z M121.6,76.2c1-6.9,3.1-13.5,6-19.8c0.5-0.2,1-0.4,1.6-0.6
	c-2.4,7-4.5,14.1-6.2,21.2L121.6,76.2z M123.3,77.2c1.7-7.3,3.9-14.6,6.4-21.7l1.2-0.5c-0.5,4.6-1.5,9.1-3,13.5
	c-1.1,3.2-2.4,6.5-2.6,9.9L123.3,77.2z M125.6,78.7c0.2-4.3,2.1-8.4,3.4-12.5c1.1-3.7,1.8-7.4,2.2-11.2l1.4-0.6
	c-0.8,4.2-2.2,8.4-3.2,12.5c-1,3.8-2.8,8.4-2.8,12.4L125.6,78.7z M126.9,79.5c-0.1-4.1,1.8-8.8,2.8-12.6c1.1-4.2,2.5-8.5,3.3-12.8
	c0.6-0.3,1.2-0.5,1.8-0.7c-1.1,3.6-1.7,7.2-2.6,10.9c-1.2,5.4-3.4,10.6-3.8,16.2L126.9,79.5z M128.8,80.7L128.8,80.7
	c0.3-4.9,2.2-9.4,3.3-14.2c1-4.3,1.8-8.8,3.1-13.1c0.8-0.1,1.2,0.3,0.8,1.8c-0.5,2.1-1,4.3-1.5,6.4c-1.5,6.6-3,13.2-4.4,19.9
	C129.7,81.2,129.2,81,128.8,80.7L128.8,80.7z"/>
<path d="M103.3,87.5c0.1,0,0.2-0.1,0.2-0.2c0-0.1,0-0.1,0-0.2c0,0,0-0.1,0-0.1c-3.5-7.2-7-14.5-10.4-21.8c-0.1-0.2-0.3-0.2-0.5-0.1
	c0,0-0.1,0-0.1,0.1c-0.9,1.1-1.9,3.6-3.2,5.4c0,0-0.1,0.1-0.1,0.1c-1.1,1.6-2.4,2.7-3.8,1.8c-3-1.8-6.1-3.7-9.1-5.5
	c-6.6-4.1-13.1-8.2-19.5-12.5c-0.1-0.1-0.3-0.1-0.4,0c0,0-0.1,0.1-0.1,0.1c-2.1,3.7-3.9,7.7-6.3,11.2c-0.1,0.2,0,0.4,0.1,0.5
	c6.4,3.1,12.9,6.1,19.4,9c3.4,1.5,6.9,3,10.3,4.5c1.8,0.8,3.9,1,2.6,3.3c-1.1,2.2-2.4,4.4-3.8,6.4c-0.2,0.2-0.1,0.7,0.3,0.6
	c8-0.7,16-1.8,24.1-2.6L103.3,87.5z M51.8,66.2c-0.9-0.4-0.7-0.8-0.3-1.3c0.4,0.6,0.8,1.2,1.2,1.7L51.8,66.2z M54.2,67.3l-0.9-0.4
	c-0.5-0.8-1.1-1.5-1.6-2.2c0.1-0.1,0.2-0.3,0.3-0.4l0.3-0.5c0.3,0.6,0.5,1.1,0.9,1.6c0.4,0.7,0.8,1.4,1.2,2.1L54.2,67.3z M54.8,67.7
	c-0.5-0.6-0.9-1.3-1.2-2c-0.5-0.7-0.9-1.5-1.1-2.3l0.7-1.2c0.5,1,1,2,1.5,3c0.6,1.2,1.3,2.3,2.1,3.4L54.8,67.7z M57.3,68.8
	c-0.8-1.2-1.5-2.3-2.2-3.5s-1.1-2.3-1.8-3.5c0.3-0.6,0.7-1.2,1-1.8c0.4,1.6,1,3.1,1.8,4.6c0.8,1.7,1.6,3.4,2.6,4.9L57.3,68.8z
	 M60.2,70.2l-0.9-0.4c-0.9-1.4-1.8-2.9-2.5-4.5c-1-1.8-1.7-3.7-2.3-5.7l0.7-1.3c0.7,2.5,1.7,4.9,3,7.2c0.8,1.6,1.4,3.7,2.7,5.1
	L60.2,70.2z M61.8,70.9c-1.7-1.2-2.5-3.8-3.3-5.6c-1.1-2.4-2.5-4.8-3-7.4c0.3-0.6,0.6-1.1,0.9-1.7c1.2,3.2,2.6,6.4,4,9.5
	c0.5,1.2,1.5,4.1,2.8,5.8C62.7,71.3,62.3,71.1,61.8,70.9L61.8,70.9z M63.8,71.8c-1.7-1.7-3.1-6.1-3.8-7.5c-1.3-2.8-2.4-5.6-3.5-8.5
	c0.1-0.2,0.2-0.4,0.3-0.6l1,0.7c0,0,0,0.1,0,0.1c0.9,3.1,2.6,5.9,4.2,8.7c1.6,2.8,2.8,5.7,4.5,8.2L63.8,71.8z M68.9,74.1l-1.8-0.8
	c-1.7-2.4-2.9-5.2-4.3-7.7c-1.9-2.9-3.4-6.1-4.5-9.4L61,58c1.4,2.8,3,5.6,4.5,8.4C66.8,69,67.4,71.7,68.9,74.1L68.9,74.1z
	 M69.4,74.3c-1.7-2.5-2.3-5.4-3.7-8c-1.4-2.6-2.8-5.3-4.2-7.9c1.5,1,2.9,1.9,4.4,2.8c1.4,2.9,2.2,6.1,3.4,9.1
	c0.6,1.9,1.6,3.7,2.8,5.3L69.4,74.3z M72.9,75.9c-2.1-1.9-3.1-5.2-4-7.7c-0.8-2.2-1.5-4.5-2.5-6.7l2.4,1.6c1.8,2.8,2.6,6.5,3.9,9.5
	c0.4,1.4,1,2.7,1.7,3.9C73.8,76.3,73.4,76.1,72.9,75.9L72.9,75.9z M74.9,76.7c-1.4-1.7-2.8-6.5-3.1-7.4c-0.6-2-1.4-4-2.3-5.9
	l2.1,1.3c1.3,2.5,2.4,5.1,3.4,7.7c0.7,1.8,1.5,3.6,2.5,5.3L74.9,76.7z M77.9,78c-1.5-1.9-2.3-4.6-3.2-6.8S73,67,72,65l1.8,1.1
	c1.7,4,2.3,8.7,4.9,12.2L77.9,78z M79.3,78.6c-2.8-3.5-3.5-8.1-5.1-12.2l1.2,0.7c1.9,4,3.1,8.3,5.5,12.2L79.3,78.6z M81.3,79.4
	c-2.4-3.8-3.7-8-5.5-12.1c0.8,0.5,1.5,0.9,2.3,1.4c1.5,3.8,2.5,7.8,4.6,11.2L81.3,79.4z M80.2,89.1c0.2-0.3,0.5-0.6,0.7-0.9
	c0.3,0.3,0.6,0.6,0.9,0.9C80.8,89.1,80.1,89.1,80.2,89.1L80.2,89.1z M82.2,89L82.2,89c-0.4-0.3-0.8-0.7-1.2-1.1
	c0.2-0.2,0.3-0.5,0.5-0.8c0.4,0.7,0.9,1.3,1.4,1.9H82.2z M83.3,88.9c-0.7-0.6-1.2-1.3-1.6-2.2c0.1-0.2,0.3-0.5,0.4-0.7
	c0.6,1,1.4,1.9,2.2,2.8L83.3,88.9z M84.7,88.8c-0.9-0.9-1.8-2-2.4-3.1c0.2-0.4,0.4-0.7,0.6-1.1c0.7,1.6,1.8,3,3.1,4.1L84.7,88.8z
	 M86.3,88.7c-1.4-1.2-2.6-2.7-3.3-4.4l0.6-1.1c0.9,2,2.2,3.8,3.6,5.4L86.3,88.7z M87.5,88.5c-1.5-1.7-2.8-3.6-3.8-5.7
	c0.3-0.5,0.6-1.1,0.9-1.6c0.1-0.2,0-0.4-0.1-0.5l-1.3-0.6c-2.2-3.4-3.2-7.4-4.7-11.2l2,1.2c2.6,6.2,5.7,12.2,8.9,18.1L87.5,88.5z
	 M89.6,88.3c-3.1-5.8-6.2-11.7-8.8-17.8l2.3,1.4c2.5,5.4,4.8,11.2,8,16.2L89.6,88.3z M91.5,88.1c-3.2-4.9-5.4-10.6-7.9-15.9l3.4,2.1
	c2,4.5,3.5,9.4,6.1,13.7L91.5,88.1z M93.5,87.8c-2.6-4.2-4.1-9-6-13.5c0.1,0,0.2,0,0.3-0.1c0.4-0.5,0.7-0.9,1-1.4
	c1.2,5.2,3.2,10.2,5.8,14.8C94.1,87.8,93.8,87.8,93.5,87.8L93.5,87.8z M94.8,87.7c-2.7-4.7-4.7-9.8-5.9-15.2
	c0.2-0.4,0.5-0.7,0.7-1.1c1.9,5.5,4.1,10.8,6.5,16.1L94.8,87.7z M96.4,87.5c-2.5-5.4-4.7-10.9-6.6-16.4c0.2-0.3,0.3-0.6,0.5-0.9
	c1.9,3.1,3.5,6.3,4.7,9.8c0.7,2.6,1.8,5.1,3.2,7.4C97.5,87.4,96.9,87.5,96.4,87.5L96.4,87.5z M98.5,87.3c-2-2.8-2.8-6.2-4-9.4
	c-1.1-2.8-2.5-5.5-4.1-8l0.6-1c1.6,3,2.8,6.2,4.1,9.3c1.2,2.8,2.3,6.6,4.3,9L98.5,87.3z M99.8,87.2c-2-2.5-3.1-6.3-4.4-9.2
	c-1.4-3.2-2.6-6.5-4.2-9.5c0.2-0.4,0.5-0.9,0.8-1.3c1.1,2.7,2.4,5.3,3.7,7.9c1.9,3.9,3,8.2,5.5,11.8L99.8,87.2z M101.5,87L101.5,87
	c-2.2-3.2-3.2-6.9-4.8-10.4c-1.5-3.2-3.2-6.3-4.4-9.6c0.4-0.4,0.9-0.4,1.4,0.7c0.7,1.6,1.4,3.1,2.2,4.7c2.3,4.8,4.6,9.6,6.9,14.4
	L101.5,87z"/>
<path d="M278.4,84.8c-3.1-2.7-6.6-4.8-10.4-6.4c-0.3-0.1-0.7,0-0.8,0.3c0,0.1-0.1,0.2,0,0.3c-0.1,0.1-0.1,0.2-0.1,0.3H267
	c-0.8-0.2-1,0.9-0.2,1.2c0.2,0,0.4,0.1,0.5,0.2c-0.1,0.1,0,0.3,0,0.4c0.4,1,2.2,1.7,3,2c2.3,1.2,4.7,2.3,7.1,3.3
	c0.3,0.1,0.6,0,0.7-0.2c0.1-0.1,0.1-0.3,0-0.4c0.3,0,0.5-0.3,0.4-0.6C278.6,85.1,278.5,84.9,278.4,84.8z"/>
<path d="M244.1,99.6c0.3,0.4,0.6,0.9,0.9,1.3c1.5,2,3.2,3.9,4.6,6c0.1,0.2,0.4,0.3,0.7,0.2l0.3-0.1c0.1,0,0.1-0.1,0.2-0.1l0.1,0.1
	c0.5,0.5,1.2-0.2,0.9-0.8c-1.6-2.9-3.4-5.7-5.4-8.4c-0.1-0.1-0.3-0.2-0.5-0.2l-0.5-0.7c-0.2-0.3-0.5-0.4-0.8-0.2
	c-0.3,0.2-0.4,0.5-0.2,0.8l0.3,0.4c-0.2,0-0.4,0.1-0.5,0.3c-0.1,0-0.3,0.1-0.4,0.1c-0.3,0.2-0.4,0.5-0.2,0.8
	C243.6,99.5,243.8,99.6,244.1,99.6z"/>
<path d="M221,108.4c0.5,1.3,1.1,2.6,1.8,3.8c0.8,2.2,1.9,4.3,3.2,6.2c0.2,0.3,0.5,0.3,0.7,0.2c0,0,0.1,0,0.1-0.1
	c0.2,0.3,0.4,0.6,0.6,0.9c0.2,0.3,0.6,0.3,0.8,0.1c0.1-0.1,0.2-0.2,0.2-0.3c0.3,0.4,0.5,0.8,0.8,1.2c0.2,0.3,0.5,0.4,0.8,0.2
	c0.3-0.2,0.4-0.5,0.2-0.8l0,0l-0.4-0.6c0.3-0.1,0.4-0.4,0.3-0.6c0,0,0,0,0,0c0,0-0.1-0.1-0.1-0.1l0,0c-1.3-3-3-5.7-5-8.3
	c-0.2-0.2-0.3-0.5-0.5-0.8c-0.1-0.1-0.2-0.2-0.3-0.2c-0.4-0.4-0.7-0.9-1.1-1.3s-0.9,0-0.9,0.4l0-0.1
	C221.9,107.3,220.8,107.7,221,108.4z M223.8,110.4l0.4,0.8l-0.1,0.1c-0.2-0.4-0.4-0.7-0.6-1.1V110L223.8,110.4z"/>
<path d="M169.5,34.9c-0.5-0.4-1.3,0.2-0.9,0.8l0.1,0.1l0,0l0,0c0.2,0.2,0.4,0.4,0.6,0.7l-0.1-0.1c-0.2-0.1-0.4-0.1-0.5,0l-0.4-0.4
	c-0.3-0.2-0.6-0.1-0.8,0.1c-0.2,0.2-0.2,0.6,0,0.8c0.8,0.8,1.6,1.5,2.4,2.1c-0.6,0.4,0,1.4,0.7,1c0,0,2.1,1.7,2.6,2
	c1.1,0.9,2.2,1.9,3.4,2.8c0.3,0.2,0.6,0.1,0.8-0.1c0.2-0.2,0.2-0.6,0-0.8c-0.1-0.2-0.3-0.3-0.4-0.4l0.7,0.4c0.6,0.4,1.1-0.5,0.6-1
	c-0.2-0.2-0.5-0.5-0.7-0.7c0.1-0.2,0-0.5-0.1-0.6c-1.4-1.2-2.8-2.4-4.3-3.5C172,37,170.8,35.9,169.5,34.9z"/>
<path d="M264.5,54.4c-0.6,0.1-0.5,1.2,0.2,1.1l2-0.3h0.1c0,0.3,0.3,0.5,0.5,0.5c-0.1,0.4,0.1,0.8,0.5,0.7c2.1-0.4,4.2-0.1,6.3-0.3
	c1.4,0.1,2.8-0.1,4.2-0.3c0.6-0.1,0.5-1-0.1-1.1l-0.4-0.1c-0.1-0.1-0.2-0.3-0.3-0.3c0.1-0.2-0.1-0.5-0.3-0.6h-0.1l0,0
	c-3.7-1.3-7.8-1.3-11.5,0.1c-0.2,0.1-0.3,0.2-0.3,0.4l-0.7,0.1L264.5,54.4z"/>
<path d="M259.4,24.1l0.4-0.6c0.4-0.6-0.5-1.1-1-0.7c-3.5,3.2-7.9,6.4-9.5,11c-0.1,0.4,0.4,0.8,0.8,0.7c0.5-0.2,1.1-0.4,1.6-0.7
	c0.2,0,0.3,0,0.5-0.1l0.5-0.4l0.3-0.2c0.2,0.1,0.4,0.1,0.6,0l0.1-0.1l0,0l0,0c0.4-0.3,0.7-0.6,1.1-1c2.2-1.8,4.2-3.9,5.9-6.3
	c0.2-0.3,0.2-0.6-0.1-0.8c-0.2-0.2-0.5-0.2-0.7,0l-0.1,0.1c0.2-0.2,0.1-0.6-0.1-0.7C259.5,24.1,259.5,24.1,259.4,24.1z"/>
<path d="M229.9,4L229.9,4c-0.2,0.3-0.2,0.5-0.1,0.7c-0.2,1.3-0.2,2.7-0.1,4.1c0,1.3,0.1,2.5,0.3,3.8c0,0.1,0,0.3,0,0.4
	c0,0.1,0,0.2,0,0.3c0,0.4,0.1,0.9,0.2,1.3c0.1,0.2,0.2,0.3,0.4,0.4c0.1,0.2,0.2,0.5,0.3,0.7c0.1,0.3,0.4,0.4,0.7,0.4
	c0.3,0.2,0.6,0.2,0.9-0.1c0.1-0.1,0.1-0.2,0.1-0.4c0.3-4.7,0.8-9.5-0.5-14.2c-0.1-0.3-0.4-0.5-0.7-0.4c-0.1,0-0.1,0.1-0.2,0.1
	c-0.2-0.2-0.5-0.3-0.8-0.1c-0.1,0.1-0.2,0.2-0.2,0.4l-0.1,1.3C230.1,3.1,230,3.6,229.9,4z"/>
<path d="M197.2,20.9l-0.4-0.6c0,0,0-0.1,0-0.1c-0.5-0.7-0.9-1.5-1.4-2.2c-1.4-2.9-3.1-5.6-5.2-8.1c-0.5-0.8-1-1.5-1.6-2.3
	c-0.2-0.2-0.5-0.3-0.8-0.2c-0.4-0.2-0.8,0.3-0.7,0.7c0.2,0.8,0.4,1.5,0.7,2.2c0.8,2.8,2.6,5.2,4.5,7.6c1.1,1.7,2.3,3.3,3.8,4.7
	c0.5,0.5,1.2-0.2,0.9-0.8l-0.1-0.1c0.3,0,0.6-0.3,0.5-0.6C197.3,21.1,197.2,21,197.2,20.9z"/>
<path d="M215.2,34.6c-8.8-0.3-15,5.5-18.1,13.2c-1.5,3.7-2.1,7.8-3.2,11.7c-1.5,5.1-4.5,8.6-8.9,11.6c0,0-0.1,0.1-0.1,0.1
	c-0.3,0.1-0.4,0.3-0.4,0.6c0.1,1.1,0.4,2.2,0.7,3.3c-1.9,0.8-4.5,2.1-4.8,4.4c-0.1-0.1-0.3-0.1-0.4-0.1c-4.9,0.4-5.5,3.6-4.1,7
	c-3,1.9-5.1,6.2-2.3,9.2c2.4,2.5,7.1,0.4,9.3-1.2l0,0c3.3,2.1,6.6,2.2,7.5-2c2,0.5,3.9-0.1,5.6-2.4l0.3,0.3c2,1.5,3.5,0.8,5.4-0.4
	c5-3.3,10.6-0.5,15.8,0.8c8.5,2.1,15.4-2.2,21.8-7.4c5.1-4,8.2-10.1,8.3-16.5C247.9,49.2,231.7,35.1,215.2,34.6z M175.6,95.2
	c-1.5-0.3-2-1.8-2-3.2c-0.1-1.9,1.4-3.6,2.9-4.6c1.3,2.4,3.2,4.4,5.3,6.1C180,94.8,177.8,95.4,175.6,95.2L175.6,95.2z M188.2,93.7
	c-0.1,0.1-0.2,0.2-0.3,0.2c-2.3-0.9-4.3-2.3-6-4.1c-0.2-0.2-0.5,0.1-0.3,0.3c1.6,1.7,3.6,3.1,5.7,4h0c0,0,0,0-0.1-0.1
	c-1.9-0.4-3.6-1.3-4.9-2.7c-0.2-0.2-0.5,0.1-0.3,0.3c1,1,2.3,1.9,3.6,2.4c-5.4-1.3-14.1-12.9-5.7-13.6c0.1,0,0.2-0.1,0.3-0.1
	c0.2,2.8,2.3,5.3,3.9,7.3c1.3,1.7,3,3.1,4.9,4.1c0,0.2-0.1,0.4-0.1,0.6c-1.4-0.7-2.6-1.5-3.8-2.5c-0.2-0.2-0.5,0.1-0.3,0.3
	c1.2,1,2.5,1.9,3.9,2.5c-0.1,0.2-0.2,0.4-0.4,0.6c-1.7-0.9-3.3-2-4.7-3.3c-0.1-0.1-0.2-0.1-0.3,0c-0.1,0.1-0.1,0.2,0,0.3l0,0
	C185,91.7,186.6,92.8,188.2,93.7L188.2,93.7z M188.5,87.7c1,1,2.6,3,4.2,3.3l-0.3,0.1c-1.6-0.6-3-1.6-4.1-2.8
	c-0.2-0.2-0.5,0.1-0.3,0.3c1,1.1,2.3,2,3.6,2.6c-2.4,0.1-4.9-2.4-6.7-4.6c-1.2-1.4-2.2-3-3-4.7c-1.4-3,1.2-4.6,3.6-5.7
	c2,5,5.3,9.4,9.4,12.8l-0.1,0.2c-0.1,0-0.1,0-0.2,0c-0.8,0.2-1.9-0.8-2.5-1.2c-0.6-0.5-1.2-1.1-1.8-1.6c-0.2-0.2-0.5,0.1-0.3,0.3
	c0.8,0.8,1.6,1.5,2.5,2.2c0.5,0.5,1.2,0.8,1.9,0.8c-0.2,0.2-0.3,0.4-0.5,0.5c-1.6-0.6-3.1-1.6-4.3-2.9c-0.2-0.2-0.5,0.1-0.3,0.3
	c1.2,1.3,2.6,2.3,4.2,2.9l-0.3,0.2c-1.7,0.2-3.6-2.2-4.7-3.3C188.6,87.2,188.3,87.5,188.5,87.7L188.5,87.7z M231.3,40.7
	c7.5,4.6,12.4,12.5,14.4,20.9c1.6,6.6-0.2,13.5-4.9,18.4c-0.4,0.4-0.7,0.8-1.1,1.2c-1.6,0-3.3-0.2-4.9-0.6c-0.1,0-0.2,0.1-0.2,0.2
	c0,0.1,0.1,0.2,0.1,0.2c1.5,0.3,3,0.5,4.5,0.6l-0.4,0.4c-2.1-0.1-4.1-0.4-6.1-0.9c-0.3-0.1-0.4,0.3-0.1,0.4c1.9,0.4,3.9,0.7,5.8,0.8
	l-0.7,0.6c-2.3-0.2-4.6-0.6-6.8-1.3c-0.3-0.1-0.4,0.3-0.1,0.4c2.1,0.7,4.2,1.1,6.3,1.3l-0.6,0.5c-2.7,0.3-5.5-0.8-8.1-1.4
	c-0.3-0.1-0.4,0.3-0.1,0.4c2.5,0.6,5.1,1.5,7.6,1.4l-0.1,0.1c-1.3,0-2.7-0.1-4-0.3c-1.6-0.1-3.1-0.5-4.6-1c-0.2-0.1-0.5,0.3-0.2,0.4
	c1.5,0.5,3.1,0.9,4.7,1.1c1.1,0.2,2.2,0.4,3.4,0.4c-0.2,0.2-0.4,0.3-0.7,0.5c-2.3,0-4.6-0.4-6.8-1.1c-0.3-0.1-0.4,0.3-0.1,0.4
	c2,0.6,4.1,1,6.3,1.1l-0.5,0.3c0,0,0,0-0.1,0c-2.6-0.2-5.2-0.7-7.7-1.5c-0.3-0.1-0.3,0.3-0.1,0.4c2.4,0.8,4.9,1.2,7.4,1.4l-0.7,0.4
	c-3-0.3-5.9-0.9-8.8-1.8c-0.3-0.1-0.4,0.3-0.1,0.4c2.7,0.9,5.4,1.5,8.2,1.8c-0.3,0.2-0.6,0.3-1,0.5c-1.3-0.1-2.6-0.4-3.9-0.7
	c-1.8-0.4-3.6-1-5.3-1.8c-0.1-0.1-0.2,0-0.3,0.1c-0.1,0.1,0,0.2,0.1,0.3l0,0c1.6,0.7,3.2,1.3,4.9,1.8c1.2,0.3,2.4,0.6,3.6,0.8
	c-0.4,0.2-0.9,0.3-1.3,0.5c-1.7-0.2-3.4-0.6-5.1-1.2c-1.6-0.8-3.1-1.6-4.6-2.5c-0.1-0.1-0.2,0-0.3,0.1c-0.1,0.1,0,0.2,0.1,0.3l0,0
	c1.7,1,3.4,1.9,5.1,2.8c1.2,0.5,2.5,0.8,3.9,0.9c-0.3,0.1-0.6,0.2-0.9,0.2c-3-0.5-5.9-1.5-8.6-2.8c-0.1-0.1-0.2,0-0.3,0.1
	c-0.1,0.1,0,0.2,0.1,0.3c2.5,1.3,5.1,2.2,7.9,2.7c-0.6,0.1-1.3,0.2-1.9,0.3c-1.5-0.7-3.4-0.8-4.9-1.4c-1.8-0.7-3.5-1.6-5.1-2.6
	c-0.2-0.2-0.4,0.2-0.2,0.4c1.5,0.9,3,1.7,4.6,2.4c0.7,0.3,1.3,0.6,2,0.8s1.7,0.4,2.5,0.6c-1.7,0.1-3.4,0-5-0.4
	c-5.7-1.2-11.4-4.3-16.8-0.6c-1.4,0.9-3.3,0.9-4.7,0c-0.1-0.1-0.2-0.2-0.4-0.2c-2.6-1.6-5.1-5.1-7-8.6c6.8-5.3,10.5-13.5,16.5-19.6
	c1.4-1.6,3.1-2.9,5-3.8c1.5-0.7,3.3,0,4,1.5c0,0,0,0,0,0c-0.8,0-1.6,0.3-2.3,0.7c-4.9,3,0.2,7,3,2.6c0.3-0.4,0.4-0.9,0.5-1.4
	c0.6,0.9,1,1.9,1.1,3c-2.1,0-4.2,0.6-4.6,2.2c-0.3,1.3,1.8,1.9,2.6,2.1c1.8,0.4,2.8-1.3,3.2-2.7l0.1-0.3c1.7,0,3.5,0.5,4.2,1.8
	c-0.3-0.1-0.7-0.1-1-0.2c-5-0.6-7.5,5.9-1.4,5.5c1.7-0.1,3.2-1.2,3.7-2.9c0.4,0.7,0.7,1.4,0.9,2.2c-0.6,1.8-3.7,2.8-5.2,3.5
	c-3.8,1.5-7.4,2.8-11,4.6c-4.7,2.4-9.8,3.8-14.4,6.3c-0.7,0.4,0,1.5,0.7,1.1c4.5-2.5,9.7-3.9,14.4-6.3c4.1-2.1,8.4-3.3,12.4-5.2
	c2-1,4.3-2.2,4.6-4.7c0.1-1.5-0.8-2.9-2.2-3.4c-0.2-1.3-1.1-2.3-2.3-2.8c-1-0.4-2-0.6-3.1-0.6c0.2-1.9-0.8-3.7-2.4-4.7
	c-0.1-1.2-0.9-2.3-1.9-2.8c-2.5-1.2-4.7,0-6.7,1.5c-7.8,5.8-11.2,15.7-18.8,21.7c-1.1-2.1-2-4.4-2.5-6.7c4.2-2.7,7.4-6.6,9-11.3
	c2.8-8,3.1-16.6,10.5-22S224.1,36.3,231.3,40.7L231.3,40.7z M214.5,59c-0.3,2.3-4.4,3.5-2.2,1.1C213.1,59.1,213.9,58.9,214.5,59z
	 M214.9,64.5c0.5-0.2,1.1-0.3,1.6-0.3C215.7,65.9,212.6,65.2,214.9,64.5L214.9,64.5z M222.6,67.4c-0.3,1.7-2.8,2.7-4.3,2.6l1-2.8
	C220.3,66.7,221.5,66.8,222.6,67.4L222.6,67.4z"/>
<path d="M215.8,46c1.6,0.5,3.3,1,4.9,1.2c1.6,0.4,3.2,0.7,4.9,0.8c1.3,0.1,2.5-0.4,3.3-1.4c0.7-1-0.5-2.1-1.4-2.7
	c-0.1-0.1-0.2-0.2-0.3-0.3c-3.4-1.8-7.6-4.2-11.5-2.5c-1.1,0.5-2.3,1.4-2.3,2.7S215,45.7,215.8,46z M218.8,41.8
	c2.6,0,5.1,1.4,7.4,2.6c0.1,0.1,0.1,0.2,0.2,0.2c0.2,0.1,1.6,0.9,1.5,1.4s-1.2,0.6-1.5,0.6c-1.2,0.1-2.3,0-3.5-0.3
	c-2.1-0.5-4.2-0.8-6.3-1.4c-0.5-0.2-2.1-0.7-1.8-1.4C215.4,42.1,217.5,41.8,218.8,41.8z"/>
<path d="M184.4,53.7c0.2-0.2,0.4-0.4,0.7-0.5s0-0.5-0.2-0.3l-0.7,0.5C184,53.4,184.2,53.8,184.4,53.7z"/>
<path d="M85.8,296.2c-0.3-4.7,0.5-28.3-7.8-30.5c-6.8-3.5-13.3-7-19.7-11.2c0.4-2.2,0.4-4.5,0.6-6.6c0.4-4.1-0.8-6.2-4-8.7
	c-3-2.3-6.9-5.9-10.9-5.9c-2.1,0-5,0.9-6,2.9c-0.1,0.1-0.1,0.2-0.2,0.3c-0.5,1.4-0.8,2.8-1,4.2c-2.6-1.5-5.5-2.7-8.4-3.3
	c-0.1-0.1-0.2-0.1-0.4-0.1c0,0-0.1,0-0.1,0h-0.1c-0.1,0-0.2,0-0.3,0c-9.7-0.1-14.9,4.2-17.4,13.6c-3.3,12.3-2.3,25.9-3.2,38.4
	c-0.1,0.3,0,0.6,0.3,0.7c0.6,0.4,1.2,0.8,1.8,1.1c0.8,9.1-0.2,18.2,0.3,27.3c0,0.1,0,0.2,0,0.2c0,0.2,0.2,0.4,0.4,0.4
	c9.2,6,18,12.5,26.9,18.9c8.4,6,17.5,10.3,26.1,15.7c0.2,0.2,0.4,0.4,0.7,0.4c0.4,0.1,0.8-0.2,0.9-0.6c0-0.1,0-0.1,0-0.2
	c2.2-3,5.2-7.8,10.4-3.5c0.3,0.2,0.8,0.1,1-0.2c1.8-2.9,3.6-8,9.3-0.5c0.3,0.3,0.7,0.3,1.1,0.1c0.1-0.1,0.2-0.3,0.3-0.5
	C88.4,331.4,86.9,313.5,85.8,296.2z M41.8,235.5c4.4-1.1,6.6,1.2,9.9,3.4c3.8,2.5,6.1,5.5,5.6,10.3c-0.2,2.2,0.2,9.1-2.6,9.9
	c-1.1,0.3-4.6,0.8-4.5-1.3c0.1-1.1,0.2-2.1,0.4-3.2c0.2-1.4,0.4-2.8,0.6-4.3l0,0c0.1-0.8,0.2-1.6,0.3-2.4c0.4-4.1-1.9-4.9-4.9-6.6
	C45.8,241,37.2,236.7,41.8,235.5L41.8,235.5z M49.6,248.8c-1.7-1.1-3.5-2.3-5.2-3.4c0-1.1,0.1-2.2,0.2-3.3l1,0.5
	C48,243.8,49.5,246.2,49.6,248.8L49.6,248.8z M37.9,247.7c0.3-3,0.2-6.1,0.9-9.1c1.4,1.2,2.9,2.1,4.5,2.9c-0.1,0.1-0.2,0.2-0.2,0.4
	c-0.3,2.3-0.4,4.6-0.5,6.9c0,0.7-0.6,3.5-0.5,3.5l-2.3-0.2l-2.3-0.2C37.1,251.9,37.8,248,37.9,247.7z M8.5,289L8.5,289
	c0,0,0-0.1,0-0.1V289z M10.8,318c0-0.8-0.1-1.6-0.1-2.4C10.8,316.4,10.9,317.2,10.8,318L10.8,318z M62.9,350.4
	c-0.1-0.8-0.1-1.6-0.2-2.4c0-0.2-0.3-0.1-0.3,0c0.2,1.3,0.2,2.6,0.4,4l-0.7-0.4c-0.5-2.4-0.8-4.9-1-7.4c0-0.2-0.3-0.2-0.3,0
	c0.1,2.4,0.4,4.8,0.9,7.2c-0.2-0.2-0.5-0.3-0.8-0.5c-0.4-1.8-0.7-3.6-0.9-5.4c0-0.2-0.3-0.1-0.3,0c0.2,1.7,0.5,3.4,0.9,5.1l-1.4-0.9
	c-0.7-2.3-1.6-4.6-1.7-7.1c0-0.2-0.3-0.2-0.3,0c0.2,2.4,0.7,4.7,1.6,6.9l-1.2-0.7c-0.7-1.7-1.2-3.5-1.5-5.3c0-0.2-0.3-0.1-0.3,0.1
	c0.3,1.7,0.8,3.4,1.4,5c-0.8-0.4-1.5-0.9-2.3-1.3c-0.5-1.4-1-2.8-1.5-4.1c0-0.2-0.3-0.1-0.3,0c0.4,1.3,0.9,2.6,1.4,3.9l-0.4-0.2
	c-0.3-1.2-0.6-2.4-1-3.6c-0.1-0.2-0.3,0-0.3,0.1c0.4,1.1,0.7,2.1,0.9,3.2l-0.9-0.5c-0.6-1.7-1.7-3.9-1.2-5.5
	c0.1-0.2-0.2-0.3-0.3-0.1c-0.5,1.6,0.5,3.7,1.1,5.4l-1-0.6c-0.5-1.5-0.8-3.1-0.9-4.7c0-0.2-0.3-0.1-0.3,0c0.1,1.5,0.3,3,0.8,4.4
	c-0.3-0.2-0.7-0.4-1-0.6c-0.4-1.8-0.6-3.6-0.8-5.4c0-0.2-0.3-0.2-0.3,0c0.2,1.8,0.4,3.5,0.8,5.3l-1.9-1.1c-0.5-2-0.8-4-1-6
	c0-0.2-0.3-0.2-0.3,0c0.2,2,0.5,3.9,1,5.9l-0.8-0.5c-0.4-1.7-0.7-3.3-1.1-5c0-0.1-0.1-0.1-0.2-0.1c-0.1,0-0.1,0.1-0.1,0.1
	c0.3,1.6,0.7,3.1,1,4.7l-0.9-0.5c-0.6-1.7-0.9-3.6-1-5.4c0-0.2-0.3-0.2-0.3,0c0.1,1.7,0.3,3.4,0.9,5.1l-0.4-0.3
	c-0.4-1.1-0.6-2.2-0.7-3.3c0-0.2-0.3-0.1-0.3,0.1c0.1,1,0.3,2,0.6,3l-0.5-0.3c-0.5-1.7-0.9-3.4-1.1-5.1c0-0.2-0.3-0.1-0.3,0
	c0.2,1.6,0.5,3.3,1,4.8l-0.8-0.5c-0.3-1.2-0.5-2.3-0.6-3.5c0-0.2-0.3-0.1-0.3,0c0.1,1.1,0.3,2.2,0.5,3.2l-0.6-0.4
	c-0.2-1.4-0.4-2.9-0.7-4.3c0-0.2-0.3-0.1-0.3,0c0.3,1.3,0.5,2.7,0.7,4l-0.2-0.1c-0.3-1.1-0.4-2.3-0.6-3.4c0-0.1-0.1-0.1-0.2-0.1
	c-0.1,0-0.1,0.1-0.1,0.1c0.2,1,0.3,2.1,0.6,3.1c-0.3-0.2-0.6-0.4-0.9-0.6c-0.4-1.4-0.6-2.9-0.7-4.3c0-0.2-0.3-0.1-0.3,0
	c0.1,1.4,0.3,2.7,0.6,4l-0.2-0.1l-0.3-0.2c-0.5-1.6-0.8-3.3-0.9-5c0-0.2-0.3-0.2-0.3,0c0,1.6,0.3,3.2,0.8,4.7l-0.8-0.5
	c-0.3-1.1-0.6-2.2-0.7-3.3c0-0.1-0.1-0.1-0.2-0.1c-0.1,0-0.1,0.1-0.1,0.1c0.2,1,0.4,2,0.6,3l-1.1-0.8c-0.4-1.3-0.7-2.6-0.9-3.9
	c0-0.2-0.3-0.1-0.3,0c0.2,1.2,0.5,2.4,0.8,3.6l-1.1-0.8c-0.4-1.5-0.6-3.1-0.8-4.7c0-0.2-0.3-0.1-0.3,0c0.2,1.5,0.4,2.9,0.7,4.4
	l-1-0.7c-0.2-0.9-0.3-1.9-0.4-2.9c0-0.2-0.3-0.1-0.3,0c0.1,0.9,0.2,1.7,0.4,2.5l-1.2-0.8c-0.1-1.1-0.2-2.1-0.3-3.2
	c0-0.2-0.3-0.1-0.3,0c0.1,1,0.1,2,0.2,2.9l-0.8-0.6c-0.3-1.4-0.5-2.8-0.8-4.2c0-0.2-0.3-0.1-0.3,0c0.3,1.3,0.5,2.6,0.8,3.9l-1.2-0.9
	c-0.4-1.4-0.6-2.9-0.9-4.4c0-0.2-0.3-0.1-0.3,0.1c0.2,1.4,0.5,2.7,0.8,4l-1.5-1.1c-0.5-1.8-0.8-3.7-1.4-5.5c-0.1-0.2-0.3,0-0.3,0.1
	c0.6,1.7,0.8,3.4,1.3,5.1l-1.7-1.2c-0.3-1.5-0.7-3.1-1.3-4.5c-0.1-0.2-0.3,0-0.3,0.1c0.5,1.3,0.9,2.7,1.2,4.1l-1.2-0.9
	c-0.3-1.3-0.7-2.7-0.9-4c0-0.1-0.1-0.2-0.1-0.2s-0.2,0.1-0.2,0.1c0,0,0,0,0,0.1c0.2,1.2,0.5,2.5,0.8,3.7l-0.6-0.4
	c0-1.2-0.1-2.4-0.3-3.5c0-0.2-0.3-0.1-0.3,0c0.1,1.1,0.2,2.2,0.3,3.3l-0.2-0.1c0.1-1.5-0.1-3-0.5-4.5c0-0.2-0.3-0.1-0.3,0
	c0.4,1.4,0.5,2.8,0.5,4.2l-0.4-0.3c-0.2-1.9-1.1-3.7-1-5.6c0-0.2-0.3-0.2-0.3,0c-0.1,1.9,0.6,3.6,0.9,5.4l-0.9-0.7
	c-0.3-1.4-0.6-2.8-1-4.2c-0.1-0.2-0.3-0.1-0.3,0.1c0.4,1.3,0.7,2.6,1,3.9l-1.1-0.8c-0.2-1.7-0.5-3.3-0.9-5c0-0.2-0.3-0.1-0.3,0
	c0.4,1.6,0.6,3.1,0.9,4.7l-1-0.7c0.1,0,0.1,0,0.2-0.1s-0.1-0.3-0.2-0.2c0.1-0.2-0.1-1.2-0.1-1.4c0-0.6-0.1-1.2-0.2-1.7
	c-0.1-0.2-0.3-0.1-0.3,0.1s0.2,3.2,0.7,3.4l-2-1.4c0.1,0,0.1-0.1,0.1-0.2c-0.1-1.7-0.4-3.4-0.7-5.1c0-0.2-0.3-0.1-0.3,0.1
	c0.2,1.7,0.6,3.4,0.7,5.1l-1.3-0.9l0,0c-0.1-1.7-0.4-3.4-0.9-5.1c0-0.2-0.3-0.1-0.3,0.1c0.4,1.6,0.7,3.2,0.8,4.9l-0.7-0.5
	c0.1,0,0.1-0.1,0.2-0.2s-0.2-0.3-0.2-0.2c0,0-0.3-1.2-0.3-1.4c0-0.5-0.1-0.9-0.1-1.4c0-0.1-0.1-0.1-0.2-0.1c-0.1,0-0.1,0.1-0.1,0.1
	c0.1,1,0.2,2,0.5,3l-0.7-0.4c-0.1-1.2-0.2-2.4-0.2-3.6c0-0.2-0.3-0.1-0.3,0c0.1,1.1,0.1,2.2,0.2,3.3l-0.4-0.3c0.1-1.4,0-2.9-0.3-4.2
	c0-0.1-0.1-0.1-0.1-0.1c-0.1-7.3,0.5-14.6-0.1-21.8c0.6,0.4,1.3,0.8,1.9,1.3c0,0.1,0.1,0.1,0.2,0.1c0,0,0,0,0,0l0.7,0.5l0,0
	c0,0.1,0.1,0.2,0.1,0.2c0,0,0.1,0,0.1,0l1,0.7c0,0,0,0,0,0c0,0.1,0.1,0.1,0.1,0.1c0,0,0,0,0.1,0l1,0.7c0,0.1,0,0.1,0,0.2
	c0,0.2,0.3,0.2,0.3,0l0.8,0.6v0.1c0,0.1,0.1,0.1,0.1,0.1c0,0,0.1,0,0.1,0c2.8,2.1,5.6,4.3,8.4,6.5c0,0,0,0,0,0c-0.1,1-0.2,2-0.4,2.9
	s-0.6,3.1-0.2,4.1c0.7,1,1.6,1.9,2.6,2.5c1.6,1.3,3.5,2.3,5.5,3c0.4,0.1,0.8,0,1-0.4c0-0.1,0-0.1,0-0.2c0-0.8,0-1.6,0.1-2.4
	c0.1-0.8,0.1-1.5,0.1-2.3c0,0,0-0.1,0-0.2c7.9,6.3,16,12,24.3,17.6l0.1,0.2c0,0.1,0.1,0.1,0.1,0.1c0.1,0,0.1-0.1,0.1-0.1
	c1.2,0.8,2.4,1.7,3.6,2.5C62.8,337.2,63.2,343.7,62.9,350.4L62.9,350.4z M32.8,311.7c0,0.8-0.1,1.5-0.1,2.3
	c-1.3-0.6-2.6-1.3-3.8-2.1c-0.8-0.5-2.5-1.7-2.5-2.7c0.1-1.7,0.2-3.3,0.5-5c2,1.6,4,3.3,6,4.8C32.8,309.9,32.8,310.8,32.8,311.7z
	 M62.6,323.4c-0.1,1.8,0,3.6,0,5.4l-0.3-0.2c-0.6-2.7-0.9-5.5-0.9-8.3c0-0.2-0.3-0.2-0.3,0c0,2.7,0.3,5.4,0.9,8l-0.5-0.4
	c-0.6-2.6-1-5.2-1.5-7.8c0-0.1-0.1-0.1-0.1-0.1c-0.1,0-0.1,0.1-0.1,0.1c0,0,0,0,0,0c0.5,2.5,0.9,5,1.4,7.5l-1-0.7
	c-0.3-2.5-0.8-5-1.5-7.4c-0.1-0.2-0.3-0.1-0.3,0.1c0.6,2.3,1.1,4.7,1.4,7.1l-1.1-0.7c-0.3-2.4-0.4-4.9-1.7-6.8
	c-0.1-0.1-0.3,0-0.2,0.2c1.2,1.8,1.3,4.2,1.6,6.4l-1.1-0.8c-0.8-2.2-1.2-4.4-1.2-6.8c0-0.2-0.3-0.2-0.3,0c0,2.2,0.4,4.4,1.1,6.5
	l-1.3-0.9c-0.7-2.1-0.9-4.2-1.5-6.3c-0.1-0.2-0.3-0.1-0.3,0c0.5,2,0.8,4,1.4,6l-1.8-1.2c-0.6-2.2-0.8-4.5-1.2-6.7
	c0-0.1-0.1-0.1-0.2-0.1c-0.1,0-0.1,0.1-0.1,0.1c0.4,2.1,0.6,4.3,1.1,6.4l-1.5-1c-0.7-2-0.9-4.1-1.5-6.1c-0.1-0.2-0.4-0.1-0.3,0
	c0.6,1.9,0.8,3.9,1.4,5.8l-1.4-1c-0.3-1.9-0.8-3.8-1.4-5.7c-0.1-0.2-0.3,0-0.3,0.1c0.6,1.7,1,3.5,1.3,5.3l-1.6-1.1
	c-0.3-1.5-0.6-3-1.1-4.4c-0.1-0.2-0.3,0-0.3,0.1c0.4,1.3,0.8,2.6,1,4l-1.1-0.8c-0.3-1.3-0.6-2.5-1-3.8c-0.1-0.2-0.4-0.1-0.3,0
	c0.4,1.1,0.6,2.3,0.9,3.5l-1.3-1c-0.2-1.2-0.5-2.3-0.9-3.5c-0.1-0.2-0.3,0-0.3,0.1c0.4,1,0.6,2,0.8,3.1l-1-0.7
	c-0.3-1.1-0.5-2.3-0.8-3.5c0-0.1-0.1-0.1-0.2-0.1c-0.1,0-0.1,0.1-0.1,0.2c0.2,1.1,0.4,2.1,0.7,3.2c-0.4-0.3-0.7-0.5-1.1-0.8
	c-0.2-0.9-0.3-1.9-0.4-2.9c0-0.2-0.3-0.1-0.3,0c0.1,0.9,0.2,1.7,0.4,2.5l-0.6-0.4c-0.2-0.9-0.4-1.8-0.6-2.6c0-0.2-0.3-0.1-0.3,0.1
	c0.2,0.8,0.3,1.5,0.5,2.3l-0.4-0.3c-0.2-1.1-0.4-2.1-0.6-3.2c0-0.2-0.3-0.1-0.3,0c0.2,1,0.4,1.9,0.6,2.9l-0.5-0.4
	c-0.1-0.7-0.2-1.5-0.3-2.2c0-0.2-0.3-0.1-0.3,0.1c0.1,0.6,0.2,1.3,0.3,1.9l-0.3-0.3c-0.2-1.2-0.4-2.4-0.6-3.6c0-0.1-0.1-0.1-0.2-0.1
	c-0.1,0-0.1,0.1-0.1,0.1c0.2,1.1,0.4,2.2,0.6,3.3l-0.5-0.4c-0.3-1.2-0.5-2.4-0.7-3.6c0-0.2-0.3-0.1-0.3,0c0.1,1.1,0.3,2.2,0.6,3.3
	l-0.5-0.4c-0.2-0.9-0.3-1.7-0.4-2.6c0-0.2-0.3-0.1-0.3,0.1c0.1,0.8,0.2,1.5,0.3,2.3l-0.2-0.1l-1-0.8c-0.3-1.4-0.6-2.8-0.6-4.2
	c0-0.2-0.3-0.1-0.3,0c0.1,1.3,0.3,2.6,0.6,3.8l-0.7-0.6c-0.4-1.4-0.7-2.9-0.8-4.3c0-0.2-0.3-0.1-0.3,0c0.1,1.4,0.3,2.7,0.7,4
	l-0.7-0.6c0,0,0-0.1,0-0.1c-0.2-1.5-0.4-2.9-0.6-4.3c0-0.2-0.3-0.1-0.3,0.1c0.1,1.4,0.3,2.8,0.5,4.1l-0.9-0.7c0.1,0,0.2-0.1,0.2-0.1
	c0,0,0,0,0-0.1c-0.4-1.3-0.6-2.7-0.6-4.1c0-0.1,0-0.2-0.1-0.2s-0.2,0-0.2,0.1c0,0,0,0.1,0,0.1c-0.1,1.4,0.1,2.8,0.6,4.2l-1.2-1
	c-0.4-1.4-0.5-2.8-0.3-4.2c0-0.2-0.2-0.2-0.3,0c-0.2,1.3-0.1,2.6,0.2,3.9l-0.3-0.2c-0.2-1.2-0.3-2.4-0.2-3.5c0-0.2-0.3-0.2-0.3,0
	c-0.1,1.1,0,2.2,0.2,3.3l-0.6-0.5c-0.2-1.5-0.2-3.1-0.4-4.6c0-0.1-0.1-0.1-0.2-0.1c-0.1,0-0.1,0.1-0.1,0.1c0.2,1.4,0.3,2.9,0.4,4.3
	l-0.7-0.5c0,0,0-0.1,0-0.1c-0.1-0.9-0.2-1.7-0.1-2.6c0-0.2-0.3-0.2-0.3,0c0,0.8,0,1.7,0.1,2.5l-0.7-0.6c0-1.2-0.1-2.5-0.1-3.7
	c0-0.2-0.3-0.2-0.3,0l0.1,3.5l-0.2-0.2l-0.1-3c0-0.2-0.3-0.1-0.3,0c0,0.9,0.1,1.8,0.1,2.6l-0.2-0.1c-0.2-1.5-0.3-3.1-0.2-4.6
	c0-0.1,0-0.2-0.1-0.2s-0.2,0-0.2,0.1c0,0,0,0.1,0,0.1c0,1.5,0,2.9,0.2,4.4l-0.6-0.5c-0.1-1.3-0.2-2.6-0.3-3.8c0-0.2-0.3-0.1-0.3,0
	c0.1,1.2,0.2,2.4,0.2,3.5l-0.6-0.5c-0.3-1.4-0.4-2.8-0.2-4.3c0-0.2-0.3-0.2-0.3,0c-0.2,1.3-0.1,2.7,0.2,4L23,299
	c-0.2-1.6-0.3-3.2-0.3-4.8c0-0.2-0.3-0.2-0.3,0c-0.1,1.5,0,3.1,0.2,4.6l-0.7-0.5c-0.3-1.5-0.3-3.1,0-4.6c0-0.2-0.3-0.2-0.3,0
	c-0.3,1.5-0.3,2.9-0.1,4.4l-0.6-0.5c-0.1-1.3-0.1-2.6,0-3.8c0-0.1,0-0.2-0.1-0.2s-0.2,0-0.2,0.1c0,0,0,0.1,0,0.1
	c-0.1,1.2-0.1,2.4,0,3.6l-1.2-0.9c-0.1-1.6,0-3.3,0-4.9c0-0.2-0.3-0.2-0.3,0c0,1.6,0,3.1,0,4.7l-0.9-0.6c-0.1-0.9-0.1-1.9-0.1-2.8
	c0-0.1-0.1-0.1-0.2-0.1s-0.2,0.1-0.2,0.1c0,0.9,0,1.8,0.1,2.6l-1-0.7c0-1.2,0-2.4-0.1-3.5c0-0.2-0.3-0.1-0.3,0.1
	c0.1,1.1,0.1,2.2,0.1,3.3l-0.8-0.6l-0.1-2.6c0-0.2-0.3-0.2-0.3,0l0.1,2.4l-0.9-0.6c0-1,0.1-2.1,0.1-3.1c0-0.2-0.3-0.2-0.3,0
	c0,1-0.1,2-0.1,3l-0.8-0.5c0.1-1.2,0.1-2.3,0-3.5c0-0.2-0.3-0.1-0.3,0c0.1,1.1,0.1,2.2,0,3.2l-0.6-0.4c0-0.7,0.1-1.5,0-2.2
	c0-0.2-0.3-0.2-0.3,0c0,0.7,0,1.4,0,2l-0.2-0.2c0.1-1.2,0-2.4-0.2-3.6c0-0.1-0.1-0.1-0.2-0.1c-0.1,0-0.1,0.1-0.1,0.1
	c0.2,1.1,0.3,2.2,0.2,3.4l-0.8-0.5c0.1-1.1,0.1-2.3-0.1-3.4c0-0.2-0.3-0.1-0.3,0.1c0.1,1,0.1,2.1,0.1,3.1l-0.6-0.4
	c0,0-0.1-0.1-0.1-0.1c0-1.4,0.1-2.7,0.1-4.1c0-0.2-0.3-0.2-0.3,0c0,1.3-0.1,2.6-0.1,3.9H9.8l-0.3-0.2c0.1-1.2,0.2-2.5,0.2-3.7
	c0-0.2-0.3-0.2-0.3,0c0,1.2,0,2.4-0.1,3.6l-0.6-0.3c0-1.2,0.1-2.3,0.1-3.5c0-0.1-0.1-0.1-0.1-0.1c0,0,0,0,0,0c0.5-8,0.7-16,1.4-24
	c1-11.8,3.7-23.1,17.8-22.8c3.1,0.7,6.1,1.9,8.9,3.5c-0.1,2.6-0.4,5.3-0.8,7.9c-0.5,2.6,0.9,3.2,3.1,3.4s3.6,0.9,4.6-1.6
	c0.5-1.5,0.7-3.2,0.7-4.8c1.7,1.1,3.5,2.2,5.2,3.4c-0.1,1.6-0.4,3.3-0.7,5c-0.3,2.1-0.9,4.6,1.4,5.4c1.2,0.5,5.4,0.1,6.2-1.3
	c0.7-1.1,1.1-2.4,1.4-3.6c5.6,3.6,11.2,6.7,17.1,9.7c-3.6,1.1-6.6,5.8-7.9,8.9c-2.8,7.1-2.5,14.5-2.5,22
	C64.7,305.7,62.8,314.5,62.6,323.4L62.6,323.4z M75.2,296.6c-0.7-0.7-1.1-1.6-1.4-2.6c0.5,0.6,0.9,1.3,1.2,2
	C75.1,296.2,75.1,296.4,75.2,296.6L75.2,296.6z M74.7,296.9L74.7,296.9l-0.6-1C74.3,296.3,74.5,296.6,74.7,296.9L74.7,296.9z
	 M74.7,294.2c0.1,0.2,0.2,0.3,0.2,0.5l-0.1,0.1C74.8,294.6,74.7,294.4,74.7,294.2L74.7,294.2z M85.1,346.6c-1.6-1.3-3.2-2.3-5.4-1.9
	c-0.9,0.1-2.3,0.2-3,1c-0.2,0.3-0.4,0.4-0.6,0.6c0.2-8.2-1.1-16.3-0.8-24.5c0.3-7.7,1.4-15.3,0.8-23c0.1,0.4,0.3,0.7,0.5,1.1
	c0,0.1,0.1,0.1,0.2,0.1c0.1,0,0.1-0.1,0.1-0.2c0,0,0,0,0-0.1c-0.3-0.7-0.6-1.3-0.8-2c0-0.2,0-0.4,0-0.6c0-0.2-0.1-0.4-0.3-0.5
	l-0.3-0.8c0.1,0.2,0.1,0.3,0.2,0.5s0.3,0,0.3-0.1s-0.1-0.3-0.2-0.4c0.1-0.1,0.1-0.2,0-0.2c-0.1-0.2-0.2-0.4-0.4-0.6
	c-0.4-1-0.9-1.9-1.4-2.9c0-0.1-0.2-0.1-0.3,0l-0.1-0.2c0-0.1-0.1-0.1-0.2-0.1c-0.1,0-0.1,0.1-0.1,0.2c0.3,0.7,0.6,1.5,0.9,2.2
	c-0.3-0.4-0.6-0.8-1-1.2c-0.1-0.1-0.3,0.1-0.2,0.2c0.1,0.1,0.2,0.2,0.3,0.3c0,0.3,0.1,0.6,0.2,0.8c-0.2-0.2-0.3-0.4-0.5-0.6
	c0,0,0,0-0.1,0c0,0,0-0.1-0.1-0.1c-0.1-0.1-0.1-0.1-0.2,0c0,0-0.1,0.1,0,0.1c0.4,0.8,0.9,1.5,1.4,2.2c-0.1-0.2-0.4,0-0.3,0.1
	l0.8,1.3l0,0c0,0,0,0.2,0,0.3c-0.5-0.9-1.1-1.7-1.6-2.5c-0.1-0.2-0.4,0-0.3,0.1s0.3,0.5,0.5,0.8c0.5,0.9,0.9,1.8,1.4,2.7l0,0
	c-0.7-1-1.3-2-1.9-3c-0.1-0.2-0.4,0-0.3,0.1c0.7,1.2,1.4,2.3,2.2,3.4c0,0.1,0,0.3,0,0.4c-0.8-1.1-1.5-2.3-2.2-3.4
	c-0.1-0.2-0.4,0-0.3,0.1c0.8,1.3,1.6,2.6,2.5,3.8c0,0.1,0,0.3,0,0.5c-0.6-0.8-1.1-1.7-1.7-2.5c-0.1-0.2-0.3,0-0.2,0.2
	c0.6,1,1.3,1.9,2,2.8c0,0.3,0,0.6,0,0.8c-0.9-1.1-1.7-2.3-2.3-3.5c-0.1-0.2-0.4,0-0.3,0.1c0.7,1.4,1.6,2.7,2.6,3.9
	c0,0.2,0,0.4,0,0.7c-1.3-1.3-2.3-2.8-3.1-4.4c0-0.1-0.1-0.1-0.2-0.1c-0.1,0-0.1,0.1-0.1,0.2c0.9,1.8,2.1,3.4,3.5,4.7
	c0,0.3,0,0.6,0,0.9c-1.4-1.6-2.5-3.4-3.9-4.9c-0.1-0.1-0.4,0-0.2,0.2c1.5,1.6,2.6,3.4,4,5c0,0,0.1,0,0.1,0c0,0.6,0,1.2,0,1.8
	c-1.3-1.1-2.4-2.5-3.2-4c0-0.1-0.1-0.1-0.2-0.1c-0.1,0-0.1,0.1-0.1,0.2c0,0,0,0,0,0.1c0.9,1.6,2.1,3,3.5,4.2v0.9
	c-0.8-0.8-1.5-1.6-2.1-2.4c-0.4-0.4-0.9-1.1-1.4-1.2c-0.2,0-0.3,0.2-0.1,0.3c0.8,0.2,1.3,1.2,1.8,1.7c0.5,0.7,1.1,1.3,1.8,1.9
	c0,0,0.1,0,0.1,0c0,0.8-0.1,1.5-0.1,2.3c-1.2-1-2.2-2.1-3.3-3.2c-0.1-0.1-0.4,0-0.2,0.2c1.1,1.2,2.2,2.3,3.5,3.4l-0.1,0.9
	c-0.6-0.6-1.2-1.1-1.7-1.8c0-0.1-0.1-0.1-0.2-0.1c-0.1,0-0.1,0.1-0.1,0.2c0,0,0,0,0,0.1c0.6,0.7,1.3,1.3,1.9,2c0,0.1,0,0.3,0,0.5
	c-1.1-1.1-2-2.5-3.4-3.2c-0.2-0.1-0.3,0.2-0.1,0.3c1.4,0.7,2.3,2.2,3.4,3.3c0,0.3,0,0.5-0.1,0.8c-1.1-1.1-2-2.4-3.4-3.1
	c-0.2-0.1-0.3,0.2-0.1,0.3c1.4,0.7,2.3,2.1,3.5,3.2v0.5c-1-1.2-2.1-2.3-3.4-3.2c-0.2-0.1-0.3,0.1-0.2,0.2c1.3,1,2.5,2.1,3.5,3.4v0.3
	c-1.1-1.2-2.3-2.2-3.6-3.2c-0.2-0.1-0.3,0.1-0.2,0.2c1.3,1,2.6,2.1,3.7,3.4l-0.1,0.9c-0.6-0.6-1.2-1.2-1.8-1.7
	c-0.1-0.1-0.3,0.1-0.2,0.2c0.7,0.6,1.3,1.2,2,1.9c0,0.5-0.1,1-0.1,1.4c-0.9-0.9-2.9-3-3.3-2.3c0,0.1,0,0.2,0.1,0.2
	c0.1,0,0.1,0,0.2,0c0.2-0.3,2.3,1.8,3.1,2.5c0,0.2,0,0.4,0,0.6c-1.3-1-2.5-2.1-3.6-3.2c-0.1-0.1-0.2,0-0.2,0c0,0.1,0,0.1,0,0.2
	c1.2,1.2,2.4,2.4,3.8,3.4c0,0.4-0.1,0.8-0.1,1.2c-0.9-0.8-1.7-1.6-2.6-2.3c-0.2-0.1-0.3,0.1-0.2,0.2c1,0.8,1.9,1.6,2.7,2.5l0,0
	c0,0.3,0,0.6,0,1c-1.1-0.9-2.1-1.8-3.2-2.6c-0.2-0.1-0.3,0.1-0.2,0.2c1.2,0.8,2.3,1.8,3.4,2.7c0,0.4,0,0.7,0,1.1l-2.4-2.3
	c-0.1-0.1-0.4,0.1-0.2,0.2l2.6,2.5c0,0.2,0,0.3,0,0.5c-1.1-1-2.3-1.9-3.5-2.7c-0.1-0.1-0.3,0.1-0.2,0.2c1.3,0.9,2.5,1.8,3.7,2.9
	c0,0.4,0,0.9,0,1.3c-0.8-0.6-1.5-1.2-2.3-1.9c-0.1-0.1-0.4,0.1-0.2,0.2c0.8,0.8,1.6,1.5,2.5,2.1c0,0.5,0,1.1,0,1.6
	c-1.2-1-2.4-1.9-3.7-2.7c-0.2-0.1-0.3,0.1-0.2,0.2c1.4,0.9,2.7,1.8,3.9,2.9c0,0.5,0.1,1,0.1,1.5c-0.9-0.6-1.9-1.3-2.8-2
	c-0.2-0.1-0.3,0.1-0.2,0.2c1,0.7,2,1.4,3,2.1c0,0.4,0,0.8,0.1,1.2c-1.1-1.1-2.3-1.9-3.7-2.5c-0.1,0-0.2,0-0.2,0.1
	c0,0.1,0,0.2,0.1,0.2c1.5,0.6,2.8,1.5,3.9,2.7c0,0.2,0,0.4,0,0.6c-0.9-0.6-1.8-1.2-2.8-1.8c-0.2-0.1-0.3,0.1-0.2,0.2
	c1,0.6,2,1.2,3,1.9c0,0.3,0.1,0.7,0.1,1c-1.2-0.9-2.4-1.7-3.8-2.3c-0.2-0.1-0.3,0.2-0.1,0.3c1.4,0.7,2.7,1.5,3.9,2.4
	c0,0.3,0,0.5,0.1,0.8c-1-0.6-2-1.2-3-1.7c-0.2-0.1-0.3,0.1-0.2,0.2c1.1,0.6,2.1,1.2,3.2,1.8l0.1,0.9c-1.2-0.9-2.5-1.6-4-2
	c-0.2,0-0.2,0.3,0,0.3c1.5,0.4,2.8,1,4,2l0,0c0,0.4,0,0.8,0.1,1.2c-1-0.6-2.2-1.2-3.3-1.6c-0.1,0-0.2,0-0.2,0c0,0.1,0,0.2,0,0.2
	c0,0,0,0,0.1,0c1.2,0.4,2.3,1,3.4,1.6c0,0.3,0,0.6,0,0.9c-1.2-0.6-2.5-1.2-3.8-1.7c-0.1,0-0.2,0-0.2,0.1c0,0.1,0,0.2,0.1,0.2l0,0
	c1.4,0.5,2.7,1.1,4,1.7l0.1,1.1c-0.9-0.5-1.8-1-2.8-1.3c-0.1,0-0.2,0-0.2,0.1s0,0.2,0.1,0.2c1,0.4,2,0.8,2.9,1.4c0,0.3,0,0.6,0,0.9
	c-1.2-0.7-2.5-1.2-3.9-1.5c-0.2,0-0.2,0.3,0,0.3c1.4,0.4,2.7,0.9,3.9,1.6v1.1c-0.9-0.6-1.9-1-2.9-1.4c-0.2,0-0.3,0.2-0.1,0.3
	c1.1,0.4,2.1,0.8,3,1.5c0,0.3,0,0.5,0,0.8c-1.1-0.6-2.3-1.1-3.5-1.5c-0.2-0.1-0.3,0.2-0.1,0.3c1.3,0.4,2.5,0.9,3.6,1.5
	c0,0.2,0,0.4,0,0.5c-1.3-0.6-2.6-1.2-4-1.6c-0.2,0-0.3,0.2-0.1,0.3c1.4,0.4,2.7,1.2,4,1.7c0,0.3,0,0.6,0,0.9l0,0
	c-1.3-0.7-2.6-1.3-4-1.7c-0.2,0-0.3,0.2-0.1,0.3c0.8,0.2,1.6,0.5,2.4,0.9c-0.2-0.1-0.5-0.1-0.8-0.1c-3.7-0.4-5.8,1.9-7.8,4.5
	c0.3-6.8,0-13.6-0.2-20.5c0.1-0.1,0.1-0.3,0-0.5c0-2.2-0.1-4.3-0.1-6.5c0-9.8,2.1-19.5,2.1-29.3c-0.1-4.1,0.1-8.1,0.5-12.2
	c0.7-6.5,8.6-20.8,14.8-9.5c2.5,4.5,2.1,10.7,2.4,15.7c0.3,5.5,0.7,11,1,16.4c0.7,10.9,0.9,21.8,0.8,32.8
	C85.7,338.7,85,346.4,85.1,346.6z"/>
<path d="M74.3,309.6c0.1,0.1,0.4-0.1,0.2-0.2l-0.2-0.2c0.1,0.1,0.3-0.1,0.2-0.2c-0.7-1-1.6-1.9-2.4-2.8c-0.1-0.1-0.2-0.1-0.2,0
	c0,0.1-0.1,0.1,0,0.2c0.8,0.9,1.6,1.8,2.3,2.8c-1.2-1.1-2.3-2.2-3.4-3.5c-0.1-0.2-0.3,0-0.2,0.2C71.8,307.2,73,308.4,74.3,309.6z"/>
<path d="M74.5,306c0.1,0.1,0.4,0,0.2-0.2c-0.7-0.9-1.5-1.8-2.2-2.6c-0.1,0-0.2,0-0.2,0c0,0,0,0.1,0,0.2
	C73,304.3,73.7,305.2,74.5,306z"/>
<path d="M13.5,315.9c0,0.5,0.3,4.6,1.2,3.9c0.2-0.1,0-0.4-0.2-0.2c-0.3-1.2-0.6-2.5-0.7-3.7C13.8,315.7,13.5,315.7,13.5,315.9z"/>
<path d="M15.8,318c0,1.1,0.1,2.2,0.3,3.2c0,0.2,0.3,0.1,0.3-0.1c-0.2-1-0.3-2.1-0.3-3.1C16.1,317.8,15.8,317.8,15.8,318z"/>
<path d="M47.8,339.6c0.4,1.3,0.7,2.7,1.1,4c0.1,0.2,0.4,0.1,0.3-0.1c-0.4-1.3-0.7-2.7-1.1-4C48.1,339.4,47.8,339.4,47.8,339.6z"/>
<path class="st1" d="M175.1,110.4c-12.8-7-28.3-7-41.1,0c-13.4,7.7-31.8,25.6-43.4,66.9l-0.4,1.3l6.2,1c0.2,0,0.4,0.1,0.5,0.2
	l14.4,14.8l8.5-13c0.3-0.2,0.6-0.2,0.9-0.2c0.1,0,0.2,0,0.4,0l21.3,13.2l14.3-13.2c0.1,0,0.3,0,0.4-0.1c0.3,0,0.6,0.1,0.9,0.2
	l14.5,8.1l20.2-10.3c0.3-0.1,0.5-0.2,0.8-0.2c0.4,0,0.9,0.2,1.2,0.4l11.4,10l14.5-4.6l-0.3-1.1C208.9,138.2,189.4,118.7,175.1,110.4
	z"/>
<path class="st3" d="M227.8,188.3l-0.7-3.3l-22.1,7.1c-0.2,0.1-0.4,0.1-0.5,0.1c-0.4,0-0.9-0.2-1.2-0.4l-11.2-9.9l-20,10.1
	c-0.3,0.1-0.5,0.2-0.8,0.2c-0.3,0-0.6-0.1-0.9-0.2l-14.7-8.2l-14,13.2c-0.1,0-0.3,0-0.4,0.1c-0.1,0-0.2,0-0.4,0l-21-13.2l-8.7,13.2
	c-0.3,0.2-0.6,0.2-0.9,0.2c-0.3,0-0.6-0.1-0.8-0.2l-15-15.2l-13.6-2.1l-0.3,1.1c-0.6,2.5-1.2,5.1-1.8,7.6
	c-9.5,43.6-1.1,76.5,25.1,97.8c28.8,23.3,70,23.3,98.8,0C228.9,264.8,237.3,231.9,227.8,188.3z"/>
<path class="st2" d="M110.3,196.7c-0.2,0-0.4,0-0.6-0.1l-15-15.2l-8-1.3c-0.4-0.1-0.7-0.3-0.9-0.6c-0.2-0.3-0.3-0.7-0.2-1.1
	c11.8-44.5,31.4-63.8,45.7-72.1c13.8-7.6,30.4-7.6,44.2,0c15.2,8.8,35.8,29.5,47.3,78.3c0.2,0.7-0.2,1.4-0.9,1.6l-17,5.4
	c-0.1,0-0.3,0.1-0.4,0.1c-0.3,0-0.6-0.1-0.9-0.3l-11.5-10.1l-20.2,10.3c-0.2,0.1-0.4,0.2-0.6,0.1c-0.2,0-0.5-0.1-0.6-0.2l-15-8.4
	l-14.1,13.3h-0.2c-0.1,0-0.2,0-0.3,0l-21.3-13.4l-9,13.6l0,0C110.7,196.6,110.5,196.7,110.3,196.7z M153.4,103.3
	c-7.3-0.1-14.4,1.8-20.8,5.4c-13.5,7.8-32,25.8-43.6,67.2l-0.5,1.8l6.7,1.1c0.1,0,0.3,0.1,0.4,0.1l14.7,15.2l8.8-13.6l0,0
	c0.1,0,0.3-0.1,0.5-0.1c0.1,0,0.2,0,0.3,0l21.5,13.4l14.4-13.4h0.2c0.2,0,0.5,0.1,0.6,0.2l14.7,8.2l20.4-10.4
	c0.2-0.1,0.4-0.1,0.6-0.1c0.3,0,0.6,0.1,0.9,0.3l11.5,10.2l15.1-4.8l-0.4-1.5c-11.4-46-30.9-65.5-45.4-73.8
	C167.8,105.1,160.6,103.3,153.4,103.3L153.4,103.3z"/>
<path class="st2" d="M153.3,306.7c-18.7,0-36.8-6.4-51.4-18.1c-18.7-15.2-38.4-45-26.2-100.9c0.8-3.5,1.6-7,2.5-10.4
	c0.2-0.6,0.7-1,1.3-1l15.7,2.4c0.1,0,0.3,0.1,0.4,0.1l14.7,15.2l8.8-13.6l0,0c0.1,0,0.3-0.1,0.5-0.1c0.1,0,0.2,0,0.3,0l21.5,13.4
	l14.4-13.4h0.2c0.2,0,0.5,0.1,0.6,0.2l14.7,8.2l20.4-10.4c0.2-0.1,0.4-0.1,0.6-0.1c0.3,0,0.6,0.1,0.9,0.3l11.5,10.2l23.2-7.4
	c0.1,0,0.3-0.1,0.4-0.1c0.2,0,0.5,0.1,0.6,0.2c0.3,0.2,0.6,0.5,0.6,0.9c0.4,1.7,0.8,3.5,1.2,5.2c12.2,55.9-7.5,85.7-26.2,100.9
	C190.1,300.2,172,306.7,153.3,306.7z M80.1,180.6c-0.6,2.5-1.2,5.1-1.8,7.6c-9.6,43.8-1,76.8,25.3,98.2c29,23.4,70.4,23.4,99.3,0
	c26.3-21.4,34.8-54.5,25.3-98.2c-0.1-0.7-0.9-3.8-0.9-3.8l-22.6,7.2c-0.1,0-0.3,0.1-0.4,0.1c-0.3,0-0.6-0.1-0.9-0.3l-11.4-10.1
	l-20.2,10.3c-0.2,0.1-0.4,0.2-0.6,0.1c-0.2,0-0.5-0.1-0.6-0.2l-15-8.4l-14.1,13.3h-0.2c-0.1,0-0.2,0-0.3,0l-21.3-13.4l-9,13.6l0,0
	c-0.1,0-0.3,0-0.5,0c-0.2,0-0.4,0-0.6-0.1l-15-15.2l-14.2-2.2L80.1,180.6z"/>
<path class="st2" d="M189.8,298.6c-0.2,7.4-0.7,14.7-1.3,22c-0.2,1.9,0,6.5-0.8,8.2c-4.7,4.2-6.3,5.3-4.8,3.4c0.2-0.5,0.4-1,0.4-1.6
	c-1.1-11.2,1.1-19.3-4.4-29.7c-0.4,0.7-1.2-0.5-1.6,0.2c4.4-0.6,8.7-1,13.1-1.2c1.8-0.1,1.8-2.9,0-2.8c-4.4,0.2-8.8,3.5-13.1,4
	c-1.1,0.1-1.6-0.9-1.1,0.1c4.9,9.3,5,20.1,3.4,30.3c-0.5,3.1-0.5,5.4,3.4,5.9c5,0.6,6.9-3.2,7.4-7.3c1.3-10.5,2-21.1,2.3-31.6
	C192.7,296.7,189.9,296.7,189.8,298.6L189.8,298.6z"/>
<path class="st2" d="M117,298.6c0.3,10,0.9,19.9,1.9,29.8c0.5,4.9,0.8,12,7.8,11.1c3.8-0.5,3.8-2.7,3.4-5.8
	c-1.2-10.5-1.5-20.4,3.6-30.2c0.6-1-0.2-1.2-1.2-1.4c-4.4-0.6-8.9-2.8-13.3-3c-1.8-0.1-1.8,2.8,0,2.8c4.4,0.2,8.8,0.6,13.1,1.2
	c-0.4-0.7-1.3-0.5-1.7-1.2c-2.3,4.2-3.6,8.8-3.9,13.5c-0.5,5.4,1.2,12.7-0.3,17.8c0,0.3,0.1,0.7,0.2,1c1.5,1.9-0.1,0.8-4.8-3.2
	c-1.3-2.4-0.8-8-1-10.8c-0.6-7.2-0.9-14.4-1.2-21.7C119.8,296.8,116.9,296.8,117,298.6L117,298.6z"/>
<polygon class="st5" points="116.6,170 117.6,167.1 148.4,173.6 178.2,162.3 180.1,164.9 148.8,176.7 "/>
<g class="st6">
	<path class="st7" d="M118.4,271.3c0,0,30.7,6.4,31.4,6.7s-0.9,1.7,4.9,1.8c6.3,0.1,4.6-2.1,4.6-2.1l34.4-10.9l0.8-35
		c-1,1.7-1.7,3.4-2.3,5.3c-3.7,10.7-10.2,20.9-20.2,26.3c-2.2,1.3-4.7,2-7.2,2.1c-2.6,0-5-1.5-6.1-3.8c0.7,2.4-0.6,5-3.1,5.7
		s-5-0.6-5.7-3.1c-0.2-0.6-0.2-1.2-0.2-1.9c-5.3,5.4-14.2,6.4-21.1,3.3c-5.2-2.5-9.5-6.5-12.3-11.5L118.4,271.3z"/>
</g>
<polygon class="st1" points="111.8,219 118.3,271.3 155.4,278.9 193.6,266.8 194.8,214.5 152,223.4 "/>
<path class="st8" d="M155.4,280.1l-0.3,0l-37.9-7.8l-6.8-54.6l41.4,4.5l44-9.1l-1.2,54.6L155.4,280.1z M119.3,270.4l36,7.4
	l37.2-11.8l1.1-50.1l-41.6,8.6l-38.9-4.3L119.3,270.4z"/>
<path class="st2" d="M72.3,225.4c-0.8,13.4,8.5,21.1,20.9,23.6c2.7,0.5,7.3,1.9,10,0.9c0.5-0.2,9.8-8.6,3.4-3.9
	c-6.6,4.9-0.8,3.9-6.6,5.1c-8.6,1.9-15.8,1.7-22.8-4.3c-1.3-1.1-3.1,0.8-1.8,1.9c3.9,3.4,8.1,5.6,13.3,6.2c3.2,0.2,6.5,0,9.6-0.6
	c3-0.5,6.4-0.4,9.4-1.1s6.3-2.5,6.9-5.9c0.5-2.7-1-5.9-4-6.2c-3.4-0.4-5.4,3.5-7.7,5.1s-4.4,1.2-7.9,0.6c-11.6-2-20.8-8.5-20.1-21.3
	C75,223.8,72.4,223.8,72.3,225.4L72.3,225.4z"/>
<path class="st2" d="M231.1,223.7c0.7,12.5-8.2,19-19.5,21.2c-2.5,0.5-6.1,1.3-8.1,0.2c-2.6-1.5-4.2-6.1-8.1-5.7
	c-2.5,0.4-4.3,2.7-4.2,5.2c0.1,3.8,3.6,5.9,6.9,6.8c3,0.8,6.5,0.7,9.5,1.1c2.8,0.6,5.6,0.8,8.5,0.7c5.7-0.4,10.2-2.6,14.4-6.3
	c1.3-1.1-0.6-2.9-1.9-1.8c-7,6-14.3,6.1-22.8,4.3c-6.3-1.3,1-0.1-6.6-5.1c1.3,0.9,2,3.4,3.4,3.9c2.7,1,7.3-0.3,10-0.9
	c12.4-2.5,21.6-10.2,20.9-23.6C233.6,222,231,222,231.1,223.7L231.1,223.7z"/>
<circle class="st3" cx="113.2" cy="134.7" r="24.5"/>
<path class="st2" d="M86.9,134.7c0,14.5,11.7,26.3,26.3,26.3s26.3-11.7,26.3-26.3c0-8.7-4.2-16.8-11.4-21.7
	c-4.6-2.9-10-4.5-15.4-4.6C98.4,108.7,86.9,120.4,86.9,134.7z M113.2,110.2c13.5,0,24.5,11,24.5,24.5s-11,24.5-24.5,24.5
	c-13.5,0-24.5-11-24.5-24.5c0,0,0,0,0,0C88.7,121.2,99.7,110.2,113.2,110.2L113.2,110.2z"/>
<circle class="st3" cx="187.5" cy="134.7" r="24.5"/>
<path class="st2" d="M161.2,134.7c0,14.5,11.8,26.3,26.3,26.3c14.5,0,26.3-11.8,26.3-26.3c0-8.7-4.3-16.8-11.4-21.7
	c-4.6-2.9-10-4.5-15.4-4.6C172.6,108.7,161.2,120.4,161.2,134.7z M187.5,110.2c13.5,0,24.5,11,24.5,24.5c0,13.5-11,24.5-24.5,24.5
	c-13.5,0-24.5-11-24.5-24.5C163,121.2,174,110.2,187.5,110.2L187.5,110.2z"/>
<path class="st9" d="M203.9,126.6c0.2,0.3,0.3,0.7,0.5,1C204.3,127.3,204.1,126.9,203.9,126.6z"/>
<ellipse class="st1" cx="116.9" cy="137" rx="12.1" ry="15.2"/>
<ellipse class="st3" cx="118.5" cy="137.6" rx="10.1" ry="12.7"/>
<path class="st10" d="M127,131c0.3,1.3,0.5,2.7,0.5,4c0,7-4.5,12.7-10.1,12.7c-3.6,0-6.8-2.4-8.6-6.1c1.3,5,5.1,8.7,9.6,8.7
	c5.6,0,10.1-5.7,10.1-12.7C128.5,135.3,128,133.1,127,131z"/>
<path class="st2" d="M118.5,127.3c4.3,0,8,3.1,9.8,7.5c-1-5.6-5-9.9-9.8-9.9s-8.8,4.2-9.8,9.9C111,130.6,114.2,127.3,118.5,127.3z"
	/>
<circle class="st1" cx="118.5" cy="137.8" r="7"/>
<circle cx="118.5" cy="134.9" r="3.9"/>
<g class="st11">
	<circle class="st3" cx="122.1" cy="136.3" r="1.6"/>
</g>
<g class="st11">
	<path class="st3" d="M120.2,137.9c0,0.6,0.4,1,1,1s1-0.4,1-1s-0.4-1-1-1S120.2,137.4,120.2,137.9z"/>
</g>
<path class="st2" d="M105.4,124.6c1.7-3.7,5.3-6,8.8-8.1c0.6-0.4,1.2-0.6,1.9-0.7c0.7,0,1.3,0.5,1.4,1.2c0,0.7-0.7,1.2-1.4,1.5
	c-1.9,0.9-3.8,1.6-5.7,2.4C108.5,121.7,106.8,123,105.4,124.6"/>
<ellipse class="st1" cx="184.2" cy="137" rx="12.1" ry="15.2"/>
<ellipse class="st3" cx="182.6" cy="137.6" rx="10.1" ry="12.7"/>
<path class="st10" d="M174.1,131c-0.3,1.3-0.5,2.7-0.5,4c0,7,4.5,12.7,10.1,12.7c3.6,0,6.8-2.4,8.6-6.1c-1.3,5-5.1,8.7-9.6,8.7
	c-5.6,0-10.1-5.7-10.1-12.7C172.6,135.3,173.1,133.1,174.1,131z"/>
<path class="st2" d="M182.6,127.3c-4.3,0-8,3.1-9.8,7.5c1-5.6,5-9.9,9.8-9.9s8.8,4.2,9.8,9.9C190.1,130.6,186.9,127.3,182.6,127.3z"
	/>
<circle class="st1" cx="182.6" cy="137.8" r="7"/>
<circle cx="182.6" cy="134.9" r="3.9"/>
<g class="st11">
	<circle class="st3" cx="179" cy="136.3" r="1.6"/>
</g>
<g class="st11">
	<path class="st3" d="M180.9,137.9c0,0.6-0.4,1-1,1s-1-0.4-1-1s0.4-1,1-1S180.9,137.4,180.9,137.9z"/>
</g>
<path class="st2" d="M195.7,124.6c-1.7-3.7-5.3-6-8.8-8.1c-0.6-0.4-1.2-0.6-1.9-0.7c-0.7,0-1.3,0.5-1.4,1.2c0,0.7,0.7,1.2,1.4,1.5
	c1.9,0.9,3.8,1.6,5.7,2.4C192.6,121.7,194.3,123,195.7,124.6"/>
<rect x="139.4" y="133.2" class="st2" width="21.7" height="1.6"/>
<path class="st12" d="M136,132.2c-1.3-10.6-19.1-29.9-41-9.2c2.9,12.8,9.7,27.8,24.1,36.3C125.5,158.2,138.5,151.7,136,132.2z"/>
<rect x="139.5" y="135" class="st1" width="21.7" height="1.6"/>
<path d="M148,248.1c3.3,6,6.5,11.8,9.5,17.4l-0.1-3.1c-3-5.6-6.2-11.4-9.5-17.4L148,248.1z"/>
<polygon class="st8" points="158.9,270.2 146.9,248.4 146.6,240.2 158.5,262.1 "/>
<path d="M147.7,225.9l8.9,16.1l0-1.2c-2.7-5-5.6-10.2-8.4-15.5C147.9,225.5,147.8,225.7,147.7,225.9z"/>
<path d="M156.1,227.6c-0.1-2.4-2.1-4.3-4.6-4.3l0,0c-0.7,0-1.4,0.2-2,0.6l6.9,12.5L156.1,227.6z"/>
<path class="st8" d="M157.8,241.2l-9.7-17.7l1-0.5c0.8-0.4,1.6-0.7,2.5-0.7c3.1-0.1,5.6,2.2,5.8,5.3c0,0,0,0.1,0,0.1L157.8,241.2z"
	/>
<path d="M156.9,248.6v-1.2l-9.5-17.5v1L156.9,248.6z"/>
<polygon class="st8" points="158.2,253.4 146.3,231.3 146,225.2 158,247.1 "/>
<path d="M150.2,273.4c-0.4-0.7-0.8-1.5-1.3-2.3C149.1,272,149.6,272.8,150.2,273.4z"/>
<path class="st8" d="M154.9,279.5l-5.5-5.3c-0.8-0.8-1.3-1.8-1.6-2.8l-1.6-7.5L154.9,279.5z"/>
<path d="M148.3,256.6l8.7,16c0.1-0.1,0.1-0.2,0.2-0.3l-8.9-16.3L148.3,256.6z"/>
<path class="st8" d="M157,274.8l-9.8-17.9l-0.2-5.7l11.5,21.1l-0.3,0.5c-0.1,0.2-0.1,0.3-0.2,0.4L157,274.8z"/>
</svg>
