<?xml version="1.0" encoding="utf-8"?>
<!-- Generator: Adobe Illustrator 24.2.0, SVG Export Plug-In . SVG Version: 6.00 Build 0)  -->
<svg version="1.1" id="Layer_1" xmlns="http://www.w3.org/2000/svg" xmlns:xlink="http://www.w3.org/1999/xlink" x="0px" y="0px"
	 viewBox="0 0 297.6 372.8" style="enable-background:new 0 0 297.6 372.8;" xml:space="preserve">
<style type="text/css">
	.st0{fill:#D2D3D4;}
	.st1{fill:#A8AAAD;}
	.st2{fill:#F8D70A;}
	.st3{fill:#231F20;}
	.st4{fill:#818285;}
	.st5{fill:#FFFFFF;}
</style>
<path d="M181,52.8c5.5-4,11.6-7.2,17.6-10.4c4.5,5.3,8.4,11.1,13.2,16.2h0c0.2,0.2,0.6,0.2,0.8,0c0,0,0,0,0,0c0,0,0.1-0.1,0.1-0.1
	l0,0c1.9-4.8,4-9.4,5.9-14.2c4.5,1.7,9.2,3.2,13.6,5.1c0.3,0.1,0.6,0,0.7-0.3c0,0,0-0.1,0-0.1c0.9-7.7,0-15.5-0.4-23.2
	c-0.3-8.3,0.8-16.8-0.3-25c0-0.2,0-0.3-0.1-0.4l-0.1-0.1c-0.2-0.2-0.4-0.2-0.6-0.1c0,0,0,0-0.1,0.1c-8.6,8.6-17.7,16.6-25.9,25.5
	S189.2,43.5,180.4,52c-0.2,0.2-0.3,0.5-0.1,0.7c0,0,0,0.1,0.1,0.1C180.5,53,180.8,53,181,52.8C181,52.8,181,52.8,181,52.8z
	 M199.6,41.8l0.2-0.3c0.5,0.7,1,1.5,1.4,2.2C200.7,43,200.1,42.4,199.6,41.8z M217.2,44.9c-0.1-0.4-0.1-0.7-0.2-1.1
	c0-0.1-0.2-0.1-0.2,0c0.1,0.5,0.2,1,0.3,1.4l-0.2,0.4c-0.1-0.5-0.2-0.9-0.3-1.3c0-0.1-0.2,0-0.2,0.1c0.2,0.5,0.3,1.1,0.4,1.7
	c-0.1,0.3-0.2,0.5-0.3,0.8c-0.1-0.8-0.2-1.5-0.2-2.3c0-0.2-0.2-0.1-0.2,0c0,0.9,0.2,1.8,0.3,2.7l-0.3,0.8c-0.1-1-0.2-1.9-0.4-2.9
	c0-0.1-0.2-0.1-0.2,0c0.2,1.1,0.3,2.2,0.4,3.3l-0.3,0.7c-0.1-1.1-0.3-2.1-0.5-3.1c0-0.1-0.2,0-0.2,0.1c0.3,1.1,0.5,2.3,0.5,3.5
	l-0.1,0.4c-0.1-1-0.4-2-0.6-3c0-0.1-0.2-0.1-0.2,0c0.3,1.1,0.5,2.3,0.6,3.4c-0.1,0.2-0.1,0.3-0.2,0.5c0-1.2-0.2-2.3-0.5-3.4
	c0-0.1-0.1-0.1-0.1-0.1s-0.1,0.1-0.1,0.1c0.4,1.2,0.6,2.5,0.5,3.8c-0.1,0.2-0.1,0.4-0.2,0.6c-0.1-1.2-0.2-2.4-0.3-3.6
	c0-0.1-0.2-0.1-0.2,0c0.1,1.3,0.2,2.7,0.3,4l-0.1,0.3c-0.2-1.2-0.3-2.4-0.5-3.7c0-0.1,0-0.1-0.1-0.1c-0.1,0-0.1,0-0.1,0.1
	c0.2,1.3,0.4,2.7,0.5,4c0,0.1-0.1,0.2-0.1,0.3c-0.1-1.3-0.4-2.6-0.5-3.9c0-0.1-0.2-0.1-0.2,0c0.2,1.4,0.4,2.9,0.6,4.3l-0.2,0.5
	c-0.1-1.4-0.4-2.9-0.5-4.3c0-0.1,0-0.1-0.1-0.1c-0.1,0-0.1,0-0.1,0.1c0.2,1.6,0.5,3.2,0.5,4.8l-0.4,1.4c0.1-0.9,0.1-1.8,0-2.6
	c0.1-0.8,0-1.6-0.3-2.4c-0.1-0.1-0.3,0-0.2,0.1c0.3,0.8,0.4,1.7,0.3,2.6c0,0.6,0.1,1.2,0.1,1.9c-0.7-3.1-1.3-6.2-1.9-9.4
	c-0.4-2-0.6-4-0.9-5.9c-0.2-1.2,1.5,0.4,1.8,0.6c1.9,1,3.8,1.8,5.7,2.6c0.1,0.4,0.1,0.7,0.2,1.1C217.3,44.7,217.3,44.8,217.2,44.9
	L217.2,44.9z M217.4,44.3c0-0.2-0.1-0.4-0.1-0.6l0.3,0.1L217.4,44.3z M232.1,1.3c-0.2,0.4-0.4,0.8-0.5,1.2h-0.1
	c0-0.1-0.1-0.1-0.1-0.2L232.1,1.3z M232.1,32.8c-0.8-0.9-1.7-1.5-2.5-2.3c0.9,0.7,1.7,1.4,2.5,2.2C232,32.7,232.1,32.8,232.1,32.8z
	 M231.8,26.3c-0.6-0.6-1.1-1.2-1.6-1.8c0.6,0.5,1.1,1,1.6,1.6V26.3z M231.4,5L231.4,5L231.4,5h-0.1l-0.1-0.1L231.4,5z M231.2,4.4
	l0.2,0.1v0.2L231.2,4.4z M231.4,4.2c-0.1-0.1-0.3-0.2-0.5-0.2l-0.2-0.3l0,0l0.7,0.3C231.4,4,231.4,4.1,231.4,4.2L231.4,4.2z
	 M230.8,4.2l0.4,0.5l-0.3-0.1c-0.1-0.2-0.3-0.3-0.4-0.5L230.8,4.2z M230.8,4.9l-0.7-0.3l0,0L230.8,4.9L230.8,4.9z M231.1,5.2
	l0.4,0.5c0,0.1,0,0.1,0,0.2L231,5.8c-0.2-0.3-0.4-0.5-0.6-0.8L231.1,5.2z M231.4,3.2L231.4,3.2z M231.3,6.2l-0.1-0.1l0.3,0.1v0.1
	L231.3,6.2z M231.6,7.4v0.1l-0.1-0.2L231.6,7.4z M231.3,7l-0.1,0c-0.2-0.3-0.5-0.6-0.8-0.9l0.2,0.1C230.8,6.4,231.1,6.7,231.3,7
	L231.3,7z M231.6,7.9c0,0.1,0,0.2,0,0.3l-0.3-0.3c0.1,0,0.1,0,0.1-0.1c0,0,0-0.1-0.1-0.1l-0.3-0.1c-0.1-0.2-0.3-0.4-0.5-0.6l0.4,0.2
	L231.6,7.9z M231.6,8.6c0,0.2,0,0.4,0,0.6c-0.5-0.6-1-1.2-1.5-1.7l0.8,0.3C231.2,8,231.4,8.3,231.6,8.6L231.6,8.6z M230.8,8.6
	c0.3,0.3,0.6,0.7,0.8,1v0.2c-0.4-0.5-0.8-1-1.2-1.4L230.8,8.6L230.8,8.6z M231.6,10.2L231.6,10.2c-0.6-0.7-1.2-1.4-1.9-2.1l0.3,0.1
	C230.6,8.9,231.1,9.5,231.6,10.2L231.6,10.2z M231.6,10.6v0.2c-0.4-0.5-0.8-1-1.3-1.5l0,0c0.1,0,0.1,0,0.1-0.1
	C230.9,9.7,231.3,10.1,231.6,10.6L231.6,10.6z M230.3,9.1L230,9c-0.3-0.3-0.6-0.7-0.9-1.1h0.1L230.3,9.1z M229.9,9.2
	c0.6,0.7,1.2,1.3,1.7,2v0.4c-0.7-0.8-1.4-1.6-2-2.5L229.9,9.2z M231.2,2.7l0.1,0l0.1,0.2c0,0,0,0.1,0,0.1l-0.4-0.2L231.2,2.7z
	 M230.9,3.1L230.9,3.1z M230.8,3.3l0.3,0.1c0.1,0.1,0.1,0.2,0.2,0.3l-0.6-0.2L230.8,3.3z M230.5,3.7L230.5,3.7
	C230.5,3.7,230.5,3.8,230.5,3.7l0.1,0.2h-0.2L230.5,3.7z M230.2,4.1L230.2,4.1c0,0,0,0.1,0,0.2l0.2,0.3L230,4.4L230.2,4.1z
	 M229.8,4.8h0.1c0.2,0.3,0.4,0.5,0.5,0.8l0,0l-0.4-0.4c-0.1-0.1-0.3,0-0.2,0.1l0.1,0.1l-0.3-0.1l0,0c0,0-0.1,0-0.1,0h-0.1L229.8,4.8
	z M230.3,5.9l-0.2-0.1l0,0L230.3,5.9z M229.4,5.5l0.2,0.1l0.1,0.1L229.4,5.5L229.4,5.5z M229.2,5.7l0.7,0.2c0.2,0.3,0.5,0.6,0.7,0.9
	l-0.4-0.2c-0.2-0.3-0.5-0.5-0.7-0.8c-0.1-0.1-0.2,0.1-0.1,0.2s0.2,0.2,0.4,0.4l-0.9-0.3L229.2,5.7z M228.8,6.4
	c0.5,0.2,0.9,0.3,1.4,0.5c0.2,0.2,0.4,0.4,0.5,0.6l-0.9-0.3l-0.1-0.1c0,0-0.1,0-0.1,0l-1-0.4L228.8,6.4z M228.5,6.9l1.2,0.5
	c0.3,0.3,0.6,0.6,0.8,0.9l-0.4-0.2c-0.2-0.2-0.3-0.4-0.5-0.6s-0.3,0-0.2,0.1s0.1,0.2,0.2,0.2l-0.3-0.1l0,0c0,0-0.1,0-0.1,0l-1-0.4
	C228.3,7.1,228.4,7,228.5,6.9L228.5,6.9z M228,7.5l0.9,0.3c0,0-0.1,0.1,0,0.1c0,0,0,0,0,0c0.2,0.3,0.5,0.6,0.7,0.8
	c-0.7-0.2-1.3-0.5-2-0.7L228,7.5z M227,6.9l0.3-0.4l0,0L227,7C227,7,227.1,6.8,227,6.9L227,6.9z M226.7,7.2L226.7,7.2
	c0.1,0,0.1,0,0.1,0.1l-0.1,0.1C226.7,7.4,226.7,7.3,226.7,7.2L226.7,7.2z M226.4,7.7l0.1-0.1c0,0.1,0,0.2,0,0.3L226.4,8
	C226.4,7.8,226.4,7.7,226.4,7.7L226.4,7.7z M226.1,7.9c0,0.1,0,0.3,0,0.4l-0.2,0.3c0-0.1,0-0.3,0-0.4L226.1,7.9z M225.6,8.6
	c0,0.1,0,0.1,0,0.2V9l-0.1,0.1C225.6,8.9,225.7,8.7,225.6,8.6L225.6,8.6z M224.9,9.4l0.1-0.2c0,0.3,0,0.5,0,0.8l-0.2,0.3L224.9,9.4z
	 M228.1,13.6c0.1,0,0.2-0.2,0-0.2c-1.1-0.3-2.2-0.6-3.2-1.1l0.3-0.5c1.4,0.3,2.9,0.7,4.3,1.1c0.1,0,0.2-0.2,0-0.2
	c-1.4-0.3-2.8-0.7-4.2-1c0.3-0.4,0.5-0.8,0.8-1.2c1,0.3,2.1,0.5,3.1,0.8c0.1,0,0.2-0.2,0-0.2c-1-0.2-2-0.5-3-0.8
	c0.2-0.2,0.3-0.5,0.5-0.7c1.1,0.2,2.3,0.5,3.4,0.9c0.1,0.1,0.2-0.1,0.1-0.2c-1.1-0.4-2.2-0.7-3.3-0.9c0.2-0.3,0.4-0.7,0.6-1
	c0.6,0.2,1.2,0.4,1.8,0.6c0,0,0,0.1,0,0.1c0.7,1,1.5,1.9,2.4,2.8v0.7c-0.6-0.7-1.3-1.4-1.8-2.2c-0.1-0.1-0.3,0-0.2,0.1
	c0.6,0.8,1.3,1.6,2,2.4v0.7c-0.2-0.2-0.4-0.4-0.6-0.7c-0.3-0.4-0.7-0.8-1.1-1.2c-0.1-0.1-0.2,0.1-0.1,0.2c0.7,0.6,1.3,1.3,1.9,2v0.2
	c-0.3-0.4-0.7-0.8-1-1.2c-0.1-0.1-0.3,0-0.2,0.1c0.4,0.5,0.7,0.9,1.1,1.4v0.2c-0.3-0.3-0.6-0.7-0.9-1c-0.1-0.1-0.3,0-0.2,0.1
	c0.3,0.4,0.7,0.8,1,1.2l0,0c-0.4-0.5-0.8-0.9-1.1-1.4c-0.1-0.1-0.3,0-0.2,0.1c0.5,0.5,0.9,1,1.3,1.6v0.9c-0.5-0.5-0.9-1.1-1.4-1.6
	c-0.1-0.1-0.3,0-0.2,0.1c0.5,0.6,1,1.2,1.5,1.8v0.7c-0.5-0.5-0.9-1.1-1.3-1.7c-0.1-0.1-0.3,0-0.2,0.1c0.5,0.7,1,1.3,1.5,1.9v0.6
	c-0.5-0.5-1-1.1-1.5-1.7c-0.1-0.1-0.3,0-0.2,0.1c0.5,0.7,1.1,1.3,1.6,1.9v0.4c-0.3-0.4-0.7-0.8-1-1.1c-0.1-0.1-0.3,0-0.2,0.1
	c0.4,0.5,0.8,0.9,1.2,1.3v0.3c-0.4-0.5-0.8-0.9-1.2-1.3c-0.1-0.1-0.3,0-0.2,0.1c0.5,0.5,1,1,1.4,1.6c0,0.3,0,0.6,0,0.9
	c-0.4-0.5-0.9-1-1.4-1.5c-0.1-0.1-0.3,0-0.2,0.1c0.6,0.6,1.1,1.1,1.6,1.8v0.4c-0.4-0.4-0.9-0.9-1.3-1.3c-0.1-0.1-0.2,0.1-0.1,0.2
	l0.1,0.1c-0.1,0-0.1,0-0.1,0.1c0,0,0,0.1,0,0.1c0.5,0.5,1,1,1.4,1.5c0,0.2,0,0.3,0,0.5l-0.3-0.3c-0.4-0.5-0.9-0.9-1.4-1.4
	c0,0-0.1,0-0.1,0l-0.2-0.2c-0.1-0.1-0.2,0.1-0.1,0.2c0.6,0.5,1.1,1,1.6,1.5c0.2,0.2,0.3,0.4,0.5,0.6c0,0.2,0,0.4,0,0.5
	c-0.4-0.5-0.9-0.9-1.4-1.3c0,0-0.1,0-0.2,0s0,0.1,0,0.2l0,0c0.6,0.5,1.1,1,1.5,1.5v0.4c-0.5-0.6-1.1-1.1-1.7-1.6
	c-0.1-0.1-0.2,0.1-0.1,0.2c0.7,0.5,1.3,1.1,1.8,1.7c0,0.1,0,0.2,0,0.3c-0.5-0.5-1-1-1.5-1.5c-0.1-0.1-0.2,0.1-0.1,0.2
	c0.6,0.5,1.1,1.1,1.6,1.7v0.2c-0.7-0.8-1.4-1.5-2.2-2.1c-0.1-0.1-0.2,0.1-0.1,0.2l0.4,0.4c0,0,0,0.1,0,0.2c0.6,0.8,1.3,1.6,2,2.3
	c0,0.1,0,0.3,0,0.4c-0.7-0.7-1.3-1.4-2-2c-0.1-0.1-0.2,0.1-0.1,0.2c0.8,0.7,1.4,1.5,2.1,2.2c0,0.1,0,0.2,0,0.3
	c-0.7-0.8-1.4-1.6-2.2-2.3c-0.1-0.1-0.2,0.1-0.1,0.2c0.9,0.7,1.7,1.6,2.4,2.4c0,0.1,0,0.2,0,0.3l-1.4-1.3c-0.1-0.1-0.2,0.1-0.1,0.2
	l1.5,1.5c0,0.1,0,0.1,0,0.2c-0.6-0.6-1.2-1.2-1.8-1.8c-0.1-0.1-0.2,0.1-0.1,0.2c0.7,0.6,1.3,1.3,1.9,1.9v0.2
	c-0.6-0.6-1.2-1.2-1.8-1.8c-0.1-0.1-0.3,0-0.2,0.1c0.6,0.7,1.3,1.3,2,2c0,0.1,0,0.2,0,0.3c-0.5-0.5-1.1-1-1.7-1.6
	c-0.1-0.1-0.2,0.1-0.1,0.2c0.6,0.6,1.2,1.2,1.8,1.8c0,0.1,0,0.3,0,0.4c-0.7-0.7-1.5-1.3-2.2-1.9c-0.1-0.1-0.2,0.1-0.1,0.2
	c0.8,0.7,1.6,1.3,2.4,2.1c0,0.1,0,0.1,0,0.2c-0.7-0.6-1.4-1.2-2-1.8c-0.1-0.1-0.3,0-0.2,0.1c0.7,0.7,1.4,1.3,2.2,2
	c0,0.1,0,0.1,0,0.2c-0.9-0.8-1.7-1.6-2.6-2.4c0,0-0.1,0-0.2,0s0,0.1,0,0.2l0,0c1,0.8,1.9,1.7,2.8,2.6c0,0.1,0,0.2,0,0.2
	c-0.9-0.9-1.9-1.8-3-2.6c-0.1-0.1-0.2,0.1-0.1,0.2l0.2,0.2c-0.1,0-0.1,0.1-0.1,0.1c0,0,0,0,0,0c0.9,1,2,1.7,2.9,2.7c0,0,0.1,0,0.2,0
	c0,0.1,0,0.2,0,0.3c-1-1-2.1-1.9-3.3-2.7c-0.1-0.1-0.3,0.1-0.1,0.2c1.2,0.8,2.3,1.8,3.4,2.8h0c0,0.1,0,0.2,0,0.3
	c-1-1-2.1-1.8-3.2-2.6c-0.1-0.1-0.3,0.1-0.1,0.2c1.2,0.8,2.3,1.7,3.4,2.7c0,0.1,0,0.3,0,0.4c-0.8-0.7-1.6-1.4-2.4-2c0,0-0.1,0-0.2,0
	c0,0,0,0.1,0,0.2l0,0c0.9,0.7,1.7,1.4,2.6,2.2c0,0.1,0,0.1,0,0.2c-0.9-0.8-1.8-1.5-2.6-2.3c-0.1-0.1-0.2,0.1-0.1,0.2
	c0.9,0.8,1.9,1.6,2.8,2.4v0.7c-1.1-1.1-2.3-2.1-3.6-3.1c-0.1-0.1-0.2,0.1-0.1,0.2c1.3,1,2.6,2,3.8,3.2v0.3c-1.1-1-2.3-2-3.5-2.8
	c-0.1-0.1-0.2,0.1-0.1,0.2c1.3,0.9,2.5,1.9,3.6,2.9c0,0.2,0,0.3,0,0.4c-1.2-1.2-2.5-2.2-3.9-3c-0.1-0.1-0.2,0.1-0.1,0.2
	c1.5,0.9,2.8,1.9,4,3.1c0,0.1,0,0.2,0,0.3c-0.9-0.8-1.9-1.6-2.8-2.4c-0.1-0.1-0.2,0.1-0.1,0.2c1,0.8,2,1.7,3,2.5l0,0v0.1
	c-1.1-0.9-2.2-1.8-3.2-2.7c-0.1-0.1-0.2,0.1-0.1,0.2c1.1,0.9,2.3,1.9,3.4,2.8c0,0.2,0,0.5,0,0.7c-1.2-1-2.6-1.8-3.7-2.9
	c-0.1-0.1-0.2,0.1-0.1,0.2c1.2,1.1,2.7,1.9,3.9,3l0,0c0,0.1,0,0.2,0,0.4c-1.4-1.2-3-2.4-4.5-3.4c-0.1-0.1-0.2,0.1-0.1,0.2
	c1.8,1,3.4,2.1,5,3.4c0,0.3,0,0.7,0,1c-1.5-1.5-3.3-2.6-5.3-3.4c-0.1,0-0.2,0.2-0.1,0.2c2,0.8,3.8,2,5.4,3.5l0,0c0,0.6,0,1.3,0,1.9
	c0,0,0,0,0-0.1c-1.4-1.6-3.2-2.7-5.2-3.3c-0.1,0-0.2,0.2,0,0.2c2,0.6,3.7,1.7,5.1,3.2c0,0.1,0.1,0.1,0.2,0c0,0,0,0,0,0
	c0,0.2,0,0.5,0,0.7c-1.5-1.4-3.2-2.5-5.1-3.3c-0.1,0-0.1,0-0.1,0.1c0,0.1,0,0.1,0.1,0.1l0,0c1.9,0.8,3.6,2,5.2,3.3v0.3
	c-1.5-1.2-3.2-2.2-4.9-3c-0.1-0.1-0.2,0.2-0.1,0.2c1.8,0.8,3.5,1.8,5,3.1v0.2c0,0.1,0,0.2,0,0.2c-1.7-1.2-3.6-2.2-5.3-3.3
	c-0.1-0.1-0.3,0.1-0.1,0.2c1.8,1.2,3.7,2.2,5.4,3.4c0,0.3-0.1,0.5-0.2,0.8c-1.6-1.2-3.3-2.2-5-3.4c-0.1-0.1-0.2,0.1-0.1,0.2
	c1.6,1.2,3.4,2.2,5,3.4c-0.1,0.2-0.3,0.3-0.5,0.4c-1.4-0.9-2.8-1.9-4.2-2.7c-0.1-0.1-0.3,0.1-0.1,0.2c1.4,0.8,2.7,1.8,4.1,2.6
	c-0.1,0-0.2,0-0.3,0c-0.6-0.4-1.2-0.8-1.8-1.2c-0.6-0.4-1.4-0.7-2.1-0.7c-0.1,0-0.1,0-0.1,0.1s0,0.1,0.1,0.1c0.9-0.1,2,0.7,2.7,1.1
	c0.3,0.2,0.5,0.3,0.8,0.5c-1.3-0.2-3.1-1.3-4.4-1.8c-5.7-2.1-11.5-3.6-16.5-7.2c0.1-0.2,0.2-0.4,0.3-0.6c0,0,0,0.1,0,0.1
	c0,0,0,0,0,0c1.2,0.4,2.4,0.8,3.5,1.2c0.1,0,0.1,0,0.1-0.1c0-0.1,0-0.1-0.1-0.1c-1.1-0.5-2.4-0.8-3.5-1.2c-0.1,0-0.1,0-0.1,0.1
	c0,0,0,0,0,0c0.1-0.2,0.2-0.4,0.3-0.6c1.6,0.2,3.1,0.6,4.6,1.3c0.1,0,0.1,0,0.1-0.1c0-0.1,0-0.1-0.1-0.1c-1.5-0.7-3-1.1-4.6-1.3
	l0.5-0.8c0.6,0.1,1.5,0.4,1.6,0.4c1.1,0.3,2.2,0.7,3.2,1.3c0.1,0.1,0.2-0.1,0.1-0.2c-1.5-0.7-3-1.2-4.5-1.7l-0.2-0.1l0.2-0.3
	c0,0,0.1,0,0.1-0.1c0.1-0.4,5,1.2,5.5,1.4c0.1,0,0.1,0,0.2,0s0-0.1,0-0.2c0,0,0,0,0,0c-0.5-0.2-4.6-1.7-5.6-1.5l0.5-0.8
	c1.4,0.3,2.7,0.7,4,1.2c0.1,0,0.2-0.2,0.1-0.2c-1.3-0.5-2.6-0.9-3.9-1.2l0.4-0.7c1.4,0.1,2.8,0.5,4,1.2c0.1,0,0.2-0.2,0.1-0.2
	c-1.3-0.6-2.6-1-4-1.2l0.2-0.3c0.6-0.3,2,0.2,2.5,0.4c0.7,0.2,1.4,0.4,2.1,0.7c0.1,0,0.2-0.2,0.1-0.2c-1-0.3-1.9-0.6-2.9-0.9
	c-0.5-0.2-1.1-0.3-1.6-0.2c0.1-0.2,0.2-0.4,0.4-0.6c1.2,0,2.5,0.2,3.6,0.6c0.1,0,0.2-0.2,0.1-0.2c-1.2-0.4-2.4-0.6-3.6-0.6l0.5-0.9
	c1.1,0.1,2.3,0.3,3.4,0.6c0.1,0,0.2-0.2,0-0.2c-1.1-0.2-2.2-0.5-3.3-0.6c0.2-0.3,0.3-0.6,0.5-0.9c1.2,0.2,2.4,0.5,3.5,0.9
	c0.1,0,0.2-0.2,0-0.2c-1.1-0.4-2.3-0.7-3.4-0.9c0-0.1,0.1-0.2,0.1-0.3c1.1,0.1,2.1,0.3,3.1,0.7c0.1,0,0.2-0.2,0.1-0.2
	c-1-0.4-2-0.6-3.1-0.7l0.2-0.3c1.1,0.3,2.3,0.5,3.4,0.8c0.1,0,0.2-0.2,0.1-0.2c-1.1-0.3-2.3-0.5-3.4-0.8l0.2-0.3
	c1.2,0.2,2.4,0.5,3.6,1c0.1,0,0.1,0,0.1-0.1s0-0.1-0.1-0.1c-1.1-0.4-2.3-0.8-3.5-1l0.2-0.4c1,0.1,2,0.3,2.9,0.6
	c0.1,0,0.2-0.2,0.1-0.2c-0.9-0.3-1.9-0.5-2.8-0.6l0.4-0.7c1.1,0.2,2.1,0.5,3.1,0.8c0.1,0,0.2-0.2,0.1-0.2c-1-0.3-2.1-0.6-3.1-0.8
	c0.1-0.3,0.3-0.5,0.5-0.8l3.2,0.9c0.1,0,0.2-0.2,0.1-0.2c-1-0.3-2.1-0.6-3.2-0.9c0.2-0.3,0.4-0.7,0.6-1c1,0.4,2.1,0.7,3.1,1
	c0.1,0,0.2-0.2,0.1-0.2c-1-0.4-2-0.6-3-1l0.2-0.4c1.2,0.3,2.3,0.7,3.4,1.2c0.1,0.1,0.2-0.1,0.1-0.2c-1.1-0.5-2.2-0.9-3.4-1.2
	c0.1-0.2,0.3-0.5,0.4-0.7c1.1,0.5,2.2,0.8,3.4,1c0.1,0,0.2-0.2,0-0.2c-1.1-0.2-2.3-0.5-3.4-0.9l0.3-0.5c1.2,0.4,2.4,0.8,3.6,1.2
	c0.1,0,0.2-0.2,0.1-0.2c-1.2-0.4-2.4-0.7-3.6-1.2l0.3-0.5c1.2,0.2,2.3,0.5,3.5,1c0.1,0.1,0.2-0.1,0.1-0.2c-1.1-0.4-2.3-0.7-3.4-0.9
	l0.3-0.6c1.2,0.5,2.4,0.9,3.7,1.2c0.1,0,0.2-0.2,0.1-0.2c-1.2-0.3-2.5-0.8-3.7-1.2l0.6-1c1.3,0.5,2.7,0.9,4.1,1.3
	c0.1,0,0.2-0.2,0.1-0.2c-1.4-0.3-2.8-0.7-4.1-1.2l0.6-0.9c1.2,0.3,2.4,0.7,3.6,1.2c0.1,0,0.2-0.2,0.1-0.2c-1.1-0.5-2.3-0.9-3.5-1.2
	c0.1-0.2,0.2-0.3,0.3-0.5c1,0.4,2,0.8,3.1,1.1c0.1,0,0.2-0.2,0.1-0.2c-1-0.3-2-0.7-3-1.1l0.5-0.8c0.9,0.4,1.8,0.8,2.6,1.4
	c0.1,0.1,0.2-0.1,0.1-0.2c-0.4-0.2-1.2-0.7-2-1.1c0.7,0.2,1.5,0.5,2.2,0.8c0.1,0.1,0.2-0.1,0.1-0.2c-0.9-0.4-1.8-0.7-2.8-1l0.2-0.3
	c1,0.3,2,0.7,2.9,1.2c0.1,0,0.1,0,0.1-0.1c0-0.1,0-0.1-0.1-0.1c-0.9-0.5-1.9-0.9-2.9-1.2l0.2-0.4c1,0.4,2.1,0.7,3.1,1.2
	c0.1,0,0.1,0,0.1-0.1s0-0.1-0.1-0.1c-1-0.5-2-0.8-3-1.2l0.2-0.3c1,0.2,1.9,0.6,2.8,1.1c0.1,0.1,0.2-0.1,0.1-0.2
	c-0.9-0.5-1.8-0.9-2.8-1.1l0.1-0.2c1.1,0.3,2.2,0.8,3.2,1.3c0.1,0.1,0.2-0.1,0.1-0.2c-1-0.5-2.1-1-3.2-1.3l0.2-0.3
	c1,0.2,2,0.6,2.9,1c0.1,0.1,0.2-0.1,0.1-0.2c-0.9-0.4-1.9-0.8-2.8-1l0.4-0.7c1,0.5,2.1,0.9,3.3,1.2c0.1,0,0.2-0.2,0.1-0.2
	c-1.1-0.3-2.2-0.6-3.2-1.1c0.1-0.2,0.3-0.5,0.4-0.7C226,12.9,227.1,13.2,228.1,13.6L228.1,13.6z M231.6,22.1L231.6,22.1l-0.1-0.1
	L231.6,22.1z M224.6,10.3L224.6,10.3L224.6,10.3C224.7,10.3,224.7,10.3,224.6,10.3L224.6,10.3z M224.6,10.6L224.6,10.6L224.6,10.6
	C224.6,10.6,224.7,10.6,224.6,10.6L224.6,10.6z M224.6,9.8c0,0.3-0.1,0.6-0.1,0.9c0,0.1,0,0.1,0.1,0.1c0,0.1-0.1,0.1-0.1,0.2
	c0-0.3-0.1-0.5-0.2-0.8l0,0L224.6,9.8z M222.8,12.7c0-0.3,0.1-0.5,0.1-0.8l0.3-0.4c0,0.2-0.1,0.5-0.1,0.7s0.2,0.2,0.2,0
	s0.1-0.5,0.2-0.8c0,0.1,0,0.2,0,0.2c0,0.1,0.2,0.2,0.2,0c0-0.3,0-0.5,0-0.8l0.2-0.3c0,0.1,0,0.1,0,0.2c-0.1,0.2-0.1,0.2,0,0.3
	s0,0,0,0c0,0.1,0,0.2,0,0.3c0,0.1,0,0.1,0.1,0.1c0.1,0,0.1,0,0.1-0.1c0-0.1,0-0.2,0-0.3l0,0l0,0c0-0.2,0-0.3,0-0.5
	c0,0.2,0.1,0.3,0.1,0.3c-0.1,0,0,0.2,0.1,0.2c-5.6,8.9-11,18-16,27.1c-0.1,0.1-0.1,0.3,0,0.4c0.4,3.3,0.9,6.5,1.4,9.7
	c0.3,1.9,0.5,6.7,1.8,8.1c-3.5-3.7-6.5-7.9-9.7-12c-0.5-1.1-1.2-2.2-1.9-3.3l0.5-0.6c1,1.4,1.7,3,2.7,4.4c0.1,0.1,0.3,0,0.2-0.1
	c-1-1.4-1.7-3.1-2.7-4.4l0.5-0.7c0.4,0.7,0.9,1.4,1.2,2.1c0.5,0.8,0.9,1.6,1.4,2.4c0.1,0.1,0.3,0,0.2-0.1c-0.7-1-1.2-2.2-1.9-3.2
	c-0.2-0.4-0.5-0.9-0.8-1.3l0.2-0.2c0.8,1.3,1.6,2.7,2.4,4c0.1,0.1,0.2,0,0.2-0.1c-0.8-1.3-1.6-2.7-2.4-4l0.2-0.3
	c0.8,1.3,1.6,2.6,2.4,3.9c0.1,0.1,0.3,0,0.2-0.1c-0.8-1.4-1.6-2.7-2.4-4l0.2-0.3c0.6,1.2,1.5,2.3,2,3.5c0,0.1,0.1,0.1,0.1,0.1
	s0.1-0.1,0.1-0.1c-0.6-1.3-1.5-2.4-2.1-3.7l0.2-0.4c0.6,1.2,1.4,2.3,2,3.5c0.1,0.1,0.3,0,0.2-0.1c-0.6-1.3-1.4-2.4-2-3.7l0.2-0.3
	c0.5,1.1,1.1,2.2,1.6,3.3c0,0.1,0.3,0,0.2-0.1c-0.5-1.2-1.1-2.2-1.7-3.4l0.3-0.3c0.5,0.9,0.9,1.8,1.3,2.7c0,0.1,0.1,0.1,0.1,0.1
	c0.1,0,0.1-0.1,0.1-0.1c0,0,0,0,0,0c-0.4-1-0.9-1.9-1.4-2.8l0.3-0.4c0.5,1,1,2.1,1.5,3.2c0,0.1,0.1,0.1,0.1,0.1s0.1-0.1,0.1-0.1
	c-0.5-1.1-1-2.2-1.5-3.3c0,0,0.1-0.1,0.1-0.1c0.5,0.9,0.9,1.8,1.3,2.8c0.1,0.1,0.3,0,0.2-0.1c-0.4-1-0.9-1.9-1.4-2.8l0.1-0.2
	c0.5,0.9,0.9,1.8,1.4,2.8c0,0.1,0.1,0.1,0.1,0.1s0.1-0.1,0.1-0.1l0,0c-0.4-1-0.9-2-1.4-2.9l0.2-0.3c0.5,0.8,0.9,1.7,1.2,2.6
	c0,0.1,0.3,0,0.2-0.1c-0.3-1-0.7-1.9-1.2-2.7l0.3-0.4c0.3,0.7,0.6,1.4,0.9,2c0,0.1,0.1,0.1,0.1,0c0,0,0.1-0.1,0.1-0.1
	c-0.3-0.7-0.6-1.4-1-2.2c0.1-0.2,0.3-0.3,0.4-0.5c0.3,0.8,0.7,1.6,1,2.4c0,0.1,0.1,0.1,0.1,0.1s0.1-0.1,0.1-0.1l-1-2.5l0.1-0.1
	c0.3,0.7,0.6,1.4,0.9,2.1c0,0.1,0.1,0.1,0.1,0.1s0.1-0.1,0.1-0.1c-0.3-0.7-0.6-1.5-1-2.2l0.5-0.7c0.3,0.6,0.5,1.3,0.8,1.9
	c0,0.1,0.3,0,0.2-0.1c-0.3-0.7-0.5-1.3-0.8-2l0.1-0.1c0.3,0.5,0.5,1,0.5,1.6c0,0.1,0,0.1,0.1,0.1c0.1,0,0.1,0,0.1-0.1
	c-0.1-0.6-0.3-1.2-0.6-1.7c0.1-0.2,0.3-0.3,0.4-0.5c0.1,0.6,0.5,1.2,0.6,1.9c0,0.1,0.2,0.1,0.2-0.1c-0.3-0.6-0.5-1.3-0.7-2l0.1-0.2
	c0.2,0.6,0.4,1.2,0.5,1.8c0,0.1,0.3,0.1,0.2,0c-0.2-0.7-0.4-1.3-0.6-2l0.2-0.2c0.2,0.6,0.4,1.1,0.5,1.7c0,0.1,0.3,0.1,0.2,0
	c-0.2-0.6-0.4-1.3-0.5-1.9l0,0c0.2,0.5,0.4,1.1,0.5,1.6c0,0.1,0.3,0.1,0.2,0c-0.2-0.6-0.4-1.2-0.6-1.8l0.6-0.7
	c0.2,0.5,0.3,1,0.4,1.5c0,0.1,0,0.1,0.1,0.1c0.1,0,0.1,0,0.1-0.1l0,0c-0.1-0.3-0.1-0.7-0.2-1c0.1,0.4,0.2,0.8,0.3,1.2
	c0,0.1,0,0.1,0.1,0.1c0.1,0,0.1,0,0.1-0.1l0,0c-0.1-0.7-0.3-1.4-0.6-2c0.3-0.3,0.6-0.7,0.9-1c0.1,0.6,0.3,1.3,0.5,1.9
	c0,0.1,0,0.1,0.1,0.1c0.1,0,0.1,0,0.1-0.1c-0.1-0.6-0.3-1.1-0.4-1.7c0.2,0.4,0.3,0.9,0.4,1.3c0,0.2,0.2,0.1,0.2,0
	c-0.1-0.6-0.3-1.2-0.6-1.8c0.2-0.2,0.3-0.4,0.5-0.6c0.1,0.6,0.3,1.2,0.4,1.8c0,0.1,0,0.1,0.1,0.1c0.1,0,0.1,0,0.1-0.1
	c-0.1-0.7-0.2-1.3-0.4-2l0.2-0.4c0.1,0.5,0.2,1,0.2,1.5c0,0.1,0.2,0.1,0.2,0c-0.1-0.6-0.2-1.1-0.3-1.7l0,0c0.2,0.5,0.4,1.1,0.4,1.6
	c0,0.2,0.2,0.1,0.2,0c0-0.6-0.1-1.2-0.4-1.8L213,25c0.1,0.5,0.2,1.1,0.3,1.7c0,0.1,0,0.1,0.1,0.1c0.1,0,0.1,0,0.1-0.1
	c-0.1-0.6-0.2-1.3-0.3-1.9l0.6-0.7c0,0.6,0.1,1.2,0.3,1.8c0,0.1,0.2,0,0.2-0.1c-0.2-0.6-0.3-1.3-0.3-2l0.5-0.7
	c0,0.5,0.1,1.1,0.3,1.6c0,0.1,0.3,0,0.2-0.1c-0.3-0.6-0.4-1.2-0.4-1.9l0.6-0.8c0,0.5,0.1,1,0.2,1.5c0,0.2,0.2,0.1,0.2,0
	c-0.1-0.6-0.2-1.1-0.2-1.7l0,0l0.1-0.2c0,0.5,0.1,0.9,0.1,1.4c0,0.1,0.2,0.1,0.2,0c0-0.5-0.1-1.1-0.2-1.6l0.1-0.1l0.2-0.3
	c0,0.6,0.1,1.1,0.2,1.7c0,0.1,0,0.1,0.1,0.1c0.1,0,0.1,0,0.1-0.1c-0.1-0.6-0.2-1.2-0.2-1.9c0,0,0,0,0,0c0.1-0.2,0.2-0.3,0.4-0.5
	c0,0.5,0.1,1,0.1,1.5c0,0.1,0.2,0.1,0.2,0c0-0.6-0.1-1.2-0.2-1.7c0,0,0-0.1,0.1-0.1c0.1,0.5,0.1,1,0.2,1.6c0,0.1,0,0.1,0.1,0.1
	c0.1,0,0.1,0,0.1-0.1l0,0c-0.1-0.6-0.1-1.2-0.2-1.8l0.5-0.7c0.1,0.4,0.1,0.9,0.1,1.3c0,0.1,0.2,0.2,0.2,0c0-0.5,0-1.1-0.1-1.6
	l0.2-0.3l0.1,1.2c0,0.2,0.2,0.1,0.2,0c0-0.5-0.1-1-0.1-1.5l0.4-0.5c0,0.2,0,0.5,0,0.8s0.2,0.2,0.2,0c0-0.4,0-0.7,0-1.1l0.3-0.4
	c0,0.4,0.1,0.8,0.2,1.1c0,0.1,0.2,0.1,0.2,0c-0.1-0.5-0.2-0.9-0.2-1.4c0.1-0.1,0.1-0.2,0.2-0.3c0,0.2,0,0.5,0.1,0.7s0.2,0.1,0.2,0
	c0-0.3-0.1-0.6-0.1-0.9l0.4-0.5c0.1,0.4,0.1,0.7,0.1,1.1c0,0.2,0.2,0.2,0.2,0c0-0.5,0-0.9-0.1-1.3l0.2-0.3c0,0.2,0.1,0.5,0.1,0.7
	c0,0.1,0,0.1,0.1,0.1c0.1,0,0.1,0,0.1-0.1c0-0.3-0.1-0.6-0.1-1l0.2-0.3c0,0.2,0,0.4,0,0.6c0,0.1,0,0.1,0.1,0.1c0.1,0,0.1,0,0.1-0.1
	c0-0.3,0-0.6,0-0.9l0.2-0.3c0,0.3,0,0.7,0,1c0,0.2,0.2,0.2,0.2,0c0-0.4,0-0.8,0-1.3l0.2-0.3c0,0.3,0,0.5,0,0.8c0,0.1,0.2,0.2,0.2,0
	c0-0.4,0-0.7,0-1.1l0.2-0.2c0,0.2,0,0.4-0.1,0.7c0,0.1,0,0.1,0.1,0.1c0.1,0,0.1,0,0.1-0.1c0-0.3,0.1-0.7,0.1-1l0,0
	c0,0.2,0,0.5,0,0.7c0,0.1,0,0.1,0.1,0.1c0.1,0,0.1,0,0.1-0.1c0-0.4,0-0.7,0.1-1.1l0.1-0.2l-0.1,0.5
	C222.7,12.7,222.8,12.7,222.8,12.7C222.8,12.7,222.8,12.7,222.8,12.7L222.8,12.7z M203.2,29.9c6.2-6.8,12.7-13.1,19.3-19.4
	c-2.3,2.8-4.5,5.7-6.6,8.7c-5.5,7.5-11.8,14.3-17.2,21.9h-0.1c-4.5,2.4-8.9,4.8-13.2,7.5C191.5,42.5,197.4,36.3,203.2,29.9
	L203.2,29.9z"/>
<path d="M212.3,26.1c0.1,0.4,0.2,0.9,0.3,1.3c0,0.1,0.2,0.1,0.2,0c-0.1-0.4-0.2-0.9-0.3-1.3C212.5,25.9,212.2,25.9,212.3,26.1z"/>
<path d="M227.1,39.3c-0.1,0-0.1,0-0.1,0c0,0.1,0,0.1,0,0.1c0,0,0,0,0,0c1.9,0.8,3.6,1.9,5.2,3.2c0.1,0.1,0.2-0.1,0.1-0.2
	C230.7,41.3,229,40.2,227.1,39.3z"/>
<path d="M226.9,38.7c1.7,1.3,3.8,1.9,5.3,3.5c0.1,0.1,0.3,0,0.2-0.1c-1.5-1.6-3.6-2.3-5.3-3.6C226.9,38.4,226.7,38.6,226.9,38.7z"/>
<path d="M227.4,37.5c1.7,0.9,3.3,2,4.8,3.2c0.1,0.1,0.2-0.1,0.1-0.2c-1.5-1.3-3.1-2.4-4.9-3.2C227.3,37.2,227.2,37.4,227.4,37.5z"/>
<rect x="65.1" y="267.5" class="st0" width="9.4" height="9.4"/>
<rect x="80.3" y="267.5" class="st0" width="9.4" height="9.4"/>
<rect x="95.5" y="267.5" class="st0" width="9.4" height="9.4"/>
<rect x="110.7" y="267.5" class="st0" width="9.4" height="9.4"/>
<rect x="125.9" y="267.5" class="st0" width="9.4" height="9.4"/>
<rect x="141.1" y="267.5" class="st0" width="9.4" height="9.4"/>
<rect x="156.4" y="267.5" class="st0" width="9.4" height="9.4"/>
<rect x="65.1" y="282.6" class="st0" width="9.4" height="9.4"/>
<rect x="80.3" y="282.6" class="st0" width="9.4" height="9.4"/>
<rect x="95.5" y="282.6" class="st0" width="9.4" height="9.4"/>
<rect x="110.7" y="282.6" class="st0" width="9.4" height="9.4"/>
<rect x="125.9" y="282.6" class="st0" width="9.4" height="9.4"/>
<rect x="141.1" y="282.6" class="st0" width="9.4" height="9.4"/>
<rect x="156.4" y="282.6" class="st0" width="9.4" height="9.4"/>
<rect x="65.1" y="297.6" class="st0" width="9.4" height="9.4"/>
<rect x="80.3" y="297.6" class="st0" width="9.4" height="9.4"/>
<rect x="95.5" y="297.6" class="st0" width="9.4" height="9.4"/>
<rect x="110.7" y="297.6" class="st0" width="9.4" height="9.4"/>
<rect x="125.9" y="297.6" class="st0" width="9.4" height="9.4"/>
<rect x="141.1" y="297.6" class="st0" width="9.4" height="9.4"/>
<rect x="156.4" y="297.6" class="st0" width="9.4" height="9.4"/>
<rect x="65.1" y="312.7" class="st0" width="9.4" height="9.4"/>
<rect x="80.3" y="312.7" class="st0" width="9.4" height="9.4"/>
<rect x="95.5" y="312.7" class="st0" width="9.4" height="9.4"/>
<rect x="110.7" y="312.7" class="st0" width="9.4" height="9.4"/>
<rect x="125.9" y="312.7" class="st0" width="9.4" height="9.4"/>
<rect x="141.1" y="312.7" class="st0" width="9.4" height="9.4"/>
<rect x="156.4" y="312.7" class="st0" width="9.4" height="9.4"/>
<rect x="171.7" y="267.5" class="st0" width="9.4" height="9.4"/>
<rect x="186.9" y="267.5" class="st0" width="9.4" height="9.4"/>
<rect x="202.1" y="267.5" class="st0" width="9.4" height="9.4"/>
<rect x="217.3" y="267.5" class="st0" width="9.4" height="9.4"/>
<rect x="232.5" y="267.5" class="st0" width="9.4" height="9.4"/>
<rect x="247.7" y="267.5" class="st0" width="9.4" height="9.4"/>
<rect x="263" y="267.5" class="st0" width="9.4" height="9.4"/>
<rect x="171.7" y="282.6" class="st0" width="9.4" height="9.4"/>
<rect x="186.9" y="282.6" class="st0" width="9.4" height="9.4"/>
<rect x="202.1" y="282.6" class="st0" width="9.4" height="9.4"/>
<rect x="217.3" y="282.6" class="st0" width="9.4" height="9.4"/>
<rect x="232.5" y="282.6" class="st0" width="9.4" height="9.4"/>
<rect x="247.7" y="282.6" class="st0" width="9.4" height="9.4"/>
<rect x="263" y="282.6" class="st0" width="9.4" height="9.4"/>
<rect x="171.7" y="297.6" class="st0" width="9.4" height="9.4"/>
<rect x="186.9" y="297.6" class="st0" width="9.4" height="9.4"/>
<rect x="202.1" y="297.6" class="st0" width="9.4" height="9.4"/>
<rect x="217.3" y="297.6" class="st0" width="9.4" height="9.4"/>
<rect x="232.5" y="297.6" class="st0" width="9.4" height="9.4"/>
<rect x="247.7" y="297.6" class="st0" width="9.4" height="9.4"/>
<rect x="263" y="297.6" class="st0" width="9.4" height="9.4"/>
<rect x="171.7" y="312.7" class="st0" width="9.4" height="9.4"/>
<rect x="186.9" y="312.7" class="st0" width="9.4" height="9.4"/>
<rect x="202.1" y="312.7" class="st0" width="9.4" height="9.4"/>
<rect x="217.3" y="312.7" class="st0" width="9.4" height="9.4"/>
<rect x="232.5" y="312.7" class="st0" width="9.4" height="9.4"/>
<rect x="247.7" y="312.7" class="st0" width="9.4" height="9.4"/>
<rect x="263" y="312.7" class="st0" width="9.4" height="9.4"/>
<rect y="205.3" class="st1" width="9.7" height="9.6"/>
<rect x="14.7" y="205.3" class="st1" width="9.7" height="9.6"/>
<rect x="29.4" y="205.3" class="st1" width="9.6" height="9.6"/>
<rect x="44.1" y="205.3" class="st1" width="9.6" height="9.6"/>
<rect x="0.1" y="219.2" class="st1" width="9.7" height="9.7"/>
<rect x="14.8" y="219.2" class="st1" width="9.7" height="9.7"/>
<rect x="29.5" y="219.2" class="st1" width="9.6" height="9.7"/>
<rect x="44.2" y="219.2" class="st1" width="9.6" height="9.7"/>
<path class="st2" d="M185.3,109.8l-6.5-3.1l-1.7,3.6c-1.6-0.4-3.2-0.5-4.9-0.3l-1.3-3.7l-6.8,2.4l1.3,3.6c-1.4,0.9-2.7,2-3.8,3.3
	l-3.4-1.6l-3.1,6.5l3.2,1.5c-0.4,1.7-0.5,3.5-0.4,5.2l-3.3,1.1l2.4,6.8l3.2-1.1c0.9,1.5,2.1,2.9,3.5,4l-1.4,3l6.5,3.1l1.4-3
	c1.8,0.4,3.6,0.5,5.4,0.2l1.1,3.1l6.7-2.4l-1.1-3.3c1.5-1,2.8-2.2,3.8-3.6l3.2,1.5l3.1-6.5l-3.4-1.6c0.3-1.6,0.4-3.3,0.1-5l3.6-1.3
	l-2.4-6.8l-3.7,1.3c-0.9-1.4-2-2.6-3.3-3.6L185.3,109.8z M169.2,135.1c-5.2-2.5-7.4-8.7-4.9-13.9c2.5-5.2,8.7-7.4,13.9-4.9
	c5.2,2.5,7.4,8.7,4.9,13.9C180.6,135.4,174.4,137.6,169.2,135.1L169.2,135.1z"/>
<path class="st3" d="M173.9,143.3l-1.2-3.4c-1.4,0.1-2.8,0.1-4.1-0.1L167,143l-8.3-4l1.5-3.2c-1-0.9-1.9-1.9-2.7-3.1l-3.4,1.2
	l-3.1-8.7l3.5-1.2c-0.1-1.3,0-2.6,0.3-3.9l-3.4-1.6l4-8.3l3.6,1.7c0.8-0.9,1.8-1.7,2.8-2.4l-1.3-3.8l8.7-3.1l1.4,4
	c1.2-0.1,2.4,0,3.6,0.2l1.8-3.8l8.3,4l-1.8,3.8c0.9,0.8,1.7,1.7,2.4,2.6l4-1.4l3.1,8.7l-3.8,1.4c0.1,1.2,0.1,2.5-0.1,3.7l3.6,1.7
	l-4,8.3l-3.4-1.6c-0.9,1-1.8,1.9-2.9,2.7l1.2,3.5L173.9,143.3z M174.1,137.7l1,3l4.8-1.7l-1.1-3.1l0.7-0.4c1.4-0.9,2.6-2,3.6-3.3
	l0.5-0.7l3,1.4l2.2-4.6l-3.2-1.5l0.1-0.8c0.3-1.5,0.4-3.1,0.1-4.7l-0.1-0.8l3.5-1.2l-1.7-4.8l-3.5,1.2l-0.4-0.7
	c-0.9-1.3-1.9-2.4-3.1-3.4l-0.6-0.5l1.6-3.4l-4.6-2.2l-1.6,3.4l-0.7-0.2c-1.5-0.3-3-0.4-4.5-0.3l-0.8,0.1l-1.2-3.5l-4.9,1.7l1.2,3.4
	l-0.7,0.4c-1.3,0.8-2.5,1.9-3.5,3.1l-0.5,0.6l-3.2-1.5l-2.2,4.6l3,1.4l-0.2,0.8c-0.4,1.6-0.5,3.2-0.4,4.9l0.1,0.8l-3.1,1.1l1.7,4.8
	l3-1l0.4,0.7c0.9,1.4,2,2.7,3.3,3.8l0.6,0.5l-1.3,2.8l4.6,2.2l1.3-2.8l0.8,0.2c1.6,0.4,3.3,0.4,5,0.2L174.1,137.7z M171.4,134.7
	c-6.3,0-11.5-5.2-11.5-11.5c0-1.7,0.4-3.4,1.1-4.9c1.9-4,5.9-6.5,10.4-6.5c6.3,0,11.5,5.1,11.5,11.5c0,1.7-0.4,3.4-1.1,4.9
	C179.8,132.1,175.8,134.7,171.4,134.7L171.4,134.7z M171.4,113.8c-3.6,0-6.9,2.1-8.5,5.4c-2.2,4.7-0.2,10.3,4.5,12.6
	c1.2,0.6,2.6,0.9,4,0.9c3.6,0,7-2.1,8.5-5.4c2.2-4.7,0.2-10.3-4.5-12.6C174.1,114.1,172.7,113.8,171.4,113.8L171.4,113.8z"/>
<path class="st2" d="M173.9,115.1c-4.6-1.1-9.2,1.8-10.3,6.4c-1.1,4.6,1.8,9.2,6.4,10.3c4.6,1.1,9.2-1.8,10.3-6.4c0,0,0,0,0,0
	C181.4,120.8,178.5,116.2,173.9,115.1z"/>
<path class="st3" d="M171.9,133L171.9,133c-0.7,0-1.5-0.1-2.2-0.3c-5.2-1.1-8.5-6.2-7.4-11.4c1-4.5,5-7.6,9.6-7.6
	c0.7,0,1.5,0.1,2.2,0.3c5.2,1.1,8.5,6.2,7.4,11.4C180.5,130,176.5,133.1,171.9,133z M171.9,115.9c-4.2,0-7.6,3.4-7.5,7.6
	c0,3.5,2.4,6.5,5.8,7.3c0.6,0.1,1.2,0.2,1.7,0.2c4.2,0,7.6-3.4,7.5-7.6c0-3.5-2.4-6.5-5.8-7.3C173.1,115.9,172.5,115.9,171.9,115.9
	L171.9,115.9z"/>
<path class="st2" d="M85.4,78.5l-6.6-3.1l-1.8,3.7c-1.6-0.4-3.3-0.5-4.9-0.3L70.8,75L64,77.4l1.3,3.7c-1.5,0.9-2.8,2-3.9,3.3
	L58,82.8l-3.1,6.6l3.3,1.6c-0.4,1.7-0.5,3.5-0.4,5.3l-3.3,1.2l2.4,6.9l3.2-1.1c1,1.6,2.2,2.9,3.6,4.1l-1.4,3l6.6,3.1l1.4-3
	c1.8,0.4,3.6,0.5,5.4,0.2l1.1,3.2l6.9-2.4l-1.1-3.3c1.5-1,2.8-2.2,3.9-3.6l3.3,1.6l3.1-6.6l-3.5-1.6c0.3-1.7,0.4-3.4,0.2-5.1
	l3.7-1.3l-2.4-6.9L87,85.9c-0.9-1.4-2-2.6-3.3-3.7L85.4,78.5z M69.1,104.3c-5.3-2.5-7.5-8.9-5-14.1c2.5-5.3,8.9-7.5,14.1-5
	c5.3,2.5,7.5,8.9,5,14.1C80.7,104.6,74.4,106.8,69.1,104.3L69.1,104.3z"/>
<path class="st3" d="M74.7,120.5l-1.7-4.7c-1.9,0.2-3.8,0.1-5.7-0.2l-2.1,4.5l-11.6-5.6l2.1-4.5c-1.4-1.3-2.7-2.7-3.8-4.3l-4.7,1.7
	l-4.3-12.2l4.9-1.7c-0.1-1.8,0-3.7,0.4-5.5l-4.8-2.3l5.6-11.7l5,2.4c1.2-1.3,2.5-2.4,4-3.4L56,67.6l12.2-4.3l2,5.6
	c1.7-0.1,3.3,0,5,0.3l2.5-5.3l11.7,5.6l-2.6,5.4c1.3,1.1,2.4,2.4,3.4,3.7l5.6-2l4.3,12.2l-5.4,1.9c0.1,1.7,0.1,3.5-0.2,5.2l5,2.4
	L94,109.8l-4.8-2.3c-1.2,1.4-2.6,2.7-4.1,3.8l1.7,4.9L74.7,120.5z M75,112.7l1.5,4.2l6.8-2.4l-1.5-4.3l0.9-0.6
	c1.9-1.3,3.6-2.8,5-4.7l0.7-0.9l4.3,2l3.1-6.5l-4.4-2.1l0.2-1.1c0.4-2.2,0.5-4.4,0.2-6.6l-0.1-1.2l4.8-1.7L94,80l-4.9,1.8l-0.6-0.9
	c-1.2-1.8-2.6-3.4-4.3-4.7l-0.9-0.7l2.3-4.8l-6.5-3.1l-2.3,4.8l-1.1-0.2c-2.1-0.5-4.2-0.6-6.4-0.4l-1.1,0.1l-1.8-4.9l-6.8,2.4
	l1.7,4.8l-1,0.6c-1.9,1.2-3.6,2.6-5,4.3l-0.7,0.8l-4.4-2.1l-3.1,6.5l4.3,2l-0.3,1.1c-0.5,2.2-0.7,4.5-0.5,6.8l0.1,1.1l-4.3,1.5
	l2.4,6.8l4.2-1.5l0.6,1c1.2,2,2.8,3.8,4.7,5.3l0.9,0.7l-1.9,3.9l6.5,3.1l1.9-3.9l1.1,0.2c2.3,0.5,4.7,0.6,7,0.3L75,112.7z
	 M71.2,108.4c-8.9,0-16.1-7.3-16.1-16.1c0-2.4,0.5-4.7,1.6-6.9c2.7-5.6,8.3-9.1,14.5-9.2c8.9,0,16.1,7.3,16.1,16.1
	c0,2.4-0.5,4.7-1.6,6.9C83.1,104.8,77.4,108.4,71.2,108.4z M71.2,79.1c-5.1,0-9.8,2.9-12,7.5c-3.1,6.6-0.4,14.5,6.2,17.6
	c1.8,0.8,3.7,1.3,5.7,1.3c5.1,0,9.8-2.9,12-7.5c3.1-6.6,0.4-14.5-6.2-17.6C75.1,79.5,73.2,79.1,71.2,79.1z"/>
<path class="st2" d="M73.8,83.9c-4.7-1.1-9.4,1.8-10.5,6.5c-1.1,4.7,1.8,9.4,6.5,10.5c4.7,1.1,9.4-1.8,10.5-6.5c0,0,0,0,0,0
	C81.4,89.7,78.5,85,73.8,83.9z"/>
<path class="st3" d="M71.8,102.2L71.8,102.2c-0.8,0-1.5-0.1-2.2-0.3c-5.3-1.2-8.5-6.5-7.3-11.7c1-4.4,5-7.5,9.5-7.5
	c0.8,0,1.5,0.1,2.2,0.3c5.3,1.2,8.5,6.5,7.3,11.7C80.4,99.1,76.4,102.2,71.8,102.2z M71.8,84.7c-4.2,0-7.7,3.5-7.7,7.7
	c0,4.2,3.5,7.7,7.7,7.7c4.2,0,7.7-3.5,7.7-7.7c0-3.6-2.5-6.6-5.9-7.5C73,84.8,72.4,84.8,71.8,84.7L71.8,84.7z"/>
<path class="st2" d="M179.3,157.2l-3.6-1.7l-1,2c-0.9-0.2-1.8-0.3-2.7-0.2l-0.7-2.1l-3.7,1.4l0.7,2c-0.8,0.5-1.5,1.1-2.1,1.8
	l-1.9-0.9l-1.7,3.6l1.8,0.9c-0.2,1-0.3,1.9-0.2,2.9l-1.8,0.6l1.3,3.8l1.8-0.6c0.5,0.9,1.2,1.6,2,2.2l-0.8,1.6l3.6,1.7l0.8-1.7
	c1,0.2,2,0.3,3,0.1l0.6,1.8l3.8-1.3l-0.6-1.8c0.8-0.5,1.5-1.2,2.1-2l1.8,0.9l1.7-3.6l-1.9-0.9c0.2-0.9,0.2-1.9,0.1-2.8l2-0.7
	l-1.3-3.8l-2.1,0.7c-0.5-0.8-1.1-1.4-1.8-2L179.3,157.2z M170.3,171.3c-2.9-1.4-4.1-4.9-2.8-7.8s4.9-4.1,7.8-2.8
	c2.9,1.4,4.1,4.9,2.8,7.8c0,0,0,0,0,0C176.7,171.4,173.2,172.7,170.3,171.3L170.3,171.3z"/>
<path class="st3" d="M172.9,175.9l-0.7-1.9c-0.8,0.1-1.5,0-2.3-0.1l-0.9,1.8l-4.6-2.2l0.8-1.8c-0.6-0.5-1.1-1.1-1.5-1.7l-1.9,0.7
	l-1.8-4.8l2-0.7c0-0.7,0-1.5,0.1-2.2l-1.9-0.9l2.2-4.6l2,0.9c0.5-0.5,1-1,1.6-1.4l-0.8-2.1l4.9-1.7l0.8,2.2c0.7,0,1.3,0,2,0.1l1-2.1
	l4.6,2.2l-1,2.1c0.5,0.4,1,0.9,1.4,1.5l2.2-0.8l1.7,4.8l-2.1,0.8c0.1,0.7,0,1.4-0.1,2.1l2,0.9l-2.2,4.7l-1.9-0.9
	c-0.5,0.6-1,1.1-1.6,1.5l0.7,2L172.9,175.9z M173,172.8l0.6,1.6l2.7-0.9l-0.6-1.7l0.4-0.2c0.8-0.5,1.4-1.1,2-1.9l0.3-0.4l1.7,0.8
	l1.2-2.6l-1.8-0.8l0.1-0.4c0.2-0.9,0.2-1.7,0.1-2.6l-0.1-0.4l1.9-0.7l-1-2.7l-2,0.7l-0.2-0.4c-0.5-0.7-1-1.3-1.7-1.9l-0.4-0.3
	l0.9-1.9l-2.6-1.3l-0.9,1.9l-0.5-0.1c-0.8-0.2-1.7-0.2-2.5-0.1h-0.4l-0.7-2l-2.7,1l0.7,1.9l-0.4,0.2c-0.8,0.5-1.4,1-2,1.7l-0.3,0.3
	l-1.8-0.8l-1.2,2.6l1.7,0.8l-0.1,0.4c-0.2,0.9-0.3,1.8-0.2,2.7v0.4l-1.7,0.6l1,2.7l1.7-0.6l0.2,0.4c0.5,0.8,1.1,1.5,1.9,2.1l0.4,0.3
	l-0.7,1.6l2.6,1.2l0.7-1.6l0.4,0.1c0.9,0.2,1.9,0.2,2.8,0.1L173,172.8z M171.5,171.1c-3.5,0.1-6.5-2.6-6.6-6.1s2.6-6.5,6.1-6.6
	c0.2,0,0.3,0,0.5,0c0.9,0,1.9,0.2,2.7,0.6c3.2,1.5,4.5,5.3,3,8.5C176.2,169.6,174,171,171.5,171.1L171.5,171.1z M171.5,159.4
	c-2,0-3.9,1.2-4.8,3c-1.2,2.6-0.1,5.8,2.5,7c2.6,1.2,5.8,0.1,7-2.5c1.2-2.6,0.1-5.7-2.5-7C173.1,159.6,172.3,159.4,171.5,159.4
	L171.5,159.4z"/>
<path class="st4" d="M226.4,173.3l-1.2-3.3c-1.4,0.1-2.7,0-4-0.2l-1.5,3.2l-8.2-3.9l1.5-3.2c-1-0.9-1.9-1.9-2.7-3l-3.3,1.2l-3-8.6
	l3.5-1.2c-0.1-1.3,0-2.6,0.3-3.9l-3.4-1.6l3.9-8.2l3.6,1.7c0.8-0.9,1.8-1.7,2.8-2.4l-1.3-3.8l8.6-3.1l1.4,3.9c1.2-0.1,2.4,0,3.5,0.2
	l1.8-3.8l8.2,3.9L235,141c0.9,0.8,1.7,1.7,2.4,2.6l3.9-1.4l3,8.6l-3.8,1.3c0.1,1.2,0.1,2.5-0.1,3.7l3.6,1.7l-4,8.2l-3.4-1.6
	c-0.8,1-1.8,1.9-2.9,2.6l1.2,3.5L226.4,173.3z M226.6,167.8l1,2.9l4.8-1.7l-1.1-3l0.7-0.4c1.4-0.9,2.5-2,3.5-3.3l0.5-0.6l3,1.4
	l2.2-4.6L238,157l0.1-0.8c0.3-1.5,0.3-3.1,0.1-4.6l-0.1-0.8l3.4-1.2l-1.7-4.8l-3.4,1.2l-0.4-0.7c-0.8-1.3-1.8-2.4-3-3.3l-0.6-0.5
	l1.6-3.4l-4.6-2.2l-1.6,3.4l-0.8-0.2c-1.5-0.3-3-0.4-4.5-0.3l-0.8,0.1l-1.2-3.5l-4.8,1.7l1.2,3.4l-0.7,0.4c-1.3,0.8-2.5,1.8-3.5,3
	l-0.5,0.6l-3.1-1.5l-2.3,4.7l3,1.4l-0.2,0.8c-0.4,1.6-0.5,3.2-0.3,4.8l0.1,0.8l-3,1.1l1.7,4.8l2.9-1l0.4,0.7c0.9,1.4,2,2.7,3.3,3.7
	l0.6,0.5l-1.3,2.8l4.6,2.2l1.3-2.8l0.8,0.2c1.6,0.4,3.3,0.4,5,0.2L226.6,167.8z M223.9,164.8c-6.3,0-11.4-5.1-11.3-11.4
	c0-1.7,0.4-3.3,1.1-4.9c2.7-5.7,9.4-8.1,15.1-5.4c2.8,1.3,4.9,3.7,5.9,6.5c1,2.8,0.8,6-0.5,8.7C232.3,162.3,228.3,164.8,223.9,164.8
	L223.9,164.8z M223.9,144.1c-5.2,0-9.3,4.2-9.4,9.3c0,1.1,0.2,2.1,0.5,3.1c0.8,2.3,2.5,4.2,4.8,5.3c1.2,0.6,2.6,0.9,4,0.9
	c3.6,0,6.9-2.1,8.5-5.3c2.2-4.7,0.2-10.2-4.4-12.4C226.7,144.4,225.3,144.1,223.9,144.1L223.9,144.1z"/>
<path class="st4" d="M96.6,372.8l-0.8-2.4c-1,0.1-1.9,0-2.9-0.1l-1.1,2.2l-5.9-2.8l1.1-2.2c-0.7-0.6-1.4-1.4-1.9-2.1l-2.4,0.8
	l-2.2-6.1l2.4-0.9c0-0.9,0-1.9,0.2-2.8l-2.4-1.1l2.8-5.8l2.5,1.2c0.6-0.6,1.3-1.2,2-1.7l-1-2.7l6.1-2.1l1,2.8c0.8,0,1.7,0,2.5,0.1
	l1.3-2.7l5.8,2.8l-1.2,2.7c0.6,0.6,1.2,1.2,1.7,1.9l2.8-1l2.2,6.1l-2.7,1c0.1,0.9,0,1.7-0.1,2.6l2.5,1.2l-2.8,5.8l-2.4-1.1
	c-0.6,0.7-1.3,1.3-2,1.9l0.9,2.4L96.6,372.8z M96.7,368.9l0.7,2.1l3.4-1.2l-0.8-2.1l0.5-0.3c1-0.6,1.8-1.4,2.5-2.3l0.4-0.5l2.1,1
	l1.6-3.2l-2.2-1.1l0.1-0.5c0.2-1.1,0.2-2.2,0.1-3.3l-0.1-0.6l2.4-0.9l-1.2-3.4l-2.5,0.9l-0.3-0.5c-0.6-0.9-1.3-1.7-2.1-2.4l-0.4-0.4
	l1.1-2.4l-3.2-1.5l-1.2,2.4l-0.6-0.1c-1-0.2-2.1-0.3-3.2-0.2l-0.6,0l-0.9-2.5l-3.4,1.2l0.9,2.4l-0.5,0.3c-0.9,0.6-1.8,1.3-2.5,2.1
	l-0.4,0.4l-2.2-1.1l-1.6,3.3l2.1,1l-0.1,0.6c-0.3,1.1-0.4,2.3-0.2,3.4v0.5l-2.1,0.8l1.2,3.4l2.1-0.7l0.3,0.5c0.6,1,1.4,1.9,2.3,2.6
	l0.4,0.4l-0.9,2l3.2,1.5l0.9-2l0.6,0.1c1.2,0.3,2.3,0.3,3.5,0.1L96.7,368.9z M94.8,366.8c-4.4,0-8-3.6-8-8c0-1.2,0.3-2.4,0.8-3.5
	c1.3-2.8,4.2-4.6,7.3-4.6c4.4,0,8,3.5,8,8c0,1.2-0.3,2.4-0.8,3.5C100.7,365,97.9,366.8,94.8,366.8z M94.8,352.1
	c-2.6,0-4.9,1.5-6,3.8c-1.6,3.3-0.2,7.3,3.1,8.8c0.9,0.4,1.9,0.6,2.9,0.6c2.6,0,4.9-1.5,6-3.8c1.6-3.3,0.2-7.2-3.1-8.8c0,0,0,0,0,0
	C96.8,352.4,95.8,352.1,94.8,352.1L94.8,352.1z"/>
<path class="st5" d="M9.2,264.3H108c4.2,0,7.7,3.4,7.7,7.7l0,0v46.5c0,4.2-3.4,7.7-7.7,7.7l0,0H64.6c-4.1,6.2-12.8,19.4-25.9,18
	c-0.8-0.1,11.6-8,4.4-18H9.2c-4.2,0-7.7-3.4-7.7-7.7l0,0V272C1.5,267.7,5,264.3,9.2,264.3L9.2,264.3z"/>
<rect x="20.7" y="306.2" class="st2" width="84.2" height="3.8"/>
<rect x="20.8" y="291" class="st2" width="84.2" height="3.8"/>
<rect x="20.9" y="275.9" class="st2" width="84.2" height="3.8"/>
<rect x="3.7" y="296.4" class="st3" width="4" height="12.5"/>
<rect x="3.7" y="272.9" class="st3" width="4" height="12.5"/>
<rect x="14.4" y="257.9" class="st3" width="12.5" height="4"/>
<rect x="38.2" y="257.9" class="st3" width="12.5" height="4"/>
<rect x="62" y="257.9" class="st3" width="12.5" height="4"/>
<rect x="85.8" y="257.9" class="st3" width="12.5" height="4"/>
<path class="st3" d="M45.7,342.3c4.6,0,13.2-2.8,24-18.6l44.1-0.1c2.6-0.4,7.7-2.6,7.8-8.2c0.1-5.3,0.1-35,0.1-36.2h-4
	c0,0.3,0,30.9-0.1,36.1c-0.1,3.3-3.5,4.1-4.3,4.3l-45.8,0.1l-0.6,0.9c-9.2,13.7-16.1,17-19.9,17.6c8.1-9.9,1.7-17.7,1.6-17.8
	l-0.6-0.7h-0.9c-0.3,0-28.7,0-34.8,0c-2.4,0.1-4.4-1.7-4.6-4.1l-4,0.3c0.3,4.5,4.1,7.9,8.5,7.8c5.4,0,28.5,0,33.7,0
	c1.1,1.9,3.1,7.5-4.7,14.5l-2.1,1.9l2.4,1.4C43.1,342.1,44.4,342.4,45.7,342.3z"/>
<path class="st2" d="M174.1,217.9v36.3c0,11,8.7,20,19.7,20.3l-25.1,30.9l42.5-30.8h66c11.2-0.1,20.3-9.2,20.3-20.4v-36.3
	c0-11.2-9.1-20.3-20.4-20.4h-82.6C183.3,197.5,174.2,206.6,174.1,217.9L174.1,217.9z"/>
<circle class="st5" cx="260.5" cy="228.9" r="8.3"/>
<circle class="st5" cx="231.8" cy="228.9" r="8.3"/>
<circle class="st5" cx="204.4" cy="228.9" r="8.3"/>
<rect x="228.8" y="188.3" class="st3" width="4.3" height="3.6"/>
<rect x="236.4" y="188.3" class="st3" width="4.3" height="3.6"/>
<rect x="243.9" y="188.3" class="st3" width="4.3" height="3.6"/>
<rect x="251.5" y="188.3" class="st3" width="4.3" height="3.6"/>
<rect x="259" y="188.3" class="st3" width="4.3" height="3.6"/>
<rect x="266.6" y="188.3" class="st3" width="4.3" height="3.6"/>
<rect x="274.1" y="188.3" class="st3" width="4.3" height="3.6"/>
<path class="st3" d="M154.4,307.4l31.7-38.9c-16.7-2.8-18-20.1-18-20.3v-37.7c0-19.1,19.3-22,19.5-22h0.2l34.9-0.1v3.6l-34.8,0.1
	c-1.5,0.2-16.3,3-16.3,18.4V248c0.1,1.2,1.6,16.5,18,17.3l3.6,0.2l-18.7,23l31.9-23.1H275c0.1,0,7.1,0.4,11.9-4.1
	c3-2.9,4.6-7.1,4.6-12.7v-27.9h3.6v27.8c0,6.6-1.9,11.7-5.7,15.3c-5.7,5.4-13.6,5.1-14.5,5.1h-67.3L154.4,307.4z"/>
<path class="st2" d="M92.3,120.8c29.4,0,53.2,18.1,53.2,40.4c0,13.9-9.2,26.2-23.3,33.4l0,0l15.6,51.9l-31.2-46.4h0.1
	c-4.7,1-9.5,1.5-14.3,1.5c-29.4,0-53.2-18.1-53.2-40.4S63,120.8,92.3,120.8z"/>
<path class="st3" d="M99.1,202.9c-4.5,0.9-9,1.3-13.6,1.3c-30,0-54.5-18.7-54.5-41.7s24.4-41.7,54.5-41.7s54.5,18.7,54.5,41.7
	c0,13.6-8.6,26.3-23.1,34.1l17.8,59.1L99.1,202.9z M114.7,194.8c14.2-7.3,22.6-19.4,22.6-32.3c0-21.6-23.3-39.1-51.9-39.1
	s-51.9,17.5-51.9,39.1s23.3,39.1,51.9,39.1c4.7,0,9.4-0.5,14-1.5l0.3,1.2l0.9-0.6l26.4,39.2l-13.1-43.6l1.2-0.4L114.7,194.8z"/>
<rect x="19.4" y="151.4" class="st5" width="84.5" height="4.8"/>
<rect x="19.4" y="160" class="st5" width="84.5" height="4.8"/>
<rect x="19.4" y="168.7" class="st5" width="84.5" height="4.8"/>
<path class="st3" d="M176.2,188.5c0,0-0.6-0.5-1.8-1.4l0.4-0.4c1.1,0.9,1.7,1.4,1.8,1.4L176.2,188.5z"/>
<path class="st3" d="M171.1,184.2c-1.1-1-2.2-2-3.3-3l0.4-0.4c1.1,1,2.2,2,3.3,3L171.1,184.2z M164.6,178.1c-1.1-1-2.1-2.1-3.1-3.1
	l0.4-0.4c1,1,2.1,2.1,3.1,3.1L164.6,178.1z M158.4,171.8c-1-1.1-2-2.2-3-3.3l0.4-0.4c0.9,1.1,1.9,2.2,3,3.3L158.4,171.8z
	 M152.6,165.1c-0.9-1.1-1.9-2.3-2.8-3.5l0.4-0.4c0.9,1.2,1.8,2.3,2.8,3.4L152.6,165.1z M147.1,158.1c-0.9-1.2-1.8-2.4-2.6-3.6
	l0.5-0.3c0.8,1.2,1.7,2.4,2.6,3.6L147.1,158.1z M142.1,150.7c-0.8-1.3-1.5-2.6-2.3-3.8l0.5-0.3c0.7,1.3,1.5,2.6,2.2,3.8L142.1,150.7
	z M137.8,142.9c-0.7-1.4-1.3-2.7-1.9-4l0.5-0.2c0.6,1.3,1.2,2.7,1.9,4L137.8,142.9z M134.3,134.7c-0.5-1.4-1-2.9-1.4-4.2l0.5-0.2
	c0.4,1.4,0.8,2.8,1.4,4.2L134.3,134.7z M131.8,126.1c-0.3-1.5-0.5-3-0.7-4.4l0.6-0.1c0.1,1.4,0.4,2.9,0.7,4.4L131.8,126.1z
	 M130.8,117.3c0-0.2,0-0.5,0-0.7c0-1.3,0.1-2.5,0.2-3.8h0.6c-0.1,1.2-0.2,2.5-0.2,3.7v0.7L130.8,117.3z M132.2,108.5l-0.6-0.1
	c0.3-1.5,0.7-2.9,1.1-4.3l0.5,0.2C132.8,105.6,132.5,107.1,132.2,108.5L132.2,108.5z M134.8,100.1l-0.5-0.2c0.6-1.4,1.3-2.7,2-4
	l0.5,0.3C136.1,97.5,135.4,98.8,134.8,100.1L134.8,100.1z M139.1,92.5l-0.5-0.3c0.8-1.2,1.7-2.4,2.7-3.5l0.4,0.4
	C140.9,90.1,140,91.3,139.1,92.5L139.1,92.5z M144.7,85.7l-0.4-0.4c1-1,2.1-2.1,3.2-3.1l0.4,0.4C146.8,83.6,145.8,84.6,144.7,85.7
	L144.7,85.7z M151.3,79.8l-0.4-0.4c1.1-0.9,2.3-1.8,3.6-2.7l0.3,0.5C153.6,78,152.5,78.9,151.3,79.8L151.3,79.8z M158.5,74.7
	l-0.3-0.5c1.2-0.8,2.5-1.6,3.8-2.3l0.3,0.5C161,73.1,159.7,73.9,158.5,74.7L158.5,74.7z M166.1,70.2l-0.3-0.5c1.2-0.7,2.6-1.3,4-2
	l0.3,0.5C168.7,68.9,167.4,69.5,166.1,70.2L166.1,70.2z M174.1,66.3l-0.2-0.5c1.3-0.6,2.7-1.2,4.1-1.8l0.2,0.5
	C176.8,65.1,175.4,65.7,174.1,66.3L174.1,66.3z M182.2,62.9l-0.2-0.5c1.4-0.5,2.8-1.1,4.1-1.6l0.2,0.5
	C185,61.8,183.6,62.3,182.2,62.9L182.2,62.9z M190.6,59.8l-0.2-0.5c1.4-0.5,2.8-0.9,4.2-1.4l0.2,0.5C193.4,58.9,192,59.3,190.6,59.8
	z"/>
<path class="st3" d="M199.1,57.1l-0.2-0.5l2.2-0.7l0.2,0.6L199.1,57.1z"/>
</svg>
