<?xml version="1.0" encoding="UTF-8"?> <svg xmlns="http://www.w3.org/2000/svg" width="164" height="21" viewBox="0 0 164 21" fill="none"><path d="M0 0.0557861H14.7423L13.3888 4.27319H9.56494V18.9809V19.8611H4.79975V4.27319H0.563739H0.00265971L0 0.0557861Z" fill="black"></path><path d="M39.2888 0.0557861H54.3715L53.018 4.27319H48.8618V18.9809V19.8717H44.0886V4.27319H39.8526H39.2942L39.2888 0.0557861Z" fill="black"></path><path d="M15.6411 6.78615V6.35803H20.3664L20.3691 6.78615L20.3744 18.6193L20.3611 19.8612H15.6677V19.1884L15.6411 6.78615Z" fill="black"></path><path d="M22.64 0.93602V0H27.3227V0.797743V9.21127L32.0427 4.62159H37.6801L31.7608 10.3653L38.3901 19.8478H33.1861L28.7613 13.2744L27.3599 14.6359V19.8611H22.6559V19.4383L22.64 0.93602Z" fill="black"></path><path d="M71.1427 0.93602V0H75.8148V0.797743V9.21127L80.5375 4.62159H86.1722L80.2529 10.3653L86.8875 19.8611H81.6862L77.2614 13.2744L75.86 14.6359V19.8611H71.1587V19.4383L71.1427 0.93602Z" fill="black"></path><path d="M68.4703 8.59172C68.0639 7.63794 67.479 6.77059 66.7471 6.03628C66.012 5.3057 65.1412 4.72578 64.1837 4.32911C64.0933 4.28923 64.0029 4.25466 63.9178 4.22009L63.8168 4.18286L63.6466 4.12436L63.5163 4.08181L63.3807 4.03927L63.2238 3.99406H63.1653C62.9366 3.9329 62.7079 3.88238 62.4739 3.84249H62.45L62.2027 3.80526C62.0218 3.78133 61.8437 3.76006 61.6708 3.74676C61.5352 3.74676 61.4049 3.73081 61.2613 3.72815H61.0539H60.8598C60.7109 3.72815 60.5646 3.72815 60.4157 3.74942C60.1043 3.77248 59.7944 3.81332 59.4877 3.87174L59.3335 3.90099L59.1952 3.93024L58.8814 4.00736C58.2027 4.18876 57.5503 4.45688 56.9402 4.8051C56.3445 5.14742 55.7964 5.56675 55.3102 6.05224C54.3211 7.03631 53.6085 8.26341 53.244 9.61017C52.8593 11.033 52.8593 12.5324 53.244 13.9552C53.4297 14.6332 53.7032 15.284 54.0577 15.8911C54.7542 17.086 55.7493 18.0793 56.9455 18.7736C57.5552 19.1228 58.2077 19.3909 58.8867 19.5713L59.2244 19.6538L59.3414 19.6777L59.5675 19.7202C59.6131 19.7308 59.6592 19.7388 59.7057 19.7442L59.9397 19.7787L60.0567 19.7947C60.1817 19.7947 60.3067 19.8213 60.4317 19.8293C60.5567 19.8372 60.7481 19.8479 60.9077 19.8505H61.2081C61.3677 19.8505 61.5272 19.8505 61.6841 19.8293C61.841 19.808 61.982 19.8027 62.1282 19.7841C62.2239 19.7841 62.317 19.7575 62.4101 19.7442L62.5643 19.7149L62.7611 19.6777L62.8861 19.6511C62.9924 19.6245 63.1015 19.6006 63.2078 19.5713C63.8821 19.3894 64.5301 19.1213 65.1357 18.7736C66.3274 18.0718 67.3169 17.0732 68.0076 15.8751C68.3601 15.2674 68.6327 14.6168 68.8186 13.9393C69.2974 12.1673 69.1749 10.2866 68.4703 8.59172ZM64.8166 12.8277C64.7268 13.1564 64.5945 13.472 64.423 13.7664C64.2557 14.0577 64.051 14.3259 63.8141 14.5642C63.5753 14.8004 63.3072 15.0051 63.0164 15.1731C62.722 15.3421 62.4075 15.4735 62.0803 15.564C61.7883 15.641 61.4887 15.6855 61.1869 15.697H61.038C60.8216 15.6964 60.6056 15.6795 60.3918 15.6464C60.2539 15.625 60.1173 15.5966 59.9823 15.5613C59.6524 15.4713 59.3352 15.34 59.0383 15.1704C58.7474 15.0024 58.4793 14.7978 58.2405 14.5615C58.0028 14.324 57.798 14.0557 57.6316 13.7638C57.2793 13.1584 57.0957 12.4698 57.0998 11.7694C57.0978 11.0685 57.2813 10.3795 57.6316 9.77238C57.8 9.48178 58.0046 9.21372 58.2405 8.97464C58.4787 8.7384 58.7469 8.53456 59.0383 8.36835C59.3342 8.19926 59.6505 8.06878 59.9796 7.98012C60.1179 7.94289 60.2455 7.9163 60.4024 7.89236C60.6118 7.86017 60.8234 7.84417 61.0353 7.8445H61.2108C61.6762 7.86156 62.1347 7.96245 62.5643 8.14232C63.5036 8.53231 64.2516 9.27648 64.6464 10.2138C64.9892 11.0372 65.0482 11.9512 64.8139 12.8118L64.8166 12.8277Z" fill="black"></path><path d="M18.0077 4.81034C19.3207 4.81034 20.385 3.74599 20.385 2.43306C20.385 1.12013 19.3207 0.0557861 18.0077 0.0557861C16.6948 0.0557861 15.6305 1.12013 15.6305 2.43306C15.6305 3.74599 16.6948 4.81034 18.0077 4.81034Z" fill="black"></path><path d="M92.6046 9.28571C93.7061 9.28571 94.599 8.39281 94.599 7.29135C94.599 6.1899 93.7061 5.297 92.6046 5.297C91.5032 5.297 90.6103 6.1899 90.6103 7.29135C90.6103 8.39281 91.5032 9.28571 92.6046 9.28571Z" fill="#FA2D6C"></path><path d="M92.6046 15.1358C93.7061 15.1358 94.599 14.2429 94.599 13.1415C94.599 12.04 93.7061 11.1471 92.6046 11.1471C91.5032 11.1471 90.6103 12.04 90.6103 13.1415C90.6103 14.2429 91.5032 15.1358 92.6046 15.1358Z" fill="#22D5EC"></path><path d="M99.3855 4.14557C99.3827 3.62614 99.4825 3.11127 99.6793 2.63054C99.876 2.1498 100.166 1.71268 100.532 1.34427C100.898 0.975858 101.334 0.683425 101.813 0.483759C102.293 0.284094 102.807 0.18113 103.326 0.180787C103.944 0.175847 104.555 0.319388 105.106 0.599342C105.657 0.879296 106.133 1.28748 106.493 1.78957L105.299 2.65911C105.088 2.34662 104.803 2.09144 104.469 1.91647C104.134 1.7415 103.762 1.65221 103.385 1.65661C103.057 1.65574 102.731 1.71953 102.428 1.84434C102.124 1.96915 101.848 2.15253 101.615 2.38403C101.145 2.85154 100.88 3.48663 100.879 4.14956C100.877 4.81249 101.138 5.44898 101.606 5.91899C102.074 6.389 102.709 6.65404 103.372 6.6558C103.752 6.66223 104.128 6.5728 104.465 6.39575C104.802 6.2187 105.089 5.95972 105.299 5.64267L106.493 6.52285C106.13 7.02073 105.653 7.42503 105.102 7.70243C104.552 7.97984 103.943 8.12239 103.326 8.11833C102.806 8.11764 102.292 8.01418 101.812 7.81389C101.332 7.6136 100.896 7.32044 100.53 6.95126C100.164 6.58207 99.8741 6.14414 99.6777 5.66264C99.4813 5.18114 99.382 4.66558 99.3855 4.14557Z" fill="black"></path><path d="M111.245 2.81608L110.908 4.23341C110.676 4.10601 110.416 4.04009 110.152 4.04195C109.4 4.04195 108.881 4.7413 108.881 6.2384V8.0413H107.405V2.78151H108.871V3.8957C109.163 3.01818 109.759 2.6459 110.413 2.6459C110.7 2.63771 110.985 2.69596 111.245 2.81608Z" fill="black"></path><path d="M116.981 5.87939H113.016C113.173 6.48834 113.668 6.82605 114.378 6.82605C114.635 6.83042 114.891 6.7806 115.127 6.67981C115.364 6.57902 115.577 6.42953 115.753 6.24104L116.619 7.10792C116.125 7.7727 115.199 8.13169 114.277 8.13169C112.665 8.13169 111.482 7.02814 111.482 5.40607C111.482 3.70421 112.766 2.64587 114.277 2.64587C115.787 2.64587 117.002 3.70953 117.002 5.30502C117.002 5.46191 116.992 5.64273 116.981 5.87939ZM115.526 4.9221C115.481 4.30252 114.963 3.93024 114.298 3.93024C113.999 3.90773 113.703 3.99667 113.467 4.17986C113.23 4.36306 113.069 4.62751 113.016 4.9221H115.526Z" fill="black"></path><path d="M123.459 2.7815V8.03065H121.988V7.3765C121.616 7.90833 120.885 8.1317 120.297 8.1317C118.946 8.1317 117.718 7.08399 117.718 5.39544C117.718 3.70688 118.946 2.65918 120.297 2.65918C120.906 2.65918 121.627 2.88255 121.988 3.41172V2.7815H123.459ZM121.938 5.39544C121.938 5.12552 121.859 4.86152 121.709 4.63684C121.559 4.41216 121.347 4.2369 121.097 4.13324C120.848 4.02958 120.574 4.00219 120.309 4.05453C120.044 4.10686 119.801 4.23657 119.61 4.42724C119.419 4.61792 119.289 4.86098 119.236 5.12567C119.183 5.39036 119.21 5.66478 119.313 5.9142C119.416 6.16361 119.591 6.37682 119.815 6.52683C120.04 6.67685 120.304 6.75692 120.574 6.75692C120.753 6.75798 120.93 6.7235 121.096 6.65549C121.262 6.58747 121.413 6.48727 121.54 6.36067C121.666 6.23407 121.767 6.08358 121.835 5.9179C121.904 5.75223 121.938 5.57465 121.938 5.39544Z" fill="black"></path><path d="M127.929 3.91954H126.815V8.03057H125.339V3.91954H124.381V2.78142H125.339V0.856201H126.815V2.78142H127.929V3.91954Z" fill="black"></path><path d="M128.346 5.39543C128.346 3.72814 129.676 2.64587 131.173 2.64587C132.67 2.64587 134.002 3.72814 134.002 5.39543C134.002 7.06271 132.673 8.13169 131.173 8.13169C129.673 8.13169 128.346 7.05207 128.346 5.39543ZM132.502 5.39543C132.496 5.13391 132.413 4.88006 132.263 4.66566C132.113 4.45125 131.903 4.28581 131.66 4.19005C131.417 4.09429 131.15 4.07247 130.894 4.12732C130.639 4.18217 130.405 4.31125 130.222 4.4984C130.039 4.68555 129.916 4.92246 129.867 5.17947C129.818 5.43647 129.846 5.70214 129.948 5.94324C130.049 6.18433 130.22 6.39013 130.438 6.53486C130.656 6.6796 130.911 6.75684 131.173 6.75691C131.351 6.75919 131.527 6.72529 131.692 6.65727C131.856 6.58924 132.005 6.48851 132.13 6.36119C132.254 6.23387 132.351 6.08261 132.415 5.9166C132.479 5.75058 132.509 5.57327 132.502 5.39543Z" fill="black"></path><path d="M138.89 2.81608L138.552 4.23341C138.321 4.10634 138.061 4.04044 137.797 4.04195C137.042 4.04195 136.526 4.7413 136.526 6.2384V8.0413H135.05V2.78151H136.512V3.8957C136.805 3.01818 137.403 2.6459 138.057 2.6459C138.344 2.63771 138.629 2.69596 138.89 2.81608Z" fill="black"></path><path d="M107.214 19.0448L106.65 14.237L104.757 18.1673H103.528L101.614 14.237L101.053 19.0448H99.4573L100.415 11.2854H101.744L104.137 16.375L106.515 11.2854H107.865L108.812 19.0448H107.214Z" fill="black"></path><path d="M115.34 13.8063V19.0448H113.865V18.3933C113.495 18.9092 112.761 19.1459 112.176 19.1459C110.825 19.1459 109.597 18.0982 109.597 16.4096C109.597 14.721 110.825 13.6733 112.176 13.6733C112.785 13.6733 113.506 13.8967 113.865 14.4285V13.8063H115.34ZM113.819 16.4202C113.819 16.1503 113.739 15.8865 113.589 15.6621C113.439 15.4377 113.226 15.2629 112.977 15.1597C112.727 15.0565 112.453 15.0297 112.188 15.0825C111.923 15.1354 111.68 15.2655 111.49 15.4566C111.299 15.6476 111.169 15.8909 111.117 16.1557C111.065 16.4205 111.092 16.6949 111.196 16.9441C111.299 17.1933 111.475 17.4062 111.699 17.5558C111.924 17.7053 112.188 17.7849 112.458 17.7844C112.638 17.7858 112.817 17.7512 112.984 17.6825C113.151 17.6138 113.303 17.5125 113.43 17.3844C113.558 17.2564 113.658 17.1042 113.726 16.9368C113.794 16.7694 113.827 16.5901 113.825 16.4096L113.819 16.4202Z" fill="black"></path><path d="M120.563 13.8302L120.225 15.2396C119.994 15.1107 119.734 15.0438 119.47 15.0455C118.715 15.0455 118.196 15.7448 118.196 17.2446V19.0448H116.72V13.8063H118.186V14.9231C118.478 14.043 119.076 13.6707 119.728 13.6707C120.015 13.6587 120.301 13.7133 120.563 13.8302Z" fill="black"></path><path d="M124.573 19.0448L122.711 16.7712V19.0448H121.236V10.9902H122.711V15.4018L124.041 13.8063H125.934L123.884 16.1171L126.394 19.0421L124.573 19.0448Z" fill="black"></path><path d="M131.792 16.8936H127.838C127.995 17.5025 128.492 17.8402 129.202 17.8402C129.46 17.8451 129.715 17.7955 129.952 17.6947C130.189 17.5939 130.402 17.4441 130.577 17.2552L131.444 18.1221C130.947 18.7869 130.024 19.1458 129.101 19.1458C127.49 19.1458 126.307 18.0423 126.307 16.4202C126.307 14.721 127.591 13.66 129.101 13.66C130.612 13.66 131.827 14.7237 131.827 16.3192C131.827 16.4654 131.803 16.6569 131.792 16.8936ZM130.341 15.9363C130.295 15.3167 129.777 14.9444 129.112 14.9444C128.815 14.9244 128.522 15.0142 128.287 15.1966C128.052 15.3789 127.892 15.6412 127.838 15.9336L130.341 15.9363Z" fill="black"></path><path d="M135.861 14.9338H134.752V19.0448H133.276V14.9338H132.319V13.8063H133.276V11.8811H134.752V13.8063H135.869L135.861 14.9338Z" fill="black"></path><path d="M142.464 16.4096C142.464 18.0981 141.235 19.1458 139.884 19.1458C139.286 19.1458 138.555 18.9225 138.193 18.3933V20.845H136.717V13.8063H138.193V14.4391C138.397 14.19 138.656 13.9911 138.949 13.8578C139.242 13.7246 139.562 13.6605 139.884 13.6707C141.222 13.66 142.464 14.721 142.464 16.4096ZM140.953 16.4096C140.955 16.1401 140.876 15.8763 140.728 15.6517C140.579 15.427 140.367 15.2516 140.118 15.1478C139.869 15.0439 139.596 15.0163 139.331 15.0685C139.067 15.1207 138.824 15.2503 138.634 15.4408C138.443 15.6313 138.313 15.8741 138.261 16.1385C138.209 16.4028 138.237 16.6767 138.341 16.9253C138.444 17.1739 138.62 17.386 138.844 17.5347C139.069 17.6834 139.333 17.762 139.602 17.7604C139.779 17.7615 139.955 17.7272 140.119 17.6595C140.282 17.5919 140.431 17.4922 140.555 17.3664C140.68 17.2405 140.778 17.0911 140.844 16.9268C140.91 16.7625 140.943 16.5866 140.94 16.4096H140.953Z" fill="black"></path><path d="M143.509 10.9902H144.984V19.0448H143.509V10.9902Z" fill="black"></path><path d="M151.789 13.8063V19.0448H150.313V18.3933C149.941 18.9092 149.207 19.1459 148.622 19.1459C147.271 19.1459 146.043 18.0982 146.043 16.4096C146.043 14.721 147.271 13.6733 148.622 13.6733C149.231 13.6733 149.952 13.8967 150.313 14.4285V13.8063H151.789ZM150.268 16.4202C150.268 16.1504 150.188 15.8867 150.038 15.6624C149.888 15.438 149.675 15.2632 149.426 15.1599C149.177 15.0567 148.903 15.0297 148.638 15.0823C148.373 15.1349 148.13 15.2649 147.939 15.4556C147.749 15.6464 147.619 15.8895 147.566 16.1541C147.513 16.4187 147.54 16.693 147.644 16.9423C147.747 17.1915 147.922 17.4046 148.146 17.5545C148.37 17.7044 148.634 17.7844 148.904 17.7844C149.084 17.7855 149.263 17.7505 149.43 17.6817C149.596 17.6129 149.748 17.5115 149.875 17.3835C150.002 17.2554 150.102 17.1034 150.17 16.9362C150.237 16.7689 150.271 16.5899 150.268 16.4096V16.4202Z" fill="black"></path><path d="M152.834 16.3989C152.834 14.7316 154.185 13.66 155.717 13.66C156.15 13.6556 156.578 13.7558 156.964 13.9521C157.35 14.1483 157.683 14.4349 157.934 14.7875L156.823 15.5639C156.691 15.3975 156.524 15.2632 156.332 15.1711C156.141 15.0789 155.932 15.0314 155.719 15.0321C155.356 15.0321 155.008 15.1764 154.751 15.4332C154.494 15.69 154.35 16.0384 154.35 16.4016C154.35 16.7648 154.494 17.1131 154.751 17.3699C155.008 17.6267 155.356 17.771 155.719 17.771C155.932 17.7717 156.141 17.7242 156.332 17.6321C156.524 17.54 156.691 17.4056 156.823 17.2392L157.927 18.0157C157.677 18.3697 157.344 18.6572 156.957 18.8533C156.571 19.0493 156.142 19.1479 155.709 19.1405C154.188 19.1458 152.834 18.0609 152.834 16.3989Z" fill="black"></path><path d="M163.965 16.8936H160.014C160.171 17.5025 160.668 17.8402 161.375 17.8402C161.633 17.8456 161.889 17.7962 162.126 17.6954C162.363 17.5945 162.576 17.4445 162.75 17.2552L163.617 18.1221C163.122 18.7869 162.2 19.1458 161.274 19.1458C159.663 19.1458 158.482 18.0423 158.482 16.4202C158.482 14.721 159.767 13.66 161.274 13.66C162.782 13.66 164 14.7237 164 16.3192C163.987 16.4654 163.976 16.6569 163.965 16.8936ZM162.511 15.9363C162.468 15.3167 161.95 14.9444 161.285 14.9444C160.989 14.9245 160.695 15.0144 160.461 15.1968C160.227 15.3792 160.067 15.6414 160.014 15.9336L162.511 15.9363Z" fill="black"></path></svg> 