<svg xmlns="http://www.w3.org/2000/svg" xml:space="preserve" width="42px" height="39px" version="1.1" style="shape-rendering:geometricPrecision; text-rendering:geometricPrecision; image-rendering:optimizeQuality; fill-rule:evenodd; clip-rule:evenodd" viewBox="0 0 420 390" xmlns:xlink="http://www.w3.org/1999/xlink">
 <defs>
 </defs>
 <g id="Layer_x0020_1">
  <metadata id="CorelCorpID_0Corel-Layer"></metadata>
  <path class="fil0social" d="M416 69c-14,6 -31,10 -48,14 17,-12 31,-27 38,-47 -17,9 -35,17 -55,20 -15,-17 -37,-26 -62,-26 -46,0 -84,37 -84,84 0,6 1,12 2,18 -70,-3 -133,-36 -174,-88 -8,14 -13,27 -13,43 0,29 16,54 38,70 -14,-1 -26,-4 -38,-12 0,2 0,2 0,3 0,10 2,20 5,29 11,26 34,46 63,52 -7,2 -14,3 -22,3 -6,0 -11,-1 -16,-2 10,33 41,58 79,59 -29,22 -65,35 -106,35 -6,0 -13,0 -19,-1 37,24 81,37 130,37 132,0 213,-92 235,-187 4,-16 6,-34 6,-50 0,-3 0,-7 0,-11 15,-12 31,-26 41,-43l0 0 0 0z"></path>
 </g>
</svg>