<svg xmlns="http://www.w3.org/2000/svg" xml:space="preserve" width="42px" height="39px" version="1.1" style="shape-rendering:geometricPrecision; text-rendering:geometricPrecision; image-rendering:optimizeQuality; fill-rule:evenodd; clip-rule:evenodd" viewBox="0 0 420 390" xmlns:xlink="http://www.w3.org/1999/xlink">
 <defs>
 </defs>
 <g id="Layer_x0020_1">
  <metadata id="CorelCorpID_0Corel-Layer"></metadata>
  <path class="fil0social" d="M280 190l-114 61 0 -122 52 27 62 34zm135 -82c0,0 -4,-31 -17,-44 -16,-17 -33,-17 -41,-19 -59,-4 -147,-4 -147,-4l0 0c0,0 -88,0 -147,4 -8,2 -25,2 -41,19 -13,13 -17,44 -17,44 0,0 -4,35 -4,70l0 34c0,35 4,70 4,70 0,0 4,30 17,44 16,17 36,17 46,18 33,4 142,5 142,5 0,0 88,0 147,-5 8,-1 25,-1 41,-18 13,-14 17,-44 17,-44 0,0 4,-35 4,-70l0 -34c0,-35 -4,-70 -4,-70l0 0 0 0z"></path>
 </g>
</svg>